g MainMenu_SpaceShip_ElysionBoss_Leaves04
v -0.4850369 -0.011024475 -4.9753413E-07
v -0.49622053 0.87670773 -3.5148358E-07
v 0.45897198 0.89140713 -3.4844226E-07
v 0.47387588 3.0517577E-07 -4.952531E-07
v -0.4738533 -0.8987561 -6.4358466E-07
v 0.48877978 -0.89140683 -6.420641E-07
v -0.46266967 -1.7864887 -7.8963524E-07
v 0.50368375 -1.7828143 -7.88875E-07
v -0.45148605 -2.674221 -9.3568593E-07
v 0.51858765 -2.674221 -9.3568593E-07
v 0.444068 1.7828143 -2.0163134E-07
v -0.50740415 1.76444 -2.0543303E-07
v -0.51858777 2.652172 -5.9382437E-08
v 0.4291641 2.6742215 -5.482041E-08
vt 0.43147582 0.19022833
vt 0.430677 0.2536378
vt 0.49890503 0.25468776
vt 0.4999696 0.19101581
vt 0.43227467 0.1268189
vt 0.5010342 0.12734388
vt 0.43307352 0.06340942
vt 0.50209874 0.06367194
vt 0.43387234 1.7093747E-27
vt 0.50316334 -3.6379788E-10
vt 0.49784046 0.3183597
vt 0.42987815 0.3170472
vt 0.42907932 0.38045666
vt 0.4967759 0.38203162
vn -0 -1.6461567E-07 1
vn -0 -1.6461807E-07 1
vn -0 -1.6461807E-07 1
vn -0 -1.6461568E-07 1
vn -0 -1.6461325E-07 1
vn -0 -1.6461325E-07 1
vn -0 -1.646109E-07 1
vn -0 -1.646109E-07 1
vn -0 -1.6460979E-07 1
vn -0 -1.6460979E-07 1
vn -0 -1.646205E-07 1
vn -0 -1.646205E-07 1
vn -0 -1.6462172E-07 1
vn -0 -1.6462174E-07 1
g MainMenu_SpaceShip_ElysionBoss_Leaves04_0
f 3/3/3 2/2/2 1/1/1
f 4/4/4 3/3/3 1/1/1
f 4/4/4 1/1/1 5/5/5
f 6/6/6 4/4/4 5/5/5
f 6/6/6 5/5/5 7/7/7
f 8/8/8 6/6/6 7/7/7
f 8/8/8 7/7/7 9/9/9
f 10/10/10 8/8/8 9/9/9
f 2/2/2 3/3/3 11/11/11
f 12/12/12 2/2/2 11/11/11
f 13/13/13 12/12/12 11/11/11
f 14/14/14 13/13/13 11/11/11
