g MainMenu_SpaceShip_ElysionBoss_Leaves05
v -0.4181626 -0.26971006 -4.108373E-07
v -0.3247997 0.25762695 -2.583712E-07
v 0.35830826 0.26487732 -2.568711E-07
v 0.47181663 -0.26487702 -4.098373E-07
v -0.26511163 -0.79704773 -5.633036E-07
v 0.33891082 -0.7946307 -5.6280345E-07
v -0.13854137 -1.3243847 -7.157696E-07
v 0.23248641 -1.3243847 -7.157696E-07
v 0.44904816 0.794631 -1.03904966E-07
v -0.4356848 0.78496426 -1.05905016E-07
v 0.4650347 1.324385 4.9061253E-08
v -0.4718167 1.3123016 4.656118E-08
vt 0.50789356 0.25423262
vt 0.5145623 0.29189956
vt 0.5633558 0.2924174
vt 0.5714635 0.25457782
vt 0.51882577 0.21656567
vt 0.56197023 0.21673825
vt 0.5278665 0.1788987
vt 0.5543685 0.17889869
vt 0.5698373 0.33025694
vt 0.5066419 0.3295665
vt 0.57097906 0.36809653
vt 0.5040611 0.36723346
vn -0 -2.8892674E-07 1
vn -0 -2.8892214E-07 1
vn -0 -2.8892214E-07 1
vn -0 -2.8892686E-07 1
vn -0 -2.8893064E-07 1
vn -0 -2.889306E-07 1
vn -0 -2.8893263E-07 1
vn -0 -2.8893263E-07 1
vn -0 -2.8891878E-07 1
vn -0 -2.8891878E-07 1
vn -0 -2.88918E-07 1
vn -0 -2.88918E-07 1
g MainMenu_SpaceShip_ElysionBoss_Leaves05_0
f 3/3/3 2/2/2 1/1/1
f 4/4/4 3/3/3 1/1/1
f 4/4/4 1/1/1 5/5/5
f 6/6/6 4/4/4 5/5/5
f 6/6/6 5/5/5 7/7/7
f 8/8/8 6/6/6 7/7/7
f 2/2/2 3/3/3 9/9/9
f 10/10/10 2/2/2 9/9/9
f 10/10/10 9/9/9 11/11/11
f 12/12/12 10/10/10 11/11/11
