g MainMenu_ElysionBoss_Near02_04
v 0.00013671875 -3.7040317 -6.6093185E-07
v 0.00013916015 -4.9710956 -8.6427616E-07
v -27.76484 -4.345572 -7.673444E-07
v -27.779842 -2.9847574 -5.477713E-07
v 0.00012939452 6.1035155E-07 -3.6379787E-14
v -27.852959 2.8241315 4.863069E-07
v -27.758091 -4.7131085 -8.5544633E-07
v 0.00014038086 -5.219901 -9.3141705E-07
v -19.264517 -6.59811 -1.1868094E-06
v -27.738169 -6.295957 -1.1372194E-06
v -5.8753943 -7.04943 -1.2605125E-06
v 0.00014282226 -6.786158 -1.2108936E-06
v -9.072237 -9.343634 -1.6710375E-06
v -16.481384 -8.5914345 -1.5406758E-06
v -14.209213 -39.206047 -6.9957605E-06
v -22.348532 -39.206055 -6.9957605E-06
vt 0.6221771 0.42008764
vt 0.62201875 0.4070948
vt 0.3237168 0.41190356
vt 0.32371628 0.42591995
vt 0.62271136 0.4639087
vt 0.32371384 0.49422562
vt 0.32371703 0.40559655
vt 0.6219585 0.40215394
vt 0.41474086 0.38419923
vt 0.32371768 0.38698414
vt 0.5585691 0.3801059
vt 0.6217326 0.3836241
vt 0.52390414 0.35283622
vt 0.44437551 0.3609643
vt 0.46451822 3.659521E-05
vt 0.3771425 1.388332E-05
vn -0 -1.6941773E-07 1
vn -0 -2.0707012E-07 1
vn -0 -2.0533764E-07 1
vn -0 -1.6976668E-07 1
vn -0 -1.7818418E-07 1
vn -0 -1.7818417E-07 1
vn -0 -2.1576207E-07 1
vn -0 -2.1471332E-07 1
vn -0 -1.7816832E-07 1
vn -0 -1.7802274E-07 1
vn -0 -1.7819536E-07 1
vn -0 -1.784359E-07 1
vn -0 -1.7822227E-07 1
vn -0 -1.7822211E-07 1
vn -0 -1.7820321E-07 1
vn -0 -1.782032E-07 1
g MainMenu_ElysionBoss_Near02_04_0
f 3/3/3 2/2/2 1/1/1
f 4/4/4 3/3/3 1/1/1
f 4/4/4 1/1/1 5/5/5
f 6/6/6 4/4/4 5/5/5
f 3/3/3 7/7/7 2/2/2
f 7/7/7 8/8/8 2/2/2
f 7/7/7 9/9/9 8/8/8
f 10/10/10 9/9/9 7/7/7
f 9/9/9 11/11/11 8/8/8
f 8/8/8 11/11/11 12/12/12
f 13/13/13 11/11/11 9/9/9
f 14/14/14 13/13/13 9/9/9
f 15/15/15 13/13/13 14/14/14
f 16/16/16 15/15/15 14/14/14
