g MainMenu_ElysionBoss_Near01_06
v -0.8873139 -0.07906494 -1.3162495E-06
v 7.3861 0.53509766 -1.2287794E-06
v 7.785597 -1.8489478 -1.8429465E-06
v -0.7514747 -2.5261817 -1.9259003E-06
v -9.272794 -1.933092 -1.8417742E-06
v -9.10124 0.52973634 -1.239712E-06
v -19.276154 0.2404126 -1.3830122E-06
v -17.932882 2.618164 -8.9166247E-07
v -19.813951 3.8735204 -7.226414E-07
v -25.423534 3.860669 -7.7513164E-07
v 14.47375 -0.48569578 -1.5893546E-06
v 13.848286 1.8414062 -1.0183352E-06
v 20.034023 1.4555322 -1.2474472E-06
v 18.650452 3.663291 -7.3183094E-07
v 25.53495 3.8735204 -7.226414E-07
vt 0.48262542 0.92260444
vt 0.6446272 0.9346303
vt 0.6524497 0.8879483
vt 0.48528534 0.87468743
vt 0.3184293 0.88630074
vt 0.32178855 0.93452543
vt 0.12255349 0.9288601
vt 0.1488561 0.9754189
vt 0.11202288 1
vt 0.0021816276 0.9997484
vt 0.78341043 0.9146422
vt 0.77116334 0.96020925
vt 0.89228624 0.9526534
vt 0.8651946 0.99588346
vt 1 1
vn -0 -2.494171E-07 1
vn -0 -2.5032364E-07 1
vn -0 -2.502533E-07 1
vn -0 -2.4960494E-07 1
vn -0 -2.3565723E-07 1
vn -0 -2.3450801E-07 1
vn -0 -2.017484E-07 1
vn -0 -2.0489524E-07 1
vn -0 -1.8397928E-07 1
vn -0 -1.8397928E-07 1
vn -0 -2.3895464E-07 1
vn -0 -2.3881313E-07 1
vn -0 -2.2979391E-07 1
vn -0 -2.2971251E-07 1
vn -0 -2.299827E-07 1
g MainMenu_ElysionBoss_Near01_06_0
f 3/3/3 2/2/2 1/1/1
f 4/4/4 3/3/3 1/1/1
f 5/5/5 4/4/4 1/1/1
f 6/6/6 5/5/5 1/1/1
f 7/7/7 5/5/5 6/6/6
f 8/8/8 7/7/7 6/6/6
f 7/7/7 8/8/8 9/9/9
f 10/10/10 7/7/7 9/9/9
f 2/2/2 3/3/3 11/11/11
f 12/12/12 2/2/2 11/11/11
f 12/12/12 11/11/11 13/13/13
f 14/14/14 12/12/12 13/13/13
f 15/15/15 14/14/14 13/13/13
