g MainMenu_SpaceShip_ElysionBoss_Leaves06
v -0.5932449 0.6776428 -2.8406228E-07
v 0.58752257 0.6889361 -2.8172573E-07
v 0.43395492 2.5746713E-23 -4.2047571E-07
v -0.4425383 -0.008469849 -4.2222823E-07
v 0.34812164 -0.6889361 -5.5922584E-07
v -0.35956603 -0.6945825 -5.603941E-07
v -0.30963257 -1.3806951 -6.9855986E-07
v 0.29532683 -1.3778716 -6.9797574E-07
v -0.26519957 -2.0668077 -8.367258E-07
v 0.24803253 -2.0668077 -8.367258E-07
v -0.5947249 1.3637555 -1.4589648E-07
v 0.5918637 1.377872 -1.4297576E-07
v -0.596205 2.049868 -7.730632E-09
v 0.5962048 2.066808 -4.225785E-09
vt 0.5931388 0.25280067
vt 0.6774794 0.25360736
vt 0.6665102 0.20439763
vt 0.60390365 0.20379263
vt 0.6603793 0.15518795
vt 0.60983014 0.15478458
vt 0.6133968 0.105776526
vt 0.6566083 0.10597822
vt 0.61657065 0.056768496
vt 0.6532301 0.056768492
vt 0.59303313 0.30180874
vt 0.67778945 0.30281705
vt 0.5929274 0.3508168
vt 0.6780995 0.35202676
vn -0 -2.013861E-07 1
vn -0 -2.0138611E-07 1
vn -0 -2.0138617E-07 1
vn -0 -2.0138617E-07 1
vn -0 -2.0138619E-07 1
vn -0 -2.0138617E-07 1
vn -0 -2.0138619E-07 1
vn -0 -2.0138621E-07 1
vn -0 -2.0138627E-07 1
vn -0 -2.0138627E-07 1
vn -0 -2.0138609E-07 1
vn -0 -2.0138606E-07 1
vn -0 -2.0138606E-07 1
vn -0 -2.0138604E-07 1
g MainMenu_SpaceShip_ElysionBoss_Leaves06_0
f 3/3/3 2/2/2 1/1/1
f 4/4/4 3/3/3 1/1/1
f 5/5/5 3/3/3 4/4/4
f 6/6/6 5/5/5 4/4/4
f 5/5/5 6/6/6 7/7/7
f 8/8/8 5/5/5 7/7/7
f 8/8/8 7/7/7 9/9/9
f 10/10/10 8/8/8 9/9/9
f 11/11/11 1/1/1 2/2/2
f 12/12/12 11/11/11 2/2/2
f 13/13/13 11/11/11 12/12/12
f 14/14/14 13/13/13 12/12/12
