g MainMenu_ElysionBoss_Near03_01
v -13.244851 5.0173693 6.301231E-07
v -19.232899 5.541783 7.155608E-07
v -17.058323 12.689292 1.880038E-06
v -12.101666 11.349135 1.6616989E-06
v -20.763859 3.2110736 3.3584016E-07
v -11.521284 2.0262916 1.4281466E-07
v -11.301349 4.2404704 5.0355015E-07
v -20.477657 5.7360125 7.4720487E-07
v -19.999893 -6.805486 -1.2960647E-06
v -22.52841 -6.7520742 -1.2873628E-06
v -22.52841 3.5157409 3.854768E-07
v -9.302919 -7.2833548 -1.3739192E-06
v -4.9019523 -7.448448 -1.4008164E-06
v -4.579935 -6.9620233 -1.3204481E-06
v -1.2795758 -6.956686 -1.3295077E-06
v -1.3578436 -7.533917 -1.4069592E-06
v -1.9820751 -8.157372 -1.5163148E-06
v -4.5382276 -7.8854556 -1.472014E-06
v -3.0517576E-06 -0.05670986 -1.7264432E-07
v 0.00049560546 -6.9978075 -1.3363649E-06
v 0.0005187988 -7.485577 -1.399084E-06
v -1.9235079 -8.623513 -1.5922589E-06
v -4.872443 -8.29333 -1.5384651E-06
v -2.6562054 -9.6432 -1.7583869E-06
v -4.646324 -9.429552 -1.7235792E-06
v -11.756776 -9.41013 -1.7204148E-06
v -18.227703 -9.272155 -1.6979359E-06
v -19.438906 -10.592891 -1.913111E-06
v -11.356763 -10.827978 -1.9514116E-06
v -19.897839 -9.301289 -1.7026824E-06
v -20.045818 -10.408378 -1.88305E-06
v -10.198939 -9.672333 -1.7631332E-06
v -10.707576 -10.8474 -1.9545757E-06
v -12.477797 -11.352387 -2.0368486E-06
v -18.853226 -11.054177 -1.988264E-06
v -13.553414 -16.834942 -2.9300707E-06
v -20.239807 -16.834942 -2.9300707E-06
v -19.474586 -11.044468 -1.986682E-06
v -11.526721 -11.352387 -2.0368486E-06
vt 0.2554544 0.6287593
vt 0.09003508 0.6438483
vt 0.14983203 0.8495044
vt 0.2873088 0.81094384
vt 0.04812145 0.5767864
vt 0.30351532 0.5426967
vt 0.30966276 0.60640544
vt 0.05594534 0.6494368
vt 0.06901781 0.2885787
vt 0 0.29011554
vt 0 0.5855527
vt 0.365675 0.27482894
vt 0.49001867 0.27007875
vt 0.49917132 0.28407478
vt 0.5934144 0.28188458
vt 0.59117025 0.26951987
vt 0.573287 0.24968074
vt 0.5003574 0.2575046
vt 0.6301699 0.48439464
vt 0.63018477 0.28071183
vt 0.6301854 0.27091068
vt 0.57496357 0.23626837
vt 0.49085706 0.24576879
vt 0.5540069 0.20692885
vt 0.4972837 0.21307617
vt 0.2969367 0.21363503
vt 0.11763756 0.21760495
vt 0.084386244 0.17960326
vt 0.30811355 0.17283909
vt 0.0718121 0.21676669
vt 0.06776055 0.18491232
vt 0.34052688 0.20609055
vt 0.32627615 0.17228022
vt 0.27681816 0.15775022
vt 0.10045305 0.1663306
vt 0.24687162 0
vt 0.0624515 0
vt 0.08340819 0.16661003
vt 0.30336332 0.15775016
vn -0 -1.6292068E-07 1
vn -0 -1.6292068E-07 1
vn -0 -1.629207E-07 1
vn -0 -1.6292068E-07 1
vn -0 -1.6292068E-07 1
vn -0 -1.6321567E-07 1
vn -0 -1.6292068E-07 1
vn -0 -1.6292068E-07 1
vn -0 -1.629207E-07 1
vn -0 -1.629207E-07 1
vn -0 -1.629207E-07 1
vn -0 -1.6347903E-07 1
vn -0 -1.6138661E-07 1
vn -0 -1.5940763E-07 1
vn -0 -1.538543E-07 1
vn -0 -1.4688398E-07 1
vn -0 -1.6676695E-07 1
vn -0 -1.6655143E-07 1
vn -0 -1.654208E-07 1
vn -0 -1.4926597E-07 1
vn -0 -1.3161362E-07 1
vn -0 -1.629207E-07 1
vn -0 -1.6292068E-07 1
vn -0 -1.6292071E-07 1
vn -0 -1.6292071E-07 1
vn -0 -1.629206E-07 1
vn -0 -1.629206E-07 1
vn -0 -1.629206E-07 1
vn -0 -1.629206E-07 1
vn -0 -1.6292053E-07 1
vn -0 -1.6292056E-07 1
vn -0 -1.629206E-07 1
vn -0 -1.629206E-07 1
vn -0 -1.6292071E-07 1
vn -0 -1.6292073E-07 1
vn -0 -1.6292073E-07 1
vn -0 -1.6292076E-07 1
vn -0 -1.6292073E-07 1
vn -0 -1.6292061E-07 1
g MainMenu_ElysionBoss_Near03_01_0
f 3/3/3 2/2/2 1/1/1
f 4/4/4 3/3/3 1/1/1
f 1/1/1 2/2/2 5/5/5
f 1/1/1 5/5/5 6/6/6
f 6/6/6 7/7/7 1/1/1
f 2/2/2 8/8/8 5/5/5
f 5/5/5 9/9/9 6/6/6
f 10/10/10 9/9/9 5/5/5
f 11/11/11 10/10/10 5/5/5
f 9/9/9 12/12/12 6/6/6
f 6/6/6 12/12/12 13/13/13
f 6/6/6 13/13/13 14/14/14
f 14/14/14 13/13/13 15/15/15
f 13/13/13 16/16/16 15/15/15
f 17/17/17 16/16/16 13/13/13
f 18/18/18 17/17/17 13/13/13
f 14/14/14 19/19/19 6/6/6
f 19/19/19 14/14/14 15/15/15
f 20/20/20 15/15/15 16/16/16
f 19/19/19 15/15/15 20/20/20
f 21/21/21 20/20/20 16/16/16
f 22/22/22 17/17/17 18/18/18
f 23/23/23 22/22/22 18/18/18
f 24/24/24 22/22/22 23/23/23
f 25/25/25 24/24/24 23/23/23
f 26/26/26 12/12/12 9/9/9
f 27/27/27 26/26/26 9/9/9
f 26/26/26 27/27/27 28/28/28
f 28/28/28 29/29/29 26/26/26
f 27/27/27 30/30/30 28/28/28
f 31/31/31 28/28/28 30/30/30
f 32/32/32 26/26/26 29/29/29
f 33/33/33 32/32/32 29/29/29
f 34/34/34 29/29/29 28/28/28
f 35/35/35 34/34/34 28/28/28
f 36/36/36 34/34/34 35/35/35
f 37/37/37 36/36/36 35/35/35
f 38/38/38 35/35/35 28/28/28
f 39/39/39 29/29/29 34/34/34
