g MainMenu_ElysionBoss_Near01_01
v -10.016327 5.4224353 -1.3284381E-06
v -13.648298 5.9823117 -1.2422337E-06
v -12.687522 11.816404 -3.2532117E-07
v -9.244969 10.865128 -4.648807E-07
v -8.290388 3.3905175 -1.633315E-06
v -14.908924 3.9749243 -1.5631863E-06
v -12.449739 -3.2952576 -2.8452116E-06
v -21.87944 4.7537346 -1.4605531E-06
v -21.87944 -3.1779003 -2.7527806E-06
v -13.610109 -7.626864 -3.4903685E-06
v -19.71625 -7.257047 -3.4321815E-06
v -7.645339 -4.809974 -3.1005748E-06
v -3.4361906 -3.3275023 -2.8757215E-06
v 5.8605413 2.176698 -1.8784258E-06
v 3.270157 -3.788181 -2.852208E-06
v 1.7090597 -7.6788025 -3.4860072E-06
v -2.9960632 -7.889403 -3.532456E-06
v 6.927783 -4.6576195 -3.0696647E-06
v 10.063855 1.8514721 -1.8828102E-06
v 8.956769 3.0192637 -1.6983876E-06
v 6.6376586 3.317423 -1.6877796E-06
v 6.907185 6.8808537 -1.1027863E-06
v 9.102512 6.4560437 -1.1844063E-06
v 10.349409 -3.7068114 -2.838951E-06
v 15.623433 -3.9143004 -2.939913E-06
v 10.830653 -7.591764 -3.480866E-06
v 14.305466 -7.8976817 -3.5217304E-06
v 15.815314 1.6648437 -1.9289819E-06
v 6.0152087 3.2966478 -1.6959629E-06
v 10.104957 2.9458618 -1.7306965E-06
v 18.370594 1.5229931 -1.9527884E-06
v 18.27645 -0.8860229 -2.5057457E-06
v 21.891338 0.98682857 -2.0054797E-06
v 21.621819 -0.6831677 -2.4488652E-06
v 13.936779 -11.816404 -4.160172E-06
v 10.872199 -11.816404 -4.160172E-06
v -8.0936365 5.2363853 -1.3811541E-06
v -14.621366 5.955857 -1.24339E-06
v -14.427941 -11.816404 -4.1601716E-06
v -20.10426 -11.811424 -4.159954E-06
v 0.878056 -11.775706 -4.1583926E-06
v -3.0366912 -11.71512 -4.1557446E-06
vt 0.23252463 0.33755377
vt 0.16140698 0.34851667
vt 0.18021995 0.4627541
vt 0.2476286 0.44412714
vt 0.26632023 0.297767
vt 0.13672268 0.30921003
vt 0.18487602 0.1668526
vt 0.00023300244 0.32445997
vt 0.00023300249 0.16915058
vt 0.16215484 0.08203539
vt 0.042590432 0.08927678
vt 0.27895102 0.1371929
vt 0.3613704 0.16622122
vt 0.5434097 0.27399898
vt 0.49268743 0.15720065
vt 0.4621196 0.08101837
vt 0.36998853 0.07689462
vt 0.5643074 0.14017616
vt 0.62571484 0.26763082
vt 0.60403705 0.2904973
vt 0.55862653 0.29633546
vt 0.5639041 0.3661111
vt 0.6068908 0.35779288
vt 0.63130623 0.15879396
vt 0.734577 0.15473112
vt 0.64072955 0.08272271
vt 0.70876986 0.07673251
vt 0.7383342 0.26397637
vt 0.5464383 0.29592872
vt 0.62651974 0.28906
vt 0.7883691 0.2611988
vt 0.7865257 0.21402785
vt 0.85730886 0.25070015
vt 0.8520314 0.21799996
vt 0.7015506 7.916242E-09
vt 0.64154303 1.2294799E-09
vt 0.27017283 0.33391073
vt 0.14235339 0.3479987
vt 0.14614083 0
vt 0.03499282 9.7481854E-05
vt 0.4458477 0.00079688756
vt 0.369193 0.0019832356
vn -0 -1.5029107E-07 1
vn -0 -1.580763E-07 1
vn -0 -1.5761837E-07 1
vn -0 -1.5761839E-07 1
vn -0 -1.6683032E-07 1
vn -0 -1.6794085E-07 1
vn -0 -1.7012867E-07 1
vn -0 -1.689075E-07 1
vn -0 -1.64069E-07 1
vn -0 -1.5821483E-07 1
vn -0 -1.5816106E-07 1
vn -0 -1.7866283E-07 1
vn -0 -1.6929917E-07 1
vn -0 -1.7100652E-07 1
vn -0 -1.6835473E-07 1
vn -0 -1.5616249E-07 1
vn -0 -1.5736806E-07 1
vn -0 -1.7369959E-07 1
vn -0 -1.6742473E-07 1
vn -0 -1.5802348E-07 1
vn -0 -1.6116523E-07 1
vn -0 -1.5671475E-07 1
vn -0 -1.5671476E-07 1
vn -0 -1.693761E-07 1
vn -0 -1.730943E-07 1
vn -0 -1.5875986E-07 1
vn -0 -1.5882644E-07 1
vn -0 -1.8664775E-07 1
vn -0 -1.6185106E-07 1
vn -0 -1.3971552E-07 1
vn -0 -2.1903138E-07 1
vn -0 -2.141801E-07 1
vn -0 -2.431541E-07 1
vn -0 -2.431541E-07 1
vn -0 -1.6176556E-07 1
vn -0 -1.6176554E-07 1
vn -0 -1.3810637E-07 1
vn -0 -1.6190377E-07 1
vn -0 -1.5981655E-07 1
vn -0 -1.5981658E-07 1
vn -0 -1.6329466E-07 1
vn -0 -1.6329466E-07 1
g MainMenu_ElysionBoss_Near01_01_0
f 3/3/3 2/2/2 1/1/1
f 4/4/4 3/3/3 1/1/1
f 1/1/1 2/2/2 5/5/5
f 2/2/2 6/6/6 5/5/5
f 5/5/5 6/6/6 7/7/7
f 6/6/6 8/8/8 7/7/7
f 8/8/8 9/9/9 7/7/7
f 10/10/10 7/7/7 9/9/9
f 11/11/11 10/10/10 9/9/9
f 12/12/12 5/5/5 7/7/7
f 13/13/13 5/5/5 12/12/12
f 14/14/14 5/5/5 13/13/13
f 15/15/15 14/14/14 13/13/13
f 16/16/16 15/15/15 13/13/13
f 17/17/17 16/16/16 13/13/13
f 14/14/14 15/15/15 18/18/18
f 19/19/19 14/14/14 18/18/18
f 14/14/14 19/19/19 20/20/20
f 21/21/21 14/14/14 20/20/20
f 22/22/22 21/21/21 20/20/20
f 23/23/23 22/22/22 20/20/20
f 24/24/24 19/19/19 18/18/18
f 19/19/19 24/24/24 25/25/25
f 25/25/25 24/24/24 26/26/26
f 27/27/27 25/25/25 26/26/26
f 28/28/28 19/19/19 25/25/25
f 29/29/29 14/14/14 21/21/21
f 30/30/30 20/20/20 19/19/19
f 31/31/31 28/28/28 25/25/25
f 32/32/32 31/31/31 25/25/25
f 33/33/33 31/31/31 32/32/32
f 34/34/34 33/33/33 32/32/32
f 35/35/35 27/27/27 26/26/26
f 36/36/36 35/35/35 26/26/26
f 37/37/37 1/1/1 5/5/5
f 38/38/38 6/6/6 2/2/2
f 39/39/39 10/10/10 11/11/11
f 40/40/40 39/39/39 11/11/11
f 41/41/41 16/16/16 17/17/17
f 42/42/42 41/41/41 17/17/17
