g MainMenu_SpaceShip_ElysionBoss_BackFar03
v 2.5443628 30.609066 0.00064650294
v 2.463767 6.8358545 0.00061492115
v -3.812583 7.1937356 -0.0018445489
v -3.812583 30.609066 -0.0018445106
v -1.3166406 2.2163582 -0.0008664819
v 2.5118408 1.9801614 0.00063376024
v -3.812583 2.3703449 -0.0018445505
v -3.812583 -1.2103027 -0.0018445755
v -1.3746972 -1.3967328 -0.0008892474
v -3.812583 -4.950264 -0.0018444904
v -1.4269018 -4.6457787 -0.0009096961
v -3.812583 -7.9428687 -0.0018444904
v -1.4746435 -7.616941 -0.0009284037
v -3.812583 -11.592386 -0.0018443776
v -1.5298975 -11.055561 -0.0009499813
v -3.812583 -15.519921 -0.0018443776
v -1.5931469 -14.992004 -0.0009747666
v -3.812583 -18.92034 -0.0018444159
v -1.6489892 -18.467276 -0.000996674
v -3.812583 -22.649122 -0.0018445106
v -1.7171508 -22.709316 -0.0010233998
v 2.5786986 -18.716696 0.00066000863
v 2.5867662 -22.832949 0.0006631197
v -1.7886645 -30.609066 -0.0010514238
v 2.6009362 -30.609066 0.00066867215
v 5.6108203 -22.919819 0.0018481163
v 5.6108203 -30.609066 0.0018481163
v 5.6108203 -19.367083 0.0018482677
v 5.6108203 -15.973481 0.001848305
v 2.572091 -15.091079 0.0006574197
v 5.6108203 -12.002842 0.0018483046
v 2.5648792 -11.134286 0.0006545935
v 2.5593505 -7.7892046 0.00065237656
v 5.6108203 -8.396643 0.0018482177
v 2.5539916 -4.848154 0.00065027626
v 5.6108203 -5.480307 0.0018482177
v 5.610819 -2.3610582 0.0018482179
v 2.548247 -1.6967285 0.0006480262
v 5.610819 1.3135365 0.0018482135
v 5.6108203 6.7742214 0.0018481163
v 5.6108203 30.609066 0.0018481163
v -3.812583 -30.609066 -0.0018445106
vt 0.27941725 0.9943947
vt 0.27807274 0.60823536
vt 0.17337023 0.610232
vt 0.17337024 0.9943948
vt 0.21500772 0.5307907
vt 0.27887475 0.5293621
vt 0.17337023 0.531722
vt 0.17337023 0.4710625
vt 0.21403922 0.470516
vt 0.17337023 0.41878784
vt 0.2131683 0.41865993
vt 0.17337023 0.37017757
vt 0.21237189 0.3703596
vt 0.17337023 0.32214984
vt 0.21145016 0.3218789
vt 0.17337023 0.25835305
vt 0.21039501 0.25792474
vt 0.17337023 0.19929823
vt 0.20946345 0.19893602
vt 0.17337023 0.1292971
vt 0.20832643 0.12831934
vt 0.27999002 0.19822827
vt 0.28012463 0.12631106
vt 0.20713338 -4.0422328E-09
vt 0.28036103 -1.8902448E-09
vt 0.3305721 0.124900006
vt 0.3305721 -4.1465903E-10
vt 0.3305721 0.19772066
vt 0.3305721 0.2565345
vt 0.2798798 0.2571209
vt 0.3305721 0.32103142
vt 0.2797595 0.32139292
vt 0.27966726 0.37067372
vt 0.3305721 0.3709113
vt 0.27957785 0.41844654
vt 0.3305721 0.4182827
vt 0.3305721 0.46895012
vt 0.27948207 0.46963662
vt 0.3305721 0.5282057
vt 0.33057213 0.60723424
vt 0.33057213 0.9943948
vt 0.17337023 -5.0344524E-09
vn -0.00039185857 0 1
vn -0.000391863 0 1
vn -0.0003918616 0 1
vn -0.00039186006 0 1
vn -0.00039186448 0 1
vn -0.00039187178 0 1
vn -0.0003918645 0 1
vn -0.00039185918 0 1
vn -0.0003918622 0 1
vn -0.00039184294 0 1
vn -0.00039185496 0 1
vn -0.00039183313 0 1
vn -0.0003918483 0 1
vn -0.000391823 0 1
vn -0.00039184274 0 1
vn -0.00039181666 0 1
vn -0.0003918387 0 1
vn -0.00039182854 0 1
vn -0.00039184364 0 1
vn -0.0003918473 0 1
vn -0.00039185333 0 1
vn -0.00039187525 0 1
vn -0.00039186314 0 1
vn -0.00039185715 0 1
vn -0.00039185697 0 1
vn -0.00039186678 0 1
vn -0.00039185703 0 1
vn -0.00039188593 0 1
vn -0.0003918996 0 1
vn -0.00039188057 0 1
vn -0.00039189786 0 1
vn -0.00039187807 0 1
vn -0.00039187697 0 1
vn -0.00039189094 0 1
vn -0.0003918778 0 1
vn -0.00039189024 0 1
vn -0.0003918898 0 1
vn -0.00039187778 0 1
vn -0.00039188153 0 1
vn -0.0003918644 0 1
vn -0.00039185717 0 1
vn -0.0003918573 0 1
g MainMenu_SpaceShip_ElysionBoss_BackFar03_0
f 3/3/3 2/2/2 1/1/1
f 4/4/4 3/3/3 1/1/1
f 2/2/2 3/3/3 5/5/5
f 5/5/5 6/6/6 2/2/2
f 3/3/3 7/7/7 5/5/5
f 5/5/5 7/7/7 8/8/8
f 9/9/9 5/5/5 8/8/8
f 6/6/6 5/5/5 9/9/9
f 9/9/9 8/8/8 10/10/10
f 11/11/11 9/9/9 10/10/10
f 11/11/11 10/10/10 12/12/12
f 13/13/13 11/11/11 12/12/12
f 13/13/13 12/12/12 14/14/14
f 15/15/15 13/13/13 14/14/14
f 15/15/15 14/14/14 16/16/16
f 17/17/17 15/15/15 16/16/16
f 17/17/17 16/16/16 18/18/18
f 19/19/19 17/17/17 18/18/18
f 19/19/19 18/18/18 20/20/20
f 21/21/21 19/19/19 20/20/20
f 22/22/22 19/19/19 21/21/21
f 23/23/23 22/22/22 21/21/21
f 23/23/23 21/21/21 24/24/24
f 24/24/24 21/21/21 20/20/20
f 25/25/25 23/23/23 24/24/24
f 26/26/26 23/23/23 25/25/25
f 27/27/27 26/26/26 25/25/25
f 28/28/28 22/22/22 23/23/23
f 26/26/26 28/28/28 23/23/23
f 28/28/28 29/29/29 22/22/22
f 29/29/29 30/30/30 22/22/22
f 30/30/30 17/17/17 19/19/19
f 22/22/22 30/30/30 19/19/19
f 29/29/29 31/31/31 30/30/30
f 31/31/31 32/32/32 30/30/30
f 30/30/30 32/32/32 17/17/17
f 33/33/33 32/32/32 31/31/31
f 34/34/34 33/33/33 31/31/31
f 35/35/35 33/33/33 34/34/34
f 36/36/36 35/35/35 34/34/34
f 36/36/36 37/37/37 35/35/35
f 37/37/37 38/38/38 35/35/35
f 37/37/37 39/39/39 38/38/38
f 39/39/39 6/6/6 38/38/38
f 39/39/39 40/40/40 6/6/6
f 40/40/40 2/2/2 6/6/6
f 1/1/1 2/2/2 40/40/40
f 41/41/41 1/1/1 40/40/40
f 32/32/32 33/33/33 15/15/15
f 32/32/32 15/15/15 17/17/17
f 33/33/33 13/13/13 15/15/15
f 33/33/33 35/35/35 13/13/13
f 35/35/35 11/11/11 13/13/13
f 35/35/35 38/38/38 11/11/11
f 38/38/38 9/9/9 11/11/11
f 38/38/38 6/6/6 9/9/9
f 42/42/42 24/24/24 20/20/20
