g MainMenu_SpaceShip_ElysionBoss_Leaves03
v -0.10630554 -0.011246338 0.033032227
v -0.123518065 -0.0068176268 0.00388916
v -0.10412841 -0.010863037 -0.041470945
v -0.0767572 -0.013535156 -0.06953369
v -0.059035033 -0.010408935 0.0582959
v 0.0044885254 0.0007910156 0.06679443
v -0.019919738 -0.0035119627 -0.07714966
v 0.041431885 0.0315271 -0.05675415
v 0.0754718 0.050510254 0.030162353
v 0.10561279 0.09504394 -0.029591063
v -0.10583007 -0.012832031 0.033481445
v -0.10365265 -0.01244751 -0.041021727
v -0.123042904 -0.00840332 0.0043395995
v -0.076281734 -0.015119629 -0.06908325
v -0.05855896 -0.011994628 0.058745116
v 0.0049639894 -0.00079345703 0.06724487
v -0.01944397 -0.005097656 -0.07669922
v 0.04190796 0.029942626 -0.05630493
v 0.07594787 0.04892578 0.030612793
v 0.10608795 0.09345947 -0.029141845
v -0.14221558 -0.002010498 0.17040649
v -0.16267882 0.0017700195 0.15724488
v -0.16331726 -0.0020117187 0.12141113
v -0.15237732 -0.00319458 0.093417965
v -0.102039486 -0.0031933594 0.17089233
v -0.055388182 0.008123779 0.15724488
v -0.11479492 -0.0020690917 0.072514646
v -0.070145875 0.0066906735 0.060742185
v -0.024458617 0.027022704 0.10707886
v -0.011705322 0.034711912 0.054404296
v -0.14207764 -0.0030603027 0.17025757
v -0.16317932 -0.003059082 0.121260986
v -0.16254088 0.00072387693 0.15709472
v -0.15223907 -0.0042419434 0.09326904
v -0.10190063 -0.0042419434 0.1707434
v -0.05515808 0.0070812986 0.15718994
v -0.114565425 -0.0031115722 0.072460935
v -0.06957459 0.0058044433 0.060561523
v -0.023888549 0.026137695 0.10689697
v -0.011135254 0.033826903 0.054224852
v -0.102687985 0.013084716 -0.07805908
v -0.08386688 0.010419922 -0.08934692
v -0.08319641 0.005933838 -0.07713745
v -0.083220825 0.004759521 -0.051254883
v -0.11812133 0.016015625 -0.052574463
v -0.08324341 0.016343994 -0.016352538
v -0.12449585 0.027059326 -0.01717163
v -0.103239134 0.028717041 0.031658936
v -0.08084839 0.018000487 0.029208984
v -0.07641693 0.0066955565 0.076251216
v -0.04782837 0.019857178 0.019071044
v -0.035109557 0.018200682 -0.021153564
v -0.039279785 0.00677124 -0.053066406
v -0.05639038 0.0076123043 -0.07395996
v -0.10266937 0.011737061 -0.07769287
v -0.083178096 0.0045825196 -0.07677124
v -0.08384766 0.009071045 -0.08898071
v -0.0832019 0.0034082031 -0.050888672
v -0.11810303 0.014666747 -0.05220703
v -0.083225094 0.014993896 -0.015986327
v -0.124477535 0.025711669 -0.01680542
v -0.10322265 0.027368164 0.032023925
v -0.08082977 0.016652832 0.029575195
v -0.07639801 0.005345459 0.07661743
v -0.047811583 0.01850708 0.019434813
v -0.035092164 0.016850585 -0.020787353
v -0.039262388 0.005423584 -0.052700195
v -0.056372374 0.006262207 -0.07359375
v -0.11262878 -0.008492432 -0.1003418
v -0.13818665 -0.005148926 -0.10008911
v -0.16053039 -0.008203125 -0.12989624
v -0.16854644 -0.010222168 -0.1583911
v -0.07825897 -0.007862548 -0.121716306
v -0.04871704 0.0005969238 -0.16005005
v -0.15206665 -0.0026538086 -0.1984375
v -0.11556579 0.023806151 -0.23085815
v -0.045871582 0.03814209 -0.22030273
v -0.073568724 0.07177002 -0.2625769
v -0.11215515 -0.009691162 -0.100483395
v -0.16005737 -0.009400634 -0.13003662
v -0.13771363 -0.006345215 -0.10023071
v -0.16807373 -0.011417236 -0.15853271
v -0.07778503 -0.009058838 -0.121857904
v -0.04824249 -0.0005993652 -0.16019164
v -0.15159363 -0.0038513183 -0.19857788
v -0.11509094 0.022608642 -0.2310022
v -0.045398254 0.0369458 -0.22044434
v -0.073094785 0.07057495 -0.26271728
vt 0.92231476 0.63008314
vt 0.9247684 0.63320434
vt 0.9306865 0.632852
vt 0.9351211 0.63062346
vt 0.92163867 0.6234507
vt 0.9233037 0.615936
vt 0.938303 0.62451553
vt 0.93938416 0.61647844
vt 0.93084157 0.60912895
vt 0.939221 0.60571575
vt 0.92231476 0.63008314
vt 0.9306865 0.632852
vt 0.9247684 0.63320434
vt 0.9351211 0.63062346
vt 0.92163867 0.6234507
vt 0.9233037 0.615936
vt 0.938303 0.62451553
vt 0.93938416 0.61647844
vt 0.93084157 0.60912895
vt 0.939221 0.60571575
vt 0.9434754 0.63008314
vt 0.94592905 0.63320434
vt 0.95184714 0.632852
vt 0.9562818 0.63062346
vt 0.9427993 0.6234507
vt 0.9444644 0.615936
vt 0.95946366 0.62451553
vt 0.9605448 0.61647844
vt 0.9520022 0.60912895
vt 0.9603817 0.60571575
vt 0.9434754 0.63008314
vt 0.95184714 0.632852
vt 0.94592905 0.63320434
vt 0.9562818 0.63062346
vt 0.9427993 0.6234507
vt 0.9444644 0.615936
vt 0.95946366 0.62451553
vt 0.9605448 0.61647844
vt 0.9520022 0.60912895
vt 0.9603817 0.60571575
vt 0.9434754 0.63008314
vt 0.94592905 0.63320434
vt 0.9469632 0.6312367
vt 0.9489502 0.626723
vt 0.9427993 0.6234507
vt 0.9515447 0.61998594
vt 0.9444644 0.615936
vt 0.9520022 0.60912895
vt 0.95561767 0.6122395
vt 0.9603817 0.60571575
vt 0.9605448 0.61647844
vt 0.95946366 0.62451553
vt 0.9562818 0.63062346
vt 0.95184714 0.632852
vt 0.9434754 0.63008314
vt 0.9469632 0.6312367
vt 0.94592905 0.63320434
vt 0.9489502 0.626723
vt 0.9427993 0.6234507
vt 0.9515447 0.61998594
vt 0.9444644 0.615936
vt 0.9520022 0.60912895
vt 0.95561767 0.6122395
vt 0.9603817 0.60571575
vt 0.9605448 0.61647844
vt 0.95946366 0.62451553
vt 0.9562818 0.63062346
vt 0.95184714 0.632852
vt 0.92231476 0.63008314
vt 0.9247684 0.63320434
vt 0.9306865 0.632852
vt 0.9351211 0.63062346
vt 0.92163867 0.6234507
vt 0.9233037 0.615936
vt 0.938303 0.62451553
vt 0.93938416 0.61647844
vt 0.93084157 0.60912895
vt 0.939221 0.60571575
vt 0.92231476 0.63008314
vt 0.9306865 0.632852
vt 0.9247684 0.63320434
vt 0.9351211 0.63062346
vt 0.92163867 0.6234507
vt 0.9233037 0.615936
vt 0.938303 0.62451553
vt 0.93938416 0.61647844
vt 0.93084157 0.60912895
vt 0.939221 0.60571575
vn 0.06977997 0.9975177 -0.009447765
vn 0.23047231 0.97300804 0.011740729
vn 0.05268427 0.998543 -0.011672694
vn -0.101332545 0.99483633 -0.005696266
vn -0.10724031 0.9942193 -0.005233782
vn -0.36495242 0.93065935 0.026131582
vn -0.32849106 0.944272 0.021075217
vn -0.59179443 0.8026109 0.074800655
vn -0.6200445 0.77969486 0.08729772
vn -0.7254545 0.6745396 0.13679248
vn -0.06977579 -0.99751806 0.00943466
vn -0.05268062 -0.9985434 0.011660208
vn -0.23044357 -0.9730147 -0.011756808
vn 0.10133132 -0.99483645 0.0056918026
vn 0.107240975 -0.9942193 0.0052295206
vn 0.364956 -0.93065804 -0.026129633
vn 0.328494 -0.9442709 -0.021073699
vn 0.5917989 -0.8026079 -0.07479809
vn 0.6200477 -0.77969253 -0.08729525
vn 0.72545964 -0.6745337 -0.13679384
vn 0.08531531 0.9955336 -0.04042342
vn 0.2462002 0.9633987 -0.106059335
vn 0.06633785 0.99726224 -0.032669775
vn -0.068954304 0.9975707 0.009897599
vn -0.075910814 0.99704367 0.011896877
vn -0.22697257 0.97338146 0.03181342
vn -0.21233028 0.9766951 0.03134436
vn -0.35060152 0.93595403 0.032689746
vn -0.36271912 0.93135065 0.03195178
vn -0.42974198 0.90252674 0.027700087
vn -0.085354894 -0.995531 0.040405624
vn -0.06636113 -0.9972614 0.032646827
vn -0.24638909 -0.9633469 0.10609005
vn 0.06882766 -0.9975799 -0.009859553
vn 0.07591042 -0.99704367 -0.011892902
vn 0.227423 -0.9732695 -0.032020193
vn 0.21244998 -0.976664 -0.031502694
vn 0.35097027 -0.93580484 -0.03300328
vn 0.36309105 -0.9311966 -0.03221336
vn 0.4297658 -0.9025157 -0.027694011
vn 0.3186122 0.94015044 0.12084444
vn 0.124847226 0.9335014 0.33613732
vn 0.11667595 0.97216403 0.20318443
vn 0.1201395 0.9851044 -0.12302759
vn 0.29404426 0.94404125 -0.14941265
vn 0.12524854 0.9739128 -0.18922648
vn 0.29368892 0.93505216 -0.19855544
vn 0.36409265 0.9313044 -0.010419315
vn 0.19416852 0.97824156 0.073089436
vn 0.21476398 0.95403355 0.20903695
vn -0.03496432 0.9989104 0.030909695
vn -0.059535306 0.9771968 -0.20381865
vn -0.06040711 0.98039 -0.1875807
vn -0.06052269 0.99252445 0.10598221
vn -0.31871524 -0.9401058 -0.120920956
vn -0.11670441 -0.9721416 -0.203275
vn -0.12488855 -0.93343496 -0.33630666
vn -0.12014671 -0.98510426 0.12302176
vn -0.29411045 -0.94402045 0.14941351
vn -0.12526114 -0.9739087 0.189239
vn -0.29371858 -0.9350394 0.19857138
vn -0.3640665 -0.93131477 0.010411554
vn -0.19418518 -0.9782365 -0.07311182
vn -0.21478711 -0.954019 -0.2090794
vn 0.034921456 -0.99891233 -0.030895948
vn 0.059547476 -0.97719544 0.20382176
vn 0.060457055 -0.98038745 0.18757762
vn 0.060592078 -0.9925195 -0.10598845
vn 0.02672797 0.99751496 -0.06518933
vn 0.12537652 0.9730196 -0.19368441
vn 0.01625883 0.9985404 -0.051505085
vn -0.05559056 0.99483806 0.08489316
vn -0.058146026 0.99422085 0.09024452
vn -0.15985548 0.93065566 0.3291296
vn -0.14600421 0.9442674 0.2950285
vn -0.23112743 0.8026128 0.54990256
vn -0.23442818 0.7796998 0.58061314
vn -0.24426375 0.67456424 0.69663364
vn -0.026727581 -0.9975177 0.06514557
vn -0.0162509 -0.9985435 0.051447146
vn -0.12546115 -0.9729872 0.19379233
vn 0.055591956 -0.99483657 -0.08490968
vn 0.058147058 -0.9942194 -0.09025918
vn 0.15985666 -0.93066216 -0.32911053
vn 0.14600179 -0.9442749 -0.29500562
vn 0.23114659 -0.8026096 -0.54989904
vn 0.23445117 -0.7796916 -0.5806149
vn 0.2443009 -0.6745226 -0.6966609
g MainMenu_SpaceShip_ElysionBoss_Leaves03_0
f 3/3/3 2/2/2 1/1/1
f 4/4/4 3/3/3 1/1/1
f 5/5/5 4/4/4 1/1/1
f 4/4/4 5/5/5 6/6/6
f 7/7/7 4/4/4 6/6/6
f 8/8/8 7/7/7 6/6/6
f 9/9/9 8/8/8 6/6/6
f 10/10/10 8/8/8 9/9/9
f 13/13/13 12/12/12 11/11/11
f 12/12/12 14/14/14 11/11/11
f 14/14/14 15/15/15 11/11/11
f 16/16/16 15/15/15 14/14/14
f 17/17/17 16/16/16 14/14/14
f 17/17/17 18/18/18 16/16/16
f 18/18/18 19/19/19 16/16/16
f 18/18/18 20/20/20 19/19/19
f 23/23/23 22/22/22 21/21/21
f 24/24/24 23/23/23 21/21/21
f 25/25/25 24/24/24 21/21/21
f 24/24/24 25/25/25 26/26/26
f 27/27/27 24/24/24 26/26/26
f 28/28/28 27/27/27 26/26/26
f 29/29/29 28/28/28 26/26/26
f 30/30/30 28/28/28 29/29/29
f 33/33/33 32/32/32 31/31/31
f 32/32/32 34/34/34 31/31/31
f 34/34/34 35/35/35 31/31/31
f 36/36/36 35/35/35 34/34/34
f 37/37/37 36/36/36 34/34/34
f 37/37/37 38/38/38 36/36/36
f 38/38/38 39/39/39 36/36/36
f 38/38/38 40/40/40 39/39/39
f 43/43/43 42/42/42 41/41/41
f 44/44/44 43/43/43 41/41/41
f 45/45/45 44/44/44 41/41/41
f 46/46/46 44/44/44 45/45/45
f 47/47/47 46/46/46 45/45/45
f 46/46/46 47/47/47 48/48/48
f 49/49/49 46/46/46 48/48/48
f 50/50/50 49/49/49 48/48/48
f 51/51/51 49/49/49 50/50/50
f 46/46/46 49/49/49 51/51/51
f 52/52/52 46/46/46 51/51/51
f 44/44/44 46/46/46 52/52/52
f 53/53/53 44/44/44 52/52/52
f 54/54/54 43/43/43 44/44/44
f 53/53/53 54/54/54 44/44/44
f 54/54/54 42/42/42 43/43/43
f 57/57/57 56/56/56 55/55/55
f 56/56/56 58/58/58 55/55/55
f 58/58/58 59/59/59 55/55/55
f 58/58/58 60/60/60 59/59/59
f 60/60/60 61/61/61 59/59/59
f 62/62/62 61/61/61 60/60/60
f 63/63/63 62/62/62 60/60/60
f 63/63/63 64/64/64 62/62/62
f 63/63/63 65/65/65 64/64/64
f 65/65/65 63/63/63 60/60/60
f 66/66/66 65/65/65 60/60/60
f 66/66/66 60/60/60 58/58/58
f 67/67/67 66/66/66 58/58/58
f 68/68/68 67/67/67 58/58/58
f 56/56/56 68/68/68 58/58/58
f 57/57/57 68/68/68 56/56/56
f 71/71/71 70/70/70 69/69/69
f 72/72/72 71/71/71 69/69/69
f 73/73/73 72/72/72 69/69/69
f 72/72/72 73/73/73 74/74/74
f 75/75/75 72/72/72 74/74/74
f 76/76/76 75/75/75 74/74/74
f 77/77/77 76/76/76 74/74/74
f 78/78/78 76/76/76 77/77/77
f 81/81/81 80/80/80 79/79/79
f 80/80/80 82/82/82 79/79/79
f 82/82/82 83/83/83 79/79/79
f 84/84/84 83/83/83 82/82/82
f 85/85/85 84/84/84 82/82/82
f 85/85/85 86/86/86 84/84/84
f 86/86/86 87/87/87 84/84/84
f 86/86/86 88/88/88 87/87/87
