g MainMenu_SpaceShip_ElysionBoss_Leaves02
v -0.9001281 -0.332767 -5.516129E-07
v -1.1572235 0.6326822 -3.9321657E-07
v -0.028862914 0.63163173 -3.92845E-07
v -0.11041199 -0.33343413 -5.513405E-07
v -1.2916095 1.3191006 -2.805994E-07
v 0.1608789 1.3459533 -2.7552997E-07
v -0.0050622555 2.589564 -6.05513E-08
v -1.2916095 2.5726573 -6.404931E-08
v -0.9001281 -1.0638303 -6.7155474E-07
v -0.10356262 -1.0698264 -6.722803E-07
v -0.90012753 -1.7837313 -7.896652E-07
v -0.09691589 -1.7843722 -7.8963217E-07
v -0.9001281 -2.6065767 -9.246652E-07
v -0.089268185 -2.6065767 -9.246652E-07
v 0.52920103 1.4910501 -2.5155634E-07
v 0.5694232 2.5971136 -5.8989315E-08
v 1.2916101 1.7030746 -2.1642212E-07
v 1.289541 2.6065767 -5.7031375E-08
v -0.21023437 1.766805 -0.016590787
v -0.060616452 1.627712 0.03722511
v -0.1877295 1.5030624 0.056167647
v -0.33496583 1.642528 0.002521435
v -0.2583789 1.7387371 0.013411648
v -0.2721655 1.539061 0.0621491
v -0.4442285 1.5471483 0.033718932
v -0.4287036 1.7453641 -0.014376131
v -0.3456018 1.6062325 -0.013676385
v -0.42384887 1.4626056 0.026862226
v -0.5485119 1.532103 0.0220841
v -0.46947265 1.673996 -0.018124312
v -0.24640258 1.9436166 -0.013433411
v -0.09678222 1.8045236 0.0403834
v -0.22389647 1.679872 0.05932594
v -0.37112916 1.8193395 0.0056791175
v -0.2945459 1.9155477 0.016571771
v -0.30833006 1.7158718 0.06530526
v -0.48039427 1.7239566 0.03687936
v -0.4648657 1.9221725 -0.011219059
v -0.17182617 1.6263491 -0.05701806
v 0.08066528 1.3573855 0.019634426
v -0.16003418 1.1542386 0.0722296
v -0.40821287 1.4235208 -0.004455529
v -0.30684936 1.4321606 -0.00018856011
v -0.31730345 1.2228249 0.05187134
v -0.49945676 1.2313039 0.036133125
v -0.48713255 1.4391077 -0.015400351
v -0.39693847 1.2748977 0.009215101
v -0.47896972 1.1243234 0.051715072
v -0.6096606 1.1971825 0.046706237
v -0.5267993 1.3459408 0.004551416
v -0.17316283 1.6212735 0.002490914
v -0.083920896 1.3641317 0.07419436
v -0.31137207 1.2967975 0.09943422
v -0.3975708 1.5528909 0.027954467
v -0.34341308 1.5991757 0.040926885
v -0.35786253 1.389841 0.09201939
v -0.53825074 1.3983188 0.06221622
v -0.52197266 1.6061221 0.011792669
v -0.31747314 1.1765213 0.0023638883
v -0.44362792 0.965614 0.09005123
v -0.62594604 1.0887543 0.11243376
v -0.4987097 1.2968918 0.025115678
v -0.40005615 1.2163919 -0.002899777
v -0.37875977 1.0250003 0.027285129
v -0.5414685 1.013996 0.053647127
v -0.5608777 1.2041849 0.023389284
v -0.23058227 1.1582845 0.0023705992
v 0.010260009 0.90173244 0.07548701
v -0.21932739 0.70795745 0.12565666
v -0.45606932 0.9648141 0.052507285
v -0.1896167 1.304078 -0.00043150093
v 0.06358276 1.0507175 0.028956886
v -0.15428832 0.8481189 0.094261415
v -0.40342772 1.1018972 0.06437926
v -0.2997241 1.0098484 0.049383204
v -0.31306517 0.74255735 0.11585778
v -0.54565185 0.75338256 0.09576379
v -0.5299182 1.0187204 0.029962128
v -0.31790528 0.77877927 0.03715905
v -0.49115965 0.64492035 0.09142417
v -0.6064941 0.79723936 0.08503015
v -0.43319458 0.92854583 0.03120418
v -0.3318591 0.52618986 -0.017633472
v -0.18223998 0.38709807 0.036182426
v -0.30935302 0.2624478 0.055125885
v -0.45658934 0.40191162 0.0014757008
v -0.3491284 0.4527725 0.012369873
v -0.44209838 0.27552643 0.061105803
v -0.5963623 0.3521707 0.032676864
v -0.50238526 0.5273813 -0.01542003
v -0.46069703 0.32170135 -0.014719075
v -0.59012693 0.22170441 0.02581985
v -0.6762793 0.33549255 0.021041121
v -0.54682374 0.43358457 -0.019167604
v -0.3139978 0.69663143 -0.014474873
v -0.2329956 0.5090878 0.03934132
v -0.39952636 0.44612578 0.058284175
v -0.47818846 0.63305175 0.0046364437
v -0.3852893 0.629584 0.015528778
v -0.47826537 0.45233732 0.06426257
v -0.63252926 0.5289792 0.03583699
v -0.5385486 0.7041897 -0.012260516
v -0.22528808 0.95690274 0.0003911964
v -0.18288696 0.6923523 0.06562736
v -0.409707 0.6508661 0.027570102
v -0.44940308 0.9140402 -0.03681279
v -0.42124632 0.058718566 0.02975476
v -0.27967772 -0.09208343 0.072731115
v -0.4146289 -0.2059848 0.102221146
v -0.5537878 -0.055003967 0.05922434
v -0.38872436 0.16718659 0.025366655
v -0.23989624 0.018261414 0.042639885
v -0.36796018 -0.10082611 0.08102609
v -0.5144055 0.04834503 0.06346081
v -0.4739563 -0.016326599 0.05505961
v -0.4839209 -0.21600188 0.1047187
v -0.65767086 -0.20791656 0.08970711
v -0.64591795 -0.009700012 0.04055095
v -0.4875366 -0.18894257 0.045927506
v -0.61696285 -0.28894013 0.08646522
v -0.70312375 -0.1751535 0.081688926
v -0.5736633 -0.07706329 0.041478977
v -0.41834837 -0.05587982 0.018459573
v -0.38667357 -0.253508 0.06719398
v -0.55611813 -0.2844992 0.038764406
v -0.58576906 -0.087898865 -0.009332789
v -0.40200683 -0.19311492 0.026778035
v -0.25381103 -0.34366423 0.024893854
v -0.38255492 -0.4662637 0.046103243
v -0.5283606 -0.31544158 0.047745723
v -0.45257446 -0.26729828 0.034644235
v -0.45332152 -0.47298676 0.04591678
v -0.627782 -0.46901274 0.051156342
v -0.6251782 -0.26477996 0.039906073
v -0.46444824 -0.43726164 0.004153176
v -0.5867248 -0.54808193 0.03822115
v -0.67494506 -0.43888822 0.06444431
v -0.55256104 -0.32999724 0.030325985
v -0.39636597 -0.3094394 0.0038272692
v -0.355874 -0.511318 0.010195035
v -0.5268335 -0.5429947 -0.005597512
v -0.5652234 -0.3421652 -0.011753485
v -0.3957251 -0.56483674 -0.0018664367
v -0.20275268 -0.72590786 0.050361928
v -0.34878173 -0.88317716 0.08619809
v -0.53886473 -0.7215329 0.033947136
v -0.45241576 -0.8864096 0.007718777
v -0.57857054 -1.0973166 0.09540551
v -0.7608862 -0.97417694 0.11778804
v -0.6336487 -0.7660385 0.030470567
v -0.44576904 -0.9680679 0.049010877
v -0.26170164 -1.1217037 0.098830804
v -0.4009863 -1.271716 0.13301474
v -0.582312 -1.1175326 0.08317284
v -0.40824705 -0.8433383 0.04392453
v -0.2160791 -0.9937985 0.063947394
v -0.3467163 -1.1488107 0.10844444
v -0.5361658 -0.9977328 0.088083446
v -0.31236082 -0.15094513 0.040645838
v -0.32569945 -0.4182376 0.1071198
v -0.5582849 -0.40741178 0.087026104
v -0.5425537 -0.14207305 0.021224758
v -0.4260095 -1.1689901 0.053398967
v -0.59926265 -1.3028488 0.107663475
v -0.7145947 -1.1505307 0.101270065
v -0.5412988 -1.0192233 0.04744501
v -0.46679932 -1.536741 -0.0122788865
v -0.31718138 -1.6758322 0.041537616
v -0.44429564 -1.8004843 0.06048138
v -0.59153074 -1.6610196 0.0068308944
v -0.48406738 -1.6101577 0.017724153
v -0.57704103 -1.7874044 0.06646008
v -0.73130125 -1.7107607 0.03803023
v -0.63732666 -1.5355496 -0.010064837
v -0.4489392 -1.3662997 -0.009120596
v -0.367937 -1.5538424 0.044696204
v -0.53446656 -1.6168051 0.06363876
v -0.6131311 -1.4298788 0.009991942
v -0.48397583 -1.3511056 0.03105763
v -0.5769519 -1.5283517 0.079792954
v -0.7312146 -1.4517105 0.05136736
v -0.6372351 -1.2764987 0.0032695555
v -0.3602307 -1.1060287 0.0057457797
v -0.31782958 -1.3705783 0.07098194
v -0.5446484 -1.4120651 0.03292438
v -0.5843457 -1.1488894 -0.031457596
v -0.5236682 -1.8957443 0.030721847
v -0.37483642 -2.044669 0.04799477
v -0.50290036 -2.1637576 0.0863816
v -0.64934814 -2.0145872 0.068814784
vt 0.060670517 0.16241497
vt 0.042306565 0.23137562
vt 0.122903764 0.2313006
vt 0.11707884 0.16236734
vt 0.032707565 0.28040552
vt 0.13645676 0.28232357
vt 0.124603756 0.3711529
vt 0.032707565 0.3699453
vt 0.060670525 0.11019616
vt 0.11756809 0.109767914
vt 0.060670547 0.05877468
vt 0.11804287 0.058728922
vt 0.060670532 -7.1778494E-28
vt 0.11858912 3.1177478E-09
vt 0.16276547 0.29268762
vt 0.16563848 0.37169218
vt 0.21722327 0.30783224
vt 0.21707547 0.37236813
vt 0.0909496 0.7080167
vt 0.09118966 0.685544
vt 0.075726725 0.6857313
vt 0.07572677 0.7080201
vt 0.0909496 0.7080167
vt 0.09118966 0.685544
vt 0.075726725 0.6857313
vt 0.07572677 0.7080201
vt 0.0909496 0.7080167
vt 0.09118966 0.685544
vt 0.075726725 0.6857313
vt 0.07572677 0.7080201
vt 0.0909496 0.7080167
vt 0.09118966 0.685544
vt 0.075726725 0.6857313
vt 0.07572677 0.7080201
vt 0.0909496 0.7080167
vt 0.09118966 0.685544
vt 0.075726725 0.6857313
vt 0.07572677 0.7080201
vt 0.0909496 0.7080167
vt 0.09118966 0.685544
vt 0.075726725 0.6857313
vt 0.07572677 0.7080201
vt 0.0909496 0.7080167
vt 0.09118966 0.685544
vt 0.075726725 0.6857313
vt 0.07572677 0.7080201
vt 0.0909496 0.7080167
vt 0.09118966 0.685544
vt 0.075726725 0.6857313
vt 0.07572677 0.7080201
vt 0.0909496 0.7080167
vt 0.09118966 0.685544
vt 0.075726725 0.6857313
vt 0.07572677 0.7080201
vt 0.0909496 0.7080167
vt 0.09118966 0.685544
vt 0.075726725 0.6857313
vt 0.07572677 0.7080201
vt 0.091015674 0.7083043
vt 0.091255724 0.6858316
vt 0.07579279 0.6860189
vt 0.07579284 0.7083077
vt 0.091015674 0.7083043
vt 0.091255724 0.6858316
vt 0.07579279 0.6860189
vt 0.07579284 0.7083077
vt 0.0909496 0.7080167
vt 0.09118966 0.685544
vt 0.075726725 0.6857313
vt 0.07572677 0.7080201
vt 0.0909496 0.7080167
vt 0.09118966 0.685544
vt 0.075726725 0.6857313
vt 0.07572677 0.7080201
vt 0.0909496 0.7080167
vt 0.09118966 0.685544
vt 0.075726725 0.6857313
vt 0.07572677 0.7080201
vt 0.0909496 0.7080167
vt 0.09118966 0.685544
vt 0.075726725 0.6857313
vt 0.07572677 0.7080201
vt 0.0909496 0.7080167
vt 0.09118966 0.685544
vt 0.075726725 0.6857313
vt 0.07572677 0.7080201
vt 0.0909496 0.7080167
vt 0.09118966 0.685544
vt 0.075726725 0.6857313
vt 0.07572677 0.7080201
vt 0.0909496 0.7080167
vt 0.09118966 0.685544
vt 0.075726725 0.6857313
vt 0.07572677 0.7080201
vt 0.0909496 0.7080167
vt 0.09118966 0.685544
vt 0.075726725 0.6857313
vt 0.07572677 0.7080201
vt 0.0909496 0.7080167
vt 0.09118966 0.685544
vt 0.075726725 0.6857313
vt 0.07572677 0.7080201
vt 0.0909496 0.7080167
vt 0.09118966 0.685544
vt 0.075726725 0.6857313
vt 0.07572677 0.7080201
vt 0.0909496 0.7080167
vt 0.09118966 0.685544
vt 0.075726725 0.6857313
vt 0.07572677 0.7080201
vt 0.0909496 0.7080167
vt 0.09118966 0.685544
vt 0.075726725 0.6857313
vt 0.07572677 0.7080201
vt 0.0909496 0.7080167
vt 0.09118966 0.685544
vt 0.075726725 0.6857313
vt 0.07572677 0.7080201
vt 0.0909496 0.7080167
vt 0.09118966 0.685544
vt 0.075726725 0.6857313
vt 0.07572677 0.7080201
vt 0.0909496 0.7080167
vt 0.09118966 0.685544
vt 0.075726725 0.6857313
vt 0.07572677 0.7080201
vt 0.0909496 0.7080167
vt 0.09118966 0.685544
vt 0.075726725 0.6857313
vt 0.07572677 0.7080201
vt 0.0909496 0.7080167
vt 0.09118966 0.685544
vt 0.075726725 0.6857313
vt 0.07572677 0.7080201
vt 0.0909496 0.7080167
vt 0.09118966 0.685544
vt 0.075726725 0.6857313
vt 0.07572677 0.7080201
vt 0.0909496 0.7080167
vt 0.09118966 0.685544
vt 0.075726725 0.6857313
vt 0.07572677 0.7080201
vt 0.0909496 0.7080167
vt 0.09118966 0.685544
vt 0.075726725 0.6857313
vt 0.07572677 0.7080201
vt 0.091015674 0.7083043
vt 0.091255724 0.6858316
vt 0.07579279 0.6860189
vt 0.07579284 0.7083077
vt 0.0909496 0.7080167
vt 0.09118966 0.685544
vt 0.075726725 0.6857313
vt 0.07572677 0.7080201
vt 0.0909496 0.7080167
vt 0.09118966 0.685544
vt 0.075726725 0.6857313
vt 0.07572677 0.7080201
vt 0.0909496 0.7080167
vt 0.09118966 0.685544
vt 0.075726725 0.6857313
vt 0.07572677 0.7080201
vt 0.0909496 0.7080167
vt 0.09118966 0.685544
vt 0.075726725 0.6857313
vt 0.07572677 0.7080201
vt 0.0909496 0.7080167
vt 0.09118966 0.685544
vt 0.075726725 0.6857313
vt 0.07572677 0.7080201
vt 0.0909496 0.7080167
vt 0.09118966 0.685544
vt 0.075726725 0.6857313
vt 0.07572677 0.7080201
vt 0.0909496 0.7080167
vt 0.09118966 0.685544
vt 0.075726725 0.6857313
vt 0.07572677 0.7080201
vt 0.0909496 0.7080167
vt 0.09118966 0.685544
vt 0.075726725 0.6857313
vt 0.07572677 0.7080201
vt 0.0909496 0.7080167
vt 0.09118966 0.685544
vt 0.075726725 0.6857313
vt 0.07572677 0.7080201
vt 0.0909496 0.7080167
vt 0.09118966 0.685544
vt 0.075726725 0.6857313
vt 0.07572677 0.7080201
vn -0 -1.6417351E-07 1
vn -0 -1.6415792E-07 1
vn -0 -1.6415926E-07 1
vn -0 -1.6417236E-07 1
vn -0 -1.6871256E-07 1
vn -0 -1.7025708E-07 1
vn -0 -1.730918E-07 1
vn -0 -1.7283166E-07 1
vn -0 -1.6415036E-07 1
vn -0 -1.6415034E-07 1
vn -0 -1.6414945E-07 1
vn -0 -1.6414945E-07 1
vn -0 -1.6414923E-07 1
vn -0 -1.6414923E-07 1
vn -0 -1.7408301E-07 1
vn -0 -1.7430679E-07 1
vn -0 -1.7516304E-07 1
vn -0 -1.7516307E-07 1
vn -0.10770712 0.25583717 0.96070117
vn -0.107707106 0.25583717 0.96070105
vn -0.10770711 0.25583714 0.96070117
vn -0.10770711 0.25583717 0.96070117
vn -0.14689913 0.24410035 0.95855916
vn -0.14689912 0.24410035 0.95855916
vn -0.14689913 0.24410035 0.95855916
vn -0.14689912 0.24410032 0.95855916
vn 0.0885709 0.22558449 0.9701891
vn 0.08857089 0.22558449 0.9701891
vn 0.08857089 0.22558448 0.9701891
vn 0.08857089 0.22558449 0.9701891
vn -0.10771013 0.25583783 0.9607006
vn -0.10771013 0.25583783 0.9607006
vn -0.10771012 0.25583783 0.9607006
vn -0.10771012 0.25583783 0.9607006
vn -0.1469008 0.24409942 0.95855916
vn -0.1469008 0.24409942 0.95855916
vn -0.14690082 0.24409948 0.95855916
vn -0.14690082 0.24409948 0.95855916
vn -0.011846748 0.26375565 0.9645168
vn -0.011846748 0.26375565 0.9645168
vn -0.011846747 0.26375565 0.9645168
vn -0.011846748 0.26375568 0.9645168
vn -0.07219172 0.24410371 0.9670583
vn -0.07219172 0.24410371 0.9670583
vn -0.072191715 0.24410371 0.9670583
vn -0.072191715 0.24410371 0.9670583
vn 0.08857508 0.22558752 0.97018796
vn 0.08857509 0.22558752 0.97018796
vn 0.08857508 0.2255875 0.97018796
vn 0.08857509 0.22558752 0.97018796
vn 0.024759084 0.27648124 0.9607003
vn 0.024759084 0.27648124 0.9607004
vn 0.024759084 0.27648124 0.9607004
vn 0.024759088 0.27648124 0.9607004
vn -0.14690144 0.24409917 0.95855916
vn -0.14690144 0.24409917 0.95855916
vn -0.14690143 0.24409917 0.95855904
vn -0.14690141 0.24409914 0.95855916
vn 0.26897973 0.22814207 0.93573564
vn 0.26897973 0.22814208 0.93573564
vn 0.26897973 0.22814205 0.93573564
vn 0.26897973 0.22814207 0.93573564
vn 0.14639628 0.16998078 0.9745126
vn 0.14639628 0.16998081 0.9745126
vn 0.14639628 0.16998078 0.9745126
vn 0.14639628 0.1699808 0.9745126
vn -0.011849846 0.2637593 0.9645157
vn -0.011849847 0.2637593 0.9645157
vn -0.011849848 0.2637593 0.9645157
vn -0.011849848 0.2637593 0.9645157
vn 0.096767396 0.20956764 0.9729941
vn 0.09676741 0.20956764 0.9729941
vn 0.096767396 0.20956762 0.9729941
vn 0.0967674 0.20956764 0.9729941
vn -0.07218358 0.24410541 0.9670584
vn -0.07218358 0.24410541 0.9670584
vn -0.07218357 0.24410538 0.9670584
vn -0.07218358 0.24410541 0.9670584
vn 0.17186476 0.17086832 0.970189
vn 0.17186475 0.17086832 0.970189
vn 0.17186476 0.1708683 0.970189
vn 0.17186475 0.1708683 0.970189
vn -0.107719734 0.25583902 0.96069914
vn -0.10771975 0.25583902 0.96069914
vn -0.107719734 0.25583902 0.96069914
vn -0.10771973 0.25583896 0.96069914
vn -0.036251362 0.2825795 0.95855874
vn -0.036251362 0.2825795 0.95855874
vn -0.036251362 0.2825795 0.95855874
vn -0.036251362 0.2825795 0.95855874
vn 0.17186315 0.17087062 0.97018886
vn 0.17186317 0.17087059 0.97018874
vn 0.17186317 0.17087059 0.97018874
vn 0.17186318 0.17087059 0.97018874
vn 0.0043447404 0.27755103 0.96070117
vn 0.00434474 0.27755103 0.96070117
vn 0.0043447404 0.27755103 0.96070117
vn 0.0043447404 0.27755103 0.96070117
vn -0.036246825 0.28257397 0.95856047
vn -0.036246818 0.28257394 0.95856047
vn -0.036246818 0.28257397 0.95856047
vn -0.03624682 0.28257394 0.95856047
vn -0.19825447 0.20459788 0.95855874
vn -0.19825448 0.20459788 0.95855874
vn -0.19825447 0.20459788 0.95855874
vn -0.19825445 0.20459788 0.95855874
vn -0.01184794 0.26375434 0.9645171
vn -0.01184794 0.26375434 0.9645171
vn -0.011847939 0.26375437 0.9645171
vn -0.01184794 0.26375434 0.9645171
vn 0.09676573 0.20956333 0.9729952
vn 0.09676572 0.20956334 0.9729952
vn 0.09676572 0.20956334 0.9729952
vn 0.09676573 0.20956333 0.9729952
vn -0.072188854 0.24410605 0.9670579
vn -0.072188854 0.24410605 0.9670579
vn -0.072188854 0.24410605 0.9670579
vn -0.072188854 0.24410605 0.9670579
vn 0.1718631 0.1708707 0.97018874
vn 0.17186312 0.17087072 0.97018874
vn 0.1718631 0.17087072 0.97018874
vn 0.17186312 0.1708707 0.97018874
vn -0.1982518 0.2046041 0.95855796
vn -0.1982518 0.20460412 0.95855796
vn -0.1982518 0.20460412 0.95855796
vn -0.19825183 0.2046041 0.95855796
vn 0.09053024 0.07669695 0.99293596
vn 0.09053024 0.07669695 0.99293596
vn 0.09053024 0.076696955 0.99293596
vn 0.09053024 0.076696955 0.99293596
vn 0.031218937 0.05458033 0.99802125
vn 0.031218937 0.054580335 0.99802125
vn 0.031218937 0.054580335 0.99802125
vn 0.031218937 0.054580335 0.99802125
vn 0.275401 -0.008341612 0.9612932
vn 0.27540103 -0.008341614 0.9612932
vn 0.275401 -0.008341613 0.9612932
vn 0.275401 -0.008341613 0.9612932
vn -0.09427318 0.012491776 0.995468
vn -0.09427318 0.012491776 0.995468
vn -0.094273165 0.012491775 0.995468
vn -0.09427318 0.012491775 0.995468
vn -0.04371524 0.26037416 0.9645176
vn -0.043715242 0.2603742 0.9645176
vn -0.043715242 0.2603742 0.9645176
vn -0.04371524 0.2603742 0.9645176
vn 0.26898122 0.22813752 0.93573624
vn 0.26898122 0.22813752 0.93573624
vn 0.26898125 0.22813752 0.93573624
vn 0.26898122 0.22813751 0.93573624
vn -0.04371734 0.26038426 0.9645148
vn -0.04371734 0.26038426 0.9645148
vn -0.043717347 0.2603843 0.9645148
vn -0.04371734 0.26038426 0.9645148
vn 0.07066745 0.21974407 0.97299474
vn 0.07066746 0.21974407 0.97299474
vn 0.07066745 0.21974407 0.97299474
vn 0.07066745 0.2197441 0.97299474
vn -0.07218322 0.24410212 0.9670593
vn -0.072183244 0.24410215 0.9670593
vn -0.07218323 0.24410215 0.9670593
vn -0.07218323 0.24410215 0.9670593
vn 0.17186637 0.17086364 0.97018945
vn 0.17186637 0.17086364 0.97018945
vn 0.17186637 0.17086366 0.97018945
vn 0.17186637 0.17086364 0.97018945
vn -0.10772032 0.25584185 0.96069837
vn -0.10772034 0.25584188 0.96069837
vn -0.10772032 0.25584182 0.96069837
vn -0.10772033 0.25584182 0.96069837
vn -0.03625469 0.28257573 0.9585597
vn -0.03625469 0.28257573 0.9585597
vn -0.036254693 0.28257573 0.9585597
vn -0.03625469 0.28257573 0.9585597
vn 0.0043471316 0.27755165 0.9607009
vn 0.004347131 0.27755162 0.9607009
vn 0.0043471316 0.27755165 0.9607009
vn 0.004347131 0.27755165 0.9607009
vn -0.036241762 0.28257555 0.9585601
vn -0.036241766 0.28257558 0.9585601
vn -0.036241762 0.28257555 0.9585601
vn -0.036241766 0.28257555 0.9585601
vn -0.19825359 0.20459586 0.9585594
vn -0.19825356 0.20459586 0.9585594
vn -0.19825356 0.2045959 0.9585594
vn -0.19825356 0.20459586 0.9585594
vn 0.096760385 0.20956488 0.9729953
vn 0.09676041 0.20956491 0.9729953
vn 0.09676041 0.2095649 0.9729953
vn 0.0967604 0.2095649 0.9729953
g MainMenu_SpaceShip_ElysionBoss_Leaves02_0
f 3/3/3 2/2/2 1/1/1
f 4/4/4 3/3/3 1/1/1
f 5/5/5 2/2/2 3/3/3
f 6/6/6 5/5/5 3/3/3
f 5/5/5 6/6/6 7/7/7
f 8/8/8 5/5/5 7/7/7
f 4/4/4 1/1/1 9/9/9
f 10/10/10 4/4/4 9/9/9
f 10/10/10 9/9/9 11/11/11
f 12/12/12 10/10/10 11/11/11
f 12/12/12 11/11/11 13/13/13
f 14/14/14 12/12/12 13/13/13
f 7/7/7 6/6/6 15/15/15
f 16/16/16 7/7/7 15/15/15
f 16/16/16 15/15/15 17/17/17
f 18/18/18 16/16/16 17/17/17
f 21/21/21 20/20/20 19/19/19
f 22/22/22 21/21/21 19/19/19
f 25/25/25 24/24/24 23/23/23
f 26/26/26 25/25/25 23/23/23
f 29/29/29 28/28/28 27/27/27
f 30/30/30 29/29/29 27/27/27
f 33/33/33 32/32/32 31/31/31
f 34/34/34 33/33/33 31/31/31
f 37/37/37 36/36/36 35/35/35
f 38/38/38 37/37/37 35/35/35
f 41/41/41 40/40/40 39/39/39
f 42/42/42 41/41/41 39/39/39
f 45/45/45 44/44/44 43/43/43
f 46/46/46 45/45/45 43/43/43
f 49/49/49 48/48/48 47/47/47
f 50/50/50 49/49/49 47/47/47
f 53/53/53 52/52/52 51/51/51
f 54/54/54 53/53/53 51/51/51
f 57/57/57 56/56/56 55/55/55
f 58/58/58 57/57/57 55/55/55
f 61/61/61 60/60/60 59/59/59
f 62/62/62 61/61/61 59/59/59
f 65/65/65 64/64/64 63/63/63
f 66/66/66 65/65/65 63/63/63
f 69/69/69 68/68/68 67/67/67
f 70/70/70 69/69/69 67/67/67
f 73/73/73 72/72/72 71/71/71
f 74/74/74 73/73/73 71/71/71
f 77/77/77 76/76/76 75/75/75
f 78/78/78 77/77/77 75/75/75
f 81/81/81 80/80/80 79/79/79
f 82/82/82 81/81/81 79/79/79
f 85/85/85 84/84/84 83/83/83
f 86/86/86 85/85/85 83/83/83
f 89/89/89 88/88/88 87/87/87
f 90/90/90 89/89/89 87/87/87
f 93/93/93 92/92/92 91/91/91
f 94/94/94 93/93/93 91/91/91
f 97/97/97 96/96/96 95/95/95
f 98/98/98 97/97/97 95/95/95
f 101/101/101 100/100/100 99/99/99
f 102/102/102 101/101/101 99/99/99
f 105/105/105 104/104/104 103/103/103
f 106/106/106 105/105/105 103/103/103
f 109/109/109 108/108/108 107/107/107
f 110/110/110 109/109/109 107/107/107
f 113/113/113 112/112/112 111/111/111
f 114/114/114 113/113/113 111/111/111
f 117/117/117 116/116/116 115/115/115
f 118/118/118 117/117/117 115/115/115
f 121/121/121 120/120/120 119/119/119
f 122/122/122 121/121/121 119/119/119
f 125/125/125 124/124/124 123/123/123
f 126/126/126 125/125/125 123/123/123
f 129/129/129 128/128/128 127/127/127
f 130/130/130 129/129/129 127/127/127
f 133/133/133 132/132/132 131/131/131
f 134/134/134 133/133/133 131/131/131
f 137/137/137 136/136/136 135/135/135
f 138/138/138 137/137/137 135/135/135
f 141/141/141 140/140/140 139/139/139
f 142/142/142 141/141/141 139/139/139
f 145/145/145 144/144/144 143/143/143
f 146/146/146 145/145/145 143/143/143
f 149/149/149 148/148/148 147/147/147
f 150/150/150 149/149/149 147/147/147
f 153/153/153 152/152/152 151/151/151
f 154/154/154 153/153/153 151/151/151
f 157/157/157 156/156/156 155/155/155
f 158/158/158 157/157/157 155/155/155
f 161/161/161 160/160/160 159/159/159
f 162/162/162 161/161/161 159/159/159
f 165/165/165 164/164/164 163/163/163
f 166/166/166 165/165/165 163/163/163
f 169/169/169 168/168/168 167/167/167
f 170/170/170 169/169/169 167/167/167
f 173/173/173 172/172/172 171/171/171
f 174/174/174 173/173/173 171/171/171
f 177/177/177 176/176/176 175/175/175
f 178/178/178 177/177/177 175/175/175
f 181/181/181 180/180/180 179/179/179
f 182/182/182 181/181/181 179/179/179
f 185/185/185 184/184/184 183/183/183
f 186/186/186 185/185/185 183/183/183
f 189/189/189 188/188/188 187/187/187
f 190/190/190 189/189/189 187/187/187
