g MainMenu_SpaceShip_ElysionBoss_Leaves01
v -0.44657102 0.29158172 -4.4651162E-07
v 0.41348326 0.29954132 -4.4486478E-07
v 0.37287384 -0.2995465 -5.437352E-07
v -0.4145932 -0.3059146 -5.450527E-07
v 0.4630841 -0.8986352 -6.4260587E-07
v -0.31527403 -0.9034106 -6.435939E-07
v 0.43293 -1.4977233 -7.4147636E-07
v -0.2387094 -1.500907 -7.42135E-07
v 0.46756682 -2.0968115 -8.403469E-07
v -0.28984985 -2.0984027 -8.4067614E-07
v 0.22026947 -2.6958995 -9.392174E-07
v -0.29651368 -2.6958995 -9.392174E-07
v -0.46756682 0.8890777 -3.4797048E-07
v 0.44311035 0.8986297 -3.4599415E-07
v -0.3438742 1.486574 -2.494293E-07
v 0.3280484 1.4977179 -2.4712364E-07
v -0.41969115 2.08407 -1.5088818E-07
v 0.41249725 2.0968065 -1.4825302E-07
v -0.44728363 2.6815665 -5.2347023E-08
v 0.4487207 2.6958947 -4.9382486E-08
v 0.1431073 2.317047 0.038522214
v 0.30059022 2.1869261 0.09233781
v 0.1809723 2.0550678 0.11128066
v 0.025844116 2.1856995 0.057634134
v 0.096682735 2.2862158 0.068524346
v 0.094578244 2.086075 0.1172621
v -0.07766296 2.0841033 0.088831626
v -0.0737384 2.2828875 0.040736564
v 0.01734436 2.148845 0.041436307
v -0.052383423 2.0008948 0.08197523
v -0.18089172 2.062995 0.0771971
v -0.1102716 2.2092607 0.036988385
v 0.096677855 2.4914453 0.041679285
v 0.2541632 2.3613243 0.095496096
v 0.13454162 2.229464 0.114438646
v -0.020580444 2.3600981 0.060792122
v 0.050255734 2.4606137 0.07168477
v 0.048152465 2.2604733 0.12041826
v -0.124089964 2.2584984 0.091992356
v -0.12016052 2.4572833 0.04389394
v 0.19407165 2.1289458 0.011867828
v 0.4047589 1.9292736 0.072181515
v 0.22502136 1.7586437 0.113565765
v 0.017706908 1.9587646 0.053226136
v 0.06619324 1.9773327 0.054924443
v 0.06798156 1.7677438 0.10698404
v -0.11435608 1.7655734 0.09124582
v -0.11418762 1.973742 0.03971265
v -0.014559936 1.8150781 0.064328104
v -0.0876593 1.6599712 0.10682777
v -0.2223822 1.7250762 0.10181924
v -0.14834656 1.8784186 0.059664413
v 0.17609191 2.1384985 0.06794815
v 0.2580023 1.9406128 0.124367185
v 0.08243225 1.8772726 0.1442271
v 0.0029583739 2.0744748 0.08798415
v 0.019943237 2.141928 0.096039884
v 0.017738648 1.9321069 0.14713207
v -0.16283508 1.9300385 0.117328905
v -0.15871765 2.1384375 0.06690567
v 0.07051452 1.7215087 0.05747689
v -0.04311218 1.5035956 0.14516392
v -0.23230773 1.6158819 0.16754676
v -0.11744201 1.8310931 0.08022837
v -0.014255981 1.7564899 0.05221292
v 0.0181781 1.5666684 0.08239782
v -0.14361145 1.5461835 0.10875982
v -0.17408997 1.7349145 0.07850198
v 0.16253601 1.6605624 0.070621416
v 0.3635028 1.4701037 0.12815312
v 0.19206482 1.3073461 0.1676285
v -0.0056951903 1.4982324 0.11007115
v 0.19751525 1.8080548 0.06474711
v 0.4080438 1.6206714 0.08787146
v 0.24621154 1.4515209 0.1392554
v 0.038854368 1.6394192 0.11574317
v 0.09796325 1.5561566 0.104495905
v 0.10024963 1.2885425 0.17097078
v -0.13257141 1.2857702 0.15087678
v -0.13235657 1.5515734 0.085075125
v 0.09330383 1.3244201 0.09227205
v -0.07183899 1.180675 0.14653717
v -0.19586974 1.3259997 0.14014314
v -0.030534057 1.4672003 0.08631718
v 0.09411926 1.0714465 0.03747953
v 0.2516034 0.94132686 0.09129543
v 0.13198669 0.80946773 0.11023888
v -0.02314026 0.9400989 0.056588702
v 0.0811676 0.9971472 0.06748257
v -0.0012969971 0.81477535 0.116218805
v -0.15977234 0.8822815 0.087789565
v -0.07618347 1.0626806 0.03969297
v -0.022557983 0.85978514 0.040393922
v -0.14592956 0.7524023 0.08093284
v -0.23857848 0.86096615 0.07615411
v -0.11507141 0.96644896 0.035945397
v 0.10200134 1.2426404 0.040638432
v 0.19381408 1.0601459 0.094454326
v 0.031242065 0.9875683 0.11339687
v -0.05819885 1.1695825 0.059749443
v 0.03474548 1.1715454 0.07064147
v -0.047723997 0.98917234 0.11937557
v -0.20619933 1.0566772 0.09094999
v -0.12260925 1.2370764 0.042852484
v 0.17536315 1.507647 0.05550389
v 0.2331366 1.2460229 0.12074036
v 0.009125366 1.1913648 0.082682796
v -0.04586731 1.451773 0.018300213
v 0.032178342 0.5995544 0.08486776
v 0.18230896 0.45727417 0.12784411
v 0.05423767 0.33568907 0.15733415
v -0.093497925 0.47828734 0.11433735
v 0.058311157 0.7097357 0.08047966
v 0.21558043 0.5697534 0.097752884
v 0.09468689 0.44339234 0.1361391
v -0.060216673 0.5837591 0.11857381
v -0.016058959 0.5215588 0.11017292
v -0.014351196 0.32164246 0.1598317
v -0.18827575 0.31957093 0.14482011
v -0.18811584 0.5181348 0.09566394
v -0.019540405 0.34844482 0.101040505
v -0.14290588 0.241062 0.14157821
v -0.23556457 0.349624 0.13680191
v -0.11205139 0.45510557 0.09659198
v 0.041762084 0.48531982 0.07357288
v 0.08492004 0.28987914 0.12230697
v -0.082426146 0.24904785 0.09387741
v -0.12350403 0.44358152 0.045780208
v 0.066085815 0.34927368 0.08189103
v 0.22281921 0.20763244 0.08000685
v 0.101453245 0.07772583 0.10121625
v -0.052908324 0.21977904 0.10285903
v 0.019937133 0.2722644 0.089757234
v 0.031201782 0.06688232 0.10102978
v -0.14319396 0.060665283 0.106269345
v -0.15252136 0.26470155 0.09501907
v 0.01800598 0.10189758 0.059266176
v -0.09759094 -0.015872803 0.093334146
v -0.19203673 0.087984614 0.11955731
v -0.07621887 0.20383544 0.08543898
v 0.07851135 0.23347716 0.058940273
v 0.1307196 0.03430725 0.065308034
v -0.038098752 -0.007297363 0.04951549
v -0.0881488 0.19094849 0.04335951
v 0.063259885 0.0686914 -0.0055379034
v 0.22103699 -0.04807617 0.03524638
v 0.11436706 -0.1773352 0.063230366
v -0.04117981 -0.0599884 0.022428384
v 0.03372986 -0.18457885 0.0019471016
v -0.05499939 -0.35474792 0.07042028
v -0.20274353 -0.2670636 0.08789893
v -0.11304382 -0.099005125 0.019714449
v 0.042631224 -0.24793334 0.034191046
v 0.1931305 -0.35931274 0.073095754
v 0.091388546 -0.4826068 0.09979007
v -0.05699524 -0.37067747 0.06086888
v 0.066196896 -0.14898804 0.030220117
v 0.22286315 -0.25752074 0.045854863
v 0.12809265 -0.38432005 0.080602765
v -0.026483765 -0.2751819 0.064703435
v 0.15311828 0.39660522 0.09575883
v 0.15540832 0.12898925 0.1622328
v -0.07741272 0.12621826 0.14213942
v -0.077199094 0.3920227 0.076337755
v 0.06719665 -0.40366575 0.03761723
v -0.061763305 -0.51591676 0.079993
v -0.15861511 -0.40243408 0.074999735
v -0.029507445 -0.29216918 0.032969117
v 0.026760863 -0.6356488 -0.014023125
v 0.14974426 -0.73725706 0.028001394
v 0.056331176 -0.84022766 0.042794466
v -0.0648053 -0.7382178 0.00089842756
v 0.042047728 -0.7502331 0.009761035
v -0.022346802 -0.8926477 0.047817342
v -0.14609924 -0.8399316 0.025616731
v -0.08082824 -0.69905883 -0.011940922
v 0.05831726 -0.5585278 -0.011203594
v 0.13001403 -0.7010376 0.030823054
v 0.0030621337 -0.75771236 0.045614302
v -0.066784054 -0.6155774 0.0037219338
v 0.030309448 -0.54828125 0.020171832
v -0.034088746 -0.6906946 0.058229364
v -0.15783997 -0.63798094 0.036031805
v -0.09256653 -0.4971069 -0.0015279858
v 0.11560608 -0.3515857 0.00040654722
v 0.16072205 -0.5558862 0.051348284
v -0.014208374 -0.59856933 0.02162965
v -0.057152707 -0.39521605 -0.02864589
v 0.02231262 -0.97467285 -0.001672717
v 0.14512268 -1.0839844 0.011816035
v 0.050718382 -1.1826593 0.041792214
v -0.07024841 -1.0730481 0.028076107
vt 0.7037014 0.21339151
vt 0.76513374 0.2139601
vt 0.76223314 0.17116806
vt 0.70598555 0.1707132
vt 0.7686767 0.12837607
vt 0.71307975 0.12803492
vt 0.7665229 0.085584044
vt 0.7185486 0.08535662
vt 0.7689969 0.04279202
vt 0.7148957 0.042678315
vt 0.7513328 1.4842954E-09
vt 0.7144197 0
vt 0.70220166 0.2560698
vt 0.76725 0.25675213
vt 0.71103686 0.29874814
vt 0.7590313 0.29954413
vt 0.70562136 0.34142643
vt 0.76506335 0.34233615
vt 0.7036505 0.38410473
vt 0.7676507 0.38512817
vt 0.0909496 0.7080167
vt 0.09118966 0.685544
vt 0.075726725 0.6857313
vt 0.07572677 0.7080201
vt 0.0909496 0.7080167
vt 0.09118966 0.685544
vt 0.075726725 0.6857313
vt 0.07572677 0.7080201
vt 0.0909496 0.7080167
vt 0.09118966 0.685544
vt 0.075726725 0.6857313
vt 0.07572677 0.7080201
vt 0.0909496 0.7080167
vt 0.09118966 0.685544
vt 0.075726725 0.6857313
vt 0.07572677 0.7080201
vt 0.0909496 0.7080167
vt 0.09118966 0.685544
vt 0.075726725 0.6857313
vt 0.07572677 0.7080201
vt 0.0909496 0.7080167
vt 0.09118966 0.685544
vt 0.075726725 0.6857313
vt 0.07572677 0.7080201
vt 0.0909496 0.7080167
vt 0.09118966 0.685544
vt 0.075726725 0.6857313
vt 0.07572677 0.7080201
vt 0.0909496 0.7080167
vt 0.09118966 0.685544
vt 0.075726725 0.6857313
vt 0.07572677 0.7080201
vt 0.0909496 0.7080167
vt 0.09118966 0.685544
vt 0.075726725 0.6857313
vt 0.07572677 0.7080201
vt 0.0909496 0.7080167
vt 0.09118966 0.685544
vt 0.075726725 0.6857313
vt 0.07572677 0.7080201
vt 0.091015674 0.7083043
vt 0.091255724 0.6858316
vt 0.07579279 0.6860189
vt 0.07579284 0.7083077
vt 0.091015674 0.7083043
vt 0.091255724 0.6858316
vt 0.07579279 0.6860189
vt 0.07579284 0.7083077
vt 0.0909496 0.7080167
vt 0.09118966 0.685544
vt 0.075726725 0.6857313
vt 0.07572677 0.7080201
vt 0.0909496 0.7080167
vt 0.09118966 0.685544
vt 0.075726725 0.6857313
vt 0.07572677 0.7080201
vt 0.0909496 0.7080167
vt 0.09118966 0.685544
vt 0.075726725 0.6857313
vt 0.07572677 0.7080201
vt 0.0909496 0.7080167
vt 0.09118966 0.685544
vt 0.075726725 0.6857313
vt 0.07572677 0.7080201
vt 0.0909496 0.7080167
vt 0.09118966 0.685544
vt 0.075726725 0.6857313
vt 0.07572677 0.7080201
vt 0.0909496 0.7080167
vt 0.09118966 0.685544
vt 0.075726725 0.6857313
vt 0.07572677 0.7080201
vt 0.0909496 0.7080167
vt 0.09118966 0.685544
vt 0.075726725 0.6857313
vt 0.07572677 0.7080201
vt 0.0909496 0.7080167
vt 0.09118966 0.685544
vt 0.075726725 0.6857313
vt 0.07572677 0.7080201
vt 0.0909496 0.7080167
vt 0.09118966 0.685544
vt 0.075726725 0.6857313
vt 0.07572677 0.7080201
vt 0.0909496 0.7080167
vt 0.09118966 0.685544
vt 0.075726725 0.6857313
vt 0.07572677 0.7080201
vt 0.0909496 0.7080167
vt 0.09118966 0.685544
vt 0.075726725 0.6857313
vt 0.07572677 0.7080201
vt 0.0909496 0.7080167
vt 0.09118966 0.685544
vt 0.075726725 0.6857313
vt 0.07572677 0.7080201
vt 0.0909496 0.7080167
vt 0.09118966 0.685544
vt 0.075726725 0.6857313
vt 0.07572677 0.7080201
vt 0.0909496 0.7080167
vt 0.09118966 0.685544
vt 0.075726725 0.6857313
vt 0.07572677 0.7080201
vt 0.0909496 0.7080167
vt 0.09118966 0.685544
vt 0.075726725 0.6857313
vt 0.07572677 0.7080201
vt 0.0909496 0.7080167
vt 0.09118966 0.685544
vt 0.075726725 0.6857313
vt 0.07572677 0.7080201
vt 0.0909496 0.7080167
vt 0.09118966 0.685544
vt 0.075726725 0.6857313
vt 0.07572677 0.7080201
vt 0.0909496 0.7080167
vt 0.09118966 0.685544
vt 0.075726725 0.6857313
vt 0.07572677 0.7080201
vt 0.0909496 0.7080167
vt 0.09118966 0.685544
vt 0.075726725 0.6857313
vt 0.07572677 0.7080201
vt 0.0909496 0.7080167
vt 0.09118966 0.685544
vt 0.075726725 0.6857313
vt 0.07572677 0.7080201
vt 0.091015674 0.7083043
vt 0.091255724 0.6858316
vt 0.07579279 0.6860189
vt 0.07579284 0.7083077
vt 0.0909496 0.7080167
vt 0.09118966 0.685544
vt 0.075726725 0.6857313
vt 0.07572677 0.7080201
vt 0.0909496 0.7080167
vt 0.09118966 0.685544
vt 0.075726725 0.6857313
vt 0.07572677 0.7080201
vt 0.0909496 0.7080167
vt 0.09118966 0.685544
vt 0.075726725 0.6857313
vt 0.07572677 0.7080201
vt 0.0909496 0.7080167
vt 0.09118966 0.685544
vt 0.075726725 0.6857313
vt 0.07572677 0.7080201
vt 0.0909496 0.7080167
vt 0.09118966 0.685544
vt 0.075726725 0.6857313
vt 0.07572677 0.7080201
vt 0.0909496 0.7080167
vt 0.09118966 0.685544
vt 0.075726725 0.6857313
vt 0.07572677 0.7080201
vt 0.0909496 0.7080167
vt 0.09118966 0.685544
vt 0.075726725 0.6857313
vt 0.07572677 0.7080201
vt 0.0909496 0.7080167
vt 0.09118966 0.685544
vt 0.075726725 0.6857313
vt 0.07572677 0.7080201
vt 0.0909496 0.7080167
vt 0.09118966 0.685544
vt 0.075726725 0.6857313
vt 0.07572677 0.7080201
vt 0.0909496 0.7080167
vt 0.09118966 0.685544
vt 0.075726725 0.6857313
vt 0.07572677 0.7080201
vn -0 -1.6497651E-07 1
vn -0 -1.6497648E-07 1
vn -0 -1.650021E-07 1
vn -0 -1.6499999E-07 1
vn -0 -1.6500684E-07 1
vn -0 -1.6500908E-07 1
vn -0 -1.6498281E-07 1
vn -0 -1.6498284E-07 1
vn -0 -1.6497341E-07 1
vn -0 -1.649727E-07 1
vn -0 -1.6496823E-07 1
vn -0 -1.6496821E-07 1
vn -0 -1.649759E-07 1
vn -0 -1.6497589E-07 1
vn -0 -1.6497494E-07 1
vn -0 -1.6497495E-07 1
vn -0 -1.6497455E-07 1
vn -0 -1.6497457E-07 1
vn -0 -1.6497461E-07 1
vn -0 -1.6497461E-07 1
vn -0.12246024 0.24911189 0.96070117
vn -0.12246025 0.24911189 0.96070117
vn -0.12246025 0.24911189 0.96070117
vn -0.12246024 0.24911189 0.96070117
vn -0.16090064 0.23510708 0.95855916
vn -0.16090064 0.2351071 0.95855916
vn -0.16090064 0.23510708 0.95855916
vn -0.16090062 0.2351071 0.95855916
vn 0.07524995 0.23037247 0.9701886
vn 0.07524994 0.23037247 0.9701886
vn 0.07524995 0.23037244 0.9701886
vn 0.07524995 0.23037247 0.9701886
vn -0.12246177 0.24911365 0.9607005
vn -0.12246177 0.24911365 0.9607005
vn -0.12246177 0.24911362 0.9607005
vn -0.12246177 0.24911365 0.9607005
vn -0.16090164 0.23510623 0.95855916
vn -0.16090164 0.23510623 0.95855916
vn -0.16090162 0.23510623 0.95855916
vn -0.1609016 0.23510621 0.95855916
vn -0.02722638 0.26261452 0.9645167
vn -0.02722638 0.26261452 0.9645167
vn -0.02722638 0.26261452 0.9645167
vn -0.02722638 0.26261452 0.9645167
vn -0.08632064 0.23947018 0.96705884
vn -0.086320646 0.23947018 0.96705884
vn -0.08632065 0.23947018 0.96705884
vn -0.08632065 0.23947018 0.96705884
vn 0.07525414 0.23037273 0.9701882
vn 0.07525415 0.23037276 0.9701882
vn 0.07525415 0.23037276 0.9701882
vn 0.07525414 0.23037273 0.9701882
vn 0.008576016 0.2774534 0.9607008
vn 0.008576016 0.2774534 0.9607008
vn 0.008576016 0.2774534 0.9607008
vn 0.008576015 0.27745336 0.9607008
vn -0.160903 0.23510522 0.95855916
vn -0.160903 0.23510522 0.95855916
vn -0.160903 0.23510522 0.95855916
vn -0.16090299 0.23510525 0.95855916
vn 0.25520146 0.24345702 0.9357355
vn 0.25520146 0.24345699 0.9357354
vn 0.25520146 0.24345699 0.9357354
vn 0.25520146 0.24345702 0.9357354
vn 0.13622262 0.17823772 0.9745126
vn 0.13622262 0.17823772 0.9745126
vn 0.13622263 0.17823772 0.9745126
vn 0.13622263 0.1782377 0.9745126
vn -0.027230006 0.26261753 0.9645157
vn -0.027230006 0.26261753 0.9645157
vn -0.027230002 0.26261753 0.9645157
vn -0.027230004 0.26261753 0.9645157
vn 0.08436632 0.21485893 0.9729944
vn 0.084366314 0.21485892 0.97299427
vn 0.08436632 0.21485893 0.9729944
vn 0.084366314 0.21485892 0.97299427
vn -0.086311795 0.23947534 0.9670583
vn -0.086311795 0.23947535 0.9670583
vn -0.086311795 0.23947534 0.9670583
vn -0.086311795 0.23947535 0.9670583
vn 0.16159596 0.18061246 0.9701886
vn 0.16159596 0.18061244 0.9701886
vn 0.16159596 0.18061246 0.9701886
vn 0.16159593 0.18061244 0.9701886
vn -0.122472905 0.24911232 0.9606995
vn -0.122472905 0.24911232 0.9606995
vn -0.12247292 0.24911238 0.9606995
vn -0.122472905 0.24911235 0.9606995
vn -0.052688666 0.2799812 0.9585585
vn -0.052688666 0.27998123 0.9585585
vn -0.052688666 0.2799812 0.9585585
vn -0.052688662 0.2799812 0.9585585
vn 0.1615932 0.18061414 0.97018874
vn 0.1615932 0.18061416 0.97018874
vn 0.1615932 0.18061416 0.97018874
vn 0.1615932 0.18061414 0.97018874
vn -0.011868589 0.27732933 0.9607016
vn -0.011868588 0.27732933 0.9607016
vn -0.011868589 0.27732933 0.9607016
vn -0.011868588 0.27732933 0.9607016
vn -0.052681293 0.27997518 0.9585607
vn -0.052681286 0.27997518 0.9585607
vn -0.052681282 0.27997518 0.9585607
vn -0.052681286 0.27997518 0.9585607
vn -0.2098614 0.19267426 0.95855874
vn -0.20986135 0.19267425 0.95855874
vn -0.20986135 0.19267423 0.95855874
vn -0.20986137 0.19267425 0.95855874
vn -0.027226187 0.26261294 0.964517
vn -0.027226187 0.26261294 0.964517
vn -0.027226184 0.26261294 0.964517
vn -0.027226185 0.2626129 0.964517
vn 0.08436586 0.21485507 0.9729952
vn 0.08436587 0.21485507 0.9729952
vn 0.08436587 0.21485509 0.9729952
vn 0.08436586 0.2148551 0.9729952
vn -0.08631721 0.2394753 0.9670579
vn -0.08631723 0.23947527 0.9670579
vn -0.08631723 0.2394753 0.9670579
vn -0.086317234 0.23947527 0.9670579
vn 0.1615944 0.1806138 0.9701886
vn 0.1615944 0.18061385 0.9701886
vn 0.16159442 0.18061383 0.9701886
vn 0.16159439 0.18061383 0.9701886
vn -0.20985952 0.19268112 0.9585577
vn -0.20985954 0.19268112 0.9585577
vn -0.20985952 0.1926811 0.9585577
vn -0.2098595 0.1926811 0.9585577
vn 0.085899875 0.081852086 0.9929357
vn 0.085899875 0.081852086 0.9929357
vn 0.08589988 0.08185208 0.9929357
vn 0.08589989 0.081852086 0.9929357
vn 0.027979117 0.056310166 0.99802125
vn 0.027979119 0.05631017 0.99802125
vn 0.027979119 0.056310166 0.99802125
vn 0.027979117 0.056310166 0.99802125
vn 0.27541822 0.007752599 0.9612932
vn 0.27541825 0.0077526 0.9612932
vn 0.27541825 0.007752599 0.9612932
vn 0.27541825 0.007752599 0.9612932
vn -0.0948414 0.006966669 0.995468
vn -0.0948414 0.0069666686 0.995468
vn -0.0948414 0.006966669 0.995468
vn -0.0948414 0.0069666686 0.995468
vn -0.058841012 0.25737488 0.96451855
vn -0.058841016 0.25737485 0.9645184
vn -0.05884101 0.25737485 0.9645184
vn -0.05884101 0.25737485 0.9645184
vn 0.25519836 0.24344869 0.93573844
vn 0.2551984 0.24344866 0.93573844
vn 0.25519836 0.24344866 0.93573844
vn 0.25519836 0.24344866 0.93573844
vn -0.05884301 0.2573883 0.9645148
vn -0.058843013 0.2573883 0.9645148
vn -0.05884301 0.2573883 0.9645148
vn -0.05884301 0.2573883 0.9645148
vn 0.0577206 0.22349161 0.9729953
vn 0.057720605 0.22349165 0.9729953
vn 0.057720605 0.22349161 0.9729953
vn 0.0577206 0.22349162 0.9729953
vn -0.086310685 0.23947182 0.9670593
vn -0.086310685 0.23947182 0.9670593
vn -0.08631069 0.23947184 0.9670593
vn -0.086310685 0.23947182 0.9670593
vn 0.16159736 0.18060374 0.97019
vn 0.16159736 0.18060374 0.97019
vn 0.16159736 0.18060374 0.97019
vn 0.16159736 0.18060374 0.97019
vn -0.12247575 0.24911164 0.96069926
vn -0.12247575 0.24911164 0.96069926
vn -0.12247575 0.24911164 0.96069926
vn -0.12247575 0.24911164 0.96069926
vn -0.052696697 0.27997527 0.9585598
vn -0.0526967 0.2799753 0.9585598
vn -0.0526967 0.27997527 0.9585598
vn -0.052696697 0.27997527 0.9585598
vn -0.011865269 0.27733368 0.9607004
vn -0.01186527 0.2773337 0.9607004
vn -0.01186527 0.2773337 0.9607004
vn -0.011865269 0.27733368 0.9607004
vn -0.05267791 0.27997917 0.9585597
vn -0.052677907 0.27997917 0.9585597
vn -0.05267791 0.27997917 0.9585597
vn -0.05267791 0.27997917 0.9585597
vn -0.20985872 0.1926699 0.9585601
vn -0.20985872 0.19266988 0.9585601
vn -0.20985873 0.19266988 0.9585601
vn -0.20985872 0.19266988 0.9585601
vn 0.08436931 0.21485871 0.97299415
vn 0.084369324 0.21485873 0.97299415
vn 0.08436931 0.21485868 0.97299415
vn 0.084369324 0.2148587 0.97299415
g MainMenu_SpaceShip_ElysionBoss_Leaves01_0
f 3/3/3 2/2/2 1/1/1
f 4/4/4 3/3/3 1/1/1
f 5/5/5 3/3/3 4/4/4
f 6/6/6 5/5/5 4/4/4
f 7/7/7 5/5/5 6/6/6
f 8/8/8 7/7/7 6/6/6
f 9/9/9 7/7/7 8/8/8
f 10/10/10 9/9/9 8/8/8
f 11/11/11 9/9/9 10/10/10
f 12/12/12 11/11/11 10/10/10
f 13/13/13 1/1/1 2/2/2
f 14/14/14 13/13/13 2/2/2
f 15/15/15 13/13/13 14/14/14
f 16/16/16 15/15/15 14/14/14
f 17/17/17 15/15/15 16/16/16
f 18/18/18 17/17/17 16/16/16
f 19/19/19 17/17/17 18/18/18
f 20/20/20 19/19/19 18/18/18
f 23/23/23 22/22/22 21/21/21
f 24/24/24 23/23/23 21/21/21
f 27/27/27 26/26/26 25/25/25
f 28/28/28 27/27/27 25/25/25
f 31/31/31 30/30/30 29/29/29
f 32/32/32 31/31/31 29/29/29
f 35/35/35 34/34/34 33/33/33
f 36/36/36 35/35/35 33/33/33
f 39/39/39 38/38/38 37/37/37
f 40/40/40 39/39/39 37/37/37
f 43/43/43 42/42/42 41/41/41
f 44/44/44 43/43/43 41/41/41
f 47/47/47 46/46/46 45/45/45
f 48/48/48 47/47/47 45/45/45
f 51/51/51 50/50/50 49/49/49
f 52/52/52 51/51/51 49/49/49
f 55/55/55 54/54/54 53/53/53
f 56/56/56 55/55/55 53/53/53
f 59/59/59 58/58/58 57/57/57
f 60/60/60 59/59/59 57/57/57
f 63/63/63 62/62/62 61/61/61
f 64/64/64 63/63/63 61/61/61
f 67/67/67 66/66/66 65/65/65
f 68/68/68 67/67/67 65/65/65
f 71/71/71 70/70/70 69/69/69
f 72/72/72 71/71/71 69/69/69
f 75/75/75 74/74/74 73/73/73
f 76/76/76 75/75/75 73/73/73
f 79/79/79 78/78/78 77/77/77
f 80/80/80 79/79/79 77/77/77
f 83/83/83 82/82/82 81/81/81
f 84/84/84 83/83/83 81/81/81
f 87/87/87 86/86/86 85/85/85
f 88/88/88 87/87/87 85/85/85
f 91/91/91 90/90/90 89/89/89
f 92/92/92 91/91/91 89/89/89
f 95/95/95 94/94/94 93/93/93
f 96/96/96 95/95/95 93/93/93
f 99/99/99 98/98/98 97/97/97
f 100/100/100 99/99/99 97/97/97
f 103/103/103 102/102/102 101/101/101
f 104/104/104 103/103/103 101/101/101
f 107/107/107 106/106/106 105/105/105
f 108/108/108 107/107/107 105/105/105
f 111/111/111 110/110/110 109/109/109
f 112/112/112 111/111/111 109/109/109
f 115/115/115 114/114/114 113/113/113
f 116/116/116 115/115/115 113/113/113
f 119/119/119 118/118/118 117/117/117
f 120/120/120 119/119/119 117/117/117
f 123/123/123 122/122/122 121/121/121
f 124/124/124 123/123/123 121/121/121
f 127/127/127 126/126/126 125/125/125
f 128/128/128 127/127/127 125/125/125
f 131/131/131 130/130/130 129/129/129
f 132/132/132 131/131/131 129/129/129
f 135/135/135 134/134/134 133/133/133
f 136/136/136 135/135/135 133/133/133
f 139/139/139 138/138/138 137/137/137
f 140/140/140 139/139/139 137/137/137
f 143/143/143 142/142/142 141/141/141
f 144/144/144 143/143/143 141/141/141
f 147/147/147 146/146/146 145/145/145
f 148/148/148 147/147/147 145/145/145
f 151/151/151 150/150/150 149/149/149
f 152/152/152 151/151/151 149/149/149
f 155/155/155 154/154/154 153/153/153
f 156/156/156 155/155/155 153/153/153
f 159/159/159 158/158/158 157/157/157
f 160/160/160 159/159/159 157/157/157
f 163/163/163 162/162/162 161/161/161
f 164/164/164 163/163/163 161/161/161
f 167/167/167 166/166/166 165/165/165
f 168/168/168 167/167/167 165/165/165
f 171/171/171 170/170/170 169/169/169
f 172/172/172 171/171/171 169/169/169
f 175/175/175 174/174/174 173/173/173
f 176/176/176 175/175/175 173/173/173
f 179/179/179 178/178/178 177/177/177
f 180/180/180 179/179/179 177/177/177
f 183/183/183 182/182/182 181/181/181
f 184/184/184 183/183/183 181/181/181
f 187/187/187 186/186/186 185/185/185
f 188/188/188 187/187/187 185/185/185
f 191/191/191 190/190/190 189/189/189
f 192/192/192 191/191/191 189/189/189
