g MainMenu_ElysionBoss_Near01_03
v -10.399859 -5.94797 -2.372281E-06
v -12.806924 -5.8121533 -2.3501536E-06
v -9.825157 -3.9660864 -2.0844227E-06
v -13.713145 -3.812718 -2.0244042E-06
v -12.934438 -8.977209 -2.8939155E-06
v -10.515607 -9.021357 -2.9124196E-06
v -8.044634 -9.9487304E-05 -1.4032499E-06
v -13.652867 0.14700317 -1.3792837E-06
v -16.041492 -3.9803407 -2.0517134E-06
v -16.819126 0.23005249 -1.3657534E-06
v -19.146263 -3.59827 -1.9894662E-06
v -19.839859 0.20128295 -1.3704406E-06
v -19.206947 3.4809313 -8.361178E-07
v -17.020512 3.509699 -8.3143107E-07
v -20.155167 -4.00244 -2.0654347E-06
v -23.476583 -3.2119763 -1.9547508E-06
v -23.467665 -4.5688953 -2.1818369E-06
v -20.213722 -4.8527727 -2.211427E-06
v -25.54285 0.086206056 -1.3891889E-06
v -25.44291 -3.035063 -1.9154922E-06
v -23.076643 -5.254777 -2.296622E-06
v -20.563644 -5.354392 -2.2975491E-06
v -20.610165 -8.986851 -2.9212E-06
v -23.05211 -8.98685 -2.9211997E-06
v -4.908824 0.17251281 -1.3751277E-06
v -7.670634 3.5960057 -8.173699E-07
v -5.3115907 3.509699 -8.3143107E-07
v -3.4960132 -3.9085498 -2.075049E-06
v 0.33023402 -4.3174853 -2.1066412E-06
v -0.21637361 -8.973763 -2.9240566E-06
v -2.8055577 -9.031306 -2.9334317E-06
v 4.4122815 0.11497619 -1.3845017E-06
v 7.297028 -0.015603027 -1.4057756E-06
v 4.611797 3.3002489 -8.6555474E-07
v 6.747778 3.3002489 -8.6555474E-07
v 6.6018405 -4.259947 -2.097267E-06
v 8.436215 -0.015602416 -1.4057755E-06
v 10.428075 -3.6845708 -2.0035263E-06
v 10.255461 -8.991252 -2.911103E-06
v 7.4073715 -9.077558 -2.9251642E-06
v 13.835549 0.3320044 -1.3491432E-06
v 8.421024 2.369577 -1.0171806E-06
v 13.662463 2.860656 -9.371736E-07
v 14.44548 -3.5919487 -1.9994777E-06
v 19.058725 -2.6201224 -1.8301058E-06
v 18.870907 -8.979973 -2.9208984E-06
v 15.059859 -9.011182 -2.9188334E-06
v 19.057821 0.66821164 -1.2943681E-06
v 24.702692 1.0316266 -1.2351604E-06
v 19.057081 3.3660862 -8.548285E-07
v 23.916994 4.500463 -6.7001514E-07
v 18.953386 8.263853 -5.6881106E-08
v 22.777807 9.077558 7.568829E-08
v 25.530922 4.500463 -6.7001514E-07
v 25.530922 1.0857147 -1.2263482E-06
v 25.530922 -2.677657 -1.8394793E-06
vt 0.29620552 0.42736104
vt 0.24907282 0.43002042
vt 0.3074588 0.46616834
vt 0.23132804 0.4691714
vt 0.24657592 0.36804545
vt 0.29393908 0.36718103
vt 0.34232327 0.5438263
vt 0.23250839 0.5467067
vt 0.1857367 0.46588916
vt 0.17050987 0.5483329
vt 0.12494214 0.4733705
vt 0.111360885 0.5477696
vt 0.12375393 0.6119884
vt 0.16656654 0.61255175
vt 0.10518683 0.46545643
vt 0.04015017 0.48093453
vt 0.040324807 0.45436466
vt 0.10404026 0.44880605
vt -0.00030941912 0.54551625
vt 0.001647539 0.48439863
vt 0.04798141 0.4409344
vt 0.097188435 0.43898386
vt 0.09627745 0.36785665
vt 0.04846173 0.36785668
vt 0.40372556 0.5472062
vt 0.34964657 0.61424166
vt 0.395839 0.6125517
vt 0.4313898 0.46729493
vt 0.5063116 0.45928752
vt 0.4956085 0.36811295
vt 0.44490966 0.3669862
vt 0.5862422 0.54607964
vt 0.64272845 0.5435227
vt 0.59014887 0.6084505
vt 0.63197356 0.6084505
vt 0.629116 0.46041423
vt 0.6650349 0.5435228
vt 0.7040375 0.47168064
vt 0.70065755 0.36777052
vt 0.6448891 0.36608055
vt 0.7707593 0.55032927
vt 0.66473746 0.590227
vt 0.7673701 0.5998428
vt 0.78270245 0.47349432
vt 0.87303436 0.49252367
vt 0.8693567 0.36799142
vt 0.7947325 0.3673803
vt 0.8730166 0.55691254
vt 0.9835488 0.56402856
vt 0.87300205 0.60973966
vt 0.9681641 0.63195187
vt 0.8709717 0.7056428
vt 0.94585764 0.721576
vt 0.9997664 0.63195187
vt 0.99976647 0.5650877
vt 0.99976647 0.49139708
vn -0 -1.5880977E-07 1
vn -0 -1.6301199E-07 1
vn -0 -1.640355E-07 1
vn -0 -1.637826E-07 1
vn -0 -1.7382094E-07 1
vn -0 -1.7382094E-07 1
vn -0 -1.6809963E-07 1
vn -0 -1.6552146E-07 1
vn -0 -1.6292068E-07 1
vn -0 -1.6292068E-07 1
vn -0 -1.6384688E-07 1
vn -0 -1.6460481E-07 1
vn -0 -1.6292071E-07 1
vn -0 -1.6292071E-07 1
vn -0 -1.6647842E-07 1
vn -0 -1.6890185E-07 1
vn -0 -1.6906978E-07 1
vn -0 -1.6908807E-07 1
vn -0 -1.7066351E-07 1
vn -0 -1.706635E-07 1
vn -0 -1.6942946E-07 1
vn -0 -1.6943036E-07 1
vn -0 -1.6948235E-07 1
vn -0 -1.6948233E-07 1
vn -0 -1.6730588E-07 1
vn -0 -1.629207E-07 1
vn -0 -1.6292068E-07 1
vn -0 -1.691852E-07 1
vn -0 -1.6738569E-07 1
vn -0 -1.714536E-07 1
vn -0 -1.714536E-07 1
vn -0 -1.6350073E-07 1
vn -0 -1.629207E-07 1
vn -0 -1.6292073E-07 1
vn -0 -1.6292073E-07 1
vn -0 -1.6580152E-07 1
vn -0 -1.6317041E-07 1
vn -0 -1.6589418E-07 1
vn -0 -1.713645E-07 1
vn -0 -1.7136448E-07 1
vn -0 -1.635734E-07 1
vn -0 -1.6292067E-07 1
vn -0 -1.6292068E-07 1
vn -0 -1.6655149E-07 1
vn -0 -1.6572362E-07 1
vn -0 -1.7063748E-07 1
vn -0 -1.706375E-07 1
vn -0 -1.6330631E-07 1
vn -0 -1.6292071E-07 1
vn -0 -1.629207E-07 1
vn -0 -1.629207E-07 1
vn -0 -1.629207E-07 1
vn -0 -1.6292068E-07 1
vn -0 -1.629207E-07 1
vn -0 -1.6292071E-07 1
vn -0 -1.6292071E-07 1
g MainMenu_ElysionBoss_Near01_03_0
f 3/3/3 2/2/2 1/1/1
f 4/4/4 2/2/2 3/3/3
f 1/1/1 2/2/2 5/5/5
f 6/6/6 1/1/1 5/5/5
f 3/3/3 7/7/7 4/4/4
f 7/7/7 8/8/8 4/4/4
f 4/4/4 8/8/8 9/9/9
f 8/8/8 10/10/10 9/9/9
f 9/9/9 10/10/10 11/11/11
f 10/10/10 12/12/12 11/11/11
f 13/13/13 12/12/12 10/10/10
f 14/14/14 13/13/13 10/10/10
f 11/11/11 12/12/12 15/15/15
f 12/12/12 16/16/16 15/15/15
f 16/16/16 17/17/17 15/15/15
f 17/17/17 18/18/18 15/15/15
f 16/16/16 12/12/12 19/19/19
f 20/20/20 16/16/16 19/19/19
f 17/17/17 21/21/21 18/18/18
f 21/21/21 22/22/22 18/18/18
f 23/23/23 22/22/22 21/21/21
f 24/24/24 23/23/23 21/21/21
f 26/26/26 7/7/7 25/25/25
f 27/27/27 26/26/26 25/25/25
f 25/25/25 7/7/7 28/28/28
f 25/25/25 28/28/28 29/29/29
f 30/30/30 29/29/29 28/28/28
f 31/31/31 30/30/30 28/28/28
f 32/32/32 25/25/25 29/29/29
f 33/33/33 32/32/32 29/29/29
f 34/34/34 32/32/32 33/33/33
f 35/35/35 34/34/34 33/33/33
f 36/36/36 33/33/33 29/29/29
f 37/37/37 33/33/33 36/36/36
f 38/38/38 37/37/37 36/36/36
f 39/39/39 38/38/38 36/36/36
f 40/40/40 39/39/39 36/36/36
f 7/7/7 3/3/3 28/28/28
f 41/41/41 37/37/37 38/38/38
f 37/37/37 41/41/41 42/42/42
f 41/41/41 43/43/43 42/42/42
f 44/44/44 41/41/41 38/38/38
f 41/41/41 44/44/44 45/45/45
f 46/46/46 45/45/45 44/44/44
f 47/47/47 46/46/46 44/44/44
f 48/48/48 41/41/41 45/45/45
f 43/43/43 41/41/41 48/48/48
f 49/49/49 48/48/48 45/45/45
f 48/48/48 49/49/49 50/50/50
f 50/50/50 43/43/43 48/48/48
f 49/49/49 51/51/51 50/50/50
f 52/52/52 50/50/50 51/51/51
f 53/53/53 52/52/52 51/51/51
f 51/51/51 49/49/49 54/54/54
f 49/49/49 55/55/55 54/54/54
f 56/56/56 49/49/49 45/45/45
f 56/56/56 55/55/55 49/49/49
