g Corridor03_06
v -97.53223 -6.0117188 -88.99512
v -98.29883 -6.0126953 -88.637695
v -130.10352 12.763548 -156.89746
v -129.33594 12.764527 -157.25488
v -130.10352 12.763548 -156.89746
v -98.29883 -6.0126953 -88.637695
v -98.387695 -6.8589478 -88.8291
v -130.19238 11.917359 -157.08887
vt 0.56679684 0.846586
vt 0.5667967 0.8209714
vt 0.5667967 0.8209714
vt 0.56679684 0.846586
vt 0.5667967 0.8209714
vt 0.5667967 0.8209714
vt 0.56679666 0.7917819
vt 0.56679666 0.7917819
vn 0.101161666 0.9702939 0.21976383
vn 0.10116166 0.9702939 0.21976383
vn 0.10116166 0.97029376 0.2197638
vn 0.10116166 0.97029376 0.2197638
vn -0.90646994 -0.00033093305 0.42227024
vn -0.90646994 -0.00033093305 0.42227018
vn -0.90646994 -0.00033093305 0.42227018
vn -0.90646994 -0.00033093305 0.42227024
g Corridor03_06_0
f 3/3/3 2/2/2 1/1/1
f 4/4/4 3/3/3 1/1/1
f 7/7/7 6/6/6 5/5/5
f 8/8/8 7/7/7 5/5/5
