g Far_Ring_01
v 4.132461 -143.07361 9.900147
v -10.718601 -177.32231 9.900146
v -25.228748 -170.09715 9.900146
v -10.917832 -137.24304 9.900149
v 0.22681406 -104.38896 9.900152
v 15.817453 -108.82488 9.90015
v 15.333464 -108.68722 9.851966
v 15.333464 -108.68722 -9.900173
v 3.665339 -142.89273 -9.900175
v 3.665339 -142.89273 9.851964
v -11.169055 -177.09825 9.851961
v -11.169055 -177.09825 -9.900178
v 0.71060467 -104.52666 -9.900173
v 0.71060467 -104.52666 9.851966
v -10.450711 -137.42412 9.851964
v -10.450711 -137.42412 -9.900175
v -24.778494 -170.32158 -9.900178
v -24.778494 -170.32158 9.851963
v 24.149645 -72.72124 9.900154
v 15.817453 -108.82488 9.90015
v 0.22681406 -104.38896 9.900152
v 8.28417 -69.75547 9.900155
v 13.175059 -35.121975 9.900158
v 29.31537 -36.617573 9.900157
v 28.814316 -36.571163 9.851973
v 28.814316 -36.571163 -9.9001665
v 23.657124 -72.62919 -9.90017
v 23.657124 -72.62919 9.851969
v 15.333464 -108.68722 9.851966
v 15.333464 -108.68722 -9.900173
v 13.675916 -35.168385 -9.9001665
v 13.675916 -35.168385 9.851973
v 8.776296 -69.84752 9.851969
v 8.776296 -69.84752 -9.90017
v 0.71060467 -104.52666 -9.900173
v 0.71060467 -104.52666 9.851966
v 30.898504 0.111472264 9.90016
v 29.31537 -36.617573 9.900157
v 13.175059 -35.121975 9.900158
v 14.758194 0.111472264 9.900162
v 13.175059 35.344894 9.900165
v 29.31537 36.840515 9.900163
v 28.814316 36.794083 9.851978
v 28.814316 36.794083 -9.900161
v 30.397251 0.111472264 -9.900164
v 30.397251 0.111472264 9.851975
v 28.814316 -36.571163 9.851973
v 28.814316 -36.571163 -9.9001665
v 13.675916 35.391277 -9.900161
v 13.675916 35.391277 9.851978
v 15.258851 0.11144746 9.851975
v 15.258851 0.11144746 -9.900164
v 13.675916 -35.168385 -9.9001665
v 13.675916 -35.168385 9.851973
v 24.149645 72.944084 9.900167
v 29.31537 36.840515 9.900163
v 13.175059 35.344894 9.900165
v 8.283972 69.97829 9.900167
v 0.22681406 104.61169 9.90017
v 15.817453 109.04761 9.90017
v 15.333662 108.909744 9.851986
v 15.333662 108.909744 -9.900154
v 23.657124 72.85191 -9.900158
v 23.657124 72.85191 9.851981
v 28.814316 36.794083 9.851978
v 28.814316 36.794083 -9.900161
v 0.7108031 104.7492 -9.900154
v 0.7108031 104.7492 9.851985
v 8.776296 70.07021 9.851981
v 8.776296 70.07021 -9.900158
v 13.675916 35.391277 -9.900161
v 13.675916 35.391277 9.851978
v 4.132461 143.29633 9.900174
v 15.817453 109.04761 9.90017
v 0.22681406 104.61169 9.90017
v -10.917832 137.46579 9.900174
v -25.228748 170.3199 9.900177
v -10.718601 177.54506 9.900179
v -11.168856 177.32082 9.851994
v -11.168856 177.32082 -9.9001465
v 3.665339 143.11525 -9.90015
v 3.665339 143.11525 9.851991
v 15.333662 108.909744 9.851986
v 15.333662 108.909744 -9.900154
v -24.778296 170.54413 -9.9001465
v -24.778296 170.54413 9.851994
v -10.450711 137.64667 9.851989
v -10.450711 137.64667 -9.90015
v 0.7108031 104.7492 -9.900154
v 0.7108031 104.7492 9.851985
v -29.31537 -178.4239 9.900145
v -25.228748 -170.09715 9.900146
v -10.718601 -177.32231 9.900146
v -14.624844 -185.27397 9.900145
v -14.119026 185.27394 9.900145
v -10.718601 177.54506 9.900179
v -25.228748 170.3199 9.900177
v -28.809355 178.4235 9.900145
v 3.6010454 -142.89273 -9.900175
v 15.269368 -108.68722 -9.900173
v 15.269368 -108.68722 9.851966
v 3.6010454 -142.89273 9.851963
v -11.23315 -177.09825 -9.900178
v -11.23315 -177.09825 9.851961
v 23.592829 -72.62919 -9.90017
v 28.75022 -36.571163 -9.9001665
v 28.75022 -36.571163 9.851973
v 23.592829 -72.62919 9.851969
v 15.269368 -108.68722 -9.900173
v 15.269368 -108.68722 9.851966
v 30.333355 0.111472264 -9.900164
v 28.75022 36.794083 -9.900161
v 28.75022 36.794083 9.851978
v 30.333355 0.111472264 9.851975
v 28.75022 -36.571163 -9.9001665
v 28.75022 -36.571163 9.851973
v 23.592829 72.85191 -9.900158
v 15.269567 108.909744 -9.900154
v 15.269567 108.909744 9.851986
v 23.592829 72.85191 9.851981
v 28.75022 36.794083 -9.900161
v 28.75022 36.794083 9.851978
v 3.601442 143.11525 -9.90015
v -11.232951 177.32082 -9.9001465
v -11.232951 177.32082 9.851994
v 3.601442 143.11525 9.851991
v 15.269567 108.909744 -9.900154
v 15.269567 108.909744 9.851986
v -10.388401 -137.42412 9.851964
v 0.77291405 -104.52666 9.851966
v 0.77291405 -104.52666 -9.900173
v -10.388401 -137.42412 -9.900175
v -24.716185 -170.32158 9.851963
v -24.716185 -170.32158 -9.900178
v 8.838605 -69.84752 9.851969
v 13.738225 -35.168385 9.851973
v 13.738225 -35.168385 -9.9001665
v 8.838605 -69.84752 -9.90017
v 0.77291405 -104.52666 9.851966
v 0.77291405 -104.52666 -9.900173
v 15.32116 0.11144746 9.851975
v 13.738225 35.391277 9.851978
v 13.738225 35.391277 -9.900161
v 15.32116 0.11144746 -9.900164
v 13.738225 -35.168385 9.851973
v 13.738225 -35.168385 -9.9001665
v 8.838605 70.07021 9.851981
v 0.7731125 104.7492 9.851985
v 0.7731125 104.7492 -9.900154
v 8.838605 70.07021 -9.900158
v 13.738225 35.391277 9.851978
v 13.738225 35.391277 -9.900161
v -10.388401 137.64667 9.851989
v -24.715986 170.54413 9.851994
v -24.715986 170.54413 -9.9001465
v -10.388401 137.64667 -9.90015
v 0.7731125 104.7492 9.851985
v 0.7731125 104.7492 -9.900154
vt 0.4993673 0.7314178
vt -0.0010106069 0.73141783
vt -0.0010105679 0.521777
vt 0.4993673 0.52177703
vt 0.9997452 0.5217771
vt 0.9997452 0.73141766
vt 0.9792309 0.30751345
vt 0.9792309 0.0067580817
vt 0.5050957 0.0067581655
vt 0.5050957 0.30751354
vt 0.030960605 0.3075136
vt 0.030960532 0.006758249
vt 0.030960532 0.006758249
vt 0.030960605 0.3075136
vt 0.5050957 0.30751354
vt 0.5050957 0.0067581655
vt 0.9792309 0.0067580817
vt 0.9792309 0.30751345
vt 0.4993673 0.7314178
vt -0.0010106069 0.73141783
vt -0.0010105679 0.521777
vt 0.4993673 0.52177703
vt 0.9997452 0.5217771
vt 0.9997452 0.73141766
vt 0.9792309 0.30751345
vt 0.9792309 0.0067580817
vt 0.5050957 0.0067581655
vt 0.5050957 0.30751354
vt 0.030960605 0.3075136
vt 0.030960532 0.006758249
vt 0.030960532 0.006758249
vt 0.030960605 0.3075136
vt 0.5050957 0.30751354
vt 0.5050957 0.0067581655
vt 0.9792309 0.0067580817
vt 0.9792309 0.30751345
vt 0.4993673 0.7314178
vt -0.0010106069 0.73141783
vt -0.0010105679 0.521777
vt 0.4993673 0.52177703
vt 0.9997452 0.5217771
vt 0.9997452 0.73141766
vt 0.9792309 0.30751345
vt 0.9792309 0.0067580817
vt 0.5050957 0.0067581655
vt 0.5050957 0.30751354
vt 0.030960605 0.3075136
vt 0.030960532 0.006758249
vt 0.030960532 0.006758249
vt 0.030960605 0.3075136
vt 0.5050957 0.30751354
vt 0.5050957 0.0067581655
vt 0.9792309 0.0067580817
vt 0.9792309 0.30751345
vt 0.4993673 0.7314178
vt -0.0010106069 0.73141783
vt -0.0010105679 0.521777
vt 0.4993673 0.52177703
vt 0.9997452 0.5217771
vt 0.9997452 0.73141766
vt 0.9792309 0.30751345
vt 0.9792309 0.0067580817
vt 0.5050957 0.0067581655
vt 0.5050957 0.30751354
vt 0.030960605 0.3075136
vt 0.030960532 0.006758249
vt 0.030960532 0.006758249
vt 0.030960605 0.3075136
vt 0.5050957 0.30751354
vt 0.5050957 0.0067581655
vt 0.9792309 0.0067580817
vt 0.9792309 0.30751345
vt 0.4993673 0.7314178
vt -0.0010106069 0.73141783
vt -0.0010105679 0.521777
vt 0.4993673 0.52177703
vt 0.9997452 0.5217771
vt 0.9997452 0.73141766
vt 0.9792309 0.30751345
vt 0.9792309 0.0067580817
vt 0.5050957 0.0067581655
vt 0.5050957 0.30751354
vt 0.030960605 0.3075136
vt 0.030960532 0.006758249
vt 0.030960532 0.006758249
vt 0.030960605 0.3075136
vt 0.5050957 0.30751354
vt 0.5050957 0.0067581655
vt 0.9792309 0.0067580817
vt 0.9792309 0.30751345
vt 0.7674741 0.7618154
vt 0.6015058 0.7618154
vt 0.6015058 0.9729177
vt 0.7674741 0.9729177
vt 0.7674741 0.7618154
vt 0.6015058 0.7618154
vt 0.6015058 0.9729177
vt 0.7674741 0.9729177
vt 0.5050957 0.0067581655
vt 0.9792309 0.0067580817
vt 0.9792309 0.30751345
vt 0.5050957 0.30751354
vt 0.030960532 0.006758249
vt 0.030960605 0.3075136
vt 0.5050957 0.0067581655
vt 0.9792309 0.0067580817
vt 0.9792309 0.30751345
vt 0.5050957 0.30751354
vt 0.030960532 0.006758249
vt 0.030960605 0.3075136
vt 0.5050957 0.0067581655
vt 0.9792309 0.0067580817
vt 0.9792309 0.30751345
vt 0.5050957 0.30751354
vt 0.030960532 0.006758249
vt 0.030960605 0.3075136
vt 0.5050957 0.0067581655
vt 0.9792309 0.0067580817
vt 0.9792309 0.30751345
vt 0.5050957 0.30751354
vt 0.030960532 0.006758249
vt 0.030960605 0.3075136
vt 0.5050957 0.0067581655
vt 0.9792309 0.0067580817
vt 0.9792309 0.30751345
vt 0.5050957 0.30751354
vt 0.030960532 0.006758249
vt 0.030960605 0.3075136
vt 0.5050957 0.30751354
vt 0.030960605 0.3075136
vt 0.030960532 0.006758249
vt 0.5050957 0.0067581655
vt 0.9792309 0.30751345
vt 0.9792309 0.0067580817
vt 0.5050957 0.30751354
vt 0.030960605 0.3075136
vt 0.030960532 0.006758249
vt 0.5050957 0.0067581655
vt 0.9792309 0.30751345
vt 0.9792309 0.0067580817
vt 0.5050957 0.30751354
vt 0.030960605 0.3075136
vt 0.030960532 0.006758249
vt 0.5050957 0.0067581655
vt 0.9792309 0.30751345
vt 0.9792309 0.0067580817
vt 0.5050957 0.30751354
vt 0.030960605 0.3075136
vt 0.030960532 0.006758249
vt 0.5050957 0.0067581655
vt 0.9792309 0.30751345
vt 0.9792309 0.0067580817
vt 0.5050957 0.30751354
vt 0.030960605 0.3075136
vt 0.030960532 0.006758249
vt 0.5050957 0.0067581655
vt 0.9792309 0.30751345
vt 0.9792309 0.0067580817
vn -0 0 1
vn -0 0 1
vn -0 0 1
vn -0 0 1
vn -0 0 1
vn -0 0 1
vn 0.9616601 -0.2742441 0
vn 0.9616601 -0.2742441 0
vn 0.93269867 -0.36065674 0
vn 0.93269867 -0.36065674 0
vn 0.9174381 -0.3978785 0
vn 0.9174381 -0.3978785 0
vn -0.9616601 0.274244 0
vn -0.9616601 0.274244 0
vn -0.9327167 0.36061007 0
vn -0.9327167 0.36061007 0
vn -0.9168198 0.39930114 0
vn -0.9168198 0.39930114 0
vn -0 0 1
vn -0 0 1
vn -0 0 1
vn -0 0 1
vn -0 0 1
vn -0 0 1
vn 0.9957163 -0.092461154 0
vn 0.9957163 -0.09246116 0
vn 0.98303473 -0.18341967 0
vn 0.98303473 -0.18341967 0
vn 0.9616601 -0.2742441 0
vn 0.9616601 -0.2742441 0
vn -0.99571604 0.09246442 0
vn -0.99571604 0.09246442 0
vn -0.9830397 0.18339272 0
vn -0.9830397 0.18339272 0
vn -0.9616601 0.274244 0
vn -0.9616601 0.274244 0
vn -0 0 1
vn -0 0 1
vn -0 0 1
vn -0 0 1
vn -0 0 1
vn -0 0 1
vn 0.9957163 0.09246154 0
vn 0.9957163 0.09246154 0
vn 1 0 0
vn 1 0 0
vn 0.9957163 -0.092461154 0
vn 0.9957163 -0.09246116 0
vn -0.9957159 -0.092464805 0
vn -0.9957159 -0.09246481 0
vn -1 0 0
vn -1 0 0
vn -0.99571604 0.09246442 0
vn -0.99571604 0.09246442 0
vn -0 0 1
vn -0 0 1
vn -0 0 1
vn -0 0 1
vn -0 0 1
vn -0 0 1
vn 0.96165997 0.2742447 0
vn 0.96165997 0.2742447 0
vn 0.98303497 0.18341807 0
vn 0.98303497 0.18341807 0
vn 0.9957163 0.09246154 0
vn 0.9957163 0.09246154 0
vn -0.96165997 -0.2742445 0
vn -0.96165997 -0.2742445 0
vn -0.98304003 -0.18339095 0
vn -0.98304003 -0.18339095 0
vn -0.9957159 -0.092464805 0
vn -0.9957159 -0.09246481 0
vn -0 0 1
vn -0 0 1
vn -0 0 1
vn -0 0 1
vn -8.329205E-07 1.6134711E-06 1
vn -8.868738E-07 1.7256627E-06 1
vn 0.9174403 0.3978736 0
vn 0.9174403 0.39787355 0
vn 0.93269867 0.36065668 0
vn 0.93269867 0.36065668 0
vn 0.96165997 0.2742447 0
vn 0.96165997 0.2742447 0
vn -0.91682184 -0.3992965 0
vn -0.91682184 -0.39929643 0
vn -0.9327166 -0.36061022 0
vn -0.9327166 -0.3606102 0
vn -0.96165997 -0.2742445 0
vn -0.96165997 -0.2742445 0
vn -0 0 1
vn -0 0 1
vn -0 0 1
vn -0 0 1
vn -1.717623E-06 3.4531427E-06 1
vn -8.868738E-07 1.7256627E-06 1
vn -8.329205E-07 1.6134711E-06 1
vn -1.717623E-06 3.4531427E-06 1
vn -0.9326986 0.36065686 0
vn -0.9616601 0.27424407 0
vn -0.9616601 0.27424407 0
vn -0.9326986 0.36065686 0
vn -0.9174401 0.397874 0
vn -0.91744 0.397874 0
vn -0.98303473 0.18341975 0
vn -0.9957158 0.09246652 0
vn -0.9957158 0.09246652 0
vn -0.98303473 0.18341975 0
vn -0.9616601 0.27424407 0
vn -0.9616601 0.27424407 0
vn -1 0 0
vn -0.9957158 -0.09246692 0
vn -0.9957158 -0.09246692 0
vn -1 0 0
vn -0.9957158 0.09246652 0
vn -0.9957158 0.09246652 0
vn -0.98303497 -0.18341815 0
vn -0.9616614 -0.27423966 0
vn -0.9616614 -0.2742397 0
vn -0.98303497 -0.18341814 0
vn -0.9957158 -0.09246692 0
vn -0.9957158 -0.09246692 0
vn -0.9326988 -0.3606565 0
vn -0.91743827 -0.3978779 0
vn -0.91743827 -0.3978779 0
vn -0.9326988 -0.3606565 0
vn -0.9616614 -0.27423966 0
vn -0.9616614 -0.2742397 0
vn 0.9327167 -0.36061007 0
vn 0.9616601 -0.274244 0
vn 0.9616601 -0.27424404 0
vn 0.9327167 -0.36061007 0
vn 0.9168198 -0.39930114 0
vn 0.9168198 -0.39930114 0
vn 0.9830397 -0.18339272 0
vn 0.99571604 -0.09246442 0
vn 0.99571604 -0.09246442 0
vn 0.9830397 -0.18339272 0
vn 0.9616601 -0.274244 0
vn 0.9616601 -0.27424404 0
vn 1 0 0
vn 0.9957159 0.09246481 0
vn 0.9957159 0.092464805 0
vn 1 0 0
vn 0.99571604 -0.09246442 0
vn 0.99571604 -0.09246442 0
vn 0.98304003 0.18339092 0
vn 0.96165997 0.2742445 0
vn 0.96165997 0.2742445 0
vn 0.98304003 0.18339092 0
vn 0.9957159 0.09246481 0
vn 0.9957159 0.092464805 0
vn 0.9327166 0.36061022 0
vn 0.91682184 0.39929643 0
vn 0.91682184 0.3992965 0
vn 0.9327166 0.36061022 0
vn 0.96165997 0.2742445 0
vn 0.96165997 0.2742445 0
g Far_Ring_01_0
f 3/3/3 2/2/2 1/1/1
f 4/4/4 3/3/3 1/1/1
f 5/5/5 4/4/4 1/1/1
f 6/6/6 5/5/5 1/1/1
f 9/9/9 8/8/8 7/7/7
f 10/10/10 9/9/9 7/7/7
f 9/9/9 10/10/10 11/11/11
f 12/12/12 9/9/9 11/11/11
f 15/15/15 14/14/14 13/13/13
f 16/16/16 15/15/15 13/13/13
f 15/15/15 16/16/16 17/17/17
f 18/18/18 15/15/15 17/17/17
f 21/21/21 20/20/20 19/19/19
f 22/22/22 21/21/21 19/19/19
f 23/23/23 22/22/22 19/19/19
f 24/24/24 23/23/23 19/19/19
f 27/27/27 26/26/26 25/25/25
f 28/28/28 27/27/27 25/25/25
f 27/27/27 28/28/28 29/29/29
f 30/30/30 27/27/27 29/29/29
f 33/33/33 32/32/32 31/31/31
f 34/34/34 33/33/33 31/31/31
f 33/33/33 34/34/34 35/35/35
f 36/36/36 33/33/33 35/35/35
f 39/39/39 38/38/38 37/37/37
f 40/40/40 39/39/39 37/37/37
f 41/41/41 40/40/40 37/37/37
f 42/42/42 41/41/41 37/37/37
f 45/45/45 44/44/44 43/43/43
f 46/46/46 45/45/45 43/43/43
f 45/45/45 46/46/46 47/47/47
f 48/48/48 45/45/45 47/47/47
f 51/51/51 50/50/50 49/49/49
f 52/52/52 51/51/51 49/49/49
f 51/51/51 52/52/52 53/53/53
f 54/54/54 51/51/51 53/53/53
f 57/57/57 56/56/56 55/55/55
f 58/58/58 57/57/57 55/55/55
f 59/59/59 58/58/58 55/55/55
f 60/60/60 59/59/59 55/55/55
f 63/63/63 62/62/62 61/61/61
f 64/64/64 63/63/63 61/61/61
f 63/63/63 64/64/64 65/65/65
f 66/66/66 63/63/63 65/65/65
f 69/69/69 68/68/68 67/67/67
f 70/70/70 69/69/69 67/67/67
f 69/69/69 70/70/70 71/71/71
f 72/72/72 69/69/69 71/71/71
f 75/75/75 74/74/74 73/73/73
f 76/76/76 75/75/75 73/73/73
f 77/77/77 76/76/76 73/73/73
f 78/78/78 77/77/77 73/73/73
f 81/81/81 80/80/80 79/79/79
f 82/82/82 81/81/81 79/79/79
f 81/81/81 82/82/82 83/83/83
f 84/84/84 81/81/81 83/83/83
f 87/87/87 86/86/86 85/85/85
f 88/88/88 87/87/87 85/85/85
f 87/87/87 88/88/88 89/89/89
f 90/90/90 87/87/87 89/89/89
f 93/93/93 92/92/92 91/91/91
f 94/94/94 93/93/93 91/91/91
f 97/97/97 96/96/96 95/95/95
f 98/98/98 97/97/97 95/95/95
f 101/101/101 100/100/100 99/99/99
f 102/102/102 101/101/101 99/99/99
f 102/102/102 99/99/99 103/103/103
f 104/104/104 102/102/102 103/103/103
f 107/107/107 106/106/106 105/105/105
f 108/108/108 107/107/107 105/105/105
f 108/108/108 105/105/105 109/109/109
f 110/110/110 108/108/108 109/109/109
f 113/113/113 112/112/112 111/111/111
f 114/114/114 113/113/113 111/111/111
f 114/114/114 111/111/111 115/115/115
f 116/116/116 114/114/114 115/115/115
f 119/119/119 118/118/118 117/117/117
f 120/120/120 119/119/119 117/117/117
f 120/120/120 117/117/117 121/121/121
f 122/122/122 120/120/120 121/121/121
f 125/125/125 124/124/124 123/123/123
f 126/126/126 125/125/125 123/123/123
f 126/126/126 123/123/123 127/127/127
f 128/128/128 126/126/126 127/127/127
f 131/131/131 130/130/130 129/129/129
f 132/132/132 131/131/131 129/129/129
f 132/132/132 129/129/129 133/133/133
f 134/134/134 132/132/132 133/133/133
f 137/137/137 136/136/136 135/135/135
f 138/138/138 137/137/137 135/135/135
f 138/138/138 135/135/135 139/139/139
f 140/140/140 138/138/138 139/139/139
f 143/143/143 142/142/142 141/141/141
f 144/144/144 143/143/143 141/141/141
f 144/144/144 141/141/141 145/145/145
f 146/146/146 144/144/144 145/145/145
f 149/149/149 148/148/148 147/147/147
f 150/150/150 149/149/149 147/147/147
f 150/150/150 147/147/147 151/151/151
f 152/152/152 150/150/150 151/151/151
f 155/155/155 154/154/154 153/153/153
f 156/156/156 155/155/155 153/153/153
f 156/156/156 153/153/153 157/157/157
f 158/158/158 156/156/156 157/157/157
