g P04
v 52.176605 1.885431 -8.218813
v 50.252033 1.885431 -16.235264
v 50.252033 3.922656 -16.235264
v 52.176605 3.922656 -8.218813
v 47.0971 3.922656 -23.851954
v 47.0971 1.885431 -23.851954
v 42.789497 3.922656 -30.881323
v 42.789497 1.885431 -30.881323
v 37.43529 3.922656 -37.15029
v 37.43529 1.885431 -37.15029
v 31.166327 3.922656 -42.5045
v 31.166327 1.885431 -42.5045
v 24.136957 3.922656 -46.812103
v 24.136957 1.885431 -46.812103
v 16.520271 3.922656 -49.96704
v 16.520271 1.885431 -49.96704
v 8.50382 3.922656 -51.89162
v 8.50382 1.885431 -51.89162
v 0.28499395 3.922656 -52.53846
v 0.28499395 1.885431 -52.53846
v -7.933831 3.922656 -51.89162
v -7.933831 1.885431 -51.89162
v -15.950282 3.922656 -49.96704
v -15.950282 1.885431 -49.96704
v -23.566965 3.922656 -46.812107
v -23.566965 1.885431 -46.812107
v -30.596336 3.922656 -42.50451
v -30.596336 1.885431 -42.50451
v -36.865303 3.922656 -37.150303
v -36.865303 1.885431 -37.150303
v -42.21951 3.922656 -30.881338
v -42.21951 1.885431 -30.881338
v -46.527115 3.922656 -23.851967
v -46.527115 1.885431 -23.851967
v -49.68205 3.922656 -16.235281
v -49.68205 1.885431 -16.235281
v -51.60663 3.922656 -8.218833
v -51.60663 1.885431 -8.218833
v -52.25346 3.922656 -8.611719E-06
v -52.25346 1.885431 -8.611719E-06
v -51.60663 3.922656 8.218815
v -51.60663 1.885431 8.218815
v -49.68205 3.922656 16.235264
v -49.68205 1.885431 16.235264
v -46.52712 3.922656 23.851948
v -46.52712 1.885431 23.851948
v -42.219517 3.922656 30.881315
v -42.219517 1.885431 30.881315
v -36.86531 3.922656 37.15028
v -36.86531 1.885431 37.15028
v -30.596348 3.922656 42.504486
v -30.596348 1.885431 42.504486
v -23.566977 3.922656 46.812088
v -23.566977 1.885431 46.812088
v -15.950295 3.922656 49.967026
v -15.950295 1.885431 49.967026
v -7.933847 3.922656 51.891605
v -7.933847 1.885431 51.891605
v 0.28497672 3.922656 52.53844
v 0.28497672 1.885431 52.53844
v 8.503799 3.922656 51.891605
v 8.503799 1.885431 51.891605
v 16.520247 3.922656 49.967026
v 16.520247 1.885431 49.967026
v 24.13693 3.922656 46.81209
v 24.13693 1.885431 46.81209
v 31.166298 3.922656 42.504498
v 31.166298 1.885431 42.504498
v 37.435265 3.922656 37.150284
v 37.435265 1.885431 37.150284
v 42.789467 3.922656 30.881317
v 42.789467 1.885431 30.881317
v 47.09707 3.922656 23.851954
v 47.09707 1.885431 23.851954
v 50.251995 3.922656 16.235268
v 50.251995 1.885431 16.235268
v 52.176575 3.922656 8.218822
v 52.176575 1.885431 8.218822
v 52.823406 3.922656 0
v 52.823406 1.885431 0
v 52.176605 3.922656 -8.218813
v 52.176605 1.885431 -8.218813
vt 0.547453 2.3961785
vt 0.5474531 2.3018188
vt 0.61674243 2.3018188
vt 0.61674243 2.396177
vt 0.6167423 2.2074618
vt 0.547453 2.2074618
vt 0.61674243 2.1131039
vt 0.5474531 2.1131032
vt 0.61674243 2.018745
vt 0.5474531 2.018745
vt 0.61674243 1.9243865
vt 0.547453 1.9243879
vt 0.61674243 1.8300292
vt 0.5474531 1.8300292
vt 0.61674243 1.7356708
vt 0.547453 1.7356708
vt 0.61674243 1.6413128
vt 0.5474531 1.6413128
vt 0.61674243 1.5469542
vt 0.547453 1.5469542
vt 0.61674243 1.4525964
vt 0.5474531 1.4525964
vt 0.6167423 1.3582383
vt 0.547453 1.3582383
vt 0.61674243 1.2638806
vt 0.5474531 1.2638806
vt 0.6167423 1.1695211
vt 0.547453 1.1695211
vt 0.61674243 1.0751641
vt 0.547453 1.0751641
vt 0.61674243 0.9808061
vt 0.547453 0.9808055
vt 0.6167423 0.8864479
vt 0.547453 0.8864479
vt 0.61674243 0.79209006
vt 0.547453 0.79208887
vt 0.6167423 0.69773126
vt 0.547453 0.69773126
vt 0.61674243 0.6033734
vt 0.5474531 0.6033734
vt 0.6167423 0.50901526
vt 0.5474531 0.50901526
vt 0.61674243 0.4146573
vt 0.547453 0.4146564
vt 0.61674243 0.3202983
vt 0.5474531 0.3202983
vt 0.61674243 0.22593969
vt 0.547453 0.22593969
vt 0.61674243 0.1315805
vt 0.547453 0.13158116
vt 0.6167423 0.037222624
vt 0.5474531 0.037222624
vt 0.61674243 -0.05713564
vt 0.547453 -0.05713606
vt 0.61674243 -0.15149468
vt 0.5474531 -0.15149468
vt 0.61674243 -0.24585366
vt 0.5474531 -0.24585366
vt 0.6167423 -0.3402117
vt 0.547453 -0.3402115
vt 0.61674243 -0.43457025
vt 0.547453 -0.43457073
vt 0.61674243 -0.52892894
vt 0.547453 -0.52892894
vt 0.61674243 -0.62328774
vt 0.5474531 -0.62328774
vt 0.61674243 -0.7176462
vt 0.5474531 -0.7176462
vt 0.61674243 -0.81200534
vt 0.5474531 -0.81200534
vt 0.61674243 -0.9063632
vt 0.547453 -0.9063634
vt 0.61674243 -1.0007222
vt 0.547453 -1.0007222
vt 0.61674243 -1.0950804
vt 0.5474531 -1.0950804
vt 0.61674243 -1.1894395
vt 0.5474531 -1.1894395
vt 0.61674243 -1.2837977
vt 0.5474531 -1.2837977
vt 0.61674243 -1.3781562
vt 0.547453 -1.3781564
vn -0.9876887 0 0.15643203
vn -0.95105666 0 0.30901653
vn -0.95105666 0 0.30901653
vn -0.9876887 0 0.15643203
vn -0.8910066 0 0.4539904
vn -0.8910066 0 0.4539904
vn -0.80901706 0 0.5877852
vn -0.80901706 0 0.5877852
vn -0.70710707 0 0.7071065
vn -0.70710707 0 0.7071065
vn -0.5877855 0 0.8090168
vn -0.5877855 0 0.8090168
vn -0.4539904 0 0.8910066
vn -0.4539904 0 0.8910066
vn -0.3090169 0 0.95105654
vn -0.3090169 0 0.95105654
vn -0.15643476 0 0.98768836
vn -0.15643476 0 0.98768836
vn -0 0 1
vn -0 0 1
vn 0.1564348 0 0.98768836
vn 0.1564348 0 0.98768836
vn 0.30901682 0 0.95105654
vn 0.30901682 0 0.95105654
vn 0.45398995 0 0.89100677
vn 0.45398995 0 0.89100677
vn 0.58778507 0 0.8090171
vn 0.58778507 0 0.8090171
vn 0.70710677 0 0.70710677
vn 0.70710677 0 0.70710677
vn 0.8090169 0 0.58778536
vn 0.8090169 0 0.58778536
vn 0.8910065 0 0.45399058
vn 0.8910065 0 0.45399058
vn 0.9510565 0 0.3090172
vn 0.9510565 0 0.3090172
vn 0.98768836 0 0.15643428
vn 0.98768836 0 0.15643428
vn 1 0 0
vn 1 0 0
vn 0.98768836 0 -0.15643428
vn 0.98768836 0 -0.15643428
vn 0.95105654 0 -0.30901694
vn 0.95105654 0 -0.30901694
vn 0.8910066 0 -0.4539904
vn 0.8910066 0 -0.4539904
vn 0.8090169 0 -0.5877853
vn 0.8090169 0 -0.5877853
vn 0.7071069 0 -0.7071066
vn 0.7071069 0 -0.7071066
vn 0.5877853 0 -0.8090169
vn 0.5877853 0 -0.8090169
vn 0.45399067 0 -0.8910064
vn 0.45399067 0 -0.8910064
vn 0.30901727 0 -0.9510565
vn 0.30901727 0 -0.9510565
vn 0.15643446 0 -0.98768836
vn 0.15643446 0 -0.98768836
vn -0 0 -1
vn -0 0 -1
vn -0.15643446 0 -0.98768836
vn -0.15643446 0 -0.98768836
vn -0.30901685 0 -0.95105654
vn -0.30901685 0 -0.95105654
vn -0.45399025 0 -0.8910067
vn -0.45399025 0 -0.8910067
vn -0.58778536 0 -0.8090169
vn -0.58778536 0 -0.8090169
vn -0.70710707 0 -0.7071065
vn -0.70710707 0 -0.7071065
vn -0.809017 0 -0.58778536
vn -0.809017 0 -0.58778536
vn -0.8910067 0 -0.4539902
vn -0.8910067 0 -0.4539902
vn -0.95105654 0 -0.30901664
vn -0.95105654 0 -0.30901664
vn -0.98768836 0 -0.15643434
vn -0.98768836 0 -0.15643434
vn -1 0 -1.7785552E-06
vn -1 0 -1.7785552E-06
vn -0.9876887 0 0.15643203
vn -0.9876887 0 0.15643203
g P04_0
f 3/3/3 2/2/2 1/1/1
f 4/4/4 3/3/3 1/1/1
f 3/3/3 5/5/5 2/2/2
f 5/5/5 6/6/6 2/2/2
f 5/5/5 7/7/7 6/6/6
f 7/7/7 8/8/8 6/6/6
f 7/7/7 9/9/9 8/8/8
f 9/9/9 10/10/10 8/8/8
f 9/9/9 11/11/11 10/10/10
f 11/11/11 12/12/12 10/10/10
f 11/11/11 13/13/13 12/12/12
f 13/13/13 14/14/14 12/12/12
f 13/13/13 15/15/15 14/14/14
f 15/15/15 16/16/16 14/14/14
f 15/15/15 17/17/17 16/16/16
f 17/17/17 18/18/18 16/16/16
f 17/17/17 19/19/19 18/18/18
f 19/19/19 20/20/20 18/18/18
f 19/19/19 21/21/21 20/20/20
f 21/21/21 22/22/22 20/20/20
f 21/21/21 23/23/23 22/22/22
f 23/23/23 24/24/24 22/22/22
f 23/23/23 25/25/25 24/24/24
f 25/25/25 26/26/26 24/24/24
f 25/25/25 27/27/27 26/26/26
f 27/27/27 28/28/28 26/26/26
f 27/27/27 29/29/29 28/28/28
f 29/29/29 30/30/30 28/28/28
f 29/29/29 31/31/31 30/30/30
f 31/31/31 32/32/32 30/30/30
f 31/31/31 33/33/33 32/32/32
f 33/33/33 34/34/34 32/32/32
f 33/33/33 35/35/35 34/34/34
f 35/35/35 36/36/36 34/34/34
f 35/35/35 37/37/37 36/36/36
f 37/37/37 38/38/38 36/36/36
f 37/37/37 39/39/39 38/38/38
f 39/39/39 40/40/40 38/38/38
f 39/39/39 41/41/41 40/40/40
f 41/41/41 42/42/42 40/40/40
f 41/41/41 43/43/43 42/42/42
f 43/43/43 44/44/44 42/42/42
f 43/43/43 45/45/45 44/44/44
f 45/45/45 46/46/46 44/44/44
f 45/45/45 47/47/47 46/46/46
f 47/47/47 48/48/48 46/46/46
f 47/47/47 49/49/49 48/48/48
f 49/49/49 50/50/50 48/48/48
f 49/49/49 51/51/51 50/50/50
f 51/51/51 52/52/52 50/50/50
f 51/51/51 53/53/53 52/52/52
f 53/53/53 54/54/54 52/52/52
f 53/53/53 55/55/55 54/54/54
f 55/55/55 56/56/56 54/54/54
f 55/55/55 57/57/57 56/56/56
f 57/57/57 58/58/58 56/56/56
f 57/57/57 59/59/59 58/58/58
f 59/59/59 60/60/60 58/58/58
f 59/59/59 61/61/61 60/60/60
f 61/61/61 62/62/62 60/60/60
f 61/61/61 63/63/63 62/62/62
f 63/63/63 64/64/64 62/62/62
f 63/63/63 65/65/65 64/64/64
f 65/65/65 66/66/66 64/64/64
f 65/65/65 67/67/67 66/66/66
f 67/67/67 68/68/68 66/66/66
f 67/67/67 69/69/69 68/68/68
f 69/69/69 70/70/70 68/68/68
f 69/69/69 71/71/71 70/70/70
f 71/71/71 72/72/72 70/70/70
f 71/71/71 73/73/73 72/72/72
f 73/73/73 74/74/74 72/72/72
f 73/73/73 75/75/75 74/74/74
f 75/75/75 76/76/76 74/74/74
f 75/75/75 77/77/77 76/76/76
f 77/77/77 78/78/78 76/76/76
f 77/77/77 79/79/79 78/78/78
f 79/79/79 80/80/80 78/78/78
f 79/79/79 81/81/81 80/80/80
f 81/81/81 82/82/82 80/80/80
