g Pieces09
v -1.0115918 1.8555517 -1.015664
v -1.2892187 1.516394 0.63401365
v -1.5834765 1.6539123 0.3147168
v 0.094042964 1.1689001 0.88969725
v -0.24980468 1.5501245 -0.3998828
v 0.34907225 0.99725586 1.3862305
v 0.10768554 0.97737056 1.6764843
v -0.06915039 0.94564086 1.9580761
v 0.99625975 1.050642 0.60690427
v 0.5932031 1.6174512 -1.4046191
v 1.8847461 1.1239135 -0.4626074
v 1.6226758 1.4146154 -1.4389551
v 2.2569044 1.1357837 -0.8253223
v 0.64901364 1.022019 1.0247461
v -0.72546875 -1.8555517 1.4252343
v -1.8237109 -1.281383 -0.008837891
v -1.7264453 -1.3857092 0.3388867
v -0.46281248 -1.8083764 1.0066699
v 1.314082 -1.6618371 -1.1323144
v 1.767871 -1.553916 -1.9580761
v 0.5277051 -1.3076037 -1.9163965
v 1.9656249 -1.6410779 -1.7668555
v 0.42592773 -1.7351061 -0.06276367
v -1.8237109 -1.281383 -0.008837891
v -2.1426756 -0.77708006 -1.8265332
v -2.2569044 -0.81757444 -1.5599902
v -0.3898828 -1.6299609 0.20096679
v 0.42592773 -1.7351061 -0.06276367
v -1.7723242 -0.8508606 -1.8390429
v -0.7133887 -1.2243457 -1.2014745
v -1.3441796 -0.95571166 -1.7719727
v -0.09690429 -1.1842945 -1.8954589
v -0.46281248 -1.8083764 1.0066699
v -0.20626953 -1.7699059 0.62557614
v -0.3898828 -1.6299609 0.20096679
v 0.42592773 -1.7351061 -0.06276367
v 0.12405273 -1.742683 0.22823241
v 0.5277051 -1.3076037 -1.9163965
v -0.09690429 -1.1842945 -1.8954589
v 0.10768554 0.97737056 1.6764843
v -0.20626953 -1.7699059 0.62557614
v -0.46281248 -1.8083764 1.0066699
v -0.06915039 0.94564086 1.9580761
v -0.72546875 -1.8555517 1.4252343
v -0.20626953 -1.7699059 0.62557614
v 0.10768554 0.97737056 1.6764843
v 0.34907225 0.99725586 1.3862305
v 0.42592773 -1.7351061 -0.06276367
v 1.8847461 1.1239135 -0.4626074
v 1.314082 -1.6618371 -1.1323144
v 0.99625975 1.050642 0.60690427
v 0.12405273 -1.742683 0.22823241
v 0.64901364 1.022019 1.0247461
v -1.8237109 -1.281383 -0.008837891
v -2.1443164 0.2757007 -0.19924805
v -1.7264453 -1.3857092 0.3388867
v -2.2569044 -0.81757444 -1.5599902
v -2.1443164 0.2757007 -0.19924805
v -0.72546875 -1.8555517 1.4252343
v -1.7264453 -1.3857092 0.3388867
v -0.06915039 0.94564086 1.9580761
v -1.2892187 1.516394 0.63401365
v -1.5834765 1.6539123 0.3147168
v -2.2569044 -0.81757444 -1.5599902
v -1.5834765 1.6539123 0.3147168
v -2.1443164 0.2757007 -0.19924805
v -1.0115918 1.8555517 -1.015664
v -2.1426756 -0.77708006 -1.8265332
v 2.2569044 1.1357837 -0.8253223
v 1.314082 -1.6618371 -1.1323144
v 1.8847461 1.1239135 -0.4626074
v 1.9656249 -1.6410779 -1.7668555
v 2.2569044 1.1357837 -0.8253223
v 1.767871 -1.553916 -1.9580761
v 1.9656249 -1.6410779 -1.7668555
v 1.6226758 1.4146154 -1.4389551
v -1.7723242 -0.8508606 -1.8390429
v -1.0115918 1.8555517 -1.015664
v -2.1426756 -0.77708006 -1.8265332
v -0.24980468 1.5501245 -0.3998828
v -1.3441796 -0.95571166 -1.7719727
v -0.7133887 -1.2243457 -1.2014745
v 0.5932031 1.6174512 -1.4046191
v 1.767871 -1.553916 -1.9580761
v 1.6226758 1.4146154 -1.4389551
v 0.12405273 -1.742683 0.22823241
v 0.99625975 1.050642 0.60690427
v 0.42592773 -1.7351061 -0.06276367
v 0.64901364 1.022019 1.0247461
v -0.3898828 -1.6299609 0.20096679
v 0.094042964 1.1689001 0.88969725
v -0.3898828 -1.6299609 0.20096679
v 0.64901364 1.022019 1.0247461
v 0.12405273 -1.742683 0.22823241
v 0.094042964 1.1689001 0.88969725
v -0.20626953 -1.7699059 0.62557614
v 0.34907225 0.99725586 1.3862305
v -0.20626953 -1.7699059 0.62557614
v 0.094042964 1.1689001 0.88969725
v -0.3898828 -1.6299609 0.20096679
v 0.5932031 1.6174512 -1.4046191
v -0.09690429 -1.1842945 -1.8954589
v 0.5277051 -1.3076037 -1.9163965
v 1.767871 -1.553916 -1.9580761
v -1.3441796 -0.95571166 -1.7719727
v -0.24980468 1.5501245 -0.3998828
v -1.0115918 1.8555517 -1.015664
v -0.24980468 1.5501245 -0.3998828
v -0.09690429 -1.1842945 -1.8954589
v 0.5932031 1.6174512 -1.4046191
v -0.09690429 -1.1842945 -1.8954589
v -0.24980468 1.5501245 -0.3998828
v -0.7133887 -1.2243457 -1.2014745
v -1.3441796 -0.95571166 -1.7719727
v -1.0115918 1.8555517 -1.015664
v -1.7723242 -0.8508606 -1.8390429
vt 5.792403 -1.4270935
vt 5.7527637 -1.4538953
vt 5.751182 -1.4439645
vt 5.7845426 -1.4774947
vt 5.8006225 -1.4488993
vt 5.7816076 -1.4901752
vt 5.7695208 -1.4922686
vt 5.7593102 -1.4950795
vt 5.81406 -1.4845531
vt 5.8426666 -1.4417596
vt 5.8585963 -1.4768381
vt 5.8707113 -1.4551622
vt 5.8755884 -1.4751887
vt 5.7966566 -1.4875679
vt 5.127491 1.5193715
vt 5.062516 1.4981513
vt 5.0727744 1.5076517
vt 5.127491 1.4981513
vt 5.127491 1.6247015
vt 5.1168666 1.5831808
vt 5.0818424 1.6247015
vt 5.127491 1.5835469
vt 5.127491 1.6880002
vt 5.062516 1.7512994
vt 5.0083714 1.6982853
vt 5.011572 1.7101388
vt 5.118352 1.7193378
vt 5.127491 1.6880002
vt 5.018962 1.6880006
vt 5.06589 1.6805191
vt 5.0330963 1.6785822
vt 5.066989 1.6396539
vt 5.127491 1.7512989
vt 5.127491 1.7307811
vt 5.118352 1.7193378
vt 5.127491 1.6880002
vt 5.127491 1.7072651
vt 5.0818424 1.6247015
vt 5.066989 1.6396539
vt 1.3609468 -4.489569
vt 2.1149049 -4.376165
vt 2.1143208 -4.489569
vt 1.3605624 -4.5761604
vt 2.1152077 -4.61559
vt 2.1149049 -4.376165
vt 1.3609468 -4.489569
vt 1.3608072 -4.3946333
vt 2.1161046 -4.1397104
vt 1.3615224 -3.7868052
vt 2.1157746 -3.7868052
vt 1.3604352 -4.1397104
vt 2.115559 -4.2461896
vt 1.3606383 -4.276391
vt 1.7061385 1.8763709
vt 2.056673 2.071675
vt 1.7122055 1.7824574
vt 1.7066425 2.274891
vt 2.056673 2.071675
vt 1.7056369 1.3909038
vt 1.7122055 1.7824574
vt 2.453988 1.4046862
vt 2.4541779 1.8874953
vt 2.454115 2.0042477
vt 0.9673848 -5.521537
vt 0.18675256 -5.290885
vt 0.59040415 -5.278678
vt 0.2125355 -5.6652346
vt 0.9726317 -5.5964155
vt 1.360816 -3.6537342
vt 2.1157746 -3.7868052
vt 1.3615224 -3.7868052
vt 2.1161046 -3.553485
vt 2.7668514 5.5336456
vt 2.684157 6.2738953
vt 2.7566724 6.2740793
vt 2.5341182 5.533312
vt 0.9705466 -5.693079
vt 0.2125355 -5.6652346
vt 0.9726317 -5.5964155
vt 0.21641582 -5.862364
vt 0.96764314 -5.81563
vt 0.96487355 -5.929558
vt 0.20754683 -6.195448
vt 0.94791377 -6.617755
vt 0.20153546 -6.4104996
vt 2.115559 -4.2461896
vt 1.3604352 -4.1397104
vt 2.1161046 -4.1397104
vt 1.3606383 -4.276391
vt 2.1152334 -4.3111773
vt 1.3607273 -4.335512
vt 2.1152334 -4.3111773
vt 1.3606383 -4.276391
vt 2.115559 -4.2461896
vt 1.3607273 -4.335512
vt 2.1149049 -4.376165
vt 1.3608072 -4.3946333
vt 2.1149049 -4.376165
vt 1.3607273 -4.335512
vt 2.1152334 -4.3111773
vt 0.20754683 -6.195448
vt 0.9599999 -6.1307955
vt 0.9558449 -6.2937994
vt 0.94791377 -6.617755
vt 0.96764314 -5.81563
vt 0.21641582 -5.862364
vt 0.2125355 -5.6652346
vt 0.21641582 -5.862364
vt 0.9599999 -6.1307955
vt 0.20754683 -6.195448
vt 0.9599999 -6.1307955
vt 0.21641582 -5.862364
vt 0.96487355 -5.929558
vt 0.96764314 -5.81563
vt 0.2125355 -5.6652346
vt 0.9705466 -5.693079
vn -0.30855283 0.95092386 0.023213314
vn -0.30855283 0.95092386 0.023213314
vn -0.30855283 0.950924 0.023213314
vn -0.30873036 0.95086163 0.023403095
vn -0.3086942 0.950883 0.023009315
vn -0.30849832 0.9509371 0.023395846
vn -0.30899575 0.95081735 0.021635447
vn -0.30899578 0.95081735 0.021635449
vn -0.3086784 0.95087737 0.023449466
vn -0.3086784 0.95087737 0.02344947
vn -0.3086784 0.95087737 0.023449467
vn -0.3094562 0.9506862 0.020798504
vn -0.30932575 0.95073676 0.02042371
vn -0.3080465 0.9510865 0.023274776
vn -0.1967158 -0.95289195 -0.23086756
vn -0.1967158 -0.95289195 -0.23086755
vn -0.19671583 -0.95289195 -0.23086758
vn -0.19673449 -0.9528918 -0.23085193
vn -0.19697715 -0.95238805 -0.2327169
vn -0.19697712 -0.95238805 -0.2327169
vn -0.19697714 -0.95238805 -0.23271687
vn -0.19561209 -0.9528378 -0.23202577
vn -0.19912146 -0.9524574 -0.23059793
vn -0.1980146 -0.9529214 -0.22963263
vn -0.1980146 -0.9529214 -0.22963263
vn -0.19801459 -0.9529214 -0.22963262
vn -0.19806346 -0.9529138 -0.22962148
vn -0.19760917 -0.95295644 -0.22983581
vn -0.19760917 -0.95295644 -0.22983581
vn -0.19807464 -0.95299405 -0.22927889
vn -0.19722444 -0.95285004 -0.2306063
vn -0.19718195 -0.95296687 -0.23015949
vn -0.197863 -0.9530088 -0.22940032
vn -0.19786298 -0.9530088 -0.22940032
vn -0.1983024 -0.9531586 -0.22839601
vn -0.19589475 -0.9531317 -0.23057622
vn -0.19692755 -0.95327216 -0.22911097
vn -0.19589475 -0.9531317 -0.23057622
vn -0.19589476 -0.9531317 -0.23057622
vn 0.8074084 -0.289023 0.5143515
vn 0.8074084 -0.28902298 0.5143515
vn 0.8074084 -0.28902298 0.5143515
vn 0.825852 -0.2859451 0.48600805
vn 0.82585204 -0.28594506 0.486008
vn 0.7408446 -0.31216305 0.59472966
vn 0.74084467 -0.31216303 0.5947296
vn 0.74084467 -0.31216308 0.5947296
vn 0.744657 -0.296321 0.59806347
vn 0.744657 -0.29632103 0.59806347
vn 0.7446569 -0.296321 0.5980634
vn 0.74455136 -0.29624328 0.5982334
vn 0.7410915 -0.31199706 0.59450924
vn 0.7410915 -0.311997 0.59450924
vn -0.96093696 -0.17127214 0.21740763
vn -0.96093696 -0.17127214 0.21740763
vn -0.96093696 -0.17127213 0.21740763
vn -0.96098727 -0.17131364 0.21715249
vn -0.7262334 0.03963652 0.6863047
vn -0.72623336 0.039636515 0.6863047
vn -0.7262333 0.03963652 0.6863047
vn -0.72624916 0.03961421 0.6862892
vn -0.7262499 0.039620712 0.68628806
vn -0.7262224 0.039580394 0.6863195
vn -0.8421806 0.45221907 -0.29364905
vn -0.8421806 0.45221907 -0.29364905
vn -0.8421806 0.4522191 -0.29364905
vn -0.84226006 0.45214933 -0.29352838
vn -0.8426585 0.45211294 -0.29243892
vn 0.6706166 -0.30042952 0.67824435
vn 0.6706166 -0.30042952 0.6782444
vn 0.6706166 -0.30042952 0.67824435
vn 0.67037326 -0.30037656 0.6785084
vn 0.721023 0.15347406 -0.67570084
vn 0.72102296 0.15347405 -0.67570084
vn 0.72102296 0.15347405 -0.67570084
vn 0.72111964 0.15341815 -0.67561036
vn 0.024349209 0.2847041 -0.9583062
vn 0.024349205 0.28470406 -0.9583062
vn 0.024349209 0.28470406 -0.9583062
vn 0.6892682 0.09244214 -0.71858454
vn 0.6892683 0.09244213 -0.7185845
vn 0.6892683 0.09244214 -0.71858454
vn 0.0010964088 0.17231251 -0.9850417
vn 0.0010964087 0.17231251 -0.9850417
vn 0.0010964087 0.1723125 -0.9850417
vn 0.66584086 -0.30048406 0.6829094
vn 0.665841 -0.30048406 0.68290937
vn 0.66584086 -0.30048406 0.68290937
vn -0.2780956 -0.18391247 0.9427826
vn -0.2780956 -0.18391244 0.9427826
vn -0.27809566 -0.18391246 0.9427826
vn -0.107199 -0.2563975 0.96060854
vn -0.10719899 -0.2563975 0.96060854
vn -0.107199 -0.2563975 0.96060854
vn 0.88167965 -0.047910053 -0.46940994
vn 0.88167965 -0.04791005 -0.46940988
vn 0.88167965 -0.04791006 -0.46941
vn 0.9095724 -0.05594135 -0.41176265
vn 0.9095724 -0.05594135 -0.41176268
vn 0.9095724 -0.05594135 -0.4117627
vn 0.0010005902 0.17232347 -0.98503995
vn 0.0010005902 0.17232348 -0.98503995
vn 0.0010005902 0.17232347 -0.98503995
vn 0.0011198056 0.17232081 -0.9850402
vn 0.6533289 0.12364696 -0.7469088
vn 0.6533289 0.123646975 -0.7469088
vn 0.6533289 0.12364696 -0.7469088
vn -0.7428708 0.28878415 -0.60394263
vn -0.74287075 0.28878418 -0.6039426
vn -0.74287075 0.28878418 -0.6039426
vn -0.7215597 0.30074042 -0.6236239
vn -0.7215597 0.30074042 -0.6236239
vn -0.7215597 0.30074042 -0.6236239
vn 0.20564286 0.23147851 -0.9508569
vn 0.20564283 0.23147851 -0.9508568
vn 0.20564283 0.23147851 -0.9508568
g Pieces09_0
f 3/3/3 2/2/2 1/1/1
f 2/2/2 4/4/4 1/1/1
f 5/5/5 1/1/1 4/4/4
f 4/4/4 2/2/2 6/6/6
f 7/7/7 6/6/6 2/2/2
f 7/7/7 2/2/2 8/8/8
f 5/5/5 4/4/4 9/9/9
f 5/5/5 9/9/9 10/10/10
f 11/11/11 10/10/10 9/9/9
f 10/10/10 11/11/11 12/12/12
f 13/13/13 12/12/12 11/11/11
f 14/14/14 9/9/9 4/4/4
g Pieces09_1
f 17/17/17 16/16/16 15/15/15
f 18/18/18 15/15/15 16/16/16
f 21/21/21 20/20/20 19/19/19
f 22/22/22 19/19/19 20/20/20
f 19/19/19 23/23/23 21/21/21
f 26/26/26 25/25/25 24/24/24
f 25/25/25 27/27/27 24/24/24
f 25/25/25 28/28/28 27/27/27
f 29/29/29 28/28/28 25/25/25
f 28/28/28 29/29/29 30/30/30
f 31/31/31 30/30/30 29/29/29
f 32/32/32 28/28/28 30/30/30
f 34/34/34 33/33/33 24/24/24
f 35/35/35 34/34/34 24/24/24
f 37/37/37 35/35/35 36/36/36
f 39/39/39 38/38/38 36/36/36
g Pieces09_2
f 42/42/42 41/41/41 40/40/40
f 40/40/40 43/43/43 42/42/42
f 44/44/44 42/42/42 43/43/43
f 47/47/47 46/46/46 45/45/45
f 50/50/50 49/49/49 48/48/48
f 51/51/51 48/48/48 49/49/49
f 53/53/53 52/52/52 51/51/51
f 56/56/56 55/55/55 54/54/54
f 57/57/57 54/54/54 55/55/55
f 60/60/60 59/59/59 58/58/58
f 59/59/59 61/61/61 58/58/58
f 61/61/61 62/62/62 58/58/58
f 62/62/62 63/63/63 58/58/58
f 66/66/66 65/65/65 64/64/64
f 65/65/65 67/67/67 64/64/64
f 67/67/67 68/68/68 64/64/64
f 71/71/71 70/70/70 69/69/69
f 72/72/72 69/69/69 70/70/70
f 75/75/75 74/74/74 73/73/73
f 76/76/76 73/73/73 74/74/74
f 79/79/79 78/78/78 77/77/77
f 82/82/82 81/81/81 80/80/80
f 85/85/85 84/84/84 83/83/83
f 88/88/88 87/87/87 86/86/86
f 91/91/91 90/90/90 89/89/89
f 94/94/94 93/93/93 92/92/92
f 97/97/97 96/96/96 95/95/95
f 100/100/100 99/99/99 98/98/98
f 103/103/103 102/102/102 101/101/101
f 104/104/104 103/103/103 101/101/101
f 107/107/107 106/106/106 105/105/105
f 110/110/110 109/109/109 108/108/108
f 113/113/113 112/112/112 111/111/111
f 116/116/116 115/115/115 114/114/114
