g Stage_Dominating_Theater_CG_Crushed_Ston_A_03
v -0.14367439 0.012674381 -0.13600746
v 0.006811104 0.012674381 -0.2957438
v 0.23809 0.012674381 -0.25503913
v 0.33738062 0.012674381 -0.14308922
v 0.30947024 0.012674381 0.07845161
v 0.033947792 0.012674381 -0.35495153
v 0.0721859 0.012674381 -0.35495153
v 0.32558322 0.012674381 -0.2666761
v 0.3632889 0.012674381 -0.27169135
v 0.25801 0.012674381 0.17744727
v -0.24351661 0.012674381 0.123677745
v -0.08814422 0.012674381 0.17831688
v 0.2798152 0.012545266 0.30251768
v 0.080322415 0.012674381 0.30251762
v 0.2894095 0.012416172 0.35495138
v -0.29767746 0.012674381 0.10946449
v -0.28429192 0.012674381 -0.06754875
v -0.312276 0.012674381 0.10563362
v -0.312276 0.012545266 -0.040836714
v -0.36328888 0.012416172 0.004610214
v -0.35071525 0.0124798035 0.064454876
v 0.32558322 0.012674381 -0.2666761
v 0.32558325 -0.012416174 -0.2666761
v 0.3632889 -0.012416172 -0.2716912
v 0.3632889 0.012674381 -0.27169135
v 0.23809 0.012674381 -0.25503913
v 0.23809001 -0.012416174 -0.25503898
v 0.0721859 0.012674381 -0.35495153
v 0.0721859 -0.012416172 -0.35495153
v 0.23809001 -0.012416174 -0.25503898
v 0.23809 0.012674381 -0.25503913
v 0.033947792 0.012674381 -0.35495153
v 0.033947792 -0.012416172 -0.35495153
v 0.0721859 -0.012416172 -0.35495153
v 0.0721859 0.012674381 -0.35495153
v 0.006811104 0.012674381 -0.2957438
v 0.006811104 -0.012416174 -0.2957438
v 0.033947792 -0.012416172 -0.35495153
v 0.033947792 0.012674381 -0.35495153
v -0.14367439 0.012674381 -0.13600746
v -0.14367439 -0.012416174 -0.13600731
v 0.006811104 -0.012416174 -0.2957438
v 0.006811104 0.012674381 -0.2957438
v -0.28429192 0.012674381 -0.06754875
v -0.28429192 -0.012416172 -0.06754868
v -0.14367439 -0.012416174 -0.13600731
v -0.14367439 0.012674381 -0.13600746
v -0.312276 0.012545266 -0.040836714
v -0.312276 -0.012545288 -0.040836714
v -0.28429192 -0.012416172 -0.06754868
v -0.28429192 0.012674381 -0.06754875
v -0.36328888 0.012416172 0.004610214
v -0.36328888 -0.012674381 0.0046102903
v 0.33738062 0.012674381 -0.14308922
v 0.33738062 -0.012416174 -0.14308922
v 0.30947024 -0.012416172 0.07845161
v 0.30947024 0.012674381 0.07845161
v 0.30947024 0.012674381 0.07845161
v 0.30947024 -0.012416172 0.07845161
v 0.25801 -0.012416174 0.17744735
v 0.25801 0.012674381 0.17744727
v 0.25801 0.012674381 0.17744727
v 0.25801 -0.012416174 0.17744735
v 0.2798152 -0.012545288 0.30251768
v 0.2798152 0.012545266 0.30251768
v 0.2894095 -0.012674381 0.35495153
v 0.2894095 0.012416172 0.35495138
v 0.3632889 0.012674381 -0.27169135
v 0.3632889 -0.012416172 -0.2716912
v 0.33738062 -0.012416174 -0.14308922
v 0.33738062 0.012674381 -0.14308922
v -0.35071525 0.0124798035 0.064454876
v -0.35071525 -0.012610752 0.06445496
v -0.36328888 -0.012674381 0.0046102903
v -0.36328888 0.012416172 0.004610214
v -0.312276 0.012674381 0.10563362
v -0.312276 -0.012416174 0.1056337
v -0.35071525 -0.012610752 0.06445496
v -0.35071525 0.0124798035 0.064454876
v -0.29767746 0.012674381 0.10946449
v -0.29767743 -0.012416172 0.10946449
v -0.312276 -0.012416174 0.1056337
v -0.312276 0.012674381 0.10563362
v -0.24351661 0.012674381 0.123677745
v -0.24351661 -0.012416174 0.123677745
v -0.08814422 0.012674381 0.17831688
v -0.08814422 -0.012416174 0.17831688
v -0.24351661 -0.012416174 0.123677745
v -0.24351661 0.012674381 0.123677745
v 0.080322415 0.012674381 0.30251762
v 0.080322415 -0.012416174 0.30251762
v -0.08814422 -0.012416174 0.17831688
v -0.08814422 0.012674381 0.17831688
v 0.2894095 0.012416172 0.35495138
v 0.2894095 -0.012674381 0.35495153
v 0.080322415 -0.012416174 0.30251762
v 0.080322415 0.012674381 0.30251762
v 0.23809001 -0.012416174 -0.25503898
v 0.006811104 -0.012416174 -0.2957438
v -0.14367439 -0.012416174 -0.13600731
v 0.33738062 -0.012416174 -0.14308922
v 0.30947024 -0.012416172 0.07845161
v 0.033947792 -0.012416172 -0.35495153
v 0.0721859 -0.012416172 -0.35495153
v 0.32558325 -0.012416174 -0.2666761
v 0.3632889 -0.012416172 -0.2716912
v 0.25801 -0.012416174 0.17744735
v -0.24351661 -0.012416174 0.123677745
v -0.08814422 -0.012416174 0.17831688
v 0.2798152 -0.012545288 0.30251768
v 0.080322415 -0.012416174 0.30251762
v 0.2894095 -0.012674381 0.35495153
v -0.29767743 -0.012416172 0.10946449
v -0.28429192 -0.012416172 -0.06754868
v -0.312276 -0.012416174 0.1056337
v -0.312276 -0.012545288 -0.040836714
v -0.36328888 -0.012674381 0.0046102903
v -0.35071525 -0.012610752 0.06445496
vt 0.120144315 0.25964487
vt 0.20191297 0.34396037
vt 0.32758203 0.32247472
vt 0.38153312 0.26338294
vt 0.36636755 0.14644459
vt 0.21665813 0.37521258
vt 0.23743543 0.3752126
vt 0.37512273 0.32861736
vt 0.39561063 0.33126456
vt 0.33840582 0.09419068
vt 0.06589346 0.12257245
vt 0.15031749 0.0937317
vt 0.35025403 0.028173413
vt 0.24185652 0.028173432
vt 0.35530034 -0.00055607536
vt 0.036464307 0.1300748
vt 0.043737568 0.22350962
vt 0.028531983 0.13209693
vt 0.028531978 0.20940994
vt 0.00023670366 0.18475895
vt 0.0072109485 0.15333366
vt 3.5141113 0.6440169
vt 3.5141113 0.7532003
vt 3.6126578 0.7532003
vt 3.6126578 0.6440169
vt 3.4484127 0.6440169
vt 3.4484127 0.7532003
vt 3.3037355 0.6440169
vt 3.3037355 0.7532003
vt 3.4484127 0.7532003
vt 3.4484127 0.6440169
vt 3.185053 0.6440169
vt 3.185053 0.7532003
vt 3.3037355 0.7532003
vt 3.3037355 0.6440169
vt 3.1334703 0.6440169
vt 3.1334703 0.7532003
vt 3.185053 0.7532003
vt 3.185053 0.6440169
vt 2.9923184 0.6440169
vt 2.9923184 0.7532003
vt 3.1334703 0.7532003
vt 3.1334703 0.6440169
vt 2.8025935 0.6440169
vt 2.8025935 0.7532003
vt 2.9923184 0.7532003
vt 2.9923184 0.6440169
vt 2.690096 0.6440169
vt 2.690096 0.7532003
vt 2.8025935 0.7532003
vt 2.8025935 0.6440169
vt 2.6271932 0.6440169
vt 2.6271932 0.7532003
vt 4.279726 0.67467
vt 4.279726 0.56548697
vt 4.109721 0.56548697
vt 4.109721 0.67467
vt 4.109721 0.67467
vt 4.109721 0.56548697
vt 3.9483082 0.56548697
vt 3.9483082 0.67467
vt 3.9483082 0.67467
vt 3.9483082 0.56548697
vt 3.799368 0.56548697
vt 3.799368 0.67467
vt 3.7273858 0.56548697
vt 3.7273858 0.67467
vt 4.4057293 0.67467
vt 4.4057293 0.56548697
vt 4.279726 0.56548697
vt 4.279726 0.67467
vt 3.2135804 0.5534003
vt 3.2135804 0.66258365
vt 3.2135875 0.66258365
vt 3.2135875 0.5534003
vt 3.1556623 0.5534003
vt 3.1556623 0.66258365
vt 3.2135804 0.66258365
vt 3.2135804 0.5534003
vt 3.119343 0.5534003
vt 3.119343 0.66258365
vt 3.1556623 0.66258365
vt 3.1556623 0.5534003
vt 3.0825088 0.5534003
vt 3.0825088 0.66258365
vt 2.9684498 0.5534003
vt 2.9684498 0.66258365
vt 3.0825088 0.66258365
vt 3.0825088 0.5534003
vt 2.777427 0.5534003
vt 2.777427 0.66258365
vt 2.9684498 0.66258365
vt 2.9684498 0.5534003
vt 2.522188 0.5534003
vt 2.522188 0.66258365
vt 2.777427 0.66258365
vt 2.777427 0.5534003
vt 0.32758203 0.32247472
vt 0.20191297 0.34396037
vt 0.120144315 0.25964487
vt 0.38153312 0.26338294
vt 0.36636755 0.14644459
vt 0.21665813 0.37521258
vt 0.23743543 0.3752126
vt 0.37512273 0.32861736
vt 0.39561063 0.33126456
vt 0.33840582 0.09419068
vt 0.06589346 0.12257245
vt 0.15031749 0.0937317
vt 0.35025403 0.028173413
vt 0.24185652 0.028173432
vt 0.35530034 -0.00055607536
vt 0.036464307 0.1300748
vt 0.043737568 0.22350962
vt 0.028531983 0.13209693
vt 0.028531978 0.20940994
vt 0.00023670366 0.18475895
vt 0.0072109485 0.15333366
vn -0 1 0
vn -0 1 0
vn -0 1 0
vn -0 1 0
vn -0 1 0
vn -0 1 0
vn -0 1 0
vn -0 1 0
vn -0 1 0
vn -0 1 0
vn 7.249752E-05 1 0.00010299732
vn 7.249752E-05 1 0.00010299733
vn 0.00064721657 0.999997 0.0023436106
vn 0.00064721645 0.999997 0.0023436106
vn 0.00064721645 0.999997 0.0023436106
vn -0.0033204018 0.9999944 -0.00053653494
vn -0.0033204015 0.9999944 -0.0005365349
vn -0.0033204018 0.9999944 -0.00053653494
vn -0.0033204018 0.9999944 -0.0005365349
vn -0.0036523168 0.9999931 -0.0007116446
vn -0.0036523165 0.9999931 -0.00071164453
vn -0.13184753 -3.1148563E-06 -0.99126995
vn -0.13184753 -3.1148566E-06 -0.99126995
vn -0.13184755 -3.1148566E-06 -0.99126995
vn -0.13184753 -3.1148563E-06 -0.99126995
vn -0.13184392 -3.1759196E-06 -0.99127054
vn -0.13184392 -3.1759196E-06 -0.99127054
vn 0.5158999 -2.3943924E-06 -0.85664886
vn 0.5158999 -2.3943924E-06 -0.85664886
vn 0.5158999 -2.3943924E-06 -0.85664886
vn 0.5158999 -2.3943924E-06 -0.85664886
vn -0 0 -1
vn -0 0 -1
vn -0 0 -1
vn -0 0 -1
vn -0.90906596 0 -0.4166521
vn -0.90906596 0 -0.4166521
vn -0.90906596 0 -0.4166521
vn -0.90906596 0 -0.4166521
vn -0.72786933 -2.078359E-06 -0.68571585
vn -0.72786933 -2.078359E-06 -0.68571585
vn -0.72786933 -2.078359E-06 -0.68571585
vn -0.72786933 -2.078359E-06 -0.68571585
vn -0.437725 -4.1801436E-06 -0.89910895
vn -0.437725 -4.1801436E-06 -0.89910895
vn -0.437725 -4.180143E-06 -0.89910895
vn -0.437725 -4.180143E-06 -0.89910895
vn -0.69047457 -1.1053089E-06 -0.72335666
vn -0.6904746 -1.1053091E-06 -0.72335666
vn -0.6904746 -1.1053091E-06 -0.72335666
vn -0.69047457 -1.1053089E-06 -0.72335666
vn -0.6651989 -1.1404868E-06 -0.74666613
vn -0.6651989 -1.1404868E-06 -0.74666613
vn 0.99215734 0 0.124995075
vn 0.99215734 0 0.124995075
vn 0.99215734 0 0.124995075
vn 0.99215734 0 0.124995075
vn 0.8872812 7.1540836E-07 0.46122897
vn 0.8872812 7.1540836E-07 0.46122897
vn 0.8872812 7.154084E-07 0.46122903
vn 0.8872812 7.1540836E-07 0.4612289
vn 0.98514014 -2.6944858E-07 -0.17175283
vn 0.98514014 -2.6944858E-07 -0.17175281
vn 0.98514014 -2.6944858E-07 -0.17175281
vn 0.98514014 -2.694486E-07 -0.17175281
vn 0.9836684 -5.437099E-07 -0.17999047
vn 0.9836684 -5.437099E-07 -0.17999046
vn 0.9803043 6.084461E-07 0.1974929
vn 0.9803043 6.0844604E-07 0.19749291
vn 0.9803043 6.0844604E-07 0.19749293
vn 0.9803043 6.08446E-07 0.1974929
vn -0.978633 6.2156164E-07 0.20561501
vn -0.978633 6.215616E-07 0.20561501
vn -0.978633 6.2156164E-07 0.20561501
vn -0.978633 6.215617E-07 0.20561501
vn -0.7310042 2.0916948E-06 0.6823729
vn -0.73100424 2.0916946E-06 0.68237287
vn -0.7310042 2.0916948E-06 0.6823729
vn -0.73100424 2.0916946E-06 0.68237287
vn -0.25381824 1.2749242E-06 0.9672519
vn -0.25381824 1.2749242E-06 0.9672519
vn -0.25381824 1.2749242E-06 0.9672519
vn -0.25381824 1.2749242E-06 0.9672519
vn -0.25383198 -1.9515532E-07 0.9672483
vn -0.25383198 -1.9515535E-07 0.9672483
vn -0.3317499 0 0.9433674
vn -0.3317499 0 0.9433674
vn -0.3317499 0 0.9433674
vn -0.3317499 0 0.9433674
vn -0.5934078 0 0.80490196
vn -0.5934078 0 0.80490196
vn -0.5934078 0 0.80490196
vn -0.5934078 0 0.80490196
vn -0.24324326 2.9270282E-06 0.9699654
vn -0.24324326 2.9270284E-06 0.9699654
vn -0.24324326 2.9270284E-06 0.9699654
vn -0.24324326 2.9270288E-06 0.9699654
vn -0 -1 0
vn -0 -1 0
vn -0 -1 0
vn -0 -1 0
vn -0 -1 0
vn -0 -1 0
vn -0 -1 0
vn -0 -1 0
vn -0 -1 0
vn -0 -1 0
vn -7.249685E-05 -1 -0.000102996426
vn -7.2496856E-05 -1 -0.000102996426
vn -0.0006472105 -0.999997 -0.0023436048
vn -0.00064721046 -0.999997 -0.002343605
vn -0.00064721046 -0.999997 -0.0023436048
vn 0.0033204819 -0.9999944 0.0005365341
vn 0.0033204823 -0.9999944 0.0005365342
vn 0.0033204819 -0.9999944 0.0005365342
vn 0.0033204816 -0.9999944 0.00053653406
vn 0.0036523168 -0.9999931 0.0007116326
vn 0.0036523168 -0.9999931 0.00071163266
g Stage_Dominating_Theater_CG_Crushed_Ston_A_03_0
f 3/3/3 2/2/2 1/1/1
f 1/1/1 4/4/4 3/3/3
f 1/1/1 5/5/5 4/4/4
f 6/6/6 2/2/2 3/3/3
f 7/7/7 6/6/6 3/3/3
f 8/8/8 3/3/3 4/4/4
f 8/8/8 4/4/4 9/9/9
f 10/10/10 5/5/5 1/1/1
f 10/10/10 1/1/1 11/11/11
f 11/11/11 12/12/12 10/10/10
f 12/12/12 13/13/13 10/10/10
f 12/12/12 14/14/14 13/13/13
f 14/14/14 15/15/15 13/13/13
f 16/16/16 11/11/11 1/1/1
f 17/17/17 16/16/16 1/1/1
f 18/18/18 16/16/16 17/17/17
f 19/19/19 18/18/18 17/17/17
f 19/19/19 20/20/20 18/18/18
f 20/20/20 21/21/21 18/18/18
f 24/24/24 23/23/23 22/22/22
f 25/25/25 24/24/24 22/22/22
f 22/22/22 23/23/23 26/26/26
f 23/23/23 27/27/27 26/26/26
f 30/30/30 29/29/29 28/28/28
f 31/31/31 30/30/30 28/28/28
f 34/34/34 33/33/33 32/32/32
f 35/35/35 34/34/34 32/32/32
f 38/38/38 37/37/37 36/36/36
f 39/39/39 38/38/38 36/36/36
f 42/42/42 41/41/41 40/40/40
f 43/43/43 42/42/42 40/40/40
f 46/46/46 45/45/45 44/44/44
f 47/47/47 46/46/46 44/44/44
f 50/50/50 49/49/49 48/48/48
f 51/51/51 50/50/50 48/48/48
f 48/48/48 49/49/49 52/52/52
f 49/49/49 53/53/53 52/52/52
f 56/56/56 55/55/55 54/54/54
f 57/57/57 56/56/56 54/54/54
f 60/60/60 59/59/59 58/58/58
f 61/61/61 60/60/60 58/58/58
f 64/64/64 63/63/63 62/62/62
f 65/65/65 64/64/64 62/62/62
f 66/66/66 64/64/64 65/65/65
f 67/67/67 66/66/66 65/65/65
f 70/70/70 69/69/69 68/68/68
f 71/71/71 70/70/70 68/68/68
f 74/74/74 73/73/73 72/72/72
f 75/75/75 74/74/74 72/72/72
f 78/78/78 77/77/77 76/76/76
f 79/79/79 78/78/78 76/76/76
f 82/82/82 81/81/81 80/80/80
f 83/83/83 82/82/82 80/80/80
f 80/80/80 81/81/81 84/84/84
f 81/81/81 85/85/85 84/84/84
f 88/88/88 87/87/87 86/86/86
f 89/89/89 88/88/88 86/86/86
f 92/92/92 91/91/91 90/90/90
f 93/93/93 92/92/92 90/90/90
f 96/96/96 95/95/95 94/94/94
f 97/97/97 96/96/96 94/94/94
f 100/100/100 99/99/99 98/98/98
f 98/98/98 101/101/101 100/100/100
f 101/101/101 102/102/102 100/100/100
f 99/99/99 103/103/103 98/98/98
f 103/103/103 104/104/104 98/98/98
f 98/98/98 105/105/105 101/101/101
f 101/101/101 105/105/105 106/106/106
f 102/102/102 107/107/107 100/100/100
f 108/108/108 100/100/100 107/107/107
f 107/107/107 109/109/109 108/108/108
f 107/107/107 110/110/110 109/109/109
f 110/110/110 111/111/111 109/109/109
f 112/112/112 111/111/111 110/110/110
f 108/108/108 113/113/113 100/100/100
f 113/113/113 114/114/114 100/100/100
f 113/113/113 115/115/115 114/114/114
f 115/115/115 116/116/116 114/114/114
f 117/117/117 116/116/116 115/115/115
f 118/118/118 117/117/117 115/115/115
