g Break08
v 1.2009795 -1.8697433 -0.5593963
v 0.31222242 -2.1671653 -0.53182983
v 1.2009803 -1.9564114 -0.0549704
v 0.3122235 -2.177118 -0.0549704
v 0.31222153 -2.0310128 -0.7901266
v -0.3707814 -1.3868874 -0.7901266
v 0.31222242 -2.1671653 -0.53182983
v -0.3707814 -1.5887784 -0.43686888
v 1.2009782 -1.7248739 -0.7901266
v 0.31222153 -2.0310128 -0.7901266
v 1.2009795 -1.8697433 -0.5593963
v 0.31222242 -2.1671653 -0.53182983
v -0.3707814 -1.5887784 -0.43686888
v -0.3707814 -1.7708291 -0.05093933
v 0.3122235 -2.177118 -0.0549704
v -1.0568048 -1.4375442 -0.046864927
v -0.3707814 -1.5887784 -0.43686888
v 0.3122235 -2.177118 -0.0549704
v 0.31222242 -2.1671653 -0.53182983
v 1.2849101 -1.9050558 -0.56786895
v 1.2849101 -1.834747 -1.0489312
v 0.7096893 -2.0837898 -1.0489312
v 0.7096893 -2.0837898 -0.56786895
v 0.31222153 -2.0310128 -0.7901266
v 1.2009782 -1.7248739 -0.7901266
v -0.3707814 -1.3868874 -0.7901266
v 1.2009609 0.6111239 -0.79006803
v -0.46531248 -0.19277678 -0.79009765
v -1.0386504 0.61110747 -0.7900427
v -0.0017793274 1.778436 -0.79004365
v 1.200973 1.6012881 -0.79005367
v -0.72500294 2.177118 -0.7900363
v -1.2849102 2.139906 -0.79003173
v 1.2009609 0.6111239 -0.79006803
v 1.2009795 -1.8697433 -0.5593963
v 1.2009803 -1.9564114 -0.0549704
v 1.2009782 -1.7248739 -0.7901266
v 1.2009752 -1.4689016 0.08731384
v 1.2009733 -0.44305846 0.38671753
v 1.2009761 -0.20853026 0.88454586
v 1.2009733 0.6111423 0.96134746
v 1.200966 1.5955045 -0.49871582
v 1.2009773 1.5458502 1.0489312
v 1.2009699 1.6979605 -0.036819763
v 1.200973 1.6012881 -0.79005367
v 1.2849101 -1.9050558 -0.56786895
v 1.2849101 0.61116207 -0.56786895
v 1.2849101 0.6111856 -1.0489312
v 1.2849101 -1.834747 -1.0489312
v 0.7096893 0.6112149 -0.56786895
v 1.2849101 0.61116207 -0.56786895
v 1.2849101 -1.9050558 -0.56786895
v 0.7096893 -2.0837898 -0.56786895
v 1.2849101 -1.834747 -1.0489312
v 1.2849101 0.6111856 -1.0489312
v 0.7096893 0.61126554 -1.0489312
v 0.7096893 -2.0837898 -1.0489312
v 0.7096893 -2.0837898 -1.0489312
v 0.7096893 0.61126554 -1.0489312
v 0.7096893 0.6112149 -0.56786895
v 0.7096893 -2.0837898 -0.56786895
v 1.2849101 0.61116207 -0.56786895
v 1.2849101 1.7068292 -0.56786895
v 1.2849101 1.6718833 -0.8237216
v 1.2849101 0.6111856 -1.0489312
v 1.2849101 1.5740162 -1.0489312
v 0.7096893 0.61126554 -1.0489312
v 1.2849101 0.6111856 -1.0489312
v 1.2849101 1.5740162 -1.0489312
v 0.90711224 1.6775423 -1.0489312
v 0.7096893 1.675505 -1.0489312
v 0.7096893 0.6112149 -0.56786895
v 0.7096893 0.61126554 -1.0489312
v 0.7096893 1.675505 -1.0489312
v 0.70968914 1.6702752 -0.56786895
v 1.2849101 1.7068292 -0.56786895
v 1.2849101 0.61116207 -0.56786895
v 0.7096893 0.6112149 -0.56786895
v 0.70968914 1.6702752 -0.56786895
v 1.2849101 1.6718833 -0.8237216
v 1.2849101 1.7068292 -0.56786895
v 0.70968914 1.6702752 -0.56786895
v 0.90711224 1.6775423 -1.0489312
v 0.7096893 1.675505 -1.0489312
v 1.2849101 1.6718833 -0.8237216
v 0.90711224 1.6775423 -1.0489312
v 1.2849101 1.5740162 -1.0489312
v -0.0017793274 1.778436 -0.79004365
v 1.200966 1.5955045 -0.49871582
v 1.2009699 1.6979605 -0.036819763
v 1.200973 1.6012881 -0.79005367
v -1.0386504 0.61110747 -0.7900427
v 1.2009773 1.5458502 1.0489312
v 1.2009733 0.6111423 0.96134746
v -1.2849102 2.139906 -0.79003173
v 1.2009761 -0.20853026 0.88454586
v -0.46531248 -0.19277678 -0.79009765
v 1.2009761 -0.20853026 0.88454586
v 1.2009733 -0.44305846 0.38671753
v -0.72500294 2.177118 -0.7900363
v 1.2009699 1.6979605 -0.036819763
v 1.2009773 1.5458502 1.0489312
v -0.72500294 2.177118 -0.7900363
v -0.0017793274 1.778436 -0.79004365
v 1.2009699 1.6979605 -0.036819763
v -1.2849102 2.139906 -0.79003173
v -0.72500294 2.177118 -0.7900363
v 1.2009773 1.5458502 1.0489312
v -0.46531248 -0.19277678 -0.79009765
v -0.9788675 -0.92692715 -0.35174742
v -0.3707814 -1.5887784 -0.43686888
v -1.0568048 -1.4375442 -0.046864927
v -0.46531248 -0.19277678 -0.79009765
v -1.0386504 0.61110747 -0.7900427
v 1.2009761 -0.20853026 0.88454586
v -0.46531248 -0.19277678 -0.79009765
v 1.2009733 -0.44305846 0.38671753
v -0.9788675 -0.92692715 -0.35174742
v -1.0568048 -1.4375442 -0.046864927
v -0.3707814 -1.3868874 -0.7901266
v -0.46531248 -0.19277678 -0.79009765
v -0.3707814 -1.5887784 -0.43686888
v 1.2009733 -0.44305846 0.38671753
v -0.3707814 -1.7708291 -0.05093933
v -1.0568048 -1.4375442 -0.046864927
v 0.3122235 -2.177118 -0.0549704
v 1.2009752 -1.4689016 0.08731384
v 1.2009803 -1.9564114 -0.0549704
vt 3.6579318 -2.0718899
vt 3.624199 -2.361824
vt 3.496707 -2.0718899
vt 3.4720812 -2.3677502
vt 3.7147462 -2.3653107
vt 3.7794113 -2.6621933
vt 3.624199 -2.361824
vt 3.6482787 -2.6487827
vt 3.7440925 -2.0718899
vt 3.7147462 -2.3653107
vt 3.6579318 -2.0718899
vt 3.624199 -2.361824
vt 3.6482787 -2.6487827
vt 3.5123382 -2.633829
vt 3.4720812 -2.3677502
vt 3.5075366 -2.9025803
vt 3.6482787 -2.6487827
vt 3.4720812 -2.3677502
vt 3.624199 -2.361824
vt -3.5870113 1.4487674
vt -3.4905415 1.4487674
vt -3.4905415 1.3333526
vt -3.5870113 1.3333526
vt 0.7820175 0.43821445
vt 0.77218044 0.40965515
vt 0.761319 0.46016437
vt 0.6971154 0.40965527
vt 0.72294605 0.46320093
vt 0.6971154 0.48162305
vt 0.6401693 0.44830486
vt 0.64881146 0.40965587
vt 0.62071997 0.47154492
vt 0.6225352 0.489537
vt 0.6971154 0.5774863
vt 0.8098537 0.5670281
vt 0.8138387 0.54414374
vt 0.80323905 0.5774863
vt 0.79171777 0.5377031
vt 0.7450614 0.52398795
vt 0.734395 0.50130135
vt 0.6971154 0.4977385
vt 0.6490939 0.5642203
vt 0.65151703 0.4937508
vt 0.644096 0.5431887
vt 0.6488114 0.5774857
vt 2.4817677 0.61939245
vt 2.0300565 0.61939245
vt 2.0300565 0.71292835
vt 2.4691737 0.71292835
vt 2.0164454 0.22503841
vt 2.0164454 0.24059047
vt 2.4879029 0.24059048
vt 2.487978 0.22503841
vt 2.494232 0.61939245
vt 2.0300565 0.61939245
vt 2.0300565 0.71292835
vt 2.5435827 0.71292835
vt 2.5665407 0.91469514
vt 2 0.91469514
vt 2 0.9335422
vt 2.5665407 0.9335422
vt 2.8026085 0.61939245
vt 2.5719852 0.61939245
vt 2.5793443 0.6691395
vt 2.8026085 0.71292835
vt 2.599946 0.7129284
vt 2.8026085 0.71292835
vt 2.8026085 0.61939245
vt 2.599946 0.61939245
vt 2.578165 0.68082565
vt 2.5785875 0.71292835
vt 2.8531618 0.9335422
vt 2.8531618 0.91469514
vt 2.605766 0.91469514
vt 2.6069882 0.93354225
vt 2.5820642 0.24059047
vt 2.8227692 0.24059047
vt 2.8227692 0.22503841
vt 2.5901103 0.22503841
vt -5.781378 -7.669966
vt -5.955019 -7.6709943
vt -5.954299 -7.2834835
vt -5.6319485 -7.415474
vt -5.6321154 -7.283499
vt -5.781378 -7.669966
vt -5.6319485 -7.415474
vt -5.6167364 -7.6777406
vt -4.6909 -9.532177
vt -4.888815 -10.326666
vt -5.1981306 -10.3120575
vt -4.698101 -10.327843
vt -5.0554667 -9.751238
vt -3.1462603 -9.151664
vt -3.1870766 -9.767398
vt -5.1742134 -8.740401
vt -3.22293 -10.307363
vt -5.051382 -8.628882
vt -4.1137266 -7.49728
vt -4.0502844 -7.8336773
vt -4.754466 -8.995417
vt -5.1981306 -10.3120575
vt -5.9140615 -10.36062
vt -4.754466 -8.995417
vt -4.6909 -9.532177
vt -5.1981306 -10.3120575
vt -4.7945766 -8.630339
vt -4.754466 -8.995417
vt -5.9140615 -10.36062
vt -5.1491127 -8.624021
vt -5.5753927 -8.140367
vt -5.2038364 -7.6922398
vt -5.7140055 -7.7783775
vt -4.774707 -10.335984
vt -5.0554667 -9.751238
vt -3.22293 -10.307363
vt -2.481946 -7.534828
vt -2.9480352 -8.777908
vt -3.064969 -7.262823
vt -3.4515896 -7.2400813
vt -5.8985033 -8.492925
vt -5.898485 -7.685446
vt -5.6597986 -8.628534
vt -2.9480352 -8.777908
vt -3.7151768 -7.6564393
vt -3.4515896 -7.2400813
vt -4.0247507 -8.066214
vt -3.633496 -8.6942005
vt -3.9594479 -8.654212
vn 0.30871114 -0.9374199 -0.16106322
vn 0.26484197 -0.9618556 -0.06850156
vn 0.29055408 -0.94903785 -0.12208792
vn 0.2409623 -0.9703231 -0.020253131
vn -0.6406104 -0.6792756 -0.35805443
vn -0.6290423 -0.6770627 -0.38195792
vn -0.63586104 -0.67841506 -0.36801317
vn -0.6266954 -0.6765668 -0.3866655
vn 0.28004867 -0.8130135 -0.51047206
vn 0.27257836 -0.8456518 -0.45888355
vn 0.27847326 -0.82056457 -0.4991257
vn 0.27103648 -0.8515136 -0.44884712
vn -0.43595558 -0.8139527 -0.38395795
vn -0.44527274 -0.80981666 -0.38200673
vn -0.47550264 -0.7956348 -0.37531647
vn -0.40421116 -0.82724535 -0.39022872
vn -0.64744705 -0.7619445 -0.015902169
vn -0.647447 -0.76194453 -0.01590217
vn -0.6474471 -0.7619445 -0.01590217
vn 0.35583362 -0.9311603 -0.07951703
vn 0.3937867 -0.909539 -0.13293168
vn 0.34101394 -0.9381933 -0.05918375
vn 0.29672825 -0.9549619 0
vn -0 0 -1
vn 4.902155E-06 2.3115026E-05 -1
vn 5.0721005E-06 2.3236116E-05 -1
vn -5.5293985E-06 1.6087954E-05 -1
vn -1.6939987E-06 4.0325267E-05 -1
vn -9.349346E-06 1.6344336E-05 -1
vn -9.0234225E-06 9.011542E-06 -1
vn -9.0234225E-06 9.011542E-06 -1
vn -9.0234225E-06 9.011543E-06 -1
vn -9.0234225E-06 9.011542E-06 -1
vn 1 -1.1345139E-06 -6.3690964E-06
vn 1 7.493345E-06 -5.4879814E-07
vn 1 7.815724E-06 7.8263787E-07
vn 1 7.4894574E-06 -6.151346E-07
vn 1 7.0397577E-06 6.699835E-07
vn 1 3.783488E-06 -7.2015855E-06
vn 1 3.957849E-06 -7.1838663E-06
vn 1 -1.407358E-06 -7.2396783E-06
vn 1 -3.9535316E-06 -5.6837407E-06
vn 1 -3.491358E-06 -7.2759694E-06
vn 1 -3.4913583E-06 -7.2759694E-06
vn 1 -1.25255665E-05 2.3847697E-05
vn 1 0 0
vn 1 0 0
vn 1 0 0
vn 1 0 0
vn -0 0 1
vn -0 0 1
vn -0 0 1
vn -0 0 1
vn 1.3209271E-07 0 -1
vn 1.3962072E-07 0 -1
vn 1.3213774E-07 0 -1
vn 1.3209271E-07 0 -1
vn -1 0 0
vn -1 0 0
vn -1 0 0
vn -1 0 0
vn 1 0 0
vn 1 0 0
vn 1 0 0
vn 1 0 0
vn 1 -1.343082E-07 0
vn 1.3213774E-07 0 -1
vn 1.3962072E-07 0 -1
vn 1.6240797E-07 0 -1
vn -0 0 -1
vn -9.2959357E-07 0 -1
vn -1 0 0
vn -1 0 0
vn -1 0 -1.5898915E-07
vn -1 0 -1.5898917E-07
vn -0 0 1
vn -0 0 1
vn -0 0 1
vn -0 0 1
vn -0.025262283 0.9984035 -0.050520696
vn -0.06283864 0.9888425 -0.1350617
vn -0.012897748 0.99973756 -0.018933138
vn 0.0008909389 0.99987996 0.015470181
vn -0.010318575 0.9998877 0.010870244
vn 0.24374112 0.88948417 -0.38653356
vn 0.24374112 0.88948417 -0.38653356
vn 0.24374112 0.88948417 -0.3865336
vn 0.1826407 0.9726865 -0.14325953
vn 0.1819608 0.9732766 -0.1400821
vn 0.19700141 0.95713866 -0.21231133
vn 0.14568543 0.989136 0.019640634
vn -0.6083134 -0.09318001 0.7882083
vn -0.6112327 -0.08380985 0.78700095
vn -0.6143399 -0.07361025 0.7856003
vn -0.6068638 -0.09775971 0.78877085
vn -0.6143398 -0.073611155 0.7856003
vn -0.40033373 -0.82898307 0.39053813
vn -0.4003338 -0.82898307 0.3905382
vn -0.40033376 -0.82898307 0.3905381
vn 0.18867154 0.9725427 0.13624902
vn 0.18867153 0.9725427 0.13624899
vn 0.18867151 0.9725427 0.13624899
vn 0.3997064 0.725092 -0.5607821
vn 0.39970633 0.725092 -0.5607821
vn 0.39970633 0.725092 -0.560782
vn -0.061312415 0.9225775 0.38090894
vn -0.061312422 0.9225775 0.38090897
vn -0.061312415 0.9225775 0.38090897
vn -0.39614627 -0.25035068 -0.8833984
vn -0.42822266 -0.2830626 -0.8581963
vn -0.4393751 -0.29453748 -0.8486443
vn -0.5191077 -0.37837115 -0.7663957
vn -0.63429725 -0.45242962 0.6268767
vn -0.63429725 -0.45242968 0.6268767
vn -0.63429725 -0.45242968 0.6268767
vn -0.36900398 0.65301794 0.6613651
vn -0.37186068 0.6177043 0.6929365
vn -0.37376046 0.58373857 0.7207999
vn -0.37537432 0.5167335 0.7694677
vn -0.9958689 -0.07883633 -0.045055855
vn -0.9958689 -0.07883634 -0.04505586
vn -0.9958689 -0.07883633 -0.045055855
vn -0.051851902 -0.22387384 0.9732378
vn -0.100770615 -0.20183325 0.97422206
vn -0.09529865 -0.20806034 0.9734624
vn -0.07280595 -0.21097346 0.9747766
vn 0.06940887 -0.27949587 0.9576348
vn 0.06940733 -0.2794941 0.95763546
g Break08_0
f 3/3/3 2/2/2 1/1/1
f 3/3/3 4/4/4 2/2/2
f 7/7/7 6/6/6 5/5/5
f 7/7/7 8/8/8 6/6/6
f 11/11/11 10/10/10 9/9/9
f 11/11/11 12/12/12 10/10/10
f 15/15/15 14/14/14 13/13/13
f 13/13/13 14/14/14 16/16/16
f 19/19/19 18/18/18 17/17/17
f 22/22/22 21/21/21 20/20/20
f 23/23/23 22/22/22 20/20/20
g Break08_1
f 26/26/26 25/25/25 24/24/24
f 26/26/26 27/27/27 25/25/25
f 26/26/26 28/28/28 27/27/27
f 28/28/28 29/29/29 27/27/27
f 27/27/27 29/29/29 30/30/30
f 30/30/30 31/31/31 27/27/27
f 29/29/29 32/32/32 30/30/30
f 29/29/29 33/33/33 32/32/32
f 36/36/36 35/35/35 34/34/34
f 35/35/35 37/37/37 34/34/34
f 38/38/38 36/36/36 34/34/34
f 39/39/39 38/38/38 34/34/34
f 40/40/40 39/39/39 34/34/34
f 40/40/40 34/34/34 41/41/41
f 41/41/41 34/34/34 42/42/42
f 42/42/42 43/43/43 41/41/41
f 42/42/42 44/44/44 43/43/43
f 45/45/45 42/42/42 34/34/34
g Break08_2
f 48/48/48 47/47/47 46/46/46
f 49/49/49 48/48/48 46/46/46
f 52/52/52 51/51/51 50/50/50
f 53/53/53 52/52/52 50/50/50
f 56/56/56 55/55/55 54/54/54
f 57/57/57 56/56/56 54/54/54
f 60/60/60 59/59/59 58/58/58
f 61/61/61 60/60/60 58/58/58
f 64/64/64 63/63/63 62/62/62
f 64/64/64 62/62/62 65/65/65
f 66/66/66 64/64/64 65/65/65
f 69/69/69 68/68/68 67/67/67
f 70/70/70 69/69/69 67/67/67
f 70/70/70 67/67/67 71/71/71
f 74/74/74 73/73/73 72/72/72
f 75/75/75 74/74/74 72/72/72
f 78/78/78 77/77/77 76/76/76
f 79/79/79 78/78/78 76/76/76
g Break08_3
f 82/82/82 81/81/81 80/80/80
f 83/83/83 82/82/82 80/80/80
f 83/83/83 84/84/84 82/82/82
f 87/87/87 86/86/86 85/85/85
f 90/90/90 89/89/89 88/88/88
f 89/89/89 91/91/91 88/88/88
f 94/94/94 93/93/93 92/92/92
f 93/93/93 95/95/95 92/92/92
f 96/96/96 94/94/94 92/92/92
f 99/99/99 98/98/98 97/97/97
f 102/102/102 101/101/101 100/100/100
f 105/105/105 104/104/104 103/103/103
f 108/108/108 107/107/107 106/106/106
f 111/111/111 110/110/110 109/109/109
f 111/111/111 112/112/112 110/110/110
f 115/115/115 114/114/114 113/113/113
f 118/118/118 117/117/117 116/116/116
f 118/118/118 119/119/119 117/117/117
f 122/122/122 121/121/121 120/120/120
f 125/125/125 124/124/124 123/123/123
f 124/124/124 126/126/126 123/123/123
f 126/126/126 127/127/127 123/123/123
f 126/126/126 128/128/128 127/127/127
