g Cam_Collision02
v 11.938176 -0.30554688 3.5146239
v 14.126199 -0.36154297 -4.6989646
v 13.33781 -0.34134763 -0.3271289
v 11.966645 -0.30625 -12.911103
v 13.4464855 -0.34414062 -8.71872
v 10.715151 -0.27421874 -15.063076
v 8.239054 -0.21085937 -17.551542
v 5.031183 -0.12876953 -16.838026
v 1.7928784 -0.045898438 2.6927197
v 13.236355 -0.33876953 7.438535
v 11.525148 -0.29496092 9.719971
v 0.9392053 -0.024042968 9.641636
v 10.254199 -0.2624414 15.294736
v 8.626613 -0.22078125 15.461787
v 8.266102 -0.21158202 16.556622
v 4.743452 -0.12140625 16.556622
v 3.1700072 -0.081132814 16.556622
v 6.2453814 -0.15988281 18.070581
v 8.22918 -0.210625 18.292534
v -2.9818408 0.07632812 16.556622
v 3.5033667 -0.089628905 17.390018
v 4.410094 -0.11285156 17.390018
v 12.857915 -0.3290625 10.750029
v 14.290577 -0.36572266 15.957709
v 11.940164 -0.30558592 16.953808
v -4.6559176 0.119140625 14.726874
v 0.9392053 -0.024042968 9.641636
v -9.2207155 0.23591797 10.361162
v 1.7928784 -0.045898438 2.6927197
v -13.168872 0.33701172 3.6012938
v -11.990139 0.30685547 -14.526172
v -5.8405685 0.14945312 -17.844395
v -14.225527 0.364082 -12.769716
v -14.459614 0.37003905 -1.5621923
v -8.398457 0.21492188 16.595058
v -6.811648 0.17433593 16.700155
v 2.465487 -0.063125 -17.759834
v -1.4387072 0.036816407 -16.61202
v -3.3778625 0.08644531 -15.353291
v -5.8405685 0.14945312 -17.844395
v -4.6987033 0.120253906 -17.642275
v -6.811648 0.17433593 16.700155
v -8.394028 24.442987 16.595058
v -8.398457 0.21492188 16.595058
v -6.8072214 24.402382 16.700155
v 8.626613 -0.22078125 15.461787
v 8.270528 24.016426 16.556622
v 8.266102 -0.21158202 16.556622
v 8.63104 24.007206 15.461787
v 10.254199 -0.2624414 15.294736
v 8.63104 24.007206 15.461787
v 8.626613 -0.22078125 15.461787
v 10.258624 23.965546 15.294736
v 14.290577 -0.36572266 15.957709
v 11.94459 23.922401 16.953808
v 11.940164 -0.30558592 16.953808
v 14.295002 23.862246 15.957709
v 11.940164 -0.30558592 16.953808
v 10.258624 23.965546 15.294736
v 10.254199 -0.2624414 15.294736
v 11.94459 23.922401 16.953808
v 12.857915 -0.3290625 10.750029
v 14.295002 23.862246 15.957709
v 14.290577 -0.36572266 15.957709
v 12.862341 23.898905 10.750029
v 11.525148 -0.29496092 9.719971
v 12.862341 23.898905 10.750029
v 12.857915 -0.3290625 10.750029
v 11.5295725 23.933027 9.719971
v 13.236355 -0.33876953 7.438535
v 11.5295725 23.933027 9.719971
v 11.525148 -0.29496092 9.719971
v 13.240779 23.889217 7.438535
v 11.938176 -0.30554688 3.5146239
v 13.240779 23.889217 7.438535
v 13.236355 -0.33876953 7.438535
v 11.942602 23.922441 3.5146239
v 13.33781 -0.34134763 -0.3271289
v 11.942602 23.922441 3.5146239
v 11.938176 -0.30554688 3.5146239
v 13.342235 23.886621 -0.3271289
v 14.126199 -0.36154297 -4.6989646
v 13.342235 23.886621 -0.3271289
v 13.33781 -0.34134763 -0.3271289
v 14.130624 23.866446 -4.6989646
v 13.4464855 -0.34414062 -8.71872
v 14.130624 23.866446 -4.6989646
v 14.126199 -0.36154297 -4.6989646
v 13.450911 23.883846 -8.71872
v 11.966645 -0.30625 -12.911103
v 13.450911 23.883846 -8.71872
v 13.4464855 -0.34414062 -8.71872
v 11.97107 23.921719 -12.911103
v 8.239054 -0.21085937 -17.551542
v 10.719576 23.953749 -15.063076
v 10.715151 -0.27421874 -15.063076
v 8.24348 24.017128 -17.551542
v 10.715151 -0.27421874 -15.063076
v 11.97107 23.921719 -12.911103
v 11.966645 -0.30625 -12.911103
v 10.719576 23.953749 -15.063076
v 5.031183 -0.12876953 -16.838026
v 8.24348 24.017128 -17.551542
v 8.239054 -0.21085937 -17.551542
v 5.0356097 24.099237 -16.838026
v 2.465487 -0.063125 -17.759834
v 5.0356097 24.099237 -16.838026
v 5.031183 -0.12876953 -16.838026
v 2.469912 24.164902 -17.759834
v 3.1700072 -0.081132814 16.556622
v -2.9774158 24.304356 16.556622
v -2.9818408 0.07632812 16.556622
v 3.1744335 24.146875 16.556622
v -11.990139 0.30685547 -14.526172
v -5.8361425 24.37752 -17.844395
v -5.8405685 0.14945312 -17.844395
v -11.985713 24.534922 -14.526172
v -3.3778625 0.08644531 -15.353291
v -1.4342822 24.264843 -16.61202
v -1.4387072 0.036816407 -16.61202
v -3.3734362 24.314472 -15.353291
v -5.8405685 0.14945312 -17.844395
v -4.6942773 24.3483 -17.642275
v -4.6987033 0.120253906 -17.642275
v -5.8361425 24.37752 -17.844395
v -4.6987033 0.120253906 -17.642275
v -3.3734362 24.314472 -15.353291
v -3.3778625 0.08644531 -15.353291
v -4.6942773 24.3483 -17.642275
v -9.2207155 0.23591797 10.361162
v -13.164448 24.565098 3.6012938
v -13.168872 0.33701172 3.6012938
v -9.216289 24.464024 10.361162
v -14.225527 0.364082 -12.769716
v -11.985713 24.534922 -14.526172
v -11.990139 0.30685547 -14.526172
v -14.221104 24.592148 -12.769716
v -13.168872 0.33701172 3.6012938
v -14.45519 24.598145 -1.5621923
v -14.459614 0.37003905 -1.5621923
v -13.164448 24.565098 3.6012938
v -14.459614 0.37003905 -1.5621923
v -14.221104 24.592148 -12.769716
v -14.225527 0.364082 -12.769716
v -14.45519 24.598145 -1.5621923
v -8.398457 0.21492188 16.595058
v -9.216289 24.464024 10.361162
v -9.2207155 0.23591797 10.361162
v -8.394028 24.442987 16.595058
v -2.9818408 0.07632812 16.556622
v -4.6514916 24.347187 14.726874
v -4.6559176 0.119140625 14.726874
v -2.9774158 24.304356 16.556622
v -4.6559176 0.119140625 14.726874
v -6.8072214 24.402382 16.700155
v -6.811648 0.17433593 16.700155
v -4.6514916 24.347187 14.726874
v 8.266102 -0.21158202 16.556622
v 8.233606 24.017382 18.292534
v 8.22918 -0.210625 18.292534
v 8.270528 24.016426 16.556622
v 6.2453814 -0.15988281 18.070581
v 4.747878 24.106602 16.556622
v 4.743452 -0.12140625 16.556622
v 6.2498064 24.068163 18.070581
v 8.22918 -0.210625 18.292534
v 6.2498064 24.068163 18.070581
v 6.2453814 -0.15988281 18.070581
v 8.233606 24.017382 18.292534
v 4.743452 -0.12140625 16.556622
v 4.414519 24.115137 17.390018
v 4.410094 -0.11285156 17.390018
v 4.747878 24.106602 16.556622
v 3.5033667 -0.089628905 17.390018
v 3.1744335 24.146875 16.556622
v 3.1700072 -0.081132814 16.556622
v 3.5077941 24.13836 17.390018
v 4.410094 -0.11285156 17.390018
v 3.5077941 24.13836 17.390018
v 3.5033667 -0.089628905 17.390018
v 4.414519 24.115137 17.390018
v -1.4387072 0.036816407 -16.61202
v 2.469912 24.164902 -17.759834
v 2.465487 -0.063125 -17.759834
v -1.4342822 24.264843 -16.61202
vt 0.8379248 0.4205817
vt 0.94491667 0.6776275
vt 0.92801875 0.52822936
vt 0.8733882 0.93462795
vt 0.9224033 0.8034265
vt 0.82402253 1
vt 0.7226913 1
vt 0.61855865 1
vt 0.32948652 0.4169003
vt 0.8809229 0.29778218
vt 0.82424456 0.22638425
vt 0.3371683 0.19230907
vt 0.78214836 0.05192096
vt 0.72823966 0.046693083
vt 0.7096875 0
vt 0.5996221 0
vt 0.54750663 0
vt 0.5996221 0
vt 0.7096875 0
vt 0.34374595 0
vt 0.54750663 0
vt 0.5996221 0
vt 0.8683883 0.19414839
vt 0.9362375 0
vt 0.83799064 0
vt 0.22769472 0.06116402
vt 0.30267712 0.19360276
vt 0 0.22319867
vt 0.25471422 0.41970485
vt 0 0.47783846
vt 0 1
vt 0.13161655 1
vt 0 1
vt 0 0.47783846
vt 0 0
vt 0.10070107 0
vt 0.50720215 1
vt 0.35886705 1
vt 0.32344702 0.9160728
vt 0.2608771 1
vt 0.2862445 1
vt 0.10070107 0
vt 0 0
vt 0 0
vt 0.10070107 0
vt 0.72823966 0.046693083
vt 0.7096875 0
vt 0.7096875 0
vt 0.72823966 0.046693083
vt 0.78214836 0.05192096
vt 0.72823966 0.046693083
vt 0.72823966 0.046693083
vt 0.78214836 0.05192096
vt 0.9362375 0
vt 0.83799064 0
vt 0.83799064 0
vt 0.9362375 0
vt 0.83799064 0
vt 0.78214836 0.05192096
vt 0.78214836 0.05192096
vt 0.83799064 0
vt 0.8683883 0.19414839
vt 0.9362375 0
vt 0.9362375 0
vt 0.8683883 0.19414839
vt 0.82424456 0.22638425
vt 0.8683883 0.19414839
vt 0.8683883 0.19414839
vt 0.82424456 0.22638425
vt 0.8809229 0.29778218
vt 0.82424456 0.22638425
vt 0.82424456 0.22638425
vt 0.8809229 0.29778218
vt 0.8379248 0.4205817
vt 0.8809229 0.29778218
vt 0.8809229 0.29778218
vt 0.8379248 0.4205817
vt 0.92801875 0.52822936
vt 0.8379248 0.4205817
vt 0.8379248 0.4205817
vt 0.92801875 0.52822936
vt 0.94491667 0.6776275
vt 0.92801875 0.52822936
vt 0.92801875 0.52822936
vt 0.94491667 0.6776275
vt 0.9224033 0.8034265
vt 0.94491667 0.6776275
vt 0.94491667 0.6776275
vt 0.9224033 0.8034265
vt 0.8733882 0.93462795
vt 0.9224033 0.8034265
vt 0.9224033 0.8034265
vt 0.8733882 0.93462795
vt 0.7226913 1
vt 0.82402253 1
vt 0.82402253 1
vt 0.7226913 1
vt 0.82402253 1
vt 0.8733882 0.93462795
vt 0.8733882 0.93462795
vt 0.82402253 1
vt 0.61855865 1
vt 0.7226913 1
vt 0.7226913 1
vt 0.61855865 1
vt 0.50720215 1
vt 0.61855865 1
vt 0.61855865 1
vt 0.50720215 1
vt 0.54750663 0
vt 0.34374595 0
vt 0.34374595 0
vt 0.54750663 0
vt 0 1
vt 0.13161655 1
vt 0.13161655 1
vt 0 1
vt 0.32344702 0.9160728
vt 0.35886705 1
vt 0.35886705 1
vt 0.32344702 0.9160728
vt 0.2608771 1
vt 0.2862445 1
vt 0.2862445 1
vt 0.2608771 1
vt 0.2862445 1
vt 0.32344702 0.9160728
vt 0.32344702 0.9160728
vt 0.2862445 1
vt 0 0.22319867
vt 0 0.47783846
vt 0 0.47783846
vt 0 0.22319867
vt 0 1
vt 0 1
vt 0 1
vt 0 1
vt 0 0.47783846
vt 0 0.47783846
vt 0 0.47783846
vt 0 0.47783846
vt 0 0.47783846
vt 0 1
vt 0 1
vt 0 0.47783846
vt 0 0
vt 0 0.22319867
vt 0 0.22319867
vt 0 0
vt 0.34374595 0
vt 0.22769472 0.06116402
vt 0.22769472 0.06116402
vt 0.34374595 0
vt 0.22769472 0.06116402
vt 0.10070107 0
vt 0.10070107 0
vt 0.22769472 0.06116402
vt 0.7096875 0
vt 0.7096875 0
vt 0.7096875 0
vt 0.7096875 0
vt 0.5996221 0
vt 0.5996221 0
vt 0.5996221 0
vt 0.5996221 0
vt 0.7096875 0
vt 0.5996221 0
vt 0.5996221 0
vt 0.7096875 0
vt 0.5996221 0
vt 0.5996221 0
vt 0.5996221 0
vt 0.5996221 0
vt 0.54750663 0
vt 0.54750663 0
vt 0.54750663 0
vt 0.54750663 0
vt 0.5996221 0
vt 0.54750663 0
vt 0.54750663 0
vt 0.5996221 0
vt 0.35886705 1
vt 0.50720215 1
vt 0.50720215 1
vt 0.35886705 1
vn 0.025533792 0.99967396 -1.3308057E-05
vn 0.025533793 0.99967396 -1.33080575E-05
vn 0.025533793 0.99967396 -1.3308057E-05
vn 0.025598036 0.9996723 -6.6646567E-07
vn 0.025598036 0.9996723 -6.6646567E-07
vn 0.025583347 0.99967265 1.5494902E-06
vn 0.025578128 0.9996728 1.8933758E-06
vn 0.025582029 0.9996728 1.2092345E-06
vn 0.025589963 0.99967253 -4.3485974E-07
vn 0.025586406 0.99967265 -4.6675013E-06
vn 0.025583869 0.99967265 -1.1591836E-06
vn 0.02559047 0.99967253 -3.045865E-06
vn 0.025587425 0.99967253 -4.6670402E-06
vn 0.025587425 0.99967253 -4.6670402E-06
vn 0.02559047 0.99967253 -3.045865E-06
vn 0.02559047 0.99967253 -3.0458655E-06
vn 0.02558733 0.99967253 -1.3178409E-06
vn 0.025590468 0.99967253 1.9080862E-05
vn 0.02557074 0.999673 -7.2648277E-06
vn 0.02558733 0.99967253 -1.3184114E-06
vn 0.025587328 0.99967253 -4.375338E-05
vn 0.025603116 0.9996722 -2.0249494E-05
vn 0.025579175 0.9996728 3.5659968E-07
vn 0.025578665 0.9996728 3.4264958E-06
vn 0.025578665 0.9996728 3.426496E-06
vn 0.025580633 0.9996728 -7.1650124E-06
vn 0.025578402 0.9996728 -1.8308165E-06
vn 0.02558466 0.99967265 7.160089E-06
vn 0.025586594 0.99967265 -1.2812776E-06
vn 0.025584262 0.99967265 5.8650966E-07
vn 0.025586594 0.99967265 -1.2812776E-06
vn 0.025586596 0.99967265 -1.2812776E-06
vn 0.025592793 0.9996724 1.1415491E-06
vn 0.025568716 0.999673 2.6962955E-06
vn 0.025580633 0.9996728 -7.165012E-06
vn 0.02557053 0.999673 -2.7420456E-05
vn 0.025589962 0.99967253 -4.3485971E-07
vn 0.025589963 0.99967253 -4.3485971E-07
vn 0.025560342 0.99967325 1.5902864E-05
vn 0.02556034 0.99967325 1.5902862E-05
vn 0.02556034 0.99967325 1.5902862E-05
vn 0.06608696 -1.2080208E-05 -0.9978138
vn 0.06608698 -1.2080208E-05 -0.9978138
vn 0.06608698 -1.2080209E-05 -0.9978138
vn 0.06608706 -1.2073576E-05 -0.9978138
vn -0.94983035 0.00017352666 -0.31276557
vn -0.94983035 0.00017352666 -0.31276557
vn -0.94983035 0.00017352666 -0.3127655
vn -0.94983035 0.00017352679 -0.31276557
vn -0.10210031 1.8652952E-05 -0.99477416
vn -0.10210031 1.8652952E-05 -0.99477416
vn -0.10210033 1.8652952E-05 -0.99477416
vn -0.10210037 1.8649105E-05 -0.99477416
vn -0.3902008 7.1286726E-05 -0.9207298
vn -0.39020076 7.1286726E-05 -0.9207298
vn -0.3902008 7.1286726E-05 -0.9207298
vn -0.39020094 7.1264694E-05 -0.9207297
vn 0.70139766 -0.00012811352 -0.7127701
vn 0.7013977 -0.00012811353 -0.7127701
vn 0.7013977 -0.00012811352 -0.7127701
vn 0.7013975 -0.00012813999 -0.7127703
vn -0.964179 0.00017609364 0.2652522
vn -0.964179 0.00017609364 0.2652522
vn -0.964179 0.00017609364 0.2652522
vn -0.964179 0.00017609975 0.2652522
vn -0.6115174 0.000111688874 0.791231
vn -0.61151737 0.000111688874 0.791231
vn -0.61151737 0.00011168886 0.791231
vn -0.6115174 0.00011168878 0.791231
vn -0.7999768 0.0001461094 -0.6000309
vn -0.7999768 0.00014610939 -0.60003084
vn -0.7999768 0.0001461094 -0.6000309
vn -0.7999768 0.0001461094 -0.6000309
vn -0.9493912 0.00017339873 0.314096
vn -0.9493912 0.00017339872 0.314096
vn -0.9493912 0.00017339873 0.31409603
vn -0.9493912 0.00017343459 0.31409577
vn -0.9395859 0.00017164339 -0.3423133
vn -0.9395859 0.00017164339 -0.3423133
vn -0.9395859 0.00017164339 -0.34231326
vn -0.93958604 0.00017159028 -0.342313
vn -0.98412585 0.00017972429 -0.17747168
vn -0.98412585 0.00017972432 -0.17747165
vn -0.98412585 0.00017972429 -0.17747167
vn -0.98412585 0.00017973653 -0.17747173
vn -0.98600304 0.00018007935 0.16672711
vn -0.98600304 0.00018007937 0.16672713
vn -0.98600304 0.00018007937 0.16672713
vn -0.98600304 0.00018007937 0.16672713
vn -0.94297737 0.00017222135 0.3328566
vn -0.94297737 0.0001722214 0.33285663
vn -0.94297737 0.00017222135 0.33285666
vn -0.94297737 0.00017222742 0.3328566
vn -0.70886487 0.00012948649 0.70534444
vn -0.70886487 0.00012948646 0.70534444
vn -0.7088648 0.00012948648 0.70534444
vn -0.70886487 0.00012950422 0.7053444
vn -0.86444545 0.0001578842 0.5027267
vn -0.86444545 0.0001578842 0.5027267
vn -0.86444545 0.0001578842 0.5027267
vn -0.8644455 0.00015790598 0.50272644
vn 0.21711956 -3.966609E-05 0.97614497
vn 0.21711954 -3.9666098E-05 0.9761451
vn 0.21711954 -3.9666098E-05 0.9761451
vn 0.21711957 -3.9671537E-05 0.97614497
vn -0.3381193 6.17803E-05 0.9411032
vn -0.33811927 6.1780294E-05 0.9411033
vn -0.3381193 6.1780294E-05 0.9411032
vn -0.33811903 6.175465E-05 0.9411033
vn -0 0 -1
vn -0 0 -1
vn -0 0 -1
vn -0 0 -1
vn 0.4748651 -8.6753986E-05 0.8800585
vn 0.47486514 -8.675398E-05 0.88005865
vn 0.4748651 -8.675398E-05 0.8800585
vn 0.4748651 -8.675398E-05 0.8800585
vn 0.54446334 -9.944173E-05 0.83878464
vn 0.54446334 -9.944171E-05 0.83878464
vn 0.5444633 -9.944171E-05 0.83878464
vn 0.5444635 -9.946919E-05 0.83878446
vn -0.17429762 3.1842774E-05 0.98469305
vn -0.17429763 3.1842774E-05 0.98469305
vn -0.17429765 3.184277E-05 0.98469305
vn -0.17429765 3.184275E-05 0.98469305
vn -0.86613977 0.00015823692 0.4998017
vn -0.86613977 0.00015823692 0.4998017
vn -0.86613977 0.00015823693 0.4998017
vn -0.86613977 0.0001582368 0.49980178
vn 0.8635053 -0.0001576682 -0.5043397
vn 0.8635053 -0.0001576682 -0.5043397
vn 0.8635053 -0.00015766823 -0.5043397
vn 0.8635051 -0.00015775509 -0.50434
vn 0.6178369 -0.00011287376 0.7863064
vn 0.6178369 -0.00011287376 0.7863064
vn 0.61783683 -0.00011287375 0.78630626
vn 0.6178364 -0.0001128114 0.7863067
vn 0.9701479 -0.00017714007 -0.24251382
vn 0.9701479 -0.00017714006 -0.24251382
vn 0.9701479 -0.00017714007 -0.24251385
vn 0.9701479 -0.00017714019 -0.24251382
vn 0.9997819 -0.00018255123 0.020882126
vn 0.9997819 -0.00018255124 0.020882128
vn 0.9997819 -0.00018255124 0.020882124
vn 0.9997819 -0.00018255094 0.020882128
vn 0.9914129 -0.00018112273 -0.13076915
vn 0.9914129 -0.00018112273 -0.13076916
vn 0.9914129 -0.00018112271 -0.13076915
vn 0.99141276 -0.00018122292 -0.1307695
vn 0.73779297 -0.00013478886 -0.6750271
vn 0.73779297 -0.00013478886 -0.6750271
vn 0.73779297 -0.00013478886 -0.6750271
vn 0.73779315 -0.00013475183 -0.6750269
vn -0.67520124 0.00012335384 -0.7376335
vn -0.67520124 0.00012335384 -0.7376335
vn -0.6752013 0.00012335385 -0.7376336
vn -0.6752013 0.00012335385 -0.7376336
vn -0.9997739 0.00018265095 -0.021264434
vn -0.9997739 0.00018265097 -0.021264436
vn -0.9997739 0.00018265097 -0.021264436
vn -0.9997739 0.00018265097 -0.021264436
vn 0.70992017 -0.00012969693 -0.70428205
vn 0.70992017 -0.0001296969 -0.70428205
vn 0.70992017 -0.00012969693 -0.70428216
vn 0.7099205 -0.00012966101 -0.70428175
vn 0.11118859 -2.030766E-05 -0.99379927
vn 0.11118859 -2.0307662E-05 -0.99379927
vn 0.11118859 -2.0307662E-05 -0.99379927
vn 0.11118853 -2.0313286E-05 -0.99379927
vn -0.9284765 0.00016957885 -0.37139097
vn -0.9284765 0.00016957885 -0.37139097
vn -0.9284765 0.00016957885 -0.37139097
vn -0.9284761 0.00016962537 -0.37139216
vn 0.9284761 -0.00016962539 -0.37139213
vn 0.9284761 -0.00016962539 -0.37139216
vn 0.9284761 -0.00016962542 -0.37139216
vn 0.9284756 -0.00016967225 -0.3713933
vn -0 0 -1
vn -0 0 -1
vn -0 0 -1
vn -0 0 -1
vn 0.28205654 -5.1515297E-05 0.9593978
vn 0.28205654 -5.15153E-05 0.9593978
vn 0.28205654 -5.1515297E-05 0.9593978
vn 0.28205654 -5.1515297E-05 0.9593978
g Cam_Collision02_0
f 3/3/3 2/2/2 1/1/1
f 2/2/2 4/4/4 1/1/1
f 5/5/5 4/4/4 2/2/2
f 4/4/4 6/6/6 1/1/1
f 6/6/6 7/7/7 1/1/1
f 7/7/7 8/8/8 1/1/1
f 1/1/1 8/8/8 9/9/9
f 1/1/1 9/9/9 10/10/10
f 10/10/10 9/9/9 11/11/11
f 9/9/9 12/12/12 11/11/11
f 12/12/12 13/13/13 11/11/11
f 13/13/13 12/12/12 14/14/14
f 14/14/14 12/12/12 15/15/15
f 15/15/15 12/12/12 16/16/16
f 17/17/17 16/16/16 12/12/12
f 16/16/16 18/18/18 15/15/15
f 19/19/19 15/15/15 18/18/18
f 20/20/20 17/17/17 12/12/12
f 17/17/17 21/21/21 16/16/16
f 22/22/22 16/16/16 21/21/21
f 23/23/23 11/11/11 13/13/13
f 23/23/23 13/13/13 24/24/24
f 25/25/25 24/24/24 13/13/13
f 20/20/20 27/27/27 26/26/26
f 27/27/27 28/28/28 26/26/26
f 27/27/27 29/29/29 28/28/28
f 30/30/30 28/28/28 29/29/29
f 30/30/30 29/29/29 31/31/31
f 32/32/32 31/31/31 29/29/29
f 31/31/31 33/33/33 30/30/30
f 34/34/34 30/30/30 33/33/33
f 28/28/28 35/35/35 26/26/26
f 36/36/36 26/26/26 35/35/35
f 38/38/38 9/9/9 37/37/37
f 37/37/37 9/9/9 8/8/8
f 38/38/38 39/39/39 9/9/9
f 9/9/9 39/39/39 40/40/40
f 41/41/41 40/40/40 39/39/39
f 44/44/44 43/43/43 42/42/42
f 45/45/45 42/42/42 43/43/43
f 48/48/48 47/47/47 46/46/46
f 49/49/49 46/46/46 47/47/47
f 52/52/52 51/51/51 50/50/50
f 53/53/53 50/50/50 51/51/51
f 56/56/56 55/55/55 54/54/54
f 57/57/57 54/54/54 55/55/55
f 60/60/60 59/59/59 58/58/58
f 61/61/61 58/58/58 59/59/59
f 64/64/64 63/63/63 62/62/62
f 65/65/65 62/62/62 63/63/63
f 68/68/68 67/67/67 66/66/66
f 69/69/69 66/66/66 67/67/67
f 72/72/72 71/71/71 70/70/70
f 73/73/73 70/70/70 71/71/71
f 76/76/76 75/75/75 74/74/74
f 77/77/77 74/74/74 75/75/75
f 80/80/80 79/79/79 78/78/78
f 81/81/81 78/78/78 79/79/79
f 84/84/84 83/83/83 82/82/82
f 85/85/85 82/82/82 83/83/83
f 88/88/88 87/87/87 86/86/86
f 89/89/89 86/86/86 87/87/87
f 92/92/92 91/91/91 90/90/90
f 93/93/93 90/90/90 91/91/91
f 96/96/96 95/95/95 94/94/94
f 97/97/97 94/94/94 95/95/95
f 100/100/100 99/99/99 98/98/98
f 101/101/101 98/98/98 99/99/99
f 104/104/104 103/103/103 102/102/102
f 105/105/105 102/102/102 103/103/103
f 108/108/108 107/107/107 106/106/106
f 109/109/109 106/106/106 107/107/107
f 112/112/112 111/111/111 110/110/110
f 113/113/113 110/110/110 111/111/111
f 116/116/116 115/115/115 114/114/114
f 117/117/117 114/114/114 115/115/115
f 120/120/120 119/119/119 118/118/118
f 121/121/121 118/118/118 119/119/119
f 124/124/124 123/123/123 122/122/122
f 125/125/125 122/122/122 123/123/123
f 128/128/128 127/127/127 126/126/126
f 129/129/129 126/126/126 127/127/127
f 132/132/132 131/131/131 130/130/130
f 133/133/133 130/130/130 131/131/131
f 136/136/136 135/135/135 134/134/134
f 137/137/137 134/134/134 135/135/135
f 140/140/140 139/139/139 138/138/138
f 141/141/141 138/138/138 139/139/139
f 144/144/144 143/143/143 142/142/142
f 145/145/145 142/142/142 143/143/143
f 148/148/148 147/147/147 146/146/146
f 149/149/149 146/146/146 147/147/147
f 152/152/152 151/151/151 150/150/150
f 153/153/153 150/150/150 151/151/151
f 156/156/156 155/155/155 154/154/154
f 157/157/157 154/154/154 155/155/155
f 160/160/160 159/159/159 158/158/158
f 161/161/161 158/158/158 159/159/159
f 164/164/164 163/163/163 162/162/162
f 165/165/165 162/162/162 163/163/163
f 168/168/168 167/167/167 166/166/166
f 169/169/169 166/166/166 167/167/167
f 172/172/172 171/171/171 170/170/170
f 173/173/173 170/170/170 171/171/171
f 176/176/176 175/175/175 174/174/174
f 177/177/177 174/174/174 175/175/175
f 180/180/180 179/179/179 178/178/178
f 181/181/181 178/178/178 179/179/179
f 184/184/184 183/183/183 182/182/182
f 185/185/185 182/182/182 183/183/183
