g Collision02
v -1.3087634 22.25545 -17.342184
v -1.3260018 20.640638 -16.082195
v -2.6758382 20.61519 -16.133266
v -2.6585987 22.23001 -17.393251
v -2.6758382 20.61519 -16.133266
v -2.9126325 24.128242 -11.656431
v -2.8953915 25.743052 -12.916391
v -2.6585987 22.23001 -17.393251
v -2.6585987 22.23001 -17.393251
v -2.8953915 25.743052 -12.916391
v -1.5455563 25.76847 -12.865361
v -1.3087634 22.25545 -17.342184
v -1.3087634 22.25545 -17.342184
v -1.5455563 25.76847 -12.865361
v -1.5628 24.1537 -11.605335
v -1.3260018 20.640638 -16.082195
v -1.3260018 20.640638 -16.082195
v -1.5628 24.1537 -11.605335
v -2.9126325 24.128242 -11.656431
v -2.6758382 20.61519 -16.133266
v -12.826443 32.73366 26.470053
v -12.826444 29.29627 1.0466226
v -4.379672 29.296268 1.0466231
v -4.379672 32.733658 26.470053
v -12.826443 32.73366 26.470053
v -12.826443 38.71274 25.646616
v -12.826444 35.27735 0.23794761
v -12.826444 29.29627 1.0466226
v -4.379672 29.296268 1.0466231
v -4.379672 35.277348 0.23794791
v -4.379672 38.71274 25.646616
v -4.379672 32.733658 26.470053
v -4.379672 32.733658 26.470053
v -4.379672 38.71274 25.646616
v -12.826443 38.71274 25.646616
v -12.826443 32.73366 26.470053
v -12.826443 28.667107 -3.6067848
v -12.826443 34.635258 -4.5110707
v -4.379672 34.635254 -4.5110703
v -4.379672 28.6671 -3.6067843
v -4.379672 28.6671 -3.6067843
v -4.379672 34.635254 -4.5110703
v -4.379672 35.277348 0.23794791
v -4.379672 29.296268 1.0466231
v -12.826444 29.29627 1.0466226
v -12.826443 28.667107 -3.6067848
v -4.379672 28.6671 -3.6067843
v -4.379672 29.296268 1.0466231
v -12.826444 35.27735 0.23794761
v -12.826443 34.635258 -4.5110707
v -12.826443 28.667107 -3.6067848
v -12.826444 29.29627 1.0466226
v 4.7187552 16.291346 -15.52626
v 5.3182793 9.975413 3.4393966
v 4.136469 9.194359 3.2166488
v 3.5369403 15.510291 -15.749006
v 4.136469 9.194359 3.2166488
v 0.9016443 13.637841 4.798696
v 0.30204466 19.953848 -14.166932
v 3.5369403 15.510291 -15.749006
v 3.5369403 15.510291 -15.749006
v 0.30204466 19.953848 -14.166932
v 1.4838736 20.734911 -13.944183
v 4.7187552 16.291346 -15.52626
v 4.7187552 16.291346 -15.52626
v 1.4838736 20.734911 -13.944183
v 2.0834734 14.418896 5.0214453
v 5.3182793 9.975413 3.4393966
v 5.3182793 9.975413 3.4393966
v 2.0834734 14.418896 5.0214453
v 0.9016443 13.637841 4.798696
v 4.136469 9.194359 3.2166488
v -1.7120183 5.2061357 7.3012376
v -1.7120161 5.491869 8.818156
v -2.9630008 5.1782007 8.877242
v -2.963003 4.8924675 7.360324
v -2.9630008 5.1782007 8.877242
v -4.3704553 10.599136 7.856085
v -4.3704624 10.31343 6.3391905
v -2.963003 4.8924675 7.360324
v -2.963003 4.8924675 7.360324
v -4.3704624 10.31343 6.3391905
v -3.1194787 10.627098 6.2801046
v -1.7120183 5.2061357 7.3012376
v -1.7120183 5.2061357 7.3012376
v -3.1194787 10.627098 6.2801046
v -3.1194713 10.912805 7.7969995
v -1.7120161 5.491869 8.818156
v -1.7120161 5.491869 8.818156
v -3.1194713 10.912805 7.7969995
v -4.3704553 10.599136 7.856085
v -2.9630008 5.1782007 8.877242
v 0.85133666 0 -1.0196313
v 0.85133666 0 1.0196326
v -0.8513396 0 1.0196326
v -0.8513396 0 -1.0196313
v -0.8513396 0 1.0196326
v -0.8513396 5.713994 1.0196326
v -0.8513396 5.713994 -1.0196313
v -0.8513396 0 -1.0196313
v -0.8513396 0 -1.0196313
v -0.8513396 5.713994 -1.0196313
v 0.85133666 5.713994 -1.0196313
v 0.85133666 0 -1.0196313
v 0.85133666 0 -1.0196313
v 0.85133666 5.713994 -1.0196313
v 0.85133666 5.713994 1.0196326
v 0.85133666 0 1.0196326
v 0.85133666 0 1.0196326
v 0.85133666 5.713994 1.0196326
v -0.8513396 5.713994 1.0196326
v -0.8513396 0 1.0196326
v 4.057151 16.068047 -11.103269
v 4.0883794 15.73915 -10.115657
v 2.9781134 14.200781 -10.592866
v 2.9468846 14.529687 -11.580479
v 4.057151 16.068047 -11.103269
v 2.9468846 14.529687 -11.580479
v 4.0639143 13.808916 -11.85583
v 5.17418 15.347285 -11.37862
v 2.9468846 14.529687 -11.580479
v 2.9781134 14.200781 -10.592866
v 4.095143 13.48002 -10.868217
v 4.0639143 13.808916 -11.85583
v 2.9781134 14.200781 -10.592866
v 4.0883794 15.73915 -10.115657
v 5.205409 15.018378 -10.391008
v 4.095143 13.48002 -10.868217
v 4.0883794 15.73915 -10.115657
v 4.057151 16.068047 -11.103269
v 5.17418 15.347285 -11.37862
v 5.205409 15.018378 -10.391008
vt 0 1
vt 0 0
vt 1 0
vt 1 1
vt 0 0
vt 0 1
vt 1 1
vt 1 0
vt 0 0
vt 0 1
vt 1 1
vt 1 0
vt 0 0
vt 0 1
vt 1 1
vt 1 0
vt 0 0
vt 0 1
vt 1 1
vt 1 0
vt 1 0
vt 1 0.845085
vt 0 0.845085
vt 0 0
vt 0 0
vt 0 1
vt 0.845085 1
vt 0.845085 0
vt 0.154915 0
vt 0.154915 1
vt 1 1
vt 1 0
vt 0 0
vt 0 1
vt 1 1
vt 1 0
vt 0 0
vt 0 1
vt 1 1
vt 1 0
vt 0 0
vt 0 1
vt 0.709794 1
vt 0.709794 0
vt 1 0.290206
vt 1 1
vt 0 1
vt 0 0.290206
vt 0.290206 1
vt 1 1
vt 1 0
vt 0.290206 0
vt 0 1
vt 0 0
vt 1 0
vt 1 1
vt 0 0
vt 0 1
vt 1 1
vt 1 0
vt 0 0
vt 0 1
vt 1 1
vt 1 0
vt 0 0
vt 0 1
vt 1 1
vt 1 0
vt 0 0
vt 0 1
vt 1 1
vt 1 0
vt 0 1
vt 0 0
vt 1 0
vt 1 1
vt 0 0
vt 0 1
vt 1 1
vt 1 0
vt 0 0
vt 0 1
vt 1 1
vt 1 0
vt 0 0
vt 0 1
vt 1 1
vt 1 0
vt 0 0
vt 0 1
vt 1 1
vt 1 0
vt 0 1
vt 0 0
vt 1 0
vt 1 1
vt 0 0
vt 0 1
vt 1 1
vt 1 0
vt 0 0
vt 0 1
vt 1 1
vt 1 0
vt 0 0
vt 0 1
vt 1 1
vt 1 0
vt 0 0
vt 0 1
vt 1 1
vt 1 0
vt 0 1
vt 0 0
vt 1 0
vt 1 1
vt 0 1
vt 1 1
vt 1 1
vt 0 1
vt 1 1
vt 1 0
vt 1 0
vt 1 1
vt 1 0
vt 0 0
vt 0 0
vt 1 0
vt 0 0
vt 0 1
vt 0 1
vt 0 0
vn -0.041385897 0.614911 0.7875098
vn -0.041385897 0.614911 0.7875098
vn -0.041385893 0.6149111 0.78750974
vn -0.041385897 0.614911 0.7875098
vn 0.99909914 0.018958516 0.03796833
vn 0.99909914 0.018958516 0.037968334
vn 0.99909914 0.018958515 0.03796833
vn 0.99909914 0.018958515 0.037968326
vn -0.008511265 -0.7868912 0.6170331
vn -0.008511264 -0.7868911 0.61703306
vn -0.008511265 -0.7868911 0.61703306
vn -0.008511266 -0.7868912 0.6170331
vn -0.999099 -0.018959064 -0.03796839
vn -0.999099 -0.018959064 -0.037968386
vn -0.999099 -0.018959066 -0.037968386
vn -0.999099 -0.018959062 -0.037968382
vn 0.008512858 0.78688955 -0.61703503
vn 0.008512858 0.78688955 -0.61703503
vn 0.00851286 0.7868897 -0.617035
vn 0.008512858 0.7868897 -0.617035
vn 4.1820516E-07 0.9909831 -0.13398641
vn 4.2149728E-07 0.9909831 -0.13398646
vn 4.214973E-07 0.9909831 -0.13398647
vn 4.1820516E-07 0.9909831 -0.13398641
vn 1 1.564576E-07 0
vn 1 1.564576E-07 0
vn 1 1.3203505E-07 0
vn 1 1.3203507E-07 0
vn -1 0 0
vn -1 0 0
vn -1 0 0
vn -1 0 0
vn -0 -0.13643187 -0.9906495
vn -0 -0.13643189 -0.9906495
vn -0 -0.13643189 -0.9906495
vn -0 -0.13643189 -0.9906495
vn -0 0.14980857 0.988715
vn -0 0.14980859 0.988715
vn -0 0.14980857 0.988715
vn -0 0.14980859 0.988715
vn -1 0 0
vn -1 0 0
vn -1 0 0
vn -1 0 0
vn 4.2149728E-07 0.9909831 -0.13398646
vn 4.3948364E-07 0.9909831 -0.13398677
vn 4.3948364E-07 0.9909831 -0.13398677
vn 4.214973E-07 0.9909831 -0.13398647
vn 1 1.3203505E-07 0
vn 1 0 2.5472E-07
vn 1 0 2.5472E-07
vn 1 1.3203507E-07 0
vn -0.5655927 0.7769131 0.2766062
vn -0.5655927 0.7769131 0.27660623
vn -0.5655927 0.7769131 0.2766062
vn -0.5655927 0.7769131 0.2766062
vn 0.8241418 0.54466707 0.15533218
vn 0.8241418 0.54466707 0.15533218
vn 0.8241418 0.54466707 0.15533218
vn 0.8241418 0.54466707 0.15533218
vn 0.029981988 -0.31582028 0.94834524
vn 0.029981988 -0.31582028 0.94834524
vn 0.029981984 -0.31582028 0.94834524
vn 0.029981986 -0.31582028 0.9483452
vn -0.8241434 -0.54466474 -0.1553316
vn -0.8241434 -0.54466474 -0.1553316
vn -0.82414347 -0.54466474 -0.1553316
vn -0.8241434 -0.54466474 -0.1553316
vn -0.029980555 0.31582126 -0.94834495
vn -0.029980559 0.3158213 -0.94834495
vn -0.029980551 0.31582126 -0.94834495
vn -0.029980555 0.3158213 -0.94834495
vn -0.24722649 0.9522122 -0.17936258
vn -0.24722649 0.9522122 -0.1793626
vn -0.24722649 0.9522122 -0.1793626
vn -0.2472265 0.9522122 -0.17936257
vn 0.96895796 0.24295276 -0.045764845
vn 0.96895796 0.24295273 -0.045764845
vn 0.96895796 0.24295273 -0.045764845
vn 0.96895796 0.24295276 -0.045764845
vn -0 0.18511222 0.98271734
vn -0 0.18511224 0.98271734
vn -0 0.18511222 0.98271734
vn -0 0.18511222 0.98271734
vn -0.96895796 -0.24295276 0.045764826
vn -0.96895796 -0.24295273 0.045764826
vn -0.96895796 -0.24295278 0.04576483
vn -0.96895796 -0.24295276 0.045764826
vn 1.2755078E-06 -0.18511698 -0.98271644
vn 1.275508E-06 -0.18511699 -0.98271644
vn 1.2755078E-06 -0.18511699 -0.98271644
vn 1.2755079E-06 -0.18511698 -0.98271644
vn -0 1 0
vn -0 1 0
vn -0 1 0
vn -0 1 0
vn 1 0 0
vn 1 0 0
vn 1 0 0
vn 1 0 0
vn -0 0 1
vn -0 0 1
vn -0 0 1
vn -0 0 1
vn -1 0 0
vn -1 0 0
vn -1 0 0
vn -1 0 0
vn -0 0 -1
vn -0 0 -1
vn -0 0 -1
vn -0 0 -1
vn -0.8227973 0.530911 0.20282531
vn -0.8227973 0.53091097 0.2028253
vn -0.8227973 0.530911 0.20282531
vn -0.8227973 0.530911 0.20282531
vn -0.029984731 0.31582236 -0.9483444
vn -0.029984731 0.3158223 -0.9483444
vn -0.029984731 0.3158223 -0.9483444
vn -0.029984735 0.31582233 -0.9483444
vn -0.5675436 -0.7863766 -0.24393855
vn -0.5675436 -0.7863766 -0.24393857
vn -0.5675436 -0.7863766 -0.24393855
vn -0.5675436 -0.7863766 -0.24393857
vn 0.02998475 -0.31582245 0.9483444
vn 0.029984754 -0.31582245 0.9483444
vn 0.029984755 -0.31582248 0.9483444
vn 0.02998475 -0.31582248 0.9483444
vn 0.5675437 0.78637666 0.2439382
vn 0.5675436 0.78637666 0.24393816
vn 0.5675437 0.78637666 0.24393816
vn 0.5675436 0.78637666 0.24393816
g Collision02_0
f 3/3/3 2/2/2 1/1/1
f 4/4/4 3/3/3 1/1/1
f 7/7/7 6/6/6 5/5/5
f 8/8/8 7/7/7 5/5/5
f 11/11/11 10/10/10 9/9/9
f 12/12/12 11/11/11 9/9/9
f 15/15/15 14/14/14 13/13/13
f 16/16/16 15/15/15 13/13/13
f 19/19/19 18/18/18 17/17/17
f 20/20/20 19/19/19 17/17/17
f 23/23/23 22/22/22 21/21/21
f 24/24/24 23/23/23 21/21/21
f 27/27/27 26/26/26 25/25/25
f 28/28/28 27/27/27 25/25/25
f 31/31/31 30/30/30 29/29/29
f 32/32/32 31/31/31 29/29/29
f 35/35/35 34/34/34 33/33/33
f 36/36/36 35/35/35 33/33/33
f 39/39/39 38/38/38 37/37/37
f 40/40/40 39/39/39 37/37/37
f 43/43/43 42/42/42 41/41/41
f 44/44/44 43/43/43 41/41/41
f 47/47/47 46/46/46 45/45/45
f 48/48/48 47/47/47 45/45/45
f 51/51/51 50/50/50 49/49/49
f 52/52/52 51/51/51 49/49/49
f 55/55/55 54/54/54 53/53/53
f 56/56/56 55/55/55 53/53/53
f 59/59/59 58/58/58 57/57/57
f 60/60/60 59/59/59 57/57/57
f 63/63/63 62/62/62 61/61/61
f 64/64/64 63/63/63 61/61/61
f 67/67/67 66/66/66 65/65/65
f 68/68/68 67/67/67 65/65/65
f 71/71/71 70/70/70 69/69/69
f 72/72/72 71/71/71 69/69/69
f 75/75/75 74/74/74 73/73/73
f 76/76/76 75/75/75 73/73/73
f 79/79/79 78/78/78 77/77/77
f 80/80/80 79/79/79 77/77/77
f 83/83/83 82/82/82 81/81/81
f 84/84/84 83/83/83 81/81/81
f 87/87/87 86/86/86 85/85/85
f 88/88/88 87/87/87 85/85/85
f 91/91/91 90/90/90 89/89/89
f 92/92/92 91/91/91 89/89/89
f 95/95/95 94/94/94 93/93/93
f 96/96/96 95/95/95 93/93/93
f 99/99/99 98/98/98 97/97/97
f 100/100/100 99/99/99 97/97/97
f 103/103/103 102/102/102 101/101/101
f 104/104/104 103/103/103 101/101/101
f 107/107/107 106/106/106 105/105/105
f 108/108/108 107/107/107 105/105/105
f 111/111/111 110/110/110 109/109/109
f 112/112/112 111/111/111 109/109/109
f 115/115/115 114/114/114 113/113/113
f 116/116/116 115/115/115 113/113/113
f 119/119/119 118/118/118 117/117/117
f 120/120/120 119/119/119 117/117/117
f 123/123/123 122/122/122 121/121/121
f 124/124/124 123/123/123 121/121/121
f 127/127/127 126/126/126 125/125/125
f 128/128/128 127/127/127 125/125/125
f 131/131/131 130/130/130 129/129/129
f 132/132/132 131/131/131 129/129/129
