g Collision_Cam02
v 4.057151 16.068047 -11.103269
v 4.0883794 15.73915 -10.115657
v 2.9781134 14.200781 -10.592866
v 2.9468846 14.529687 -11.580479
v 4.057151 16.068047 -11.103269
v 2.9468846 14.529687 -11.580479
v 4.0639143 13.808916 -11.85583
v 5.17418 15.347285 -11.37862
v 2.9468846 14.529687 -11.580479
v 2.9781134 14.200781 -10.592866
v 4.095143 13.48002 -10.868217
v 4.0639143 13.808916 -11.85583
v 2.9781134 14.200781 -10.592866
v 4.0883794 15.73915 -10.115657
v 5.205409 15.018378 -10.391008
v 4.095143 13.48002 -10.868217
v 4.0883794 15.73915 -10.115657
v 4.057151 16.068047 -11.103269
v 5.17418 15.347285 -11.37862
v 5.205409 15.018378 -10.391008
v -0.002176213 23.821733 -18.499159
v -0.052650083 19.124632 -14.825563
v -3.9825213 19.050442 -14.974432
v -3.932057 23.747551 -18.648033
v -16.094341 33.010906 28.52064
v -16.094343 29.296267 1.0466232
v -1.1117728 29.296267 1.0466232
v -1.1117728 33.010906 28.52064
v -16.094343 29.296267 1.0466232
v -16.094341 28.505157 -4.804533
v -1.1117728 28.505157 -4.8045325
v -1.1117728 29.296267 1.0466232
v 7.0281777 18.400585 -16.70842
v 7.730567 10.999272 5.515648
v 1.8208783 7.0936084 4.4018164
v 1.1184704 14.494902 -17.822254
v -0.19517362 5.239998 5.390305
v -0.19517083 6.2186604 10.585808
v -4.4798436 5.144334 10.788176
v -4.4798465 4.1656723 5.5926733
v 2.6209056 0 -3.1390126
v 2.6209056 0 3.1390135
v -2.620909 0 3.1390135
v -2.620909 0 -3.1390126
vt 0 1
vt 0 0
vt 1 0
vt 1 1
vt 0 1
vt 1 1
vt 1 1
vt 0 1
vt 1 1
vt 1 0
vt 1 0
vt 1 1
vt 1 0
vt 0 0
vt 0 0
vt 1 0
vt 0 0
vt 0 1
vt 0 1
vt 0 0
vt 0 1
vt 0 0
vt 1 0
vt 1 1
vt 1 0
vt 1 0.845085
vt 0 0.845085
vt 0 0
vt 1 0.290206
vt 1 1
vt 0 1
vt 0 0.290206
vt 0 1
vt 0 0
vt 1 0
vt 1 1
vt 0 1
vt 0 0
vt 1 0
vt 1 1
vt 0 1
vt 0 0
vt 1 0
vt 1 1
vn -0.8227973 0.530911 0.20282531
vn -0.8227973 0.53091097 0.2028253
vn -0.8227973 0.530911 0.20282531
vn -0.8227973 0.530911 0.20282531
vn -0.029984731 0.31582236 -0.9483444
vn -0.029984731 0.3158223 -0.9483444
vn -0.029984731 0.3158223 -0.9483444
vn -0.029984735 0.31582233 -0.9483444
vn -0.5675436 -0.7863766 -0.24393855
vn -0.5675436 -0.7863766 -0.24393857
vn -0.5675436 -0.7863766 -0.24393855
vn -0.5675436 -0.7863766 -0.24393857
vn 0.02998475 -0.31582245 0.9483444
vn 0.029984754 -0.31582245 0.9483444
vn 0.029984755 -0.31582248 0.9483444
vn 0.02998475 -0.31582248 0.9483444
vn 0.5675437 0.78637666 0.2439382
vn 0.5675436 0.78637666 0.24393816
vn 0.5675437 0.78637666 0.24393816
vn 0.5675436 0.78637666 0.24393816
vn -0.20408793 0.96015465 0.19092193
vn -0.20408793 0.96015465 0.19092193
vn -0.20408793 0.96015465 0.19092193
vn -0.20408793 0.96015465 0.19092193
vn -0 0.99063045 -0.13657007
vn -0 0.99065137 -0.13641804
vn -0 0.99065137 -0.13641804
vn -0 0.99063045 -0.13657007
vn -0 0.99065137 -0.13641804
vn -0 0.99999654 -0.0026299988
vn -0 0.99999654 -0.0026299988
vn -0 0.99065137 -0.13641804
vn -0.5655882 0.7769143 0.2766121
vn -0.5655882 0.7769143 0.2766121
vn -0.5655882 0.7769143 0.2766121
vn -0.5655882 0.7769143 0.2766121
vn -0.24722598 0.9522119 -0.17936496
vn -0.24722598 0.9522119 -0.17936496
vn -0.24722598 0.9522119 -0.17936496
vn -0.24722598 0.9522119 -0.17936496
vn -0 1 0
vn -0 1 0
vn -0 1 0
vn -0 1 0
g Collision_Cam02_0
f 3/3/3 2/2/2 1/1/1
f 4/4/4 3/3/3 1/1/1
f 7/7/7 6/6/6 5/5/5
f 8/8/8 7/7/7 5/5/5
f 11/11/11 10/10/10 9/9/9
f 12/12/12 11/11/11 9/9/9
f 15/15/15 14/14/14 13/13/13
f 16/16/16 15/15/15 13/13/13
f 19/19/19 18/18/18 17/17/17
f 20/20/20 19/19/19 17/17/17
f 23/23/23 22/22/22 21/21/21
f 24/24/24 23/23/23 21/21/21
f 27/27/27 26/26/26 25/25/25
f 28/28/28 27/27/27 25/25/25
f 31/31/31 30/30/30 29/29/29
f 32/32/32 31/31/31 29/29/29
f 35/35/35 34/34/34 33/33/33
f 36/36/36 35/35/35 33/33/33
f 39/39/39 38/38/38 37/37/37
f 40/40/40 39/39/39 37/37/37
f 43/43/43 42/42/42 41/41/41
f 44/44/44 43/43/43 41/41/41
