g Collision_Cam
v -2.3147109 -4.7683715E-09 -17.226667
v -2.3147109 8.963335 -17.226667
v -1.0157535 8.963335 -14.368788
v -1.0157535 -4.7683715E-09 -14.368788
v 1.0010355 8.963335 -14.369692
v 1.0010355 -4.7683715E-09 -14.369692
v 2.2966409 8.963335 -17.228848
v 2.2966409 -4.7683715E-09 -17.228848
v -11.404124 -4.7683715E-09 -8.742026
v -11.404124 8.963335 -8.742026
v -12.497778 8.963335 -12.485134
v -12.497778 -4.7683715E-09 -12.485134
v -16.323757 -4.7683715E-09 -6.752144
v -16.323757 8.963335 -6.752144
v -12.4481 8.963335 -7.178994
v -12.4481 -4.7683715E-09 -7.178994
v -11.395823 -4.7683715E-09 8.752896
v -11.395823 8.963335 8.752896
v -12.441281 8.963335 7.190818
v -12.441281 -4.7683715E-09 7.190818
v -1.0011557 8.963335 14.369707
v -1.0011557 -4.7683715E-09 14.369707
v 1.0156316 -4.7683715E-09 14.36881
v 1.0156316 8.963335 14.36881
v -2.2980933 8.963335 17.228872
v -2.2980933 -4.7683715E-09 17.228872
v 2.313255 -4.7683715E-09 17.226713
v 2.313255 8.963335 17.226713
v 11.404011 -4.7683715E-09 8.742106
v 11.404011 8.963335 8.742106
v 12.496327 8.963335 12.485253
v 12.496327 -4.7683715E-09 12.485253
v 16.32231 -4.7683715E-09 6.7522044
v 16.32231 8.963335 6.7522044
v 12.447989 8.963335 7.179045
v 12.447989 -4.7683715E-09 7.179045
v 11.395715 -4.7683715E-09 -8.752865
v 11.395715 8.963335 -8.752865
v 12.441175 8.963335 -7.1907754
v 12.441175 -4.7683715E-09 -7.1907754
v -12.4481 -4.7683715E-09 -7.178994
v -12.4481 8.963335 -7.178994
v -11.404124 8.963335 -8.742026
v -11.404124 -4.7683715E-09 -8.742026
v -12.441281 -4.7683715E-09 7.190818
v -12.441281 8.963335 7.190818
v -16.317343 8.963335 6.76765
v -16.317343 -4.7683715E-09 6.76765
v -12.485929 -4.7683715E-09 12.497084
v -12.485929 8.963335 12.497084
v -11.395823 8.963335 8.752896
v -11.395823 -4.7683715E-09 8.752896
v 12.447989 -4.7683715E-09 7.179045
v 12.447989 8.963335 7.179045
v 11.404011 8.963335 8.742106
v 11.404011 -4.7683715E-09 8.742106
v 72.38571 -4.8798475 4.7432656
v 72.378914 -13.808851 4.7432656
v 72.49771 -13.808851 -0.0008760998
v 72.5045 -4.879848 -0.0008760998
v 71.88491 -4.8798475 9.495414
v 71.87812 -13.808851 9.495414
v 71.14812 -4.8798475 14.199494
v 71.14133 -13.808851 14.199494
v 70.03575 -4.8798475 18.828455
v 70.02896 -13.808851 18.828455
v 68.68659 -13.808851 23.312216
v 68.69339 -4.8798475 23.312216
v 66.988495 -4.8798475 27.740097
v 66.98171 -13.808851 27.740097
v 65.06365 -4.9099383 32.076912
v 65.05686 -13.808851 32.076912
v 62.788765 -13.808851 36.24418
v 62.795555 -4.908492 36.24418
v 60.48224 -13.808851 39.953228
v 60.489037 -4.908492 39.953228
v 12.441175 -4.7683715E-09 -7.1907754
v 12.441175 8.963335 -7.1907754
v 16.332941 8.963335 -6.774665
v 16.332941 -4.7683715E-09 -6.774665
v 12.48449 -4.7683715E-09 -12.496991
v 12.48449 8.963335 -12.496991
v 11.395715 8.963335 -8.752865
v 11.395715 -4.7683715E-09 -8.752865
v 15.430307 -0.24382213 -3.4691663
v 15.433795 -0.24049693 3.4704251
v 14.878137 0.16402347 3.4704251
v 14.867751 0.16402347 -3.4691663
v 31.11474 -6.5860934 -3.4691663
v 31.116625 -6.5860934 3.4704251
v 36.409916 -6.5860934 3.4704251
v 36.40803 -6.5860934 -3.4691663
v 51.629307 -13.85727 -3.4691663
v 51.63119 -13.85727 3.4704251
v 45.638626 -13.806733 30.629583
v 60.48224 -13.808851 39.953228
v 60.489037 -4.908492 39.953228
v 45.64541 -4.876282 30.629583
v 72.37837 -13.808851 -4.743271
v 72.38516 -4.8798485 -4.743271
v 71.876945 -13.808851 -9.495356
v 71.883736 -4.8798485 -9.495356
v 71.13951 -13.808851 -14.148579
v 71.14629 -4.8798485 -14.148579
v 70.026535 -13.808851 -18.760984
v 70.03332 -4.8791175 -18.760984
v 68.69039 -4.878201 -23.31176
v 68.68361 -13.808851 -23.31176
v 66.89682 -13.808851 -27.817509
v 66.903595 -4.878201 -27.817509
v 65.23374 -13.808851 -31.589296
v 65.240524 -4.878201 -31.589296
v 14.878137 0.16402347 3.4704251
v 14.474806 0.1640235 3.4704251
v 14.46442 0.1640235 -3.4691663
v 14.867751 0.16402347 -3.4691663
v 14.474806 0.1640235 3.4704251
v 14.065966 -0.052904133 3.4704251
v 14.055579 -0.052904133 -3.4691663
v 14.46442 0.1640235 -3.4691663
vt 0 0
vt 0 1
vt 0.5 1
vt 0.5 0
vt 0.5 1
vt 0.5 0
vt 1 1
vt 1 0
vt 0 0
vt 0 1
vt 1 1
vt 1 0
vt 0 0
vt 0 1
vt 1 1
vt 1 0
vt 0 0
vt 0 1
vt 1 1
vt 1 0
vt 0.5 1
vt 0.5 0
vt 0.5 0
vt 0.5 1
vt 1 1
vt 1 0
vt 0 0
vt 0 1
vt 0 0
vt 0 1
vt 1 1
vt 1 0
vt 0 0
vt 0 1
vt 1 1
vt 1 0
vt 0 0
vt 0 1
vt 1 1
vt 1 0
vt 0 0
vt 0 1
vt 1 1
vt 1 0
vt 0 0
vt 0 1
vt 1 1
vt 1 0
vt 0 0
vt 0 1
vt 1 1
vt 1 0
vt 0 0
vt 0 1
vt 1 1
vt 1 0
vt 0.60284936 1
vt 0.60284936 0
vt 0.50330156 0
vt 0.50330156 1
vt 0.60284936 1
vt 0.60284936 0
vt 0.60284936 1
vt 0.60284936 0
vt 0.60284936 1
vt 0.60284936 0
vt 0.60284936 0
vt 0.60284936 1
vt 0.60284936 1
vt 0.60284936 0
vt 0.60284936 1
vt 0.60284936 0
vt 0.60284936 0
vt 0.60284936 1
vt 0.60284936 0
vt 0.60284936 1
vt 0 0
vt 0 1
vt 1 1
vt 1 0
vt 0 0
vt 0 1
vt 1 1
vt 1 0
vt 0.40375376 0
vt 0.60284936 0
vt 0.60284936 0
vt 0.40375376 0
vt 0.40375376 0
vt 0.60284936 0
vt 0.60284936 0
vt 0.40375376 0
vt 0.40375376 0
vt 0.60284936 0
vt 0.60284936 0
vt 0.60284936 0
vt 0.60284936 1
vt 0.60284936 1
vt 0.40375376 0
vt 0.40375376 1
vt 0.40375376 0
vt 0.40375376 1
vt 0.40375376 0
vt 0.40375376 1
vt 0.40375376 0
vt 0.40375376 1
vt 0.40375376 1
vt 0.40375376 0
vt 0.40375376 0
vt 0.40375376 1
vt 0.40375376 0
vt 0.40375376 1
vt 0 0
vt 0 1
vt 1 1
vt 1 0
vt 0 0
vt 0 1
vt 1 1
vt 1 0
vn -0.910376 0 0.4137821
vn -0.910376 0 0.4137821
vn -0.6527526 0 0.75757116
vn -0.6527526 0 0.75757116
vn 0.6535355 0 0.75689584
vn 0.6535355 0 0.75689584
vn 0.9108471 0 0.4127439
vn 0.9108471 0 0.4127439
vn 0.99995625 0 -0.00936189
vn 0.99995625 0 -0.00936189
vn 0.959868 0 -0.28045222
vn 0.959868 0 -0.28045222
vn 0.10947422 0 0.9939896
vn 0.10947422 0 0.9939896
vn 0.37496656 0 0.9270384
vn 0.37496656 0 0.9270384
vn 0.9999646 0 0.008413741
vn 0.9999646 0 0.008413741
vn 0.37409186 0 -0.92739165
vn 0.37409186 0 -0.92739165
vn -0.6533857 0 -0.7570252
vn -0.6533857 0 -0.7570252
vn 0.65290767 0 -0.75743747
vn 0.65290767 0 -0.75743747
vn -0.9106882 0 -0.41309434
vn -0.9106882 0 -0.41309434
vn 0.9105373 0 -0.41342703
vn 0.9105373 0 -0.41342703
vn -0.9999585 0 0.00910945
vn -0.9999585 0 0.00910945
vn -0.95996106 0 0.2801337
vn -0.95996106 0 0.2801337
vn -0.10950921 0 -0.99398583
vn -0.10950921 0 -0.99398583
vn -0.3750571 0 -0.9270017
vn -0.3750571 0 -0.9270017
vn -0.99996674 0 -0.008162874
vn -0.99996674 0 -0.008162874
vn -0.37192705 0 0.928262
vn -0.37192705 0 0.928262
vn 0.37496656 0 0.9270384
vn 0.37496656 0 0.9270384
vn 0.99995625 0 -0.00936189
vn 0.99995625 0 -0.00936189
vn 0.37409186 0 -0.92739165
vn 0.37409186 0 -0.92739165
vn 0.10852976 0 -0.99409324
vn 0.10852976 0 -0.99409324
vn 0.9601342 0 0.27953956
vn 0.9601342 0 0.27953956
vn 0.9999646 0 0.008413741
vn 0.9999646 0 0.008413741
vn -0.3750571 0 -0.9270017
vn -0.3750571 0 -0.9270017
vn -0.9999585 0 0.00910945
vn -0.9999585 0 0.00910945
vn -0.9978781 0.00075936137 -0.0651055
vn -0.99787796 0.0007593613 -0.065108016
vn -0.99999976 0.0007611682 5.7391648E-05
vn -0.99999976 0.00076116825 5.738717E-05
vn -0.9915441 0.00075392146 -0.12976769
vn -0.99154377 0.0007539212 -0.12977083
vn -0.9809321 0.00074569177 -0.19434895
vn -0.98093075 0.0007456907 -0.19435641
vn -0.9655817 0.0007342654 -0.26009881
vn -0.9655799 0.00073426403 -0.26010555
vn -0.9462096 0.0007194189 -0.32355362
vn -0.9462134 0.00071942207 -0.3235423
vn -0.9239359 0.0007027456 -0.38254678
vn -0.9239129 0.00070272933 -0.3826022
vn -0.896959 0.0006835647 -0.4421133
vn -0.8969171 0.00068353483 -0.44219822
vn -0.8647238 0.00065996236 -0.5022471
vn -0.8647295 0.0006599667 -0.5022374
vn -0.8491932 0.00064824155 -0.5280819
vn -0.8491932 0.00064824155 -0.5280819
vn -0.37192705 0 0.928262
vn -0.37192705 0 0.928262
vn -0.10631491 0 0.99433255
vn -0.10631491 0 0.99433255
vn -0.96022457 0 -0.27922913
vn -0.96022457 0 -0.27922913
vn -0.99996674 0 -0.008162874
vn -0.99996674 0 -0.008162874
vn 0.38376042 0.92343265 -0.00038395537
vn 0.38375604 0.9234345 -0.000383947
vn 0.3890644 0.92121047 -0.00051720516
vn 0.38858753 0.92141163 -0.00051657134
vn 0.28949848 0.9571785 -0.00028354852
vn 0.28945392 0.95719194 -0.0002835049
vn 0.334101 0.94253725 -9.070604E-05
vn 0.33405063 0.9425551 -9.069236E-05
vn 0.43104228 0.9023317 -0.00011702491
vn 0.43104225 0.9023317 -0.000117024894
vn 0.5318999 -0.00040504834 -0.8468072
vn 0.5318998 -0.00040504834 -0.8468072
vn 0.5318998 -0.00040504834 -0.8468072
vn 0.5318998 -0.00040504834 -0.8468072
vn -0.99786913 0.00075920526 0.065243274
vn -0.99786925 0.00075920526 0.065240756
vn -0.9914357 0.0007537884 0.13059331
vn -0.9914362 0.00075378886 0.13059005
vn -0.9806347 0.00074494776 0.19584475
vn -0.9806357 0.00074494863 0.19583927
vn -0.9659077 0.0007330614 0.25888574
vn -0.9659086 0.0007330621 0.2588824
vn -0.94515556 0.00071723486 0.32661995
vn -0.9451518 0.00071723183 0.3266307
vn -0.92304003 0.0007007979 0.38470337
vn -0.92304265 0.0007007998 0.38469687
vn -0.91500264 0.000694717 0.40344736
vn -0.91500264 0.0006947169 0.40344736
vn 0.3890644 0.92121047 -0.00051720516
vn -0.25783512 0.96618885 0.0003858744
vn -0.2582644 0.9660742 0.00038651688
vn 0.38858753 0.92141163 -0.00051657134
vn -0.25783512 0.96618885 0.0003858744
vn -0.46870178 0.88335615 0.00070145604
vn -0.46870184 0.88335615 0.00070145604
vn -0.2582644 0.9660742 0.00038651688
g Collision_Cam_0
f 3/3/3 2/2/2 1/1/1
f 4/4/4 3/3/3 1/1/1
f 3/3/3 4/4/4 5/5/5
f 4/4/4 6/6/6 5/5/5
f 7/7/7 5/5/5 6/6/6
f 8/8/8 7/7/7 6/6/6
f 11/11/11 10/10/10 9/9/9
f 12/12/12 11/11/11 9/9/9
f 15/15/15 14/14/14 13/13/13
f 16/16/16 15/15/15 13/13/13
f 19/19/19 18/18/18 17/17/17
f 20/20/20 19/19/19 17/17/17
f 23/23/23 22/22/22 21/21/21
f 24/24/24 23/23/23 21/21/21
f 25/25/25 21/21/21 22/22/22
f 26/26/26 25/25/25 22/22/22
f 23/23/23 24/24/24 27/27/27
f 24/24/24 28/28/28 27/27/27
f 31/31/31 30/30/30 29/29/29
f 32/32/32 31/31/31 29/29/29
f 35/35/35 34/34/34 33/33/33
f 36/36/36 35/35/35 33/33/33
f 39/39/39 38/38/38 37/37/37
f 40/40/40 39/39/39 37/37/37
f 43/43/43 42/42/42 41/41/41
f 44/44/44 43/43/43 41/41/41
f 47/47/47 46/46/46 45/45/45
f 48/48/48 47/47/47 45/45/45
f 51/51/51 50/50/50 49/49/49
f 52/52/52 51/51/51 49/49/49
f 55/55/55 54/54/54 53/53/53
f 56/56/56 55/55/55 53/53/53
f 59/59/59 58/58/58 57/57/57
f 60/60/60 59/59/59 57/57/57
f 57/57/57 58/58/58 61/61/61
f 58/58/58 62/62/62 61/61/61
f 61/61/61 62/62/62 63/63/63
f 62/62/62 64/64/64 63/63/63
f 63/63/63 64/64/64 65/65/65
f 64/64/64 66/66/66 65/65/65
f 66/66/66 67/67/67 65/65/65
f 67/67/67 68/68/68 65/65/65
f 68/68/68 67/67/67 69/69/69
f 67/67/67 70/70/70 69/69/69
f 69/69/69 70/70/70 71/71/71
f 70/70/70 72/72/72 71/71/71
f 72/72/72 73/73/73 71/71/71
f 73/73/73 74/74/74 71/71/71
f 73/73/73 75/75/75 74/74/74
f 75/75/75 76/76/76 74/74/74
f 79/79/79 78/78/78 77/77/77
f 80/80/80 79/79/79 77/77/77
f 83/83/83 82/82/82 81/81/81
f 84/84/84 83/83/83 81/81/81
f 87/87/87 86/86/86 85/85/85
f 88/88/88 87/87/87 85/85/85
f 85/85/85 86/86/86 89/89/89
f 86/86/86 90/90/90 89/89/89
f 90/90/90 91/91/91 89/89/89
f 91/91/91 92/92/92 89/89/89
f 93/93/93 92/92/92 91/91/91
f 94/94/94 93/93/93 91/91/91
f 97/97/97 96/96/96 95/95/95
f 98/98/98 97/97/97 95/95/95
f 99/99/99 59/59/59 60/60/60
f 100/100/100 99/99/99 60/60/60
f 101/101/101 99/99/99 100/100/100
f 102/102/102 101/101/101 100/100/100
f 103/103/103 101/101/101 102/102/102
f 104/104/104 103/103/103 102/102/102
f 105/105/105 103/103/103 104/104/104
f 106/106/106 105/105/105 104/104/104
f 106/106/106 107/107/107 105/105/105
f 107/107/107 108/108/108 105/105/105
f 109/109/109 108/108/108 107/107/107
f 110/110/110 109/109/109 107/107/107
f 111/111/111 109/109/109 110/110/110
f 112/112/112 111/111/111 110/110/110
f 115/115/115 114/114/114 113/113/113
f 116/116/116 115/115/115 113/113/113
f 119/119/119 118/118/118 117/117/117
f 120/120/120 119/119/119 117/117/117
