g Collision03
v -23.25369 -50.092567 33.357216
v -44.78498 -50.09257 7.697181
v -34.815765 -50.09257 -0.66793036
v -13.284477 -50.092567 24.992104
v -23.003305 -49.981487 35.45804
v -22.31531 -50.997818 22.533827
v 12.140425 -66.00915 25.548395
v 11.45242 -64.99281 38.47261
v 34.920715 -75.12914 37.32332
v 23.078312 -69.89632 39.455524
v 20.632593 -70.09641 26.306686
v 32.52289 -75.346504 24.207071
v 16.888937 -67.277306 38.941666
v 16.900534 -68.25664 26.153618
v 38.220398 -78.259514 21.864532
v 44.265606 -78.33692 33.029015
v 39.271263 -75.87347 35.507687
v 49.73985 -83.96268 15.5864
v 55.785053 -84.040085 26.750877
v 34.82778 -76.56108 23.419115
v 55.785053 -84.040085 26.750877
v 49.73985 -83.96268 15.5864
v 71.36446 -94.668846 3.8011227
v 77.4352 -94.7589 14.951696
v 86.58489 -99.267265 10.0722885
v 77.4352 -94.7589 14.951696
v 71.36446 -94.668846 3.8011227
v 80.32775 -99.18727 -1.4840728
v 111.74257 -113.315414 -11.69249
v 92.84543 -104.04663 -0.74396783
v 86.35986 -103.95791 -12.01322
v 105.25699 -113.22671 -22.96174
v 16.900534 -68.25664 26.153618
v 16.888937 -67.277306 38.941666
v 11.45242 -64.99281 38.47261
v 12.140425 -66.00915 25.548395
v 34.82778 -76.56108 23.419115
v 39.271263 -75.87347 35.507687
v 34.920715 -75.12914 37.32332
v 32.52289 -75.346504 24.207071
v 89.787575 -102.2745 0.96951973
v 86.58489 -99.267265 10.0722885
v 80.32775 -99.18727 -1.4840728
v 86.3118 -102.252846 -5.255667
v 86.3118 -102.252846 -5.255667
v 86.35986 -103.95791 -12.01322
v 92.84543 -104.04663 -0.74396783
v 89.787575 -102.2745 0.96951973
vt 1.1230257 -0.96797144
vt 1.1262076 -10.487407
vt -4.3928404 -10.487464
vt -4.3959894 -0.96798384
vt 1.1514387 -11.49725
vt -4.367624 -11.497313
vt -4.3675795 -0.9963936
vt 1.1514355 -0.9963812
vt 0.7396434 -10.487411
vt 1.030375 -5.962762
vt -4.1180058 -5.943445
vt -3.2602904 -10.487452
vt 1.124207 -4.5024557
vt -4.394829 -4.4768915
vt -4.3934574 -8.621547
vt 1.1255839 -8.621498
vt 1.1262076 -10.487407
vt -4.394651 -5.013762
vt 1.124378 -5.0137315
vt -4.3928404 -10.487464
vt 1.1514387 -11.49725
vt -4.367624 -11.497313
vt -4.3675795 -0.9963936
vt 1.1514355 -0.9963812
vt 0.7396434 -10.487411
vt 1.124207 -4.5024557
vt -4.394829 -4.4768915
vt -4.3934994 -8.49498
vt 1.1230257 -0.96797144
vt 1.1262076 -10.487407
vt -4.3928404 -10.487464
vt -4.3959894 -0.96798384
vt 0 1
vt 1 1
vt 1 0
vt 0 0
vt 0 1
vt 1 1
vt 1 0
vt 0 0
vt 0.42318898 1
vt 1 0
vt 0 0
vt 0 1
vt 1 1
vt 1 0
vt 0 0
vt 0 1
vn -1.2284967E-07 1 0
vn -1.3176322E-07 1 0
vn -1.1239281E-07 1 0
vn -1.227433E-07 1 0
vn 0.40260774 0.9139818 -0.050440926
vn 0.4026077 0.9139819 -0.050441038
vn 0.40260768 0.9139819 -0.050441034
vn 0.40260777 0.9139818 -0.050440934
vn 0.38960123 0.9169201 -0.086419284
vn 0.39043036 0.91655344 -0.08656807
vn 0.39544505 0.9145828 -0.08462583
vn 0.38960087 0.91691995 -0.08642287
vn 0.39643958 0.9147552 -0.077837266
vn 0.42989463 0.90088403 -0.05998714
vn 0.35503343 0.9163033 -0.1853091
vn 0.35408488 0.91665804 -0.18536958
vn 0.35325256 0.9170706 -0.18491656
vn 0.35325238 0.9170707 -0.18491651
vn 0.35325232 0.9170707 -0.18491663
vn 0.35781205 0.92169386 -0.14983626
vn 0.35325232 0.9170707 -0.18491663
vn 0.35325238 0.9170707 -0.18491651
vn 0.35325238 0.9170707 -0.18491651
vn 0.35325232 0.9170707 -0.18491663
vn 0.35325328 0.9170705 -0.18491584
vn 0.35325232 0.9170707 -0.18491663
vn 0.35325238 0.9170707 -0.18491651
vn 0.35325223 0.9170708 -0.18491654
vn 0.3417444 0.92050356 -0.1894305
vn 0.3417439 0.92050385 -0.18942976
vn 0.341745 0.9205037 -0.18942913
vn 0.34174347 0.9205038 -0.18943125
vn 0.42989463 0.90088403 -0.05998714
vn 0.39643958 0.9147552 -0.077837266
vn 0.40260777 0.9139818 -0.050440934
vn 0.40260768 0.9139819 -0.050441034
vn 0.35781205 0.92169386 -0.14983626
vn 0.35325256 0.9170706 -0.18491656
vn 0.38960123 0.9169201 -0.086419284
vn 0.38960087 0.91691995 -0.08642287
vn 0.3606474 0.91223955 -0.19430017
vn 0.35325328 0.9170705 -0.18491584
vn 0.35325223 0.9170708 -0.18491654
vn 0.37040478 0.9067942 -0.20130743
vn 0.37040478 0.9067942 -0.20130743
vn 0.341745 0.9205037 -0.18942913
vn 0.3417439 0.92050385 -0.18942976
vn 0.3606474 0.91223955 -0.19430017
g Collision03_0
f 3/3/3 2/2/2 1/1/1
f 4/4/4 3/3/3 1/1/1
f 7/7/7 6/6/6 5/5/5
f 8/8/8 7/7/7 5/5/5
f 11/11/11 10/10/10 9/9/9
f 12/12/12 11/11/11 9/9/9
f 13/13/13 10/10/10 11/11/11
f 13/13/13 11/11/11 14/14/14
f 17/17/17 16/16/16 15/15/15
f 18/18/18 15/15/15 16/16/16
f 19/19/19 18/18/18 16/16/16
f 20/20/20 17/17/17 15/15/15
f 23/23/23 22/22/22 21/21/21
f 24/24/24 23/23/23 21/21/21
f 27/27/27 26/26/26 25/25/25
f 28/28/28 27/27/27 25/25/25
f 31/31/31 30/30/30 29/29/29
f 32/32/32 31/31/31 29/29/29
f 35/35/35 34/34/34 33/33/33
f 35/35/35 33/33/33 36/36/36
f 39/39/39 38/38/38 37/37/37
f 39/39/39 37/37/37 40/40/40
f 43/43/43 42/42/42 41/41/41
f 44/44/44 43/43/43 41/41/41
f 47/47/47 46/46/46 45/45/45
f 48/48/48 47/47/47 45/45/45
