g Lamp_Glow01
v -0.35634592 -0.17035145 0.3154487
v -0.35634592 0.008825054 0.31544894
v -0.27697924 0.008825054 0.31544894
v -0.27697924 -0.17035145 0.3154487
v 0.2790499 -0.17035148 0.31544867
v 0.2790499 0.008825082 0.315449
v 0.3584166 0.008825082 0.315449
v 0.3584166 -0.17035148 0.31544867
v -0.35634598 -0.17035015 -0.31516936
v -0.35634598 0.008826409 -0.31516913
v -0.27697924 0.008826409 -0.31516913
v -0.27697924 -0.17035015 -0.31516936
v -0.038613833 -0.0012610626 0.00014219283
v -0.038613833 0.17791554 0.0001426506
v 0.040752906 0.17791554 0.0001426506
v 0.040752906 -0.0012610626 0.00014219283
v 0.2790499 -0.17035015 -0.31516945
v 0.2790499 0.008826418 -0.31516925
v 0.3584166 0.008826418 -0.31516925
v 0.3584166 -0.17035015 -0.31516945
v -0.31730843 -0.1703515 0.35369736
v -0.31730822 0.0088251205 0.3536974
v -0.31730828 0.00882513 0.2743306
v -0.31730843 -0.1703515 0.27433053
v 0.31808764 -0.1703515 0.35369724
v 0.3180877 0.008825149 0.3536973
v 0.31808788 0.008825149 0.27433047
v 0.31808758 -0.17035152 0.27433035
v -0.31730676 -0.17035022 -0.27692345
v -0.31730658 0.008826456 -0.27692357
v -0.3173066 0.008826465 -0.35629043
v -0.31730676 -0.17035018 -0.35629034
v 0.0004219055 -0.0012609386 0.038395233
v 0.00042224882 0.17791572 0.038395233
v 0.00042230604 0.17791581 -0.040971566
v 0.0004218483 -0.0012609481 -0.04097164
v 0.31808913 -0.17035022 -0.2769239
v 0.3180895 0.008826475 -0.27692366
v 0.3180892 0.008826465 -0.35629067
v 0.3180892 -0.17035018 -0.3562905
v -0.27697855 0.008825111 0.31473213
v -0.35634533 0.008825111 0.31473213
v -0.35634533 -0.17035145 0.31473193
v -0.27697855 -0.17035145 0.31473193
v 0.35841757 0.00882513 0.3147322
v 0.2790509 0.00882513 0.3147322
v 0.2790509 -0.17035154 0.3147319
v 0.35841757 -0.17035154 0.3147319
v -0.27697855 0.008826456 -0.31588623
v -0.35634536 0.008826456 -0.31588623
v -0.35634536 -0.17035021 -0.31588644
v -0.27697855 -0.17035021 -0.31588644
v 0.040753745 0.1779157 -0.0005743408
v -0.03861307 0.1779157 -0.0005743408
v -0.03861307 -0.001261015 -0.00057476043
v 0.040753745 -0.001261015 -0.00057476043
v 0.35841757 0.008826465 -0.31588635
v 0.2790509 0.008826465 -0.31588635
v 0.2790509 -0.17035021 -0.31588656
v 0.35841757 -0.17035021 -0.31588656
v -0.31790274 0.008825111 0.27433547
v -0.31790274 0.008825111 0.35370222
v -0.31790292 -0.17035148 0.3537022
v -0.3179029 -0.17035148 0.27433538
v 0.31749338 0.00882513 0.27433535
v 0.31749338 0.0088251205 0.3537022
v 0.31749308 -0.17035148 0.35370213
v 0.31749308 -0.1703515 0.27433524
v -0.31790107 0.008826465 -0.35628548
v -0.31790105 0.008826447 -0.27691856
v -0.31790125 -0.17035021 -0.27691856
v -0.31790125 -0.17035021 -0.35628548
v -0.00017219543 0.1779158 -0.040966604
v -0.00017229079 0.17791572 0.038400155
v -0.00017259597 -0.0012609481 0.038400136
v -0.00017269135 -0.0012609481 -0.04096672
v 0.3174947 0.008826465 -0.3562857
v 0.31749493 0.008826456 -0.27691868
v 0.3174946 -0.17035021 -0.2769189
v 0.3174947 -0.17035021 -0.35628563
vt 0.25592214 0.003117621
vt 0.25592214 0.9977317
vt 0.700234 0.9977317
vt 0.700234 0.003117621
vt 0.25592214 0.003117621
vt 0.25592214 0.9977317
vt 0.700234 0.9977317
vt 0.700234 0.003117621
vt 0.25592214 0.003117621
vt 0.25592214 0.9977317
vt 0.700234 0.9977317
vt 0.700234 0.003117621
vt 0.25592214 0.003117621
vt 0.25592214 0.9977317
vt 0.700234 0.9977317
vt 0.700234 0.003117621
vt 0.25592214 0.003117621
vt 0.25592214 0.9977317
vt 0.700234 0.9977317
vt 0.700234 0.003117621
vt 0.25592214 0.003117621
vt 0.25592214 0.9977317
vt 0.700234 0.9977317
vt 0.700234 0.003117621
vt 0.25592214 0.003117621
vt 0.25592214 0.9977317
vt 0.700234 0.9977317
vt 0.700234 0.003117621
vt 0.25592214 0.003117621
vt 0.25592214 0.9977317
vt 0.700234 0.9977317
vt 0.700234 0.003117621
vt 0.25592214 0.003117621
vt 0.25592214 0.9977317
vt 0.700234 0.9977317
vt 0.700234 0.003117621
vt 0.25592214 0.003117621
vt 0.25592214 0.9977317
vt 0.700234 0.9977317
vt 0.700234 0.003117621
vt 0.700234 0.9977317
vt 0.25592214 0.9977317
vt 0.25592214 0.003117621
vt 0.700234 0.003117621
vt 0.700234 0.9977317
vt 0.25592214 0.9977317
vt 0.25592214 0.003117621
vt 0.700234 0.003117621
vt 0.700234 0.9977317
vt 0.25592214 0.9977317
vt 0.25592214 0.003117621
vt 0.700234 0.003117621
vt 0.700234 0.9977317
vt 0.25592214 0.9977317
vt 0.25592214 0.003117621
vt 0.700234 0.003117621
vt 0.700234 0.9977317
vt 0.25592214 0.9977317
vt 0.25592214 0.003117621
vt 0.700234 0.003117621
vt 0.700234 0.9977317
vt 0.25592214 0.9977317
vt 0.25592214 0.003117621
vt 0.700234 0.003117621
vt 0.700234 0.9977317
vt 0.25592214 0.9977317
vt 0.25592214 0.003117621
vt 0.700234 0.003117621
vt 0.700234 0.9977317
vt 0.25592214 0.9977317
vt 0.25592214 0.003117621
vt 0.700234 0.003117621
vt 0.700234 0.9977317
vt 0.25592214 0.9977317
vt 0.25592214 0.003117621
vt 0.700234 0.003117621
vt 0.700234 0.9977317
vt 0.25592214 0.9977317
vt 0.25592214 0.003117621
vt 0.700234 0.003117621
vn -0 -1.2358041E-06 1
vn -0 -1.2358041E-06 1
vn -0 -1.2358041E-06 1
vn -0 -1.2358041E-06 1
vn -0 -1.7501109E-06 1
vn -0 -1.7501109E-06 1
vn -0 -1.7501109E-06 1
vn -0 -1.7501109E-06 1
vn -0 -1.2774094E-06 1
vn -0 -1.2774094E-06 1
vn -0 -1.2774094E-06 1
vn -0 -1.2774094E-06 1
vn -0 -2.5548184E-06 1
vn -0 -2.5548184E-06 1
vn -0 -2.5548184E-06 1
vn -0 -2.5548184E-06 1
vn -0 -1.0645078E-06 1
vn -0 -1.0645078E-06 1
vn -0 -1.0645078E-06 1
vn -0 -1.0645078E-06 1
vn 1 -9.4308695E-07 -1.9338322E-07
vn 1 -9.43087E-07 -1.9338322E-07
vn 1 -9.43087E-07 -1.9338322E-07
vn 1 -9.43087E-07 -1.9338322E-07
vn 1 -9.580567E-07 7.209617E-07
vn 1 -9.580567E-07 7.209617E-07
vn 1 -9.580567E-07 7.2096174E-07
vn 1 -9.580567E-07 7.209617E-07
vn 1 -9.4308695E-07 -1.9338312E-07
vn 1 -9.4308695E-07 -1.9338312E-07
vn 1 -9.4308695E-07 -1.9338312E-07
vn 1 -9.43087E-07 -1.9338313E-07
vn 1 -2.2354645E-06 0
vn 1 -2.2354643E-06 0
vn 1 -2.2354643E-06 0
vn 1 -2.2354643E-06 0
vn 1 -9.58056E-07 -1.6822452E-06
vn 1 -9.58056E-07 -1.6822454E-06
vn 1 -9.58056E-07 -1.6822454E-06
vn 1 -9.58056E-07 -1.6822454E-06
vn -0 1.0645078E-06 -1
vn -0 1.0645078E-06 -1
vn -0 1.0645078E-06 -1
vn -0 1.0645078E-06 -1
vn -0 1.5784645E-06 -1
vn -0 1.5784645E-06 -1
vn -0 1.5784645E-06 -1
vn -0 1.5784645E-06 -1
vn -0 1.2774087E-06 -1
vn -0 1.2774087E-06 -1
vn -0 1.2774087E-06 -1
vn -0 1.2774087E-06 -1
vn -0 2.3419154E-06 -1
vn -0 2.3419154E-06 -1
vn -0 2.3419154E-06 -1
vn -0 2.3419154E-06 -1
vn -0 1.2774086E-06 -1
vn -0 1.2774086E-06 -1
vn -0 1.2774086E-06 -1
vn -0 1.2774086E-06 -1
vn -1 9.430873E-07 -1.9338319E-07
vn -1 9.430873E-07 -1.9338319E-07
vn -1 9.430873E-07 -1.9338319E-07
vn -1 9.430873E-07 -1.9338319E-07
vn -1 1.7032121E-06 0
vn -1 1.7032121E-06 0
vn -1 1.7032121E-06 0
vn -1 1.7032121E-06 0
vn -1 1.0287465E-06 3.867656E-07
vn -1 1.0287465E-06 3.8676563E-07
vn -1 1.0287465E-06 3.867656E-07
vn -1 1.0287465E-06 3.867656E-07
vn -1 2.2354645E-06 0
vn -1 2.2354648E-06 0
vn -1 2.2354648E-06 0
vn -1 2.2354645E-06 0
vn -1 8.516054E-07 9.61282E-07
vn -1 8.5160536E-07 9.61282E-07
vn -1 8.516054E-07 9.61282E-07
vn -1 8.5160553E-07 9.612821E-07
g Lamp_Glow01_0
f 3/3/3 2/2/2 1/1/1
f 4/4/4 3/3/3 1/1/1
f 7/7/7 6/6/6 5/5/5
f 8/8/8 7/7/7 5/5/5
f 11/11/11 10/10/10 9/9/9
f 12/12/12 11/11/11 9/9/9
f 15/15/15 14/14/14 13/13/13
f 16/16/16 15/15/15 13/13/13
f 19/19/19 18/18/18 17/17/17
f 20/20/20 19/19/19 17/17/17
f 23/23/23 22/22/22 21/21/21
f 24/24/24 23/23/23 21/21/21
f 27/27/27 26/26/26 25/25/25
f 28/28/28 27/27/27 25/25/25
f 31/31/31 30/30/30 29/29/29
f 32/32/32 31/31/31 29/29/29
f 35/35/35 34/34/34 33/33/33
f 36/36/36 35/35/35 33/33/33
f 39/39/39 38/38/38 37/37/37
f 40/40/40 39/39/39 37/37/37
f 43/43/43 42/42/42 41/41/41
f 44/44/44 43/43/43 41/41/41
f 47/47/47 46/46/46 45/45/45
f 48/48/48 47/47/47 45/45/45
f 51/51/51 50/50/50 49/49/49
f 52/52/52 51/51/51 49/49/49
f 55/55/55 54/54/54 53/53/53
f 56/56/56 55/55/55 53/53/53
f 59/59/59 58/58/58 57/57/57
f 60/60/60 59/59/59 57/57/57
f 63/63/63 62/62/62 61/61/61
f 64/64/64 63/63/63 61/61/61
f 67/67/67 66/66/66 65/65/65
f 68/68/68 67/67/67 65/65/65
f 71/71/71 70/70/70 69/69/69
f 72/72/72 71/71/71 69/69/69
f 75/75/75 74/74/74 73/73/73
f 76/76/76 75/75/75 73/73/73
f 79/79/79 78/78/78 77/77/77
f 80/80/80 79/79/79 77/77/77
