g P05
v -25.797747 3.9476597 -53.22031
v -25.797747 13.223668 -53.22031
v -20.322279 13.223668 -55.371826
v -20.322279 3.9476597 -55.371826
v 19.390682 3.9476597 -55.874207
v 19.390682 13.223668 -55.874207
v 24.783773 13.223668 -53.52382
v 24.783773 3.9476597 -53.52382
v -55.874207 3.9476597 -19.390682
v -55.874207 13.223668 -19.390682
v -53.52382 13.223668 -24.783773
v -53.52382 3.9476597 -24.783773
v -53.22031 3.9476597 25.797747
v -53.22031 13.223668 25.797747
v -55.371826 13.223668 20.322279
v -55.371826 3.9476597 20.322279
v -19.390682 3.9476597 55.874207
v -19.390682 13.223668 55.874207
v -24.783773 13.223668 53.52382
v -24.783773 3.9476597 53.52382
v 25.797747 3.9476597 53.22031
v 25.797747 13.223668 53.22031
v 20.322279 13.223668 55.371826
v 20.322279 3.9476597 55.371826
v 55.874207 3.9476597 19.390682
v 55.874207 13.223668 19.390682
v 53.52382 13.223668 24.783773
v 53.52382 3.9476597 24.783773
v 53.22031 3.9476597 -25.797747
v 53.22031 13.223668 -25.797747
v 55.371826 13.223668 -20.322279
v 55.371826 3.9476597 -20.322279
vt 0.61852515 0.6757998
vt 0.6185252 0.99688274
vt 0.8398702 0.99688274
vt 0.8398702 0.6757998
vt 0.61852515 0.6757998
vt 0.6185252 0.99688274
vt 0.8398702 0.99688274
vt 0.8398702 0.6757998
vt 0.61852515 0.6757998
vt 0.6185252 0.99688274
vt 0.8398702 0.99688274
vt 0.8398702 0.6757998
vt 0.61852515 0.6757998
vt 0.6185252 0.99688274
vt 0.8398702 0.99688274
vt 0.8398702 0.6757998
vt 0.61852515 0.6757998
vt 0.6185252 0.99688274
vt 0.8398702 0.99688274
vt 0.8398702 0.6757998
vt 0.61852515 0.6757998
vt 0.6185252 0.99688274
vt 0.8398702 0.99688274
vt 0.8398702 0.6757998
vt 0.61852515 0.6757998
vt 0.6185252 0.99688274
vt 0.8398702 0.99688274
vt 0.8398702 0.6757998
vt 0.61852515 0.6757998
vt 0.6185252 0.99688274
vt 0.8398702 0.99688274
vt 0.8398702 0.6757998
vn 0.36571658 0 0.9307263
vn 0.36571658 0 0.9307263
vn 0.36571658 0 0.9307263
vn 0.36571658 0 0.9307263
vn -0.39952216 0 0.91672355
vn -0.39952216 0 0.91672355
vn -0.39952216 0 0.91672355
vn -0.39952216 0 0.91672355
vn 0.91672367 0 0.39952198
vn 0.91672367 0 0.39952198
vn 0.91672367 0 0.39952198
vn 0.91672367 0 0.39952198
vn 0.9307262 0 -0.3657168
vn 0.9307262 0 -0.3657168
vn 0.9307262 0 -0.3657168
vn 0.9307262 0 -0.3657168
vn 0.39952216 0 -0.91672355
vn 0.39952216 0 -0.91672355
vn 0.39952216 0 -0.91672355
vn 0.39952216 0 -0.91672355
vn -0.36571658 0 -0.9307263
vn -0.36571658 0 -0.9307263
vn -0.36571658 0 -0.9307263
vn -0.36571658 0 -0.9307263
vn -0.91672367 0 -0.39952198
vn -0.91672367 0 -0.39952198
vn -0.91672367 0 -0.39952198
vn -0.91672367 0 -0.39952198
vn -0.9307262 0 0.3657168
vn -0.9307262 0 0.3657168
vn -0.9307262 0 0.3657168
vn -0.9307262 0 0.3657168
g P05_0
f 3/3/3 2/2/2 1/1/1
f 4/4/4 3/3/3 1/1/1
f 7/7/7 6/6/6 5/5/5
f 8/8/8 7/7/7 5/5/5
f 11/11/11 10/10/10 9/9/9
f 12/12/12 11/11/11 9/9/9
f 15/15/15 14/14/14 13/13/13
f 16/16/16 15/15/15 13/13/13
f 19/19/19 18/18/18 17/17/17
f 20/20/20 19/19/19 17/17/17
f 23/23/23 22/22/22 21/21/21
f 24/24/24 23/23/23 21/21/21
f 27/27/27 26/26/26 25/25/25
f 28/28/28 27/27/27 25/25/25
f 31/31/31 30/30/30 29/29/29
f 32/32/32 31/31/31 29/29/29
