g P07
v 95.81704 22.931177 -15.093019
v 92.28277 22.931177 -29.814419
v 92.28277 25.963345 -29.814419
v 95.81704 25.963345 -15.093019
v 86.489044 25.963345 -43.801693
v 86.489044 22.931177 -43.801693
v 78.578575 25.963345 -56.71042
v 78.578575 22.931177 -56.71042
v 68.746124 25.963345 -68.22275
v 68.746124 22.931177 -68.22275
v 57.233803 25.963345 -78.05521
v 57.233803 22.931177 -78.05521
v 44.325077 25.963345 -85.96568
v 44.325077 22.931177 -85.96568
v 30.337805 25.963345 -91.759415
v 30.337805 22.931177 -91.759415
v 15.616405 25.963345 -95.2937
v 15.616405 22.931177 -95.2937
v 0.5233625 25.963345 -96.48156
v 0.5233625 22.931177 -96.48156
v -14.569677 25.963345 -95.2937
v -14.569677 22.931177 -95.2937
v -29.291079 25.963345 -91.759415
v -29.291079 22.931177 -91.759415
v -43.278343 25.963345 -85.96569
v -43.278343 22.931177 -85.96569
v -56.187073 25.963345 -78.05523
v -56.187073 22.931177 -78.05523
v -67.699394 25.963345 -68.22277
v -67.699394 22.931177 -68.22277
v -77.53185 25.963345 -56.71045
v -77.53185 22.931177 -56.71045
v -85.44232 25.963345 -43.801723
v -85.44232 22.931177 -43.801723
v -91.23605 25.963345 -29.814453
v -91.23605 22.931177 -29.814453
v -94.77034 25.963345 -15.093054
v -94.77034 22.931177 -15.093054
v -95.95818 25.963345 -1.581455E-05
v -95.95818 22.931177 -1.581455E-05
v -94.77034 25.963345 15.09302
v -94.77034 22.931177 15.09302
v -91.23605 25.963345 29.814419
v -91.23605 22.931177 29.814419
v -85.44233 25.963345 43.80169
v -85.44233 22.931177 43.80169
v -77.53186 25.963345 56.710407
v -77.53186 22.931177 56.710407
v -67.69941 25.963345 68.222725
v -67.69941 22.931177 68.222725
v -56.187088 25.963345 78.05518
v -56.187088 22.931177 78.05518
v -43.27837 25.963345 85.96565
v -43.27837 22.931177 85.96565
v -29.291103 25.963345 91.75938
v -29.291103 22.931177 91.75938
v -14.569707 25.963345 95.29367
v -14.569707 22.931177 95.29367
v 0.5233309 25.963345 96.48152
v 0.5233309 22.931177 96.48152
v 15.616366 25.963345 95.29367
v 15.616366 22.931177 95.29367
v 30.337763 25.963345 91.75938
v 30.337763 22.931177 91.75938
v 44.325027 25.963345 85.96566
v 44.325027 22.931177 85.96566
v 57.23375 25.963345 78.0552
v 57.23375 22.931177 78.0552
v 68.74607 25.963345 68.22273
v 68.74607 22.931177 68.22273
v 78.57852 25.963345 56.710407
v 78.57852 22.931177 56.710407
v 86.48899 25.963345 43.801693
v 86.48899 22.931177 43.801693
v 92.28269 25.963345 29.814428
v 92.28269 22.931177 29.814428
v 95.81699 25.963345 15.093033
v 95.81699 22.931177 15.093033
v 97.004845 25.963345 0
v 97.004845 22.931177 0
v 95.81704 25.963345 -15.093019
v 95.81704 22.931177 -15.093019
vt 0.547453 2.3961785
vt 0.5474531 2.3018188
vt 0.61674243 2.3018188
vt 0.61674243 2.396177
vt 0.6167423 2.2074618
vt 0.547453 2.2074618
vt 0.61674243 2.1131039
vt 0.5474531 2.1131032
vt 0.61674243 2.018745
vt 0.5474531 2.018745
vt 0.61674243 1.9243865
vt 0.547453 1.9243879
vt 0.61674243 1.8300292
vt 0.5474531 1.8300292
vt 0.61674243 1.7356708
vt 0.547453 1.7356708
vt 0.61674243 1.6413128
vt 0.5474531 1.6413128
vt 0.61674243 1.5469542
vt 0.547453 1.5469542
vt 0.61674243 1.4525964
vt 0.5474531 1.4525964
vt 0.6167423 1.3582383
vt 0.547453 1.3582383
vt 0.61674243 1.2638806
vt 0.5474531 1.2638806
vt 0.6167423 1.1695211
vt 0.547453 1.1695211
vt 0.61674243 1.0751641
vt 0.547453 1.0751641
vt 0.61674243 0.9808061
vt 0.547453 0.9808055
vt 0.6167423 0.8864479
vt 0.547453 0.8864479
vt 0.61674243 0.79209006
vt 0.547453 0.79208887
vt 0.6167423 0.69773126
vt 0.547453 0.69773126
vt 0.61674243 0.6033734
vt 0.5474531 0.6033734
vt 0.6167423 0.50901526
vt 0.5474531 0.50901526
vt 0.61674243 0.4146573
vt 0.547453 0.4146564
vt 0.61674243 0.3202983
vt 0.5474531 0.3202983
vt 0.61674243 0.22593969
vt 0.547453 0.22593969
vt 0.61674243 0.1315805
vt 0.547453 0.13158116
vt 0.6167423 0.037222624
vt 0.5474531 0.037222624
vt 0.61674243 -0.05713564
vt 0.547453 -0.05713606
vt 0.61674243 -0.15149468
vt 0.5474531 -0.15149468
vt 0.61674243 -0.24585366
vt 0.5474531 -0.24585366
vt 0.6167423 -0.3402117
vt 0.547453 -0.3402115
vt 0.61674243 -0.43457025
vt 0.547453 -0.43457073
vt 0.61674243 -0.52892894
vt 0.547453 -0.52892894
vt 0.61674243 -0.62328774
vt 0.5474531 -0.62328774
vt 0.61674243 -0.7176462
vt 0.5474531 -0.7176462
vt 0.61674243 -0.81200534
vt 0.5474531 -0.81200534
vt 0.61674243 -0.9063632
vt 0.547453 -0.9063634
vt 0.61674243 -1.0007222
vt 0.547453 -1.0007222
vt 0.61674243 -1.0950804
vt 0.5474531 -1.0950804
vt 0.61674243 -1.1894395
vt 0.5474531 -1.1894395
vt 0.61674243 -1.2837977
vt 0.5474531 -1.2837977
vt 0.61674243 -1.3781562
vt 0.547453 -1.3781564
vn -0.9876887 0 0.1564322
vn -0.95105666 0 0.3090164
vn -0.95105666 0 0.3090164
vn -0.9876887 0 0.1564322
vn -0.8910066 0 0.45399028
vn -0.8910066 0 0.45399028
vn -0.8090173 0 0.5877848
vn -0.8090173 0 0.5877848
vn -0.7071068 0 0.70710665
vn -0.7071068 0 0.70710665
vn -0.58778536 0 0.809017
vn -0.58778536 0 0.809017
vn -0.45399067 0 0.8910064
vn -0.45399067 0 0.8910064
vn -0.30901694 0 0.95105654
vn -0.30901694 0 0.95105654
vn -0.15643468 0 0.98768836
vn -0.15643468 0 0.98768836
vn -0 0 1
vn -0 0 1
vn 0.1564346 0 0.98768836
vn 0.1564346 0 0.98768836
vn 0.30901673 0 0.95105654
vn 0.30901673 0 0.95105654
vn 0.45398995 0 0.89100677
vn 0.45398995 0 0.89100677
vn 0.5877848 0 0.8090173
vn 0.5877848 0 0.8090173
vn 0.70710665 0 0.7071069
vn 0.70710665 0 0.7071069
vn 0.80901706 0 0.5877852
vn 0.80901706 0 0.5877852
vn 0.8910065 0 0.4539905
vn 0.8910065 0 0.4539905
vn 0.9510565 0 0.30901712
vn 0.9510565 0 0.30901712
vn 0.9876885 0 0.15643401
vn 0.9876885 0 0.15643401
vn 1 0 0
vn 1 0 0
vn 0.9876885 0 -0.156434
vn 0.9876885 0 -0.156434
vn 0.95105654 0 -0.30901676
vn 0.95105654 0 -0.30901676
vn 0.8910066 0 -0.45399028
vn 0.8910066 0 -0.45399028
vn 0.809017 0 -0.5877853
vn 0.809017 0 -0.5877853
vn 0.70710665 0 -0.7071069
vn 0.70710665 0 -0.7071069
vn 0.5877851 0 -0.80901706
vn 0.5877851 0 -0.80901706
vn 0.45399052 0 -0.8910065
vn 0.45399052 0 -0.8910065
vn 0.30901727 0 -0.9510565
vn 0.30901727 0 -0.9510565
vn 0.15643442 0 -0.98768836
vn 0.15643442 0 -0.98768836
vn -0 0 -1
vn -0 0 -1
vn -0.15643442 0 -0.98768836
vn -0.15643442 0 -0.98768836
vn -0.30901703 0 -0.95105654
vn -0.30901703 0 -0.95105654
vn -0.45399013 0 -0.8910067
vn -0.45399013 0 -0.8910067
vn -0.5877852 0 -0.80901706
vn -0.5877852 0 -0.80901706
vn -0.70710695 0 -0.7071066
vn -0.70710695 0 -0.7071066
vn -0.809017 0 -0.58778536
vn -0.809017 0 -0.58778536
vn -0.8910067 0 -0.4539901
vn -0.8910067 0 -0.4539901
vn -0.95105654 0 -0.30901662
vn -0.95105654 0 -0.30901662
vn -0.98768836 0 -0.1564347
vn -0.98768836 0 -0.1564347
vn -1 0 -1.6410337E-06
vn -1 0 -1.6410337E-06
vn -0.9876887 0 0.1564322
vn -0.9876887 0 0.1564322
g P07_0
f 3/3/3 2/2/2 1/1/1
f 4/4/4 3/3/3 1/1/1
f 3/3/3 5/5/5 2/2/2
f 5/5/5 6/6/6 2/2/2
f 5/5/5 7/7/7 6/6/6
f 7/7/7 8/8/8 6/6/6
f 7/7/7 9/9/9 8/8/8
f 9/9/9 10/10/10 8/8/8
f 9/9/9 11/11/11 10/10/10
f 11/11/11 12/12/12 10/10/10
f 11/11/11 13/13/13 12/12/12
f 13/13/13 14/14/14 12/12/12
f 13/13/13 15/15/15 14/14/14
f 15/15/15 16/16/16 14/14/14
f 15/15/15 17/17/17 16/16/16
f 17/17/17 18/18/18 16/16/16
f 17/17/17 19/19/19 18/18/18
f 19/19/19 20/20/20 18/18/18
f 19/19/19 21/21/21 20/20/20
f 21/21/21 22/22/22 20/20/20
f 21/21/21 23/23/23 22/22/22
f 23/23/23 24/24/24 22/22/22
f 23/23/23 25/25/25 24/24/24
f 25/25/25 26/26/26 24/24/24
f 25/25/25 27/27/27 26/26/26
f 27/27/27 28/28/28 26/26/26
f 27/27/27 29/29/29 28/28/28
f 29/29/29 30/30/30 28/28/28
f 29/29/29 31/31/31 30/30/30
f 31/31/31 32/32/32 30/30/30
f 31/31/31 33/33/33 32/32/32
f 33/33/33 34/34/34 32/32/32
f 33/33/33 35/35/35 34/34/34
f 35/35/35 36/36/36 34/34/34
f 35/35/35 37/37/37 36/36/36
f 37/37/37 38/38/38 36/36/36
f 37/37/37 39/39/39 38/38/38
f 39/39/39 40/40/40 38/38/38
f 39/39/39 41/41/41 40/40/40
f 41/41/41 42/42/42 40/40/40
f 41/41/41 43/43/43 42/42/42
f 43/43/43 44/44/44 42/42/42
f 43/43/43 45/45/45 44/44/44
f 45/45/45 46/46/46 44/44/44
f 45/45/45 47/47/47 46/46/46
f 47/47/47 48/48/48 46/46/46
f 47/47/47 49/49/49 48/48/48
f 49/49/49 50/50/50 48/48/48
f 49/49/49 51/51/51 50/50/50
f 51/51/51 52/52/52 50/50/50
f 51/51/51 53/53/53 52/52/52
f 53/53/53 54/54/54 52/52/52
f 53/53/53 55/55/55 54/54/54
f 55/55/55 56/56/56 54/54/54
f 55/55/55 57/57/57 56/56/56
f 57/57/57 58/58/58 56/56/56
f 57/57/57 59/59/59 58/58/58
f 59/59/59 60/60/60 58/58/58
f 59/59/59 61/61/61 60/60/60
f 61/61/61 62/62/62 60/60/60
f 61/61/61 63/63/63 62/62/62
f 63/63/63 64/64/64 62/62/62
f 63/63/63 65/65/65 64/64/64
f 65/65/65 66/66/66 64/64/64
f 65/65/65 67/67/67 66/66/66
f 67/67/67 68/68/68 66/66/66
f 67/67/67 69/69/69 68/68/68
f 69/69/69 70/70/70 68/68/68
f 69/69/69 71/71/71 70/70/70
f 71/71/71 72/72/72 70/70/70
f 71/71/71 73/73/73 72/72/72
f 73/73/73 74/74/74 72/72/72
f 73/73/73 75/75/75 74/74/74
f 75/75/75 76/76/76 74/74/74
f 75/75/75 77/77/77 76/76/76
f 77/77/77 78/78/78 76/76/76
f 77/77/77 79/79/79 78/78/78
f 79/79/79 80/80/80 78/78/78
f 79/79/79 81/81/81 80/80/80
f 81/81/81 82/82/82 80/80/80
