g Pieces015
v 0.95650876 2.8022645 -1.1653808
v 2.050581 0.2069165 2.3529003
v 0.6751611 1.4009265 0.8258496
v 3.4924462 0.69320923 1.5207715
v 1.1260693 2.9101598 -1.3343066
v 0.49049315 0.48127562 2.132627
v 1.1446729 -0.09861938 2.8757324
v -0.72506344 0.56680787 1.6145312
v 0.5151904 1.4450964 0.54489255
v 0.27222168 0.62513185 1.9067577
v -2.3921776 2.2292175 -2.0036914
v -1.1113037 2.4112206 -1.8189746
v -3.1926806 1.8871924 -1.7132128
v -2.7435596 0.4525305 1.0251269
v -3.3926318 1.8023083 -1.6401855
v 0.8855908 2.6950672 -1.5310448
v -0.47486815 2.014774 -0.8421582
v -2.001948 1.3253295 -0.12034179
v -2.0295312 1.1986755 -0.18857421
v -0.49391112 2.0475621 -0.7783496
v -0.4738916 0.52093625 2.0083203
v -0.49391112 2.0475621 -0.7783496
v 0.89853024 1.2663647 1.249248
v -2.001948 1.3253295 -0.12034179
v -2.0295312 1.1986755 -0.18857421
v -0.4738916 0.52093625 2.0083203
v -0.46247557 0.3731958 1.9821386
v -2.001948 1.3253295 -0.12034179
v -0.4738916 0.52093625 2.0083203
v 0.9821631 1.1209594 1.1705273
v -0.46247557 0.3731958 1.9821386
v 0.89853024 1.2663647 1.249248
v -0.47486815 2.014774 -0.8421582
v 0.89853024 1.2663647 1.249248
v -0.49391112 2.0475621 -0.7783496
v 0.9821631 1.1209594 1.1705273
v 1.7066455 -0.78955567 -2.460752
v 1.8277782 -2.740155 0.25719726
v 3.269702 -2.253822 -0.5749902
v 1.2234423 -2.2145019 -0.41338867
v 1.4809033 -0.9326843 -2.2358887
v 1.1202393 -2.729541 0.31723633
v 1.3236669 -2.9101598 0.5481152
v 0.43068847 -1.1962744 -2.3140428
v 1.7849462 -2.5421813 0.6100195
v 1.9203857 -2.0830896 -0.15124023
v 0.15252441 -2.6365623 0.13225585
v -1.3527197 -1.8291174 -1.8957812
v -0.19546387 -1.2848706 -2.404287
v -2.508325 -2.7854028 -0.64375
v -2.8235545 -2.6329002 -1.0389941
v -2.9571142 -2.810554 -0.7746582
v -2.996836 -2.7276733 -0.9379785
v 2.2593896 -0.9396704 -2.0509667
v -2.8235545 -2.6329002 -1.0389941
v -3.1085205 -2.4955115 -1.3968164
v -2.996836 -2.7276733 -0.9379785
v -1.3527197 -1.8291174 -1.8957812
v -3.4687254 -1.7470678 -2.8757324
v -1.9135205 -1.5293896 -2.6520996
v -0.19546387 -1.2848706 -2.404287
v 3.4924462 0.69320923 1.5207715
v 1.8277782 -2.740155 0.25719726
v 2.050581 0.2069165 2.3529003
v 3.269702 -2.253822 -0.5749902
v 1.3236669 -2.9101598 0.5481152
v 1.1446729 -0.09861938 2.8757324
v 1.7066455 -0.78955567 -2.460752
v 3.4924462 0.69320923 1.5207715
v 1.1260693 2.9101598 -1.3343066
v 3.269702 -2.253822 -0.5749902
v 0.95650876 2.8022645 -1.1653808
v 1.7066455 -0.78955567 -2.460752
v 1.1260693 2.9101598 -1.3343066
v 1.4809033 -0.9326843 -2.2358887
v 1.1202393 -2.729541 0.31723633
v 1.1446729 -0.09861938 2.8757324
v 1.3236669 -2.9101598 0.5481152
v 0.49049315 0.48127562 2.132627
v 0.95650876 2.8022645 -1.1653808
v 1.2234423 -2.2145019 -0.41338867
v 1.4809033 -0.9326843 -2.2358887
v 0.49049315 0.48127562 2.132627
v 1.1202393 -2.729541 0.31723633
v 0.95650876 2.8022645 -1.1653808
v 0.6751611 1.4009265 0.8258496
v 0.49049315 0.48127562 2.132627
v -2.7435596 0.4525305 1.0251269
v -3.4924462 -0.003585205 -2.5516698
v -3.3926318 1.8023083 -1.6401855
v -2.996836 -2.7276733 -0.9379785
v -3.4687254 -1.7470678 -2.8757324
v -2.9571142 -2.810554 -0.7746582
v -3.4687254 -1.7470678 -2.8757324
v -2.3921776 2.2292175 -2.0036914
v -3.4924462 -0.003585205 -2.5516698
v -1.1113037 2.4112206 -1.8189746
v 0.43068847 -1.1962744 -2.3140428
v 2.2593896 -0.9396704 -2.0509667
v 0.8855908 2.6950672 -1.5310448
v 0.15252441 -2.6365623 0.13225585
v 0.27222168 0.62513185 1.9067577
v 1.7849462 -2.5421813 0.6100195
v -2.508325 -2.7854028 -0.64375
v -2.9571142 -2.810554 -0.7746582
v -0.72506344 0.56680787 1.6145312
v -2.7435596 0.4525305 1.0251269
v 1.9203857 -2.0830896 -0.15124023
v 0.8855908 2.6950672 -1.5310448
v 2.2593896 -0.9396704 -2.0509667
v 0.27222168 0.62513185 1.9067577
v 1.7849462 -2.5421813 0.6100195
v 0.8855908 2.6950672 -1.5310448
v 0.27222168 0.62513185 1.9067577
v 0.5151904 1.4450964 0.54489255
v -3.4924462 -0.003585205 -2.5516698
v -3.1926806 1.8871924 -1.7132128
v -3.3926318 1.8023083 -1.6401855
v -2.3921776 2.2292175 -2.0036914
vt 5.9247932 -1.3752432
vt 5.8986545 -1.4557896
vt 5.8893857 -1.4133029
vt 5.9437675 -1.4509538
vt 5.931134 -1.3732332
vt 5.866148 -1.4382795
vt 5.87031 -1.4588275
vt 5.8422728 -1.4202306
vt 5.8882036 -1.4074425
vt 5.864116 -1.4321086
vt 5.8467436 -1.3401866
vt 5.877288 -1.351774
vt 5.822331 -1.340751
vt 5.798079 -1.3961957
vt 5.8162374 -1.3408929
vt 5.9249206 -1.3698419
vt 5.8809834 -1.3744804
vt 5.8327727 -1.3783792
vt 5.831437 -1.3780041
vt 5.8803554 -1.3750775
vt 5.844719 -1.4285452
vt 5.8803554 -1.3750775
vt 5.8901043 -1.4224726
vt 5.8327727 -1.3783792
vt 5.831437 -1.3780041
vt 5.844719 -1.4285452
vt 5.8437824 -1.4292668
vt 5.8327727 -1.3783792
vt 5.844719 -1.4285452
vt 5.8912973 -1.4229398
vt 5.8437824 -1.4292668
vt 5.8901043 -1.4224726
vt 5.8809834 -1.3744804
vt 5.8901043 -1.4224726
vt 5.8803554 -1.3750775
vt 5.8912973 -1.4229398
vt 5.0424275 1.4981513
vt 5.127491 1.5614223
vt 5.127491 1.4981513
vt 5.096439 1.5614223
vt 5.045332 1.5097922
vt 5.1168876 1.5832796
vt 5.127491 1.5835469
vt 5.014042 1.5614223
vt 5.116892 1.5829097
vt 5.0964384 1.5614223
vt 5.081843 1.6247015
vt 5.003357 1.6247015
vt 5.003357 1.5786507
vt 5.0189624 1.6880007
vt 5.003357 1.6880007
vt 5.00838 1.6982087
vt 5.003357 1.6954606
vt 5.045346 1.5094448
vt 5.3750343 1.6880074
vt 5.360945 1.6880074
vt 5.3750343 1.6954658
vt 5.3750343 1.624588
vt 5.3154173 1.6660599
vt 5.3458447 1.6245975
vt 5.3750343 1.5786059
vt 3.3625994 4.9809914
vt 3.712512 5.716504
vt 3.712512 4.9815493
vt 3.3625994 5.7159204
vt 3.834814 5.716713
vt 3.9323182 4.9819183
vt -1.4934416 3.7626874
vt -2.2284732 3.185946
vt -2.2296524 4.0591288
vt -1.4926343 3.185946
vt -1.5485489 -0.5294806
vt -1.3911588 0.2471267
vt -1.4967124 -0.542222
vt -1.4600021 0.26327407
vt 3.0984516 -2.6822987
vt 3.181016 -1.942063
vt 3.1708322 -2.6824665
vt 2.948359 -1.9417316
vt -1.5485489 -0.5294806
vt -1.8709583 0.44612086
vt -1.4600021 0.26327407
vt -2.2986925 -0.18424204
vt -2.034752 0.52286446
vt 7.3000607 3.4562542
vt 7.2988677 2.9595826
vt 7.297887 2.633627
vt -4.1677794 -3.6354036
vt -4.5361066 -2.9863985
vt -4.1321554 -3.029268
vt -4.9206243 -3.5186276
vt -4.8944955 -3.0535958
vt -4.9222183 -3.5575502
vt 3.6408854 -2.824289
vt 2.8816953 -3.2250583
vt 3.2892652 -2.8998258
vt 2.9024987 -3.4929626
vt 3.6840854 -3.6265166
vt 3.7138624 -3.9942288
vt 2.9337897 -3.8976505
vt -4.8321705 -4.2075186
vt -4.085696 -4.2671404
vt -4.784317 -4.54655
vt -4.909346 -3.6515107
vt -4.9222183 -3.5575502
vt -4.113741 -4.0589848
vt -4.1677794 -3.6354036
vt 3.0068216 -0.82316744
vt 2.689044 -1.7849439
vt 2.6721997 -0.8243576
vt 3.2945538 -1.7826413
vt 3.1409264 -0.8224657
vt 2.689044 -1.7849439
vt 3.2945538 -1.7826413
vt 3.0545988 -1.783562
vt 3.2892652 -2.8998258
vt 2.8793197 -3.028795
vt 2.8801904 -2.9797177
vt 2.8816953 -3.2250583
vn -0.20572649 0.96235025 0.17764734
vn -0.20572649 0.96235025 0.17764732
vn -0.20572649 0.96235025 0.17764734
vn -0.20572227 0.96235526 0.17762496
vn -0.20571515 0.9623506 0.17765895
vn -0.2057338 0.9623531 0.1776235
vn -0.2057338 0.9623531 0.17762353
vn -0.0016188835 0.9999976 -0.0014727314
vn -0.0016188833 0.9999976 -0.0014727312
vn -0.0016188835 0.9999976 -0.0014727314
vn -0.0016169373 0.9999976 -0.0014575401
vn -0.0016169373 0.9999976 -0.0014575401
vn -0.0016231582 0.9999976 -0.001461862
vn -0.0011181334 0.99999833 0.0014249508
vn -0.0011214605 0.99999833 0.0014358589
vn -0.0016176245 0.9999976 -0.0014625683
vn 0.90246284 0.42034 -0.094207205
vn 0.9743182 0.19746564 -0.108218886
vn 0.9752779 0.19253717 -0.10845558
vn 0.8960742 0.4340281 -0.093117066
vn 0.013186266 0.9998584 -0.0104592135
vn 0.013179768 0.9998586 -0.010445228
vn 0.013196172 0.999858 -0.010480537
vn 0.013170632 0.99985886 -0.01042556
vn -0.15066043 0.320074 -0.93533635
vn -0.15548696 0.27967802 -0.94741964
vn -0.15563366 0.27840438 -0.94777066
vn -0.1504517 0.32175875 -0.93479174
vn -0.96029544 0.2078638 0.18607892
vn -0.96667516 0.17764355 0.18434153
vn -0.9598704 0.20972764 0.18618064
vn -0.96707827 0.17556797 0.18421613
vn 0.13550544 0.40182298 0.9056361
vn 0.13652574 0.22689037 0.9643037
vn 0.13528806 0.41232544 0.90093553
vn 0.13650386 0.22397341 0.96498835
vn -0.060904257 -0.8122054 -0.5801836
vn -0.060904264 -0.81220543 -0.5801836
vn -0.060904276 -0.81220543 -0.5801836
vn -0.06276029 -0.81215096 -0.58006203
vn -0.06290325 -0.8121276 -0.5800792
vn -0.061464284 -0.81169355 -0.5808405
vn -0.061464284 -0.81169355 -0.5808405
vn 0.1904935 -0.85527134 -0.48189548
vn 0.1904935 -0.85527134 -0.48189554
vn 0.1904935 -0.85527134 -0.48189554
vn 0.1904856 -0.8552742 -0.48189336
vn 0.19047621 -0.8552754 -0.48189506
vn 0.19047005 -0.8552678 -0.48191088
vn 0.18807672 -0.8565271 -0.48061258
vn 0.18815309 -0.8565433 -0.48055393
vn 0.18836544 -0.8565361 -0.4804835
vn 0.18836541 -0.8565361 -0.48048344
vn 0.1893369 -0.8558442 -0.4813339
vn 0.18907692 -0.85688204 -0.4795863
vn 0.18907696 -0.85688204 -0.47958636
vn 0.18907692 -0.85688204 -0.47958627
vn 0.18897037 -0.8569403 -0.47952408
vn 0.18890962 -0.85687953 -0.47965682
vn 0.18890809 -0.85688156 -0.47965387
vn 0.1911456 -0.8557139 -0.4808503
vn 0.552462 -0.5103929 0.65900296
vn 0.552462 -0.5103929 0.65900296
vn 0.552462 -0.5103929 0.65900296
vn 0.55247444 -0.51039475 0.65899116
vn 0.5524383 -0.5104009 0.6590165
vn 0.5524703 -0.5103952 0.6589941
vn 0.8343406 0.27618214 -0.47707355
vn 0.8343406 0.27618214 -0.47707355
vn 0.8343406 0.27618214 -0.47707355
vn 0.8343283 0.27621058 -0.47707856
vn -0.73132485 0.09103552 -0.6759265
vn -0.73132473 0.09103551 -0.6759265
vn -0.73132485 0.09103551 -0.67592645
vn -0.73119354 0.09111028 -0.67605835
vn -0.820263 -0.39483866 0.41384903
vn -0.820263 -0.39483866 0.41384903
vn -0.820263 -0.39483866 0.41384903
vn -0.82021254 -0.39488932 0.41390085
vn -0.9773841 -0.08126941 -0.19523227
vn -0.9773841 -0.08126942 -0.19523224
vn -0.9773841 -0.08126941 -0.19523224
vn -0.9773654 -0.08125229 -0.19533311
vn -0.9773654 -0.08125229 -0.19533311
vn -0.0034630082 0.8172699 0.5762446
vn -0.0034630084 0.81727 0.5762446
vn -0 1 0
vn -0.97605646 -0.05258242 0.21106578
vn -0.97605646 -0.052582424 0.2110658
vn -0.97605646 -0.052582424 0.21106578
vn -0.9760494 -0.052519426 0.21111387
vn -0.9760494 -0.05251943 0.21111387
vn -0.97612053 -0.05239472 0.21081644
vn 0.1148241 0.18304211 -0.9763765
vn 0.1148241 0.18304214 -0.9763765
vn 0.1148241 0.18304214 -0.9763765
vn 0.11479475 0.18305023 -0.97637844
vn 0.114775755 0.18305176 -0.97638035
vn 0.114765316 0.18304145 -0.97638357
vn 0.114765316 0.18304142 -0.97638357
vn -0.2249526 -0.45926484 0.85934395
vn -0.22495261 -0.45926484 0.85934407
vn -0.22495258 -0.4592648 0.85934407
vn -0.22492637 -0.45927006 0.85934806
vn -0.22493078 -0.45926243 0.8593511
vn -0.22493075 -0.4592624 0.859351
vn -0.22493078 -0.45926243 0.8593511
vn 0.89622235 0.29082415 0.3349728
vn 0.89622235 0.29082415 0.3349728
vn 0.89622235 0.29082415 0.3349728
vn 0.89620495 0.29083192 0.33501276
vn 0.896217 0.29092598 0.33489868
vn -0 1 0
vn -0 1 0
vn -0.8927161 0.43820953 0.10502542
vn -0.46322954 0.41959947 -0.7806117
vn -0.46322954 0.41959947 -0.7806117
vn -0.46322954 0.41959947 -0.7806117
vn -0.46267107 0.41964674 -0.7809174
g Pieces015_0
f 3/3/3 2/2/2 1/1/1
f 2/2/2 4/4/4 1/1/1
f 4/4/4 5/5/5 1/1/1
f 3/3/3 6/6/6 2/2/2
f 7/7/7 2/2/2 6/6/6
f 10/10/10 9/9/9 8/8/8
f 9/9/9 11/11/11 8/8/8
f 12/12/12 11/11/11 9/9/9
f 11/11/11 13/13/13 8/8/8
f 8/8/8 13/13/13 14/14/14
f 15/15/15 14/14/14 13/13/13
f 12/12/12 9/9/9 16/16/16
f 19/19/19 18/18/18 17/17/17
f 20/20/20 17/17/17 18/18/18
f 23/23/23 22/22/22 21/21/21
f 24/24/24 21/21/21 22/22/22
f 27/27/27 26/26/26 25/25/25
f 28/28/28 25/25/25 26/26/26
f 31/31/31 30/30/30 29/29/29
f 32/32/32 29/29/29 30/30/30
f 35/35/35 34/34/34 33/33/33
f 36/36/36 33/33/33 34/34/34
g Pieces015_1
f 39/39/39 38/38/38 37/37/37
f 38/38/38 40/40/40 37/37/37
f 40/40/40 41/41/41 37/37/37
f 40/40/40 38/38/38 42/42/42
f 43/43/43 42/42/42 38/38/38
f 46/46/46 45/45/45 44/44/44
f 45/45/45 47/47/47 44/44/44
f 47/47/47 48/48/48 44/44/44
f 48/48/48 49/49/49 44/44/44
f 47/47/47 50/50/50 48/48/48
f 51/51/51 48/48/48 50/50/50
f 50/50/50 52/52/52 51/51/51
f 53/53/53 51/51/51 52/52/52
f 44/44/44 54/54/54 46/46/46
f 57/57/57 56/56/56 55/55/55
f 55/55/55 56/56/56 58/58/58
f 56/56/56 59/59/59 58/58/58
f 59/59/59 60/60/60 58/58/58
f 58/58/58 60/60/60 61/61/61
g Pieces015_2
f 64/64/64 63/63/63 62/62/62
f 65/65/65 62/62/62 63/63/63
f 63/63/63 64/64/64 66/66/66
f 67/67/67 66/66/66 64/64/64
f 70/70/70 69/69/69 68/68/68
f 71/71/71 68/68/68 69/69/69
f 74/74/74 73/73/73 72/72/72
f 75/75/75 72/72/72 73/73/73
f 78/78/78 77/77/77 76/76/76
f 79/79/79 76/76/76 77/77/77
f 82/82/82 81/81/81 80/80/80
f 81/81/81 83/83/83 80/80/80
f 84/84/84 83/83/83 81/81/81
f 87/87/87 86/86/86 85/85/85
f 90/90/90 89/89/89 88/88/88
f 89/89/89 91/91/91 88/88/88
f 92/92/92 91/91/91 89/89/89
f 91/91/91 93/93/93 88/88/88
f 96/96/96 95/95/95 94/94/94
f 95/95/95 97/97/97 94/94/94
f 97/97/97 98/98/98 94/94/94
f 99/99/99 98/98/98 97/97/97
f 100/100/100 99/99/99 97/97/97
f 103/103/103 102/102/102 101/101/101
f 102/102/102 104/104/104 101/101/101
f 105/105/105 104/104/104 102/102/102
f 106/106/106 105/105/105 102/102/102
f 107/107/107 105/105/105 106/106/106
f 110/110/110 109/109/109 108/108/108
f 109/109/109 111/111/111 108/108/108
f 111/111/111 112/112/112 108/108/108
f 115/115/115 114/114/114 113/113/113
f 118/118/118 117/117/117 116/116/116
f 119/119/119 116/116/116 117/117/117
