g Rock03
v -0.06980453 -0.1435402 -0.072205916
v -0.16485281 0.14228125 -0.07305273
v -0.16494098 0.08386095 -0.07304302
v 0.18909907 -0.15059824 -0.0700802
v 0.12081954 0.15059826 -0.07069834
v -0.06980453 -0.1435402 -0.072205916
v -0.053135898 -0.15021081 -0.07206833
v 0.18909907 -0.15059824 -0.0700802
v -0.16494098 0.08386095 -0.07304302
v -0.16485281 0.14228125 -0.07305273
v -0.18909907 0.14157991 -0.07325231
v -0.16485281 0.14228125 -0.07305273
v -0.17537971 0.049195077 0.038866732
v -0.18909907 0.14157991 -0.07325231
v 0.067929775 0.042607058 0.057416905
v 0.12081954 0.15059826 -0.07069834
v 0.094865635 -0.117450155 0.07325231
v 0.18909907 -0.15059824 -0.0700802
v 0.122029215 -0.1494425 0.04038784
v 0.067929775 0.042607058 0.057416905
v 0.12081954 0.15059826 -0.07069834
v -0.14136906 -0.037245885 0.0488578
v -0.18909907 0.14157991 -0.07325231
v -0.17537971 0.049195077 0.038866732
v -0.16494098 0.08386095 -0.07304302
v -0.06980453 -0.1435402 -0.072205916
v -0.14136906 -0.037245885 0.0488578
v 0.067929775 0.042607058 0.057416905
v 0.094865635 -0.117450155 0.07325231
v -0.17537971 0.049195077 0.038866732
v -0.053135898 -0.15021081 -0.07206833
v 0.122029215 -0.1494425 0.04038784
v 0.18909907 -0.15059824 -0.0700802
v 0.094865635 -0.117450155 0.07325231
v -0.06980453 -0.1435402 -0.072205916
v -0.14136906 -0.037245885 0.0488578
v 0.122029215 -0.1494425 0.04038784
v -0.053135898 -0.15021081 -0.07206833
vt 5.0340195 0.7061754
vt 5.151155 0.741695
vt 5.127061 0.74112386
vt 5.0340195 0.61736387
vt 5.1577954 0.643867
vt 5.0064282 1.5325344
vt 5.003357 1.538541
vt 5.003357 1.6257383
vt 6.1292634 0.5008534
vt 6.1535335 0.50186837
vt 6.1527076 0.51002645
vt 4.826242 -0.5031241
vt 4.743403 -0.81030226
vt 4.769098 -0.4948472
vt 5.359344 -0.95758367
vt 5.5505033 -0.59401625
vt 1.4985155 5.0881357
vt 1.8206464 4.91195
vt 1.5630168 4.988159
vt 1.5765444 5.499522
vt 1.9259115 5.707265
vt 3.29356 2.5301993
vt 3.5783038 2.0813043
vt 3.3307996 2.2960756
vt 3.566598 2.2398872
vt 3.5208492 2.864773
vt 4.777226 -1.0371957
vt 5.359344 -0.95758367
vt 5.3281813 -1.3826212
vt 4.743403 -0.81030226
vt 0.8912344 7.093301
vt 0.9960141 6.5999355
vt 0.73907423 6.499873
vt 5.3281813 -1.3826212
vt 4.8273196 -1.4219809
vt 4.777226 -1.0371957
vt 5.3435135 -1.508784
vt 4.86108 -1.4508785
vn 0.008204289 -0.00023384637 -0.9999664
vn 0.008232171 -0.00020234914 -0.99996614
vn 0.008366803 -0.00017880308 -0.99996495
vn 0.008226857 -0.00020658466 -0.99996614
vn 0.008246627 -0.00018276577 -0.999966
vn 0.008204289 -0.00023384637 -0.9999664
vn 0.008206967 -0.000117340336 -0.9999664
vn 0.008226857 -0.00020658466 -0.99996614
vn 0.008366803 -0.00017880308 -0.99996495
vn 0.008232171 -0.00020234914 -0.99996614
vn 0.008236635 -0.00017860688 -0.99996614
vn -0.027710628 0.7698544 0.63761765
vn -0.027769314 0.7698154 0.6376623
vn -0.02751627 0.76980895 0.63768095
vn -0.027694184 0.76988745 0.6375786
vn -0.027669435 0.76991034 0.63755196
vn 0.83986604 0.1915764 0.5078618
vn 0.83982265 0.19148307 0.50796866
vn 0.839881 0.19134267 0.50792515
vn 0.8398087 0.19145587 0.5080019
vn 0.83979255 0.19141896 0.5080426
vn -0.9033259 -0.37866968 -0.20152315
vn -0.9032739 -0.37875265 -0.20160048
vn -0.9033128 -0.37870505 -0.20151544
vn -0.9032952 -0.37871408 -0.20157753
vn -0.90332973 -0.37866247 -0.2015196
vn -0.07342398 0.08594938 0.99359035
vn -0.07342287 0.0859465 0.9935906
vn -0.07342252 0.08594554 0.9935907
vn -0.07342505 0.08595226 0.99359
vn -0.0016767944 -0.999954 0.009443791
vn -0.0016767944 -0.999954 0.009443792
vn -0.0016767943 -0.999954 0.00944379
vn -0.3233788 -0.79761434 0.50915366
vn -0.32337734 -0.79761577 0.5091523
vn -0.32337663 -0.79761666 0.50915134
vn -0.32338256 -0.7976104 0.50915754
vn -0.32339287 -0.7975952 0.50917476
g Rock03_0
f 3/3/3 2/2/2 1/1/1
f 2/2/2 4/4/4 1/1/1
f 5/5/5 4/4/4 2/2/2
f 8/8/8 7/7/7 6/6/6
f 11/11/11 10/10/10 9/9/9
g Rock03_1
f 14/14/14 13/13/13 12/12/12
f 13/13/13 15/15/15 12/12/12
f 15/15/15 16/16/16 12/12/12
f 19/19/19 18/18/18 17/17/17
f 18/18/18 20/20/20 17/17/17
f 21/21/21 20/20/20 18/18/18
f 24/24/24 23/23/23 22/22/22
f 23/23/23 25/25/25 22/22/22
f 25/25/25 26/26/26 22/22/22
f 29/29/29 28/28/28 27/27/27
f 30/30/30 27/27/27 28/28/28
f 33/33/33 32/32/32 31/31/31
f 36/36/36 35/35/35 34/34/34
f 35/35/35 37/37/37 34/34/34
f 38/38/38 37/37/37 35/35/35
