g Stage_Dominating_Theater_Inside02_Mirror03_Ref
v 1.5518738 -5.9303956 0.8933203
v 1.5560473 5.410615 0.88642573
v 0.0026116944 6.8103857 -0.004279785
v -0.002407837 -6.810381 0.003989258
v -1.5518621 5.4106836 -0.89331055
v -1.5560479 -5.9303317 -0.88641846
vt 0.4936018 0.036751717
vt 0.4936018 0.44327337
vt 0.42116284 0.493447
vt 0.42116284 0.005207509
vt 0.34872365 0.44327337
vt 0.34872377 0.036751717
vn 0.4969328 -0.0007101709 -0.86778873
vn 0.4969328 -0.00071017083 -0.86778873
vn 0.4969355 -0.0007102499 -0.8677872
vn 0.4969355 -0.00071024994 -0.8677872
vn 0.49693817 -0.00071032887 -0.86778563
vn 0.49693817 -0.000710329 -0.86778563
g Stage_Dominating_Theater_Inside02_Mirror03_Ref_0
f 3/3/3 2/2/2 1/1/1
f 4/4/4 3/3/3 1/1/1
f 5/5/5 3/3/3 4/4/4
f 6/6/6 5/5/5 4/4/4
