g Stage_Dominating_Theater_CG_Crushed_Ston_C_05
v -0.16427197 0.01254526 -0.04982101
v -0.12127464 0.012545243 -0.104564816
v -0.03644623 0.012545232 -0.14383727
v 0.005182533 0.012545246 -0.124201044
v -0.00660099 0.012545298 0.088845365
v -0.04881096 0.012545301 0.108839564
v -0.18155181 0.012545286 0.11276688
v -0.20982796 0.012545267 0.008302307
v -0.20508698 0.012545253 -0.03883499
v -0.10379238 0.012545305 0.15989365
v -0.15327568 0.012545305 0.16067931
v 0.108861536 0.012545298 0.061164245
v 0.17405368 0.012545293 -0.04172928
v 0.024818687 0.012545243 -0.13362625
v 0.093152694 0.012545238 -0.15247726
v 0.15346672 0.012545238 -0.16067931
v 0.20982787 0.012545291 -0.114693604
v 0.15346672 0.012545238 -0.16067931
v 0.15346667 -0.012545298 -0.16067931
v 0.20982791 -0.012545243 -0.114693604
v 0.20982787 0.012545291 -0.114693604
v 0.093152694 0.012545238 -0.15247726
v 0.093152694 -0.012545298 -0.15247726
v 0.15346667 -0.012545298 -0.16067931
v 0.15346672 0.012545238 -0.16067931
v 0.024818687 0.012545243 -0.13362625
v 0.024818687 -0.012545293 -0.13362625
v 0.093152694 -0.012545298 -0.15247726
v 0.093152694 0.012545238 -0.15247726
v 0.005182533 0.012545246 -0.124201044
v 0.005182533 -0.012545291 -0.124201044
v 0.024818687 -0.012545293 -0.13362625
v 0.024818687 0.012545243 -0.13362625
v -0.03644623 0.012545232 -0.14383727
v -0.036446188 -0.012545305 -0.14383727
v 0.005182533 -0.012545291 -0.124201044
v 0.005182533 0.012545246 -0.124201044
v -0.12127464 0.012545243 -0.104564816
v -0.12127464 -0.012545293 -0.104564816
v -0.036446188 -0.012545305 -0.14383727
v -0.03644623 0.012545232 -0.14383727
v 0.20982787 0.012545291 -0.114693604
v 0.20982791 -0.012545243 -0.114693604
v 0.17405373 -0.012545243 -0.04172928
v 0.17405368 0.012545293 -0.04172928
v 0.17405368 0.012545293 -0.04172928
v 0.17405373 -0.012545243 -0.04172928
v 0.108861536 -0.012545238 0.061164234
v 0.108861536 0.012545298 0.061164245
v 0.108861536 0.012545298 0.061164245
v 0.108861536 -0.012545238 0.061164234
v -0.00660099 -0.012545236 0.08884536
v -0.00660099 0.012545298 0.088845365
v -0.00660099 0.012545298 0.088845365
v -0.00660099 -0.012545236 0.08884536
v -0.04881096 -0.012545236 0.10883956
v -0.04881096 0.012545301 0.108839564
v -0.04881096 0.012545301 0.108839564
v -0.04881096 -0.012545236 0.10883956
v -0.10379238 -0.012545234 0.15989363
v -0.10379238 0.012545305 0.15989365
v -0.20982796 0.012545267 0.008302307
v -0.20982796 -0.012545269 0.008302307
v -0.20508695 -0.012545284 -0.03883499
v -0.20508698 0.012545253 -0.03883499
v -0.20508698 0.012545253 -0.03883499
v -0.20508695 -0.012545284 -0.03883499
v -0.16427194 -0.012545276 -0.04982101
v -0.16427197 0.01254526 -0.04982101
v -0.16427197 0.01254526 -0.04982101
v -0.16427194 -0.012545276 -0.04982101
v -0.12127464 -0.012545293 -0.104564816
v -0.12127464 0.012545243 -0.104564816
v -0.10379238 0.012545305 0.15989365
v -0.10379238 -0.012545234 0.15989363
v -0.15327568 -0.012545232 0.16067931
v -0.15327568 0.012545305 0.16067931
v -0.15327568 0.012545305 0.16067931
v -0.15327568 -0.012545232 0.16067931
v -0.18155181 -0.012545248 0.11276686
v -0.18155181 0.012545286 0.11276688
v -0.18155181 0.012545286 0.11276688
v -0.18155181 -0.012545248 0.11276686
v -0.20982796 -0.012545269 0.008302307
v -0.20982796 0.012545267 0.008302307
v -0.16427194 -0.012545276 -0.04982101
v 0.005182533 -0.012545291 -0.124201044
v -0.036446188 -0.012545305 -0.14383727
v -0.12127464 -0.012545293 -0.104564816
v -0.00660099 -0.012545236 0.08884536
v -0.04881096 -0.012545236 0.10883956
v -0.18155181 -0.012545248 0.11276686
v -0.20982796 -0.012545269 0.008302307
v -0.20508695 -0.012545284 -0.03883499
v -0.10379238 -0.012545234 0.15989363
v -0.15327568 -0.012545232 0.16067931
v 0.108861536 -0.012545238 0.061164234
v 0.17405373 -0.012545243 -0.04172928
v 0.024818687 -0.012545293 -0.13362625
v 0.093152694 -0.012545298 -0.15247726
v 0.15346667 -0.012545298 -0.16067931
v 0.20982791 -0.012545243 -0.114693604
vt 0.75366247 0.4276033
vt 0.78919905 0.39460552
vt 0.8121202 0.33286867
vt 0.7966548 0.3044761
vt 0.6509446 0.32321155
vt 0.6392286 0.35395348
vt 0.6428577 0.44774485
vt 0.7159276 0.46257067
vt 0.74804133 0.4568948
vt 0.6067963 0.39522097
vt 0.608615 0.43015143
vt 0.66444767 0.24044101
vt 0.731985 0.18943653
vt 0.8021903 0.29016876
vt 0.81187654 0.24106205
vt 0.8146336 0.19813153
vt 0.7803753 0.16064021
vt 2.5107079 0.14626688
vt 2.5023184 0.2556499
vt 2.6192641 0.25567892
vt 2.6276531 0.14629605
vt 2.4097967 0.14624164
vt 2.4014072 0.25562465
vt 2.5023184 0.2556499
vt 2.5107079 0.14626688
vt 2.2927732 0.14621247
vt 2.2843828 0.2555954
vt 2.4014072 0.25562465
vt 2.4097967 0.14624164
vt 2.2571692 0.14620377
vt 2.2487783 0.25558662
vt 2.2843828 0.2555954
vt 2.2927732 0.14621247
vt 2.18188 0.14618501
vt 2.1734867 0.25556806
vt 2.2487783 0.25558662
vt 2.2571692 0.14620377
vt 2.0288787 0.14614688
vt 2.020483 0.25552988
vt 2.1734867 0.25556806
vt 2.18188 0.14618501
vt 0.73260343 0.14582522
vt 0.72421074 0.25520834
vt 0.85035837 0.25523987
vt 0.8587516 0.14585674
vt 0.8587516 0.14585674
vt 0.85035837 0.25523987
vt 1.0409989 0.25528747
vt 1.0493927 0.14590436
vt 1.0493927 0.14590436
vt 1.0409989 0.25528747
vt 1.2372794 0.25533652
vt 1.2456757 0.14595336
vt 1.2456757 0.14595336
vt 1.2372794 0.25533652
vt 1.3136883 0.2553554
vt 1.3220867 0.14597225
vt 1.3220867 0.14597225
vt 1.3136883 0.2553554
vt 1.4336493 0.25538507
vt 1.4420536 0.14600195
vt 1.7770705 0.14608474
vt 1.7686651 0.25546786
vt 1.8409384 0.25548548
vt 1.8493414 0.1461024
vt 1.8493414 0.1461024
vt 1.8409384 0.25548548
vt 1.9106808 0.25550267
vt 1.9190798 0.14611953
vt 1.9190798 0.14611953
vt 1.9106808 0.25550267
vt 2.020483 0.25552988
vt 2.0288787 0.14614688
vt 1.4420536 0.14600195
vt 1.4336493 0.25538507
vt 1.5157804 0.25540522
vt 1.5241885 0.14602208
vt 1.5241885 0.14602208
vt 1.5157804 0.25540522
vt 1.6026006 0.25542668
vt 1.6110086 0.14604346
vt 1.6110086 0.14604346
vt 1.6026006 0.25542668
vt 1.7686651 0.25546786
vt 1.7770705 0.14608474
vt 0.75366247 0.4276033
vt 0.7966548 0.3044761
vt 0.8121202 0.33286867
vt 0.78919905 0.39460552
vt 0.6509446 0.32321155
vt 0.6392286 0.35395348
vt 0.6428577 0.44774485
vt 0.7159276 0.46257067
vt 0.74804133 0.4568948
vt 0.6067963 0.39522097
vt 0.608615 0.43015143
vt 0.66444767 0.24044101
vt 0.731985 0.18943653
vt 0.8021903 0.29016876
vt 0.81187654 0.24106205
vt 0.8146336 0.19813153
vt 0.7803753 0.16064021
vn -0 1 -4.182453E-07
vn -0 1 -4.1824535E-07
vn -0 1 -4.182453E-07
vn -0 1 -4.1824532E-07
vn -0 1 -2.475408E-07
vn -0 1 -2.6393366E-07
vn -1.0342053E-07 1 -2.041174E-07
vn -1.0342055E-07 1 -2.0411744E-07
vn -1.0342055E-07 1 -2.0411743E-07
vn -0 1 -2.6393366E-07
vn -0 1 -2.6393369E-07
vn -1.8356232E-07 1 -2.0231565E-07
vn -1.8356232E-07 1 -2.0231562E-07
vn -1.8356232E-07 1 -2.0231565E-07
vn -3.1809543E-07 1 -4.0594898E-07
vn -3.1809543E-07 1 -4.0594898E-07
vn -3.180955E-07 1 -4.0594898E-07
vn 0.6321832 0 -0.7748189
vn 0.6321832 0 -0.7748189
vn 0.6321832 0 -0.7748189
vn 0.6321832 0 -0.7748189
vn -0.134749 1.0147202E-07 -0.9908798
vn -0.134749 1.0147202E-07 -0.9908798
vn -0.134749 1.0147202E-07 -0.9908798
vn -0.13474898 1.0147201E-07 -0.9908798
vn -0.26593232 0 -0.96399176
vn -0.2659323 0 -0.96399176
vn -0.26593232 0 -0.96399176
vn -0.2659323 0 -0.96399176
vn -0.4327254 0 -0.9015258
vn -0.4327254 0 -0.9015258
vn -0.4327254 0 -0.9015258
vn -0.4327254 0 -0.9015258
vn 0.4266193 3.0967328E-07 -0.90443134
vn 0.42661926 3.0967325E-07 -0.90443134
vn 0.4266193 3.096733E-07 -0.90443134
vn 0.42661926 3.0967328E-07 -0.90443134
vn -0.4201239 -3.2528902E-07 -0.9074667
vn -0.42012393 -3.25289E-07 -0.9074667
vn -0.42012385 -3.25289E-07 -0.9074667
vn -0.4201239 -3.25289E-07 -0.9074667
vn 0.8978849 1.3564326E-06 0.44023028
vn 0.8978849 1.3564326E-06 0.44023028
vn 0.8978849 1.3564326E-06 0.44023028
vn 0.8978849 1.3564326E-06 0.44023028
vn 0.84472156 5.3047455E-07 0.5352061
vn 0.84472156 5.3047467E-07 0.5352061
vn 0.84472156 5.304746E-07 0.5352061
vn 0.84472156 5.304746E-07 0.5352061
vn 0.23313494 -3.6813887E-07 0.9724444
vn 0.23313497 -3.6813896E-07 0.9724444
vn 0.23313497 -3.6813887E-07 0.9724444
vn 0.23313497 -3.6813896E-07 0.9724444
vn 0.42808652 -3.4586492E-07 0.9037378
vn 0.42808643 -3.4586486E-07 0.9037378
vn 0.42808652 -3.4586492E-07 0.9037378
vn 0.42808643 -3.4586486E-07 0.9037378
vn 0.68045044 -2.7862416E-07 0.7327941
vn 0.6804504 -2.7862419E-07 0.73279417
vn 0.68045044 -2.7862416E-07 0.7327941
vn 0.6804504 -2.7862419E-07 0.73279417
vn -0.99498004 -3.810951E-07 -0.10007344
vn -0.99498004 -3.810951E-07 -0.10007344
vn -0.99498004 -3.8109513E-07 -0.10007345
vn -0.99498004 -3.810951E-07 -0.10007344
vn -0.25991535 -2.023318E-07 -0.9656314
vn -0.25991535 -2.023318E-07 -0.9656314
vn -0.25991535 -2.023318E-07 -0.9656314
vn -0.25991535 -2.023318E-07 -0.9656314
vn -0.7864277 -3.0031472E-07 -0.6176823
vn -0.7864278 -3.0031475E-07 -0.6176823
vn -0.7864277 -3.0031472E-07 -0.6176823
vn -0.7864277 -3.003147E-07 -0.6176823
vn 0.015875675 -1.8990679E-07 0.999874
vn 0.015875675 -1.8990679E-07 0.999874
vn 0.015875675 -1.8990679E-07 0.999874
vn 0.015875675 -1.8990679E-07 0.999874
vn -0.86120796 0 0.50825274
vn -0.86120796 0 0.50825274
vn -0.86120796 0 0.50825274
vn -0.86120796 0 0.50825274
vn -0.9652645 0 0.26127476
vn -0.9652644 0 0.26127476
vn -0.9652644 0 0.26127476
vn -0.9652644 0 0.26127476
vn -0 -1 4.182453E-07
vn -0 -1 4.182453E-07
vn -0 -1 4.182453E-07
vn -0 -1 4.182453E-07
vn -0 -1 2.5901016E-07
vn -0 -1 2.0830265E-07
vn 1.2016838E-07 -1 2.172441E-07
vn 1.2016837E-07 -1 2.172441E-07
vn 1.2016837E-07 -1 2.172441E-07
vn -0 -1 2.0830265E-07
vn -0 -1 2.0830261E-07
vn 1.8356228E-07 -1 2.0231569E-07
vn 1.8356228E-07 -1 2.0231569E-07
vn 1.8356229E-07 -1 2.0231569E-07
vn 3.3974314E-07 -1 4.022022E-07
vn 3.3974314E-07 -1 4.022022E-07
vn 3.3974314E-07 -1 4.0220223E-07
g Stage_Dominating_Theater_CG_Crushed_Ston_C_05_0
f 3/3/3 2/2/2 1/1/1
f 4/4/4 3/3/3 1/1/1
f 5/5/5 4/4/4 1/1/1
f 6/6/6 5/5/5 1/1/1
f 7/7/7 6/6/6 1/1/1
f 8/8/8 7/7/7 1/1/1
f 9/9/9 8/8/8 1/1/1
f 10/10/10 6/6/6 7/7/7
f 11/11/11 10/10/10 7/7/7
f 12/12/12 4/4/4 5/5/5
f 4/4/4 12/12/12 13/13/13
f 14/14/14 4/4/4 13/13/13
f 15/15/15 14/14/14 13/13/13
f 16/16/16 15/15/15 13/13/13
f 17/17/17 16/16/16 13/13/13
f 20/20/20 19/19/19 18/18/18
f 21/21/21 20/20/20 18/18/18
f 24/24/24 23/23/23 22/22/22
f 25/25/25 24/24/24 22/22/22
f 28/28/28 27/27/27 26/26/26
f 29/29/29 28/28/28 26/26/26
f 32/32/32 31/31/31 30/30/30
f 33/33/33 32/32/32 30/30/30
f 36/36/36 35/35/35 34/34/34
f 37/37/37 36/36/36 34/34/34
f 40/40/40 39/39/39 38/38/38
f 41/41/41 40/40/40 38/38/38
f 44/44/44 43/43/43 42/42/42
f 45/45/45 44/44/44 42/42/42
f 48/48/48 47/47/47 46/46/46
f 49/49/49 48/48/48 46/46/46
f 52/52/52 51/51/51 50/50/50
f 53/53/53 52/52/52 50/50/50
f 56/56/56 55/55/55 54/54/54
f 57/57/57 56/56/56 54/54/54
f 60/60/60 59/59/59 58/58/58
f 61/61/61 60/60/60 58/58/58
f 64/64/64 63/63/63 62/62/62
f 65/65/65 64/64/64 62/62/62
f 68/68/68 67/67/67 66/66/66
f 69/69/69 68/68/68 66/66/66
f 72/72/72 71/71/71 70/70/70
f 73/73/73 72/72/72 70/70/70
f 76/76/76 75/75/75 74/74/74
f 77/77/77 76/76/76 74/74/74
f 80/80/80 79/79/79 78/78/78
f 81/81/81 80/80/80 78/78/78
f 84/84/84 83/83/83 82/82/82
f 85/85/85 84/84/84 82/82/82
f 88/88/88 87/87/87 86/86/86
f 89/89/89 88/88/88 86/86/86
f 87/87/87 90/90/90 86/86/86
f 90/90/90 91/91/91 86/86/86
f 91/91/91 92/92/92 86/86/86
f 92/92/92 93/93/93 86/86/86
f 93/93/93 94/94/94 86/86/86
f 91/91/91 95/95/95 92/92/92
f 95/95/95 96/96/96 92/92/92
f 87/87/87 97/97/97 90/90/90
f 97/97/97 87/87/87 98/98/98
f 87/87/87 99/99/99 98/98/98
f 99/99/99 100/100/100 98/98/98
f 100/100/100 101/101/101 98/98/98
f 101/101/101 102/102/102 98/98/98
