g Stage_Dominating_Theater_Boss_P1_Fragment11
v 0.24040039 -0.8365869 0.34143904
v 0.036020506 -0.717915 0.04977188
v 0.03426758 0.71554196 0.049846344
v 0.23970702 0.86179197 0.34350356
v 0.23708007 0.6381787 -0.09172592
v 0.036020506 -0.717915 0.04977188
v 0.16065429 -0.67478025 -0.03733139
v 0.23653808 -0.47398925 -0.09049545
v 0.03426758 0.71554196 0.049846344
v 0.2737793 -0.6791455 -0.03692001
v 0.44065917 -0.781665 0.20157821
v 0.44270995 0.7905615 0.20167251
v 0.23653808 -0.47398925 -0.09049545
v 0.23708007 0.6381787 -0.09172592
v 0.44270995 0.7905615 0.20167251
v 0.44065917 -0.781665 0.20157821
v 0.24040039 -0.8365869 0.34143904
v 0.23970702 0.86179197 0.34350356
v -0.44270995 0.66719234 -0.036387786
v -0.44270995 -0.6745361 -0.036386564
v -0.44142088 -0.65855956 -0.040742032
v -0.44195312 0.6659619 -0.038951263
v -0.34585938 -0.8470654 0.3580223
v -0.44270995 -0.6745361 -0.036386564
v -0.44270995 0.66719234 -0.036387786
v -0.34566405 0.86870605 0.35802138
v -0.3615283 0.3470459 -0.3145433
v -0.3529199 0.4572998 -0.34405014
v -0.44195312 0.6659619 -0.038951263
v -0.44142088 -0.65855956 -0.040742032
v -0.35282224 0.52018064 -0.34440413
v -0.29807615 0.8697998 0.3580275
v -0.30302244 0.8594775 0.33769056
v -0.3081445 -0.8337158 0.31744856
v -0.29827148 -0.8697998 0.35803086
v -0.30302244 0.8594775 0.33769056
v -0.39512694 0.6686377 -0.036384124
v -0.3081445 -0.8337158 0.31744856
v -0.39512694 -0.67770994 -0.036380462
v -0.39512694 0.6686377 -0.036384124
v -0.3943701 0.66861814 -0.03894516
v -0.393833 -0.6763428 -0.040761564
v -0.3943701 0.66861814 -0.03894516
v -0.30748045 0.5253369 -0.33686996
v -0.30773437 0.42940918 -0.33597273
v -0.393833 -0.6763428 -0.040761564
v -0.30185547 0.5138623 -0.35589585
v -0.3018506 0.50028807 -0.35589585
v -0.30773437 0.42940918 -0.33597273
v -0.30748045 0.5253369 -0.33686996
v -0.38867188 0.51311034 -0.35803086
v -0.40492675 0.5275537 -0.32989243
v -0.40492675 0.40906736 -0.32989243
v -0.40492675 0.40906736 -0.32989243
v -0.40492675 0.5275537 -0.32989243
v -0.3736914 0.5367334 -0.3118602
v -0.3736914 0.34180176 -0.3118602
v -0.34585938 -0.8470654 0.3580223
v -0.34566405 0.86870605 0.35802138
v -0.29807615 0.8697998 0.3580275
v -0.29827148 -0.8697998 0.35803086
v -0.3736914 0.5367334 -0.3118602
v -0.36547852 0.5295654 -0.32606673
v -0.3649072 0.3959912 -0.3270555
v -0.3736914 0.34180176 -0.3118602
v -0.44270995 -0.6745361 -0.036386564
v -0.393833 -0.6763428 -0.040761564
v -0.44142088 -0.65855956 -0.040742032
v -0.30773437 0.42940918 -0.33597273
v -0.44270995 -0.6745361 -0.036386564
v -0.39512694 -0.67770994 -0.036380462
v -0.393833 -0.6763428 -0.040761564
v -0.34585938 -0.8470654 0.3580223
v -0.31024414 -0.8261084 0.30890852
v -0.39512694 -0.67770994 -0.036380462
v -0.44270995 -0.6745361 -0.036386564
v -0.34585938 -0.8470654 0.3580223
v -0.3081445 -0.8337158 0.31744856
v -0.31024414 -0.8261084 0.30890852
v -0.29827148 -0.8697998 0.35803086
v -0.35282224 0.52018064 -0.34440413
v -0.30748045 0.5253369 -0.33686996
v -0.3943701 0.66861814 -0.03894516
v -0.44195312 0.6659619 -0.038951263
v -0.3018506 0.50028807 -0.35589585
v -0.30185547 0.5138623 -0.35589585
v -0.35282224 0.52018064 -0.34440413
v -0.3529199 0.4572998 -0.34405014
v -0.35282224 0.52018064 -0.34440413
v -0.30185547 0.5138623 -0.35589585
v -0.30748045 0.5253369 -0.33686996
v -0.3018506 0.50028807 -0.35589585
v -0.3529199 0.4572998 -0.34405014
v -0.30773437 0.42940918 -0.33597273
v -0.44195312 0.6659619 -0.038951263
v -0.39512694 0.6686377 -0.036384124
v -0.44270995 0.66719234 -0.036387786
v -0.44195312 0.6659619 -0.038951263
v -0.3943701 0.66861814 -0.03894516
v -0.39512694 0.6686377 -0.036384124
v -0.34566405 0.86870605 0.35802138
v -0.44270995 0.66719234 -0.036387786
v -0.39512694 0.6686377 -0.036384124
v -0.30302244 0.8594775 0.33769056
v -0.29807615 0.8697998 0.3580275
v 0.44270995 0.7905615 0.20167251
v 0.23970702 0.86179197 0.34350356
v 0.03426758 0.71554196 0.049846344
v 0.23708007 0.6381787 -0.09172592
v -0.36547852 0.5295654 -0.32606673
v -0.38867188 0.51311034 -0.35803086
v -0.3649072 0.3959912 -0.3270555
v -0.40492675 0.40906736 -0.32989243
v -0.40492675 0.5275537 -0.32989243
v -0.38867188 0.51311034 -0.35803086
v -0.36547852 0.5295654 -0.32606673
v -0.3736914 0.5367334 -0.3118602
v -0.40492675 0.40906736 -0.32989243
v -0.3736914 0.34180176 -0.3118602
v -0.3649072 0.3959912 -0.3270555
v 0.036020506 -0.717915 0.04977188
v 0.24040039 -0.8365869 0.34143904
v 0.44065917 -0.781665 0.20157821
v 0.2737793 -0.6791455 -0.03692001
v 0.16065429 -0.67478025 -0.03733139
v 0.2737793 -0.6791455 -0.03692001
v 0.23653808 -0.47398925 -0.09049545
v 0.036020506 -0.717915 0.04977188
v 0.2737793 -0.6791455 -0.03692001
v 0.16065429 -0.67478025 -0.03733139
v -0.3615283 0.3470459 -0.3145433
v -0.44142088 -0.65855956 -0.040742032
v -0.30773437 0.42940918 -0.33597273
v -0.3529199 0.4572998 -0.34405014
v -0.31024414 -0.8261084 0.30890852
v -0.39512694 0.6686377 -0.036384124
v -0.39512694 -0.67770994 -0.036380462
v -0.3081445 -0.8337158 0.31744856
v -0.39512694 0.6686377 -0.036384124
v -0.31024414 -0.8261084 0.30890852
vt 0.79518425 0.6565483
vt 0.8513683 0.6580038
vt 0.8513683 0.6755836
vt 0.79518425 0.67737716
vt 0.79518425 0.6746348
vt 0.7892228 0.6580038
vt 0.79292023 0.6585328
vt 0.79518425 0.66099536
vt 0.7892228 0.6755836
vt 0.80547523 0.6584793
vt 0.8513683 0.6572219
vt 0.8513683 0.6765037
vt 0.79518425 0.66099536
vt 0.79518425 0.6746348
vt 0.79518425 0.6765037
vt 0.79518425 0.6572219
vt 0.78922284 0.6565483
vt 0.78922284 0.67737716
vt 0.72355056 0.5695762
vt 0.72355056 0.56457597
vt 0.7233535 0.5642722
vt 0.72343457 0.5693578
vt 0.7380003 0.56492233
vt 0.72355056 0.56457597
vt 0.72355056 0.5695762
vt 0.7380003 0.57081825
vt 0.7109711 0.5679937
vt 0.7096365 0.568411
vt 0.72343457 0.5693578
vt 0.7233535 0.5642722
vt 0.70962054 0.5686568
vt 0.7380003 0.57082194
vt 0.73725504 0.57057285
vt 0.7365132 0.5645419
vt 0.7380003 0.56484413
vt 0.73725504 0.57057285
vt 0.72355056 0.5695816
vt 0.7365132 0.5645419
vt 0.72355056 0.56456417
vt 0.72355056 0.5695816
vt 0.72343475 0.569368
vt 0.72335243 0.56420386
vt 0.72343475 0.569368
vt 0.70996183 0.56868565
vt 0.7100024 0.5683111
vt 0.72335243 0.56420386
vt 0.7091009 0.5686131
vt 0.70910084 0.56855994
vt 0.71000236 0.5683111
vt 0.7099618 0.56868565
vt 0.6576824 0.6145026
vt 0.657442 0.6159017
vt 0.6594147 0.6159017
vt 0.49747953 0.50076
vt 0.4974795 0.5008862
vt 0.49747956 0.5008856
vt 0.49747956 0.5006793
vt 0.7380003 0.56492233
vt 0.7380003 0.57081825
vt 0.7380003 0.57082194
vt 0.7380003 0.56484413
vt 0.49747956 0.5008856
vt 0.4974392 0.50087804
vt 0.4974364 0.50073665
vt 0.49747956 0.5006793
vt 0.6912411 0.25830364
vt 0.6878515 0.25828642
vt 0.69120216 0.2593381
vt 0.68881804 0.339286
vt 0.6912411 0.25830364
vt 0.68798864 0.25784355
vt 0.6878515 0.25828642
vt 0.68902063 0.2273312
vt 0.68604755 0.23068364
vt 0.68798864 0.25784355
vt 0.6912411 0.25830364
vt 0.68902063 0.2273312
vt 0.68597466 0.22986655
vt 0.68604755 0.23068364
vt 0.6856318 0.22598942
vt 0.6928481 0.33849177
vt 0.6897095 0.33906513
vt 0.6952576 0.36249313
vt 0.69854254 0.3624754
vt 0.6894981 0.33654118
vt 0.68935543 0.33748826
vt 0.6928481 0.33849177
vt 0.69352365 0.33411196
vt 0.6928481 0.33849177
vt 0.68935543 0.33748826
vt 0.6897095 0.33906513
vt 0.6894981 0.33654118
vt 0.69352365 0.33411196
vt 0.6908293 0.3315136
vt 0.72343457 0.5693578
vt 0.72355056 0.5695816
vt 0.72355056 0.5695762
vt 0.72343457 0.5693578
vt 0.72343475 0.569368
vt 0.72355056 0.5695816
vt 0.7073697 0.3333841
vt 0.6763445 0.3295004
vt 0.6766976 0.3328376
vt 0.70611525 0.336526
vt 0.70771277 0.33672225
vt 0.68160576 0.3706731
vt 0.65371794 0.35931194
vt 0.6416509 0.40416813
vt 0.66960686 0.41583142
vt 0.61404234 0.36653537
vt 0.6183468 0.3691214
vt 0.62644315 0.35684955
vt 0.62860435 0.361408
vt 0.6199695 0.3730617
vt 0.6183468 0.3691214
vt 0.6153565 0.3732438
vt 0.6161783 0.3752228
vt 0.6226727 0.36009327
vt 0.63147295 0.3613073
vt 0.62644315 0.35684955
vt 0.6565292 0.36035857
vt 0.65212035 0.31543148
vt 0.6234081 0.3205052
vt 0.62687695 0.35746574
vt 0.63846254 0.36394167
vt 0.62687695 0.35746574
vt 0.61985683 0.38232347
vt 0.6565292 0.36035857
vt 0.62687695 0.35746574
vt 0.63846254 0.36394167
vt 0.69199556 0.33297613
vt 0.69120216 0.2593381
vt 0.68881804 0.339286
vt 0.69209266 0.3410469
vt 0.7362001 0.5644782
vt 0.72355056 0.5695816
vt 0.72355056 0.56456417
vt 0.7365132 0.5645419
vt 0.72355056 0.5695816
vt 0.7362001 0.5644782
vn -0.8191482 -0.0010315545 0.57358116
vn -0.81914806 -0.0010315543 0.5735811
vn -0.81914806 -0.0010315543 0.5735812
vn -0.8191482 -0.0010315545 0.57358116
vn -0.5726897 -0.0006266794 -0.819772
vn -0.5726897 -0.00062667945 -0.819772
vn -0.5726897 -0.00062667945 -0.819772
vn -0.5726897 -0.00062667934 -0.819772
vn -0.57255447 -0.00065753405 -0.8198665
vn 0.8191504 -0.0010397838 -0.5735778
vn 0.8191342 -0.0010341444 -0.5736011
vn 0.81915456 -0.0010355295 -0.57357186
vn 0.8192006 -0.0010564879 -0.5735061
vn 0.81915456 -0.0010337556 -0.5735719
vn 0.5726339 -0.0007786753 0.81981087
vn 0.57263386 -0.00077867537 0.81981087
vn 0.57263386 -0.00077867537 0.81981087
vn 0.572634 -0.00077867537 0.81981087
vn -0.9589544 -1.0884407E-06 -0.28356048
vn -0.9589544 -1.0884406E-06 -0.28356045
vn -0.9589544 -1.0884406E-06 -0.28356045
vn -0.9589544 -1.0884406E-06 -0.28356045
vn -0.97109365 6.221406E-05 0.23869859
vn -0.97109365 6.221406E-05 0.23869859
vn -0.97109365 6.221406E-05 0.23869862
vn -0.97109365 6.221406E-05 0.23869859
vn -0.9599615 -7.895928E-06 -0.28013214
vn -0.9599615 -7.895928E-06 -0.28013214
vn -0.9599615 -7.895928E-06 -0.28013217
vn -0.9599615 -7.895928E-06 -0.2801321
vn -0.95997685 -8.5934844E-05 -0.2800793
vn 0.97165257 -0.000111299974 -0.2364134
vn 0.97165257 -0.000111299974 -0.23641337
vn 0.97165257 -0.00011129998 -0.2364134
vn 0.97165257 -0.000111299974 -0.23641337
vn 0.97100943 -7.971267E-05 -0.23904082
vn 0.97100943 -7.971267E-05 -0.23904082
vn 0.97100943 -7.971267E-05 -0.23904082
vn 0.9590292 5.596741E-07 0.2833075
vn 0.9590292 5.596741E-07 0.2833075
vn 0.9590292 5.596741E-07 0.2833075
vn 0.9590292 5.596741E-07 0.2833075
vn 0.9600144 7.744635E-05 0.27995056
vn 0.9600144 7.744634E-05 0.27995056
vn 0.9600144 7.744634E-05 0.27995056
vn 0.95999885 5.2095143E-06 0.28000417
vn 0.9589509 0.00014267443 0.28357205
vn 0.9589509 0.00014267444 0.28357205
vn 0.9589509 0.00014267444 0.28357205
vn 0.9589509 0.00014267443 0.28357208
vn -0.8659034 0 -0.5002113
vn -0.8659033 0 -0.5002113
vn -0.8659034 0 -0.5002113
vn -0.49996856 0 0.86604357
vn -0.49996856 0 0.86604357
vn -0.49996856 0 0.86604357
vn -0.49996856 0 0.86604357
vn -0.00015358404 1.3867591E-06 1
vn -0.00015358404 1.3867591E-06 1
vn -0.00015358404 1.386759E-06 1
vn -0.00015358404 1.3867591E-06 1
vn 0.8657467 -8.449501E-07 0.5004826
vn 0.8657467 -8.449501E-07 0.50048256
vn 0.8657467 -8.449501E-07 0.50048256
vn 0.8657467 -8.449501E-07 0.5004826
vn -0.095548436 -0.25463095 -0.96230644
vn -0.095548436 -0.25463095 -0.96230644
vn -0.09554845 -0.25463095 -0.96230644
vn -0.09381128 -0.2499807 -0.96369565
vn -0.06314134 -0.94723874 -0.31424832
vn -0.06314134 -0.9472386 -0.31424835
vn -0.06314133 -0.9472386 -0.31424835
vn -0.034016497 -0.91987187 -0.39074093
vn -0.034016494 -0.91987187 -0.39074093
vn -0.034016497 -0.91987187 -0.3907409
vn -0.034016494 -0.91987187 -0.39074096
vn -0.35365453 -0.7399477 -0.5721938
vn -0.35365453 -0.7399477 -0.5721938
vn -0.35365453 -0.7399477 -0.5721938
vn -0.35347676 -0.7401173 -0.5720845
vn -0.039588355 0.8965927 -0.4410831
vn -0.03958836 0.8965927 -0.44108313
vn -0.039588355 0.8965927 -0.4410831
vn -0.039588355 0.8965927 -0.4410831
vn -0.22150722 -0.0042463257 -0.97514945
vn -0.22150722 -0.0042463257 -0.97514945
vn -0.22150722 -0.0042463257 -0.97514945
vn -0.22150724 -0.0042463257 -0.97514945
vn -0.011003904 0.8548236 -0.518802
vn -0.011003904 0.8548236 -0.5188019
vn -0.011003904 0.8548236 -0.518802
vn 0.004817203 -0.27096698 -0.9625765
vn 0.004817203 -0.270967 -0.9625765
vn 0.004817204 -0.27096704 -0.9625765
vn -0.027243372 0.8980268 -0.43909618
vn -0.02724337 0.89802694 -0.4390962
vn -0.02724337 0.8980268 -0.43909618
vn -0.05571748 0.99815625 -0.02407781
vn -0.055717487 0.99815625 -0.024077812
vn -0.05571748 0.99815625 -0.02407781
vn -0.024328103 0.892784 -0.44982767
vn -0.024328103 0.892784 -0.4498276
vn -0.024328103 0.892784 -0.4498276
vn -0.024328103 0.892784 -0.44982767
vn -0.02047912 0.89352775 -0.44854075
vn 0.0065172147 0.8894349 -0.45701537
vn 0.0065172147 0.8894349 -0.45701537
vn 0.0065172147 0.8894349 -0.45701537
vn 0.0065172156 0.8894349 -0.45701537
vn 0.80743456 0.007820089 -0.58990526
vn 0.7119833 -0.040930595 -0.7010025
vn 0.1942181 -0.21379554 -0.95737696
vn -0.016062554 -0.2586978 -0.9658247
vn -0.0012659583 0.8904074 -0.45516282
vn -0.0012659583 0.89040726 -0.45516282
vn -0.0012659585 0.8904074 -0.45516282
vn -0.0012659585 0.8904074 -0.45516282
vn -0.0189725 -0.2670957 -0.9634832
vn -0.018972497 -0.26709574 -0.9634832
vn -0.018972496 -0.2670957 -0.9634832
vn -0.00617075 -0.9277493 -0.37315288
vn -0.00617075 -0.9277493 -0.37315285
vn -0.00617075 -0.9277493 -0.37315288
vn 0.0046263556 -0.9175295 -0.39764082
vn -0.006273533 -0.25373197 -0.9672542
vn -0.006273533 -0.25373197 -0.9672542
vn -0.0062735346 -0.253732 -0.9672542
vn -0.032082602 -0.8766596 -0.48004037
vn -0.032082602 -0.8766596 -0.48004037
vn -0.0320826 -0.8766596 -0.4800403
vn 0.019552685 -0.2636922 -0.9644087
vn 0.019552685 -0.2636922 -0.9644087
vn 0.019552685 -0.2636922 -0.9644087
vn 0.019552687 -0.2636922 -0.9644087
vn 0.9710876 -6.3979775E-07 -0.23872371
vn 0.9710876 -6.397978E-07 -0.23872371
vn 0.9710876 -6.397978E-07 -0.23872371
vn 0.9710807 -7.443336E-06 -0.2387515
vn 0.9710807 -7.443336E-06 -0.23875149
vn 0.9710807 -7.443337E-06 -0.2387515
g Stage_Dominating_Theater_Boss_P1_Fragment11_0
f 3/3/3 2/2/2 1/1/1
f 4/4/4 3/3/3 1/1/1
f 7/7/7 6/6/6 5/5/5
f 8/8/8 7/7/7 5/5/5
f 9/9/9 5/5/5 6/6/6
f 12/12/12 11/11/11 10/10/10
f 13/13/13 12/12/12 10/10/10
f 14/14/14 12/12/12 13/13/13
f 17/17/17 16/16/16 15/15/15
f 18/18/18 17/17/17 15/15/15
f 21/21/21 20/20/20 19/19/19
f 22/22/22 21/21/21 19/19/19
f 25/25/25 24/24/24 23/23/23
f 26/26/26 25/25/25 23/23/23
f 29/29/29 28/28/28 27/27/27
f 30/30/30 29/29/29 27/27/27
f 31/31/31 28/28/28 29/29/29
f 34/34/34 33/33/33 32/32/32
f 35/35/35 34/34/34 32/32/32
f 38/38/38 37/37/37 36/36/36
f 41/41/41 40/40/40 39/39/39
f 42/42/42 41/41/41 39/39/39
f 45/45/45 44/44/44 43/43/43
f 46/46/46 45/45/45 43/43/43
f 49/49/49 48/48/48 47/47/47
f 50/50/50 49/49/49 47/47/47
f 53/53/53 52/52/52 51/51/51
f 56/56/56 55/55/55 54/54/54
f 57/57/57 56/56/56 54/54/54
f 60/60/60 59/59/59 58/58/58
f 61/61/61 60/60/60 58/58/58
f 64/64/64 63/63/63 62/62/62
f 65/65/65 64/64/64 62/62/62
f 68/68/68 67/67/67 66/66/66
f 69/69/69 67/67/67 68/68/68
f 72/72/72 71/71/71 70/70/70
f 75/75/75 74/74/74 73/73/73
f 76/76/76 75/75/75 73/73/73
f 79/79/79 78/78/78 77/77/77
f 78/78/78 80/80/80 77/77/77
f 83/83/83 82/82/82 81/81/81
f 84/84/84 83/83/83 81/81/81
f 87/87/87 86/86/86 85/85/85
f 88/88/88 87/87/87 85/85/85
f 91/91/91 90/90/90 89/89/89
f 94/94/94 93/93/93 92/92/92
f 97/97/97 96/96/96 95/95/95
f 100/100/100 99/99/99 98/98/98
f 103/103/103 102/102/102 101/101/101
f 104/104/104 103/103/103 101/101/101
f 105/105/105 104/104/104 101/101/101
f 108/108/108 107/107/107 106/106/106
f 109/109/109 108/108/108 106/106/106
f 112/112/112 111/111/111 110/110/110
f 113/113/113 111/111/111 112/112/112
f 116/116/116 115/115/115 114/114/114
f 117/117/117 116/116/116 114/114/114
f 120/120/120 119/119/119 118/118/118
f 123/123/123 122/122/122 121/121/121
f 124/124/124 123/123/123 121/121/121
f 127/127/127 126/126/126 125/125/125
f 130/130/130 129/129/129 128/128/128
f 133/133/133 132/132/132 131/131/131
f 134/134/134 133/133/133 131/131/131
f 137/137/137 136/136/136 135/135/135
f 140/140/140 139/139/139 138/138/138
