g Stage_Dominating_Theater_CG_Crushed_Ston_C_06
v -0.059718113 0.012545407 0.15489769
v -0.10053312 0.012545399 0.1658837
v -0.25802055 0.012545311 -0.012892379
v -0.22862184 0.012545288 -0.060740583
v -0.24611911 0.012545299 -0.047665175
v -0.016720809 0.01254539 0.100153886
v -0.06725094 0.012545173 -0.15766059
v 0.068107605 0.012545378 0.06088142
v -0.0076990128 0.01254513 -0.1658837
v 0.19198494 0.012545321 -0.105977856
v 0.12937252 0.01254539 0.07109245
v 0.20591179 0.012545335 -0.034961164
v 0.19770652 0.012545385 0.052241437
v 0.25802055 0.012545385 0.044039384
v 0.10973636 0.012545392 0.08051765
v -0.1872778 0.012545254 -0.107372664
v -0.06725094 0.012545173 -0.15766059
v -0.06725094 -0.012545362 -0.15766059
v -0.007699032 -0.012545407 -0.1658837
v -0.0076990128 0.01254513 -0.1658837
v -0.1872778 0.012545254 -0.107372664
v -0.1872778 -0.012545281 -0.107372664
v -0.06725094 -0.012545362 -0.15766059
v -0.06725094 0.012545173 -0.15766059
v -0.22862184 0.012545288 -0.060740583
v -0.22862183 -0.01254525 -0.060740583
v -0.1872778 -0.012545281 -0.107372664
v -0.1872778 0.012545254 -0.107372664
v -0.24611911 0.012545299 -0.047665175
v -0.24611911 -0.012545236 -0.047665175
v -0.22862183 -0.01254525 -0.060740583
v -0.22862184 0.012545288 -0.060740583
v -0.25802055 0.012545311 -0.012892379
v -0.25802055 -0.012545224 -0.012892453
v -0.24611911 -0.012545236 -0.047665175
v -0.24611911 0.012545299 -0.047665175
v 0.20591179 0.012545335 -0.034961164
v 0.20591179 -0.012545202 -0.03496116
v 0.25802052 -0.012545152 0.044039384
v 0.25802055 0.012545385 0.044039384
v -0.0076990128 0.01254513 -0.1658837
v -0.007699032 -0.012545407 -0.1658837
v 0.19198497 -0.012545215 -0.105977856
v 0.19198494 0.012545321 -0.105977856
v 0.19198494 0.012545321 -0.105977856
v 0.19198497 -0.012545215 -0.105977856
v 0.20591179 -0.012545202 -0.03496116
v 0.20591179 0.012545335 -0.034961164
v 0.25802055 0.012545385 0.044039384
v 0.25802052 -0.012545152 0.044039384
v 0.19770652 -0.012545152 0.052241437
v 0.19770652 0.012545385 0.052241437
v 0.19770652 0.012545385 0.052241437
v 0.19770652 -0.012545152 0.052241437
v 0.12937252 -0.012545148 0.07109245
v 0.12937252 0.01254539 0.07109245
v 0.12937252 0.01254539 0.07109245
v 0.12937252 -0.012545148 0.07109245
v 0.10973638 -0.012545144 0.08051765
v 0.10973636 0.012545392 0.08051765
v 0.10973636 0.012545392 0.08051765
v 0.10973638 -0.012545144 0.08051765
v 0.06810764 -0.012545158 0.06088142
v 0.068107605 0.012545378 0.06088142
v 0.068107605 0.012545378 0.06088142
v 0.06810764 -0.012545158 0.06088142
v -0.01672079 -0.012545148 0.100153886
v -0.016720809 0.01254539 0.100153886
v -0.10053312 0.012545399 0.1658837
v -0.10053311 -0.012545136 0.1658837
v -0.25802055 -0.012545224 -0.012892453
v -0.25802055 0.012545311 -0.012892379
v -0.059718113 0.012545407 0.15489769
v -0.059718102 -0.012545131 0.15489769
v -0.10053311 -0.012545136 0.1658837
v -0.10053312 0.012545399 0.1658837
v -0.016720809 0.01254539 0.100153886
v -0.01672079 -0.012545148 0.100153886
v -0.059718102 -0.012545131 0.15489769
v -0.059718113 0.012545407 0.15489769
v -0.059718102 -0.012545131 0.15489769
v -0.22862183 -0.01254525 -0.060740583
v -0.25802055 -0.012545224 -0.012892453
v -0.10053311 -0.012545136 0.1658837
v -0.24611911 -0.012545236 -0.047665175
v -0.01672079 -0.012545148 0.100153886
v -0.06725094 -0.012545362 -0.15766059
v 0.06810764 -0.012545158 0.06088142
v -0.007699032 -0.012545407 -0.1658837
v 0.19198497 -0.012545215 -0.105977856
v 0.12937252 -0.012545148 0.07109245
v 0.20591179 -0.012545202 -0.03496116
v 0.19770652 -0.012545152 0.052241437
v 0.25802052 -0.012545152 0.044039384
v 0.10973638 -0.012545144 0.08051765
v -0.1872778 -0.012545281 -0.107372664
vt 0.75366247 0.4276033
vt 0.74804133 0.4568948
vt 0.878312 0.55922025
vt 0.9097622 0.5361486
vt 0.90161884 0.5491263
vt 0.78919905 0.39460552
vt 0.968615 0.41761822
vt 0.8121202 0.33286867
vt 0.9714231 0.37522405
vt 0.92077786 0.23735318
vt 0.8021903 0.29016876
vt 0.87135625 0.23100856
vt 0.81187654 0.24106205
vt 0.8146336 0.19813153
vt 0.7966548 0.3044761
vt 0.93980837 0.5047136
vt 1.580452 0.8973207
vt 1.5750176 0.78793746
vt 1.4753697 0.7879546
vt 1.4808047 0.8973378
vt 1.7939667 0.8972856
vt 1.7885314 0.787902
vt 1.5750176 0.78793746
vt 1.580452 0.8973207
vt 1.8928038 0.8972689
vt 1.8873677 0.7878851
vt 1.7885314 0.787902
vt 1.7939667 0.8972856
vt 1.9280331 0.8972624
vt 1.9225982 0.7878791
vt 1.8873677 0.7878851
vt 1.8928038 0.8972689
vt 1.9846317 0.8972534
vt 1.9791956 0.7878697
vt 1.9225982 0.7878791
vt 1.9280331 0.8972624
vt 1.0261708 0.8974142
vt 1.020731 0.78803056
vt 0.87239134 0.7880553
vt 0.8778323 0.8974386
vt 1.4808047 0.8973378
vt 1.4753697 0.7879546
vt 1.1314878 0.78801197
vt 1.1369247 0.89739525
vt 1.1369247 0.89739525
vt 1.1314878 0.78801197
vt 1.020731 0.78803056
vt 1.0261708 0.8974142
vt 0.71768343 0.8456109
vt 0.72311836 0.9549945
vt 0.8240321 0.95497835
vt 0.8185984 0.8455949
vt 0.8185984 0.8455949
vt 0.8240321 0.95497835
vt 0.94106615 0.95495987
vt 0.93563086 0.8455763
vt 0.93563086 0.8455763
vt 0.94106615 0.95495987
vt 0.9766831 0.95495456
vt 0.97124904 0.84557116
vt 0.97124904 0.84557116
vt 0.9766831 0.95495456
vt 1.0519916 0.954943
vt 1.0465574 0.8455599
vt 1.0465574 0.8455599
vt 1.0519916 0.954943
vt 1.2050245 0.954919
vt 1.1995906 0.84553564
vt 1.3792343 0.8455074
vt 1.3846672 0.954891
vt 1.7624598 0.95483035
vt 1.7570266 0.8454468
vt 1.3094352 0.84551847
vt 1.314869 0.9549019
vt 1.3846672 0.954891
vt 1.3792343 0.8455074
vt 1.1995906 0.84553564
vt 1.2050245 0.954919
vt 1.314869 0.9549019
vt 1.3094352 0.84551847
vt 0.75366247 0.4276033
vt 0.9097622 0.5361486
vt 0.878312 0.55922025
vt 0.74804133 0.4568948
vt 0.90161884 0.5491263
vt 0.78919905 0.39460552
vt 0.968615 0.41761822
vt 0.8121202 0.33286867
vt 0.9714231 0.37522405
vt 0.92077786 0.23735318
vt 0.8021903 0.29016876
vt 0.87135625 0.23100856
vt 0.81187654 0.24106205
vt 0.8146336 0.19813153
vt 0.7966548 0.3044761
vt 0.93980837 0.5047136
vn -1.1986327E-07 1 -4.2671326E-07
vn -1.1986327E-07 1 -4.2671326E-07
vn -1.1986327E-07 1 -4.267133E-07
vn -1.1986327E-07 1 -4.2671326E-07
vn 5.712138E-07 1 -1.4731815E-07
vn -0 1 -9.748353E-07
vn -0 1 -9.748354E-07
vn -5.639197E-07 1 -7.624899E-07
vn -5.639197E-07 1 -7.6248995E-07
vn 1.4541139E-07 1 -4.1211786E-07
vn 1.4541138E-07 1 -4.1211786E-07
vn -0 1 -5.8159804E-07
vn -0 1 -5.8159804E-07
vn -0 1 -5.8159804E-07
vn -5.639197E-07 1 -7.6248995E-07
vn 5.973753E-07 1 -1.8615266E-07
vn -0.13678524 0 -0.9906007
vn -0.13678524 0 -0.9906007
vn -0.13678522 0 -0.9906007
vn -0.13678524 0 -0.9906007
vn -0.3864267 0 -0.9223202
vn -0.3864267 0 -0.9223202
vn -0.3864267 0 -0.9223202
vn -0.3864267 0 -0.9223202
vn -0.74825877 -3.0494897E-07 -0.66340697
vn -0.7482588 -3.04949E-07 -0.6634069
vn -0.74825877 -3.0494903E-07 -0.66340697
vn -0.7482588 -3.04949E-07 -0.6634069
vn -0.5986058 -2.2838894E-07 -0.80104375
vn -0.59860575 -2.2838893E-07 -0.80104375
vn -0.5986058 -2.2838894E-07 -0.80104375
vn -0.59860575 -2.2838893E-07 -0.80104375
vn -0.94611824 4.783086E-07 -0.3238215
vn -0.94611824 4.783086E-07 -0.32382143
vn -0.94611824 4.783086E-07 -0.3238215
vn -0.94611824 4.7830866E-07 -0.3238215
vn 0.83476293 -3.6146446E-07 -0.5506096
vn 0.83476293 -3.6146446E-07 -0.55060947
vn 0.83476293 -3.6146446E-07 -0.5506095
vn 0.8347629 -3.614645E-07 -0.5506096
vn 0.28735074 1.09391735E-07 -0.9578254
vn 0.28735074 1.09391735E-07 -0.9578254
vn 0.28735074 1.09391735E-07 -0.9578254
vn 0.28735077 1.0939174E-07 -0.9578254
vn 0.9813085 7.156023E-07 -0.1924409
vn 0.9813085 7.1560225E-07 -0.19244088
vn 0.9813085 7.1560225E-07 -0.1924409
vn 0.9813085 7.1560225E-07 -0.1924409
vn 0.13474898 0 0.9908798
vn 0.13474898 0 0.9908798
vn 0.13474898 0 0.9908798
vn 0.13474898 0 0.9908798
vn 0.2659323 0 0.96399176
vn 0.26593232 0 0.96399176
vn 0.2659323 0 0.96399176
vn 0.26593232 0 0.96399176
vn 0.43272555 1.6359998E-07 0.9015257
vn 0.43272564 1.636E-07 0.9015257
vn 0.43272564 1.6360002E-07 0.9015257
vn 0.43272555 1.6359999E-07 0.9015257
vn -0.42661917 -4.954772E-07 0.90443134
vn -0.42661914 -4.9547714E-07 0.90443134
vn -0.42661917 -4.9547714E-07 0.90443134
vn -0.42661914 -4.9547714E-07 0.90443134
vn 0.42012396 4.879335E-07 0.9074667
vn 0.42012396 4.8793356E-07 0.9074667
vn 0.42012402 4.8793356E-07 0.9074667
vn 0.42012402 4.8793356E-07 0.9074667
vn -0.75037116 -1.148654E-06 0.66101676
vn -0.75037116 -1.148654E-06 0.66101676
vn -0.75037116 -1.148654E-06 0.66101676
vn -0.75037116 -1.148654E-06 0.66101676
vn 0.25991538 0 0.9656314
vn 0.25991535 0 0.9656314
vn 0.25991535 0 0.9656314
vn 0.25991535 0 0.9656314
vn 0.7864278 4.6412282E-07 0.6176822
vn 0.7864278 4.6412282E-07 0.6176823
vn 0.7864278 4.6412282E-07 0.6176822
vn 0.7864278 4.6412282E-07 0.6176823
vn -0 -1 4.599007E-07
vn -0 -1 4.599007E-07
vn -0 -1 4.599007E-07
vn -0 -1 4.599007E-07
vn -7.5430086E-07 -1 0
vn -0 -1 9.703041E-07
vn -0 -1 9.703041E-07
vn 5.65055E-07 -1 7.575574E-07
vn 5.6505496E-07 -1 7.575574E-07
vn -1.4052138E-07 -1 4.044066E-07
vn -1.4052138E-07 -1 4.044066E-07
vn -0 -1 5.8159804E-07
vn -0 -1 5.8159804E-07
vn -0 -1 5.8159804E-07
vn 5.65055E-07 -1 7.575575E-07
vn -6.3145586E-07 -1 1.04809466E-07
g Stage_Dominating_Theater_CG_Crushed_Ston_C_06_0
f 3/3/3 2/2/2 1/1/1
f 4/4/4 3/3/3 1/1/1
f 5/5/5 3/3/3 4/4/4
f 6/6/6 4/4/4 1/1/1
f 7/7/7 4/4/4 6/6/6
f 7/7/7 6/6/6 8/8/8
f 9/9/9 7/7/7 8/8/8
f 10/10/10 9/9/9 8/8/8
f 8/8/8 11/11/11 10/10/10
f 12/12/12 10/10/10 11/11/11
f 13/13/13 12/12/12 11/11/11
f 14/14/14 12/12/12 13/13/13
f 8/8/8 15/15/15 11/11/11
f 16/16/16 4/4/4 7/7/7
f 19/19/19 18/18/18 17/17/17
f 20/20/20 19/19/19 17/17/17
f 23/23/23 22/22/22 21/21/21
f 24/24/24 23/23/23 21/21/21
f 27/27/27 26/26/26 25/25/25
f 28/28/28 27/27/27 25/25/25
f 31/31/31 30/30/30 29/29/29
f 32/32/32 31/31/31 29/29/29
f 35/35/35 34/34/34 33/33/33
f 36/36/36 35/35/35 33/33/33
f 39/39/39 38/38/38 37/37/37
f 40/40/40 39/39/39 37/37/37
f 43/43/43 42/42/42 41/41/41
f 44/44/44 43/43/43 41/41/41
f 47/47/47 46/46/46 45/45/45
f 48/48/48 47/47/47 45/45/45
f 51/51/51 50/50/50 49/49/49
f 52/52/52 51/51/51 49/49/49
f 55/55/55 54/54/54 53/53/53
f 56/56/56 55/55/55 53/53/53
f 59/59/59 58/58/58 57/57/57
f 60/60/60 59/59/59 57/57/57
f 63/63/63 62/62/62 61/61/61
f 64/64/64 63/63/63 61/61/61
f 67/67/67 66/66/66 65/65/65
f 68/68/68 67/67/67 65/65/65
f 71/71/71 70/70/70 69/69/69
f 72/72/72 71/71/71 69/69/69
f 75/75/75 74/74/74 73/73/73
f 76/76/76 75/75/75 73/73/73
f 79/79/79 78/78/78 77/77/77
f 80/80/80 79/79/79 77/77/77
f 83/83/83 82/82/82 81/81/81
f 84/84/84 83/83/83 81/81/81
f 83/83/83 85/85/85 82/82/82
f 82/82/82 86/86/86 81/81/81
f 82/82/82 87/87/87 86/86/86
f 86/86/86 87/87/87 88/88/88
f 87/87/87 89/89/89 88/88/88
f 88/88/88 89/89/89 90/90/90
f 90/90/90 91/91/91 88/88/88
f 90/90/90 92/92/92 91/91/91
f 92/92/92 93/93/93 91/91/91
f 92/92/92 94/94/94 93/93/93
f 91/91/91 95/95/95 88/88/88
f 82/82/82 96/96/96 87/87/87
