g Stage_Dominating_Theater01_Collider
v 11.291116 -0.009395163 1.7251581E-07
v 8.649498 -0.009394388 -7.2577896
v 10.610178 -0.009394 -3.8617895
v 1.9606764 -0.009397488 11.119579
v -10.610179 -0.009396713 3.861787
v -5.645559 -0.009393613 -9.778393
v 1.9606807 -0.009393225 -11.119579
v 5.6455574 -0.009393613 -9.778395
v -1.960683 -0.009393225 -11.119577
v -10.610178 -0.009394 -3.8617902
v -8.649498 -0.009394388 -7.2577896
v -11.291116 -0.009395163 -1.5323957E-06
v -5.6455617 -0.009396713 9.778391
v -8.649499 -0.009396326 7.257787
v -1.9606864 -0.009397488 11.119577
v 8.649492 -0.009396326 7.257795
v 5.645552 -0.009396713 9.778396
v 10.610175 -0.009396713 3.8617969
v 11.291116 -0.009395163 1.7251581E-07
v 10.610178 9.08831 -3.8617883
v 11.291116 9.088308 1.6547202E-06
v 10.610178 -0.009394 -3.8617895
v 8.649498 9.088308 -7.2577825
v 8.649498 -0.009394388 -7.2577896
v 5.6455574 9.088312 -9.778387
v 5.6455574 -0.009393613 -9.778395
v 1.9606807 9.088312 -11.119573
v 1.9606807 -0.009393225 -11.119579
v 10.610175 -0.009396713 3.8617969
v 10.610175 9.088308 3.861798
v 8.649492 -0.009396326 7.257795
v 8.649492 9.088308 7.257802
v 5.645552 -0.009396713 9.778396
v 5.645552 9.088305 9.778402
v 1.9606764 -0.009397488 11.119579
v 1.9606764 9.0883045 11.119586
v -1.9606864 -0.009397488 11.119577
v -1.9606864 9.0883045 11.119585
v -5.6455617 -0.009396713 9.778391
v -5.6455617 9.088305 9.778398
v -8.649499 -0.009396326 7.257787
v -8.649499 9.088308 7.257794
v -10.610179 -0.009396713 3.861787
v -10.610179 9.088308 3.861789
v -11.291116 -0.009395163 -1.5323957E-06
v -11.291116 9.088308 -5.0191254E-08
v -10.610178 -0.009394 -3.8617902
v -10.610178 9.08831 -3.861789
v -8.649498 -0.009394388 -7.2577896
v -8.649498 9.088308 -7.2577825
v -5.645559 -0.009393613 -9.778393
v -5.645559 9.088312 -9.778386
v -1.960683 -0.009393225 -11.119577
v -1.960683 9.088312 -11.119571
v 1.9606807 -0.009393225 -11.119579
v 1.9606807 9.088312 -11.119573
vt 0.75 0
vt 0.8611111 0
vt 0.8055556 0
vt 0.02917886 0
vt 0.33244985 0
vt 0.9126314 0
vt 0.9722222 0
vt 0.9166667 0
vt 0.9708208 0
vt 0.6599656 0
vt 0.80467254 0
vt 0.49596435 0
vt 0.08333283 0
vt 0.18914455 0
vt 0.027777448 0
vt 0.19532722 0
vt 0.08736831 0
vt 0.3400342 0
vt 0.75 0
vt 0.8055556 1
vt 0.75 1
vt 0.8055556 0
vt 0.8611111 1
vt 0.8611111 0
vt 0.9166667 1
vt 0.9166667 0
vt 0.9722222 1
vt 0.9722222 0
vt 0.69444436 0
vt 0.69444436 1
vt 0.6388888 0
vt 0.6388888 1
vt 0.58333325 0
vt 0.58333325 1
vt 0.5277777 0
vt 0.5277777 1
vt 0.47222215 0
vt 0.47222215 1
vt 0.41666663 0
vt 0.41666663 1
vt 0.36111107 0
vt 0.36111107 1
vt 0.30555552 0
vt 0.30555552 1
vt 0.24999997 0
vt 0.24999997 1
vt 0.19444445 0
vt 0.19444445 1
vt 0.1388889 0
vt 0.1388889 1
vt 0.08333334 0
vt 0.08333334 1
vt 0.02777782 0
vt 0.02777782 1
vt -0.027777791 0
vt -0.027777791 1
vn -0 1 0
vn -0 1 0
vn -1.0353764E-06 1 4.8364814E-07
vn -0 1 0
vn -0 1 0
vn -0 1 0
vn -0 1 2.99139E-07
vn -0 1 3.217308E-07
vn -0 1 2.8897858E-07
vn 2.7287817E-07 1 2.9741304E-07
vn -6.8627605E-07 1 -5.1034795E-07
vn 2.8458786E-07 1 3.512638E-07
vn -0 1 0
vn 4.3601392E-07 1 -3.6585888E-07
vn -0 1 5.779561E-07
vn -0 1 0
vn -2.72667E-07 1 0
vn 1.2856343E-06 1 6.28136E-07
vn -1 0 0
vn -0.93969256 0 0.34202036
vn -1 0 0
vn -0.93969256 0 0.34202015
vn -0.7660444 -3.727125E-07 0.64278764
vn -0.7660445 -4.9290355E-07 0.6427875
vn -0.4999999 -6.6408717E-07 0.86602545
vn -0.49999985 -6.640872E-07 0.8660255
vn -0.17364798 -7.5517215E-07 0.98480785
vn -0.17364791 -7.551722E-07 0.98480785
vn -0.93969244 0 -0.34202066
vn -0.93969256 0 -0.34202045
vn -0.7660441 3.727127E-07 -0.6427881
vn -0.76604414 4.929039E-07 -0.64278793
vn -0.4999995 6.6408745E-07 -0.8660257
vn -0.4999995 6.640875E-07 -0.8660257
vn -0.17364787 7.551724E-07 -0.98480785
vn -0.1736479 7.5517244E-07 -0.98480785
vn 0.17364864 7.5517215E-07 -0.9848077
vn 0.17364864 7.5517215E-07 -0.9848077
vn 0.5000004 6.640873E-07 -0.86602527
vn 0.5000004 6.640872E-07 -0.86602527
vn 0.76604474 4.929035E-07 -0.64278734
vn 0.7660448 3.8873787E-07 -0.64278716
vn 0.93969274 0 -0.3420199
vn 0.93969285 0 -0.34201962
vn 1 0 0
vn 1 0 0
vn 0.9396926 0 0.34202015
vn 0.93969256 0 0.34202042
vn 0.7660443 -3.7271266E-07 0.6427877
vn 0.7660443 -4.9290367E-07 0.6427878
vn 0.49999997 -6.640872E-07 0.86602545
vn 0.4999999 -6.640871E-07 0.86602545
vn 0.17364831 -7.551719E-07 0.9848077
vn 0.17364834 -7.55172E-07 0.9848077
vn -0.17364791 -7.551722E-07 0.98480785
vn -0.17364798 -7.5517215E-07 0.98480785
g Stage_Dominating_Theater01_Collider_0
f 3/3/3 2/2/2 1/1/1
f 2/2/2 4/4/4 1/1/1
f 5/5/5 4/4/4 2/2/2
f 6/6/6 5/5/5 2/2/2
f 7/7/7 6/6/6 2/2/2
f 8/8/8 7/7/7 2/2/2
f 9/9/9 6/6/6 7/7/7
f 10/10/10 5/5/5 6/6/6
f 11/11/11 10/10/10 6/6/6
f 12/12/12 5/5/5 10/10/10
f 13/13/13 4/4/4 5/5/5
f 14/14/14 13/13/13 5/5/5
f 15/15/15 4/4/4 13/13/13
f 4/4/4 16/16/16 1/1/1
f 17/17/17 16/16/16 4/4/4
f 1/1/1 16/16/16 18/18/18
f 21/21/21 20/20/20 19/19/19
f 22/22/22 19/19/19 20/20/20
f 20/20/20 23/23/23 22/22/22
f 24/24/24 22/22/22 23/23/23
f 23/23/23 25/25/25 24/24/24
f 26/26/26 24/24/24 25/25/25
f 25/25/25 27/27/27 26/26/26
f 28/28/28 26/26/26 27/27/27
f 19/19/19 29/29/29 21/21/21
f 30/30/30 21/21/21 29/29/29
f 29/29/29 31/31/31 30/30/30
f 32/32/32 30/30/30 31/31/31
f 31/31/31 33/33/33 32/32/32
f 34/34/34 32/32/32 33/33/33
f 33/33/33 35/35/35 34/34/34
f 36/36/36 34/34/34 35/35/35
f 35/35/35 37/37/37 36/36/36
f 38/38/38 36/36/36 37/37/37
f 37/37/37 39/39/39 38/38/38
f 40/40/40 38/38/38 39/39/39
f 39/39/39 41/41/41 40/40/40
f 42/42/42 40/40/40 41/41/41
f 41/41/41 43/43/43 42/42/42
f 44/44/44 42/42/42 43/43/43
f 43/43/43 45/45/45 44/44/44
f 46/46/46 44/44/44 45/45/45
f 45/45/45 47/47/47 46/46/46
f 48/48/48 46/46/46 47/47/47
f 47/47/47 49/49/49 48/48/48
f 50/50/50 48/48/48 49/49/49
f 49/49/49 51/51/51 50/50/50
f 52/52/52 50/50/50 51/51/51
f 51/51/51 53/53/53 52/52/52
f 54/54/54 52/52/52 53/53/53
f 53/53/53 55/55/55 54/54/54
f 56/56/56 54/54/54 55/55/55
