g Stage_Dominating_Theater_Inside02_Mirror05_Ref
v 0.59635377 -5.9303956 -1.6883813
v 0.5887982 5.41062 -1.6912206
v -0.004697876 6.8103757 -0.0017602539
v 0.004364624 -6.8103757 0.0016430664
v -0.59635377 5.4106884 1.6884204
v -0.5888 -5.930327 1.6912719
vt 0.4936018 0.036751717
vt 0.4936018 0.44327337
vt 0.42116284 0.493447
vt 0.42116284 0.005207509
vt 0.34872365 0.44327337
vt 0.34872377 0.036751717
vn -0.94366 -0.00071099016 -0.3309159
vn -0.94366 -0.00071099016 -0.3309159
vn -0.9436598 -0.00071103673 -0.33091646
vn -0.9436598 -0.0007110367 -0.33091646
vn -0.9436596 -0.00071108335 -0.33091706
vn -0.9436596 -0.00071108335 -0.3309171
g Stage_Dominating_Theater_Inside02_Mirror05_Ref_0
f 3/3/3 2/2/2 1/1/1
f 4/4/4 3/3/3 1/1/1
f 5/5/5 3/3/3 4/4/4
f 6/6/6 5/5/5 4/4/4
