g Stage_Dominating_Theater_Inside02_Mirror04_Ref
v -1.651687 -5.9303904 0.6915747
v -1.6487268 5.41062 0.69909424
v 0.0018310547 6.8103757 0.004707031
v -0.0017077636 -6.8103757 -0.0043237302
v 1.6516882 5.4106884 -0.6915259
v 1.648739 -5.930327 -0.69905025
vt 0.4936018 0.036751717
vt 0.4936018 0.44327337
vt 0.42116284 0.493447
vt 0.42116284 0.005207509
vt 0.34872365 0.44327337
vt 0.34872377 0.036751717
vn 0.38829115 -0.00071209826 0.92153656
vn 0.38829115 -0.00071209826 0.92153656
vn 0.38828737 -0.0007121022 0.92153805
vn 0.3882874 -0.0007121023 0.92153805
vn 0.38828367 -0.0007121065 0.9215396
vn 0.38828367 -0.0007121065 0.9215396
g Stage_Dominating_Theater_Inside02_Mirror04_Ref_0
f 3/3/3 2/2/2 1/1/1
f 4/4/4 3/3/3 1/1/1
f 5/5/5 3/3/3 4/4/4
f 6/6/6 5/5/5 4/4/4
