g Stage_Dominating_Theater_Boss_P2_Fragment07
v -0.4881152 0.5332911 -0.28218973
v -0.50514257 0.5879688 0.31903586
v -0.6101728 0.48539072 0.32055444
v -0.6731803 0.24425793 -0.3353733
v -0.60947925 0.34771496 -0.33704078
v -0.5941225 0.3579005 -0.27937722
v -0.67468 0.33587903 0.01747092
v -0.5941225 0.3579005 -0.27937722
v -0.6101728 0.48539072 0.32055444
v -0.6731803 0.24425793 -0.3353733
v -0.5941225 0.3579005 -0.27937722
v -0.4881152 0.5332911 -0.28218973
v -0.6101728 0.48539072 0.32055444
v -0.67468 0.33587903 0.01747092
v -0.6101728 0.48539072 0.32055444
v -0.67558575 0.35873058 0.3226516
v -0.50514257 0.5879688 0.31903586
v -0.4881152 0.5332911 -0.28218973
v -0.45657954 0.8463771 -0.28760478
v -0.4713718 0.8523048 0.31448507
v -0.25161508 -0.8020897 -0.2581565
v -0.5941225 0.3579005 -0.27937722
v -0.5856268 -0.8497069 -0.25817606
v -0.4881152 0.5332911 -0.28218973
v -0.262797 0.7905763 -0.28614235
v -0.45657954 0.8463771 -0.28760478
v -0.60947925 0.34771496 -0.33704078
v -0.5856268 -0.8497069 -0.25817606
v -0.5941225 0.3579005 -0.27937722
v -0.60104316 -0.85203105 -0.31594217
v -0.2394091 0.02480481 0.09002707
v -0.23534043 -0.59460926 0.21592061
v -0.23505971 -0.58585924 0.0896218
v -0.23971099 0.024755983 0.21636984
v -0.24506462 0.78164077 0.21646506
v -0.244235 0.70692396 0.09013694
v -0.67558575 0.35873058 0.3226516
v -0.6667088 -0.8600584 0.21864523
v -0.67468 0.33587903 0.01747092
v -0.6670168 -0.85979474 0.3440676
v -0.6657656 -0.86090803 -0.1721409
v -0.6654195 -0.86121076 -0.3159446
v -0.6731803 0.24425793 -0.3353733
v 0.49646685 -0.27776355 0.21788351
v 0.50534344 -0.34947252 0.21784444
v 0.23710491 -0.33715808 0.21723165
v -0.23971099 0.024755983 0.21636984
v -0.23534043 -0.59460926 0.21592061
v 0.083085775 -0.55944324 0.21669453
v 0.5903946 -0.22983387 0.21813497
v 0.675444 -0.14246081 0.21840352
v 0.658428 0.031113405 0.21849142
v -0.50514257 0.5879688 0.31903586
v -0.4713718 0.8523048 0.31448507
v -0.17537834 0.7670509 0.31670675
v -0.1644546 -0.78819317 0.3440432
v -0.6101728 0.48539072 0.32055444
v -0.67558575 0.35873058 0.3226516
v -0.6670168 -0.85979474 0.3440676
v -0.17929794 -0.79195297 -0.31593728
v -0.24706061 0.7858693 -0.34379616
v -0.23591304 -0.8000291 -0.31594217
v -0.19026832 0.76953137 -0.34338355
v -0.1644546 -0.78819317 0.3440432
v -0.19026832 0.76953137 -0.34338355
v -0.17929794 -0.79195297 -0.31593728
v -0.17537834 0.7670509 0.31670675
v -0.60104316 -0.85203105 -0.31594217
v -0.6731803 0.24425793 -0.3353733
v -0.6654195 -0.86121076 -0.3159446
v -0.60947925 0.34771496 -0.33704078
v -0.23591304 -0.8000291 -0.31594217
v -0.262797 0.7905763 -0.28614235
v -0.25161508 -0.8020897 -0.2581565
v -0.24706061 0.7858693 -0.34379616
v 0.658428 0.031113405 0.21849142
v 0.38113964 0.41405284 0.21791281
v 0.62543255 0.36803722 0.21849142
v -0.23971099 0.024755983 0.21636984
v 0.18590572 0.66436535 0.21748312
v -0.24506462 0.78164077 0.21646506
v 0.48963 -0.25274402 0.091555394
v 0.62930447 0.03094739 0.09209739
v -0.2394091 0.02480481 0.09002707
v 0.6477939 -0.12275378 0.09201926
v 0.23030712 -0.34266588 0.09088645
v 0.085481174 -0.55179673 0.09038596
v -0.23505971 -0.58585924 0.0896218
v 0.5007334 -0.3046776 0.09156516
v -0.244235 0.70692396 0.09013694
v -0.2394091 0.02480481 0.09002707
v 0.16424876 0.59399426 0.091089085
v 0.3490327 0.30110362 0.09146994
v 0.6025201 0.2535548 0.09207785
v 0.62930447 0.03094739 0.09209739
v -0.262797 0.7905763 -0.28614235
v -0.17537834 0.7670509 0.31670675
v -0.4713718 0.8523048 0.31448507
v -0.19026832 0.76953137 -0.34338355
v -0.24706061 0.7858693 -0.34379616
v -0.45657954 0.8463771 -0.28760478
v -0.1644546 -0.78819317 0.3440432
v -0.23591304 -0.8000291 -0.31594217
v -0.25161508 -0.8020897 -0.2581565
v -0.17929794 -0.79195297 -0.31593728
v -0.5856268 -0.8497069 -0.25817606
v -0.6670168 -0.85979474 0.3440676
v -0.6667088 -0.8600584 0.21864523
v -0.6654195 -0.86121076 -0.3159446
v -0.60104316 -0.85203105 -0.31594217
v -0.6667088 -0.8600584 0.21864523
v -0.6654195 -0.86121076 -0.3159446
v -0.6657656 -0.86090803 -0.1721409
v 0.085481174 -0.55179673 0.09038596
v -0.23505971 -0.58585924 0.0896218
v 0.083085775 -0.55944324 0.21669453
v 0.23710491 -0.33715808 0.21723165
v 0.23030712 -0.34266588 0.09088645
v 0.50534344 -0.34947252 0.21784444
v 0.5007334 -0.3046776 0.09156516
v -0.23534043 -0.59460926 0.21592061
v 0.675444 -0.14246081 0.21840352
v 0.658428 0.031113405 0.21849142
v 0.62930447 0.03094739 0.09209739
v 0.6477939 -0.12275378 0.09201926
v 0.62543255 0.36803722 0.21849142
v 0.6025201 0.2535548 0.09207785
v 0.50534344 -0.34947252 0.21784444
v 0.49646685 -0.27776355 0.21788351
v 0.5007334 -0.3046776 0.09156516
v 0.48963 -0.25274402 0.091555394
v 0.49646685 -0.27776355 0.21788351
v 0.5903946 -0.22983387 0.21813497
v 0.48963 -0.25274402 0.091555394
v 0.6477939 -0.12275378 0.09201926
v 0.675444 -0.14246081 0.21840352
v 0.62543255 0.36803722 0.21849142
v 0.38113964 0.41405284 0.21791281
v 0.6025201 0.2535548 0.09207785
v 0.3490327 0.30110362 0.09146994
v 0.16424876 0.59399426 0.091089085
v 0.38113964 0.41405284 0.21791281
v 0.18590572 0.66436535 0.21748312
v 0.16424876 0.59399426 0.091089085
v -0.244235 0.70692396 0.09013694
v -0.24506462 0.78164077 0.21646506
vt 0.6610609 0.27369258
vt 0.7821183 0.27620628
vt 0.7817384 0.24586302
vt 0.6472959 0.20318109
vt 0.6477368 0.22833449
vt 0.6595474 0.2313891
vt 0.71941876 0.21545404
vt 0.6595474 0.2313891
vt 0.7817384 0.24586302
vt 0.6472959 0.20318109
vt 0.6595474 0.2313891
vt 0.6610609 0.27369258
vt 0.7817384 0.24586302
vt 0.71941876 0.21545404
vt 0.7817384 0.24586302
vt 0.7806911 0.21643266
vt 0.7821183 0.27620628
vt 0.6610609 0.27369258
vt 0.6641681 0.33866757
vt 0.7847308 0.33124927
vt 0.7382374 0.0005714787
vt 0.8553763 0.032073587
vt 0.73368096 0.032072756
vt 0.8729744 0.02197054
vt 0.89873976 0.0005725455
vt 0.9045022 0.018793724
vt 0.95408094 0.71794486
vt 0.9162427 0.7230593
vt 0.9544419 0.7230593
vt 0.9161297 0.71794486
vt 0.6231157 0.616814
vt 0.67037 0.616814
vt 0.6697061 0.616814
vt 0.6231157 0.616814
vt 0.6808616 0.616814
vt 0.67515886 0.616814
vt 0.9549258 0.69749194
vt 0.91628104 0.69889057
vt 0.9539802 0.7008989
vt 0.9163811 0.697492
vt 0.915969 0.7032474
vt 0.9158541 0.70485103
vt 0.95082265 0.70485103
vt 0.64659196 0.5670415
vt 0.65206873 0.5664737
vt 0.6509837 0.58465624
vt 0.6231157 0.616814
vt 0.67037 0.616814
vt 0.66785854 0.5952059
vt 0.6429868 0.5606493
vt 0.6363667 0.5548408
vt 0.6231157 0.5559109
vt 0.96151537 0.65643555
vt 0.9698504 0.6574214
vt 0.96709377 0.66559565
vt 0.91800654 0.6655955
vt 0.9583019 0.65350926
vt 0.95431846 0.65145963
vt 0.9158591 0.65145963
vt 0.91793585 0.71794486
vt 0.96785927 0.70485103
vt 0.9176935 0.70485103
vt 0.9673293 0.71794486
vt 0.9185332 0.7230593
vt 0.9673293 0.71794486
vt 0.91793585 0.71794486
vt 0.96772945 0.7230593
vt 0.9161297 0.71794486
vt 0.95082265 0.70485103
vt 0.9158541 0.70485103
vt 0.95408094 0.71794486
vt 0.9176935 0.70485103
vt 0.96805346 0.69749194
vt 0.917673 0.69749194
vt 0.96785927 0.70485103
vt 0.6231157 0.5559109
vt 0.6524823 0.5745298
vt 0.648839 0.5579874
vt 0.6231157 0.616814
vt 0.67168164 0.58764756
vt 0.6808616 0.616814
vt 0.6446812 0.5675128
vt 0.6231157 0.5579062
vt 0.6231157 0.616814
vt 0.63485265 0.5567267
vt 0.6514047 0.58513963
vt 0.66728145 0.5950607
vt 0.6697061 0.616814
vt 0.64865315 0.5667856
vt 0.67515886 0.616814
vt 0.6231157 0.616814
vt 0.6663217 0.5891703
vt 0.6438763 0.576782
vt 0.6401149 0.55961585
vt 0.6231157 0.5579062
vt 0.71709967 0.20879537
vt 0.690883 0.37374204
vt 0.77277243 0.3742673
vt 0.6972291 0.1928258
vt 0.71294034 0.19292739
vt 0.7707115 0.20913899
vt 0.7439732 0.36437002
vt 0.72496367 0.18415365
vt 0.7207565 0.19992772
vt 0.74010295 0.18416989
vt 0.63144016 0.19983694
vt 0.6095837 0.36424804
vt 0.60968506 0.33000344
vt 0.61011124 0.18404302
vt 0.6273259 0.1840606
vt 0.60968506 0.33000344
vt 0.61011124 0.18404302
vt 0.60999876 0.22330642
vt 0.65723693 0.30900124
vt 0.6586862 0.39857087
vt 0.6909692 0.30969918
vt 0.688195 0.235555
vt 0.65470433 0.23923516
vt 0.6844549 0.16208375
vt 0.6489243 0.16465142
vt 0.69268996 0.39819658
vt 0.6984392 0.21556348
vt 0.6983154 0.26274574
vt 0.73270655 0.26352626
vt 0.7321885 0.22114211
vt 0.69773924 0.3557223
vt 0.7327709 0.3252074
vt 0.6879931 0.36568412
vt 0.6687516 0.36573568
vt 0.67593324 0.40044075
vt 0.66180897 0.40038365
vt 0.72358954 0.41523123
vt 0.72109365 0.38686964
vt 0.6898657 0.4170391
vt 0.6818719 0.3623665
vt 0.7152791 0.35448885
vt 0.6961993 0.35234076
vt 0.7049048 0.3018183
vt 0.6623485 0.3457973
vt 0.67134947 0.2933727
vt 0.7165311 0.23916295
vt 0.7470798 0.36957783
vt 0.7804399 0.30088565
vt 0.7466263 0.29478514
vt 0.76215094 0.19346753
vt 0.79659003 0.1940752
vn -0.6968317 0.71223867 -0.084508605
vn -0.69683164 0.71223867 -0.084508605
vn -0.69683164 0.71223867 -0.0845086
vn -0.84307116 0.5212361 0.13245331
vn -0.84307116 0.5212361 0.13245328
vn -0.8430713 0.5212361 0.13245331
vn -0.75135946 0.64110565 -0.15634164
vn -0.75135946 0.64110553 -0.15634164
vn -0.75135946 0.64110565 -0.15634164
vn -0.77033013 0.6163738 -0.16332449
vn -0.84933895 0.51124024 -0.13136543
vn -0.84933895 0.5112402 -0.13136545
vn -0.84933895 0.5112402 -0.13136543
vn -0.8881487 0.45806953 -0.03693564
vn -0.8881486 0.45806956 -0.03693564
vn -0.8881487 0.45806953 -0.036935642
vn -0.9926657 0.11722926 -0.029529592
vn -0.9943403 0.09951173 -0.037210736
vn -0.99378985 0.10579203 -0.03449147
vn -0.9916677 0.12625164 -0.025606452
vn 0.0025516502 -0.017537503 -0.999843
vn 0.002519875 -0.017546935 -0.9998429
vn 0.002558433 -0.017535591 -0.999843
vn 0.002502398 -0.017550895 -0.9998429
vn 0.0024999224 -0.017549835 -0.9998429
vn 0.0024934534 -0.017544143 -0.999843
vn 0.96618825 0.002265274 -0.2578277
vn 0.96618825 0.002265274 -0.2578277
vn 0.96618825 0.002265274 -0.2578277
vn 0.96618825 0.002265274 -0.2578277
vn -0.9999722 -0.0070714313 -0.0023906585
vn -0.9999716 -0.0070872153 -0.0025528718
vn -0.9999716 -0.0070872144 -0.0025528718
vn -0.9999722 -0.0070714313 -0.0023906585
vn -0.9999721 -0.0070734886 -0.0023877793
vn -0.9999721 -0.0070734886 -0.0023877793
vn -0.999972 -0.007075102 -0.002438868
vn -0.9999721 -0.0070723533 -0.0024217798
vn -0.9999721 -0.0070701987 -0.0024224964
vn -0.999972 -0.0070751035 -0.0024388684
vn -0.9999722 -0.0070663085 -0.002404514
vn -0.9999722 -0.007064785 -0.002408773
vn -0.9999722 -0.0070647844 -0.0024087732
vn -0.002336953 -0.0007042391 0.999997
vn -0.0023227404 -0.00083225284 0.999997
vn -0.0023602257 -0.0007399201 0.999997
vn -0.002361956 -0.00073908694 0.999997
vn -0.0023656168 -0.00075128314 0.9999969
vn -0.0023656166 -0.0007512831 0.9999969
vn -0.0023570952 -0.0007441226 0.999997
vn -0.0023593903 -0.0007508195 0.999997
vn -0.0023593903 -0.0007508195 0.999997
vn -0.00249873 0.017548157 0.9998429
vn -0.0024564965 0.017527033 0.99984336
vn -0.0024707878 0.017553769 0.9998429
vn -0.002455251 0.017556285 0.9998429
vn -0.0025353415 0.01755292 0.99984276
vn -0.002299389 0.017623622 0.99984205
vn -0.0024525754 0.017555345 0.9998429
vn 0.0024024756 -0.01755061 -0.9998431
vn 0.0024024756 -0.01755061 -0.9998431
vn 0.0024024756 -0.01755061 -0.9998431
vn 0.0024024753 -0.01755061 -0.9998431
vn 0.9997243 0.006626875 -0.022524253
vn 0.9997243 0.0066268756 -0.022524254
vn 0.9997243 0.006626875 -0.02252425
vn 0.9997243 0.0066268756 -0.02252425
vn 0.0024456938 -0.01756079 -0.99984276
vn 0.002445694 -0.01756079 -0.99984276
vn 0.002445694 -0.017560787 -0.99984276
vn 0.0024456943 -0.01756079 -0.99984276
vn -0.96486294 -0.0113898 -0.2625067
vn -0.96486294 -0.0113897985 -0.2625067
vn -0.96486294 -0.011389799 -0.2625067
vn -0.96486294 -0.0113897985 -0.26250672
vn -0.0023706849 -0.00020564956 0.99999714
vn -0.002382505 -0.0001788353 0.99999714
vn -0.0023706849 -0.00020564957 0.99999714
vn -0.0023661312 -0.00016652109 0.99999726
vn -0.0023972685 -0.00014534329 0.99999714
vn -0.0023972685 -0.00014534329 0.99999714
vn 0.0023692558 0.00072048634 -0.999997
vn 0.00236921 0.0007440231 -0.9999969
vn 0.0023610233 0.0007387544 -0.999997
vn 0.0023692101 0.0007440231 -0.9999969
vn 0.0023504952 0.00068797776 -0.999997
vn 0.0023506042 0.000702066 -0.999997
vn 0.0023506042 0.000702066 -0.999997
vn 0.0024622704 0.00033838433 -0.9999969
vn 0.0023801224 0.00017790019 -0.99999714
vn 0.0023649144 0.00016715929 -0.99999726
vn 0.0023725086 0.00018329622 -0.99999726
vn 0.0023833546 0.00016892997 -0.99999714
vn 0.002392462 0.00015953364 -0.99999714
vn 0.002392462 0.00015953367 -0.99999714
vn 0.27674526 0.96093965 -0.0026536395
vn 0.27679026 0.9609268 -0.002638805
vn 0.27678266 0.960929 -0.002641864
vn 0.27673233 0.96094334 -0.0026545217
vn 0.2767323 0.96094334 -0.0026545215
vn 0.27672935 0.96094424 -0.0026621663
vn 0.14107977 -0.9899951 0.0024550324
vn 0.14078104 -0.99003756 0.0025121246
vn 0.14104006 -0.99000084 0.0024626271
vn 0.14078107 -0.99003756 0.0025121246
vn 0.14106609 -0.98999715 0.0024530517
vn 0.14108132 -0.9899949 0.002454428
vn 0.14097536 -0.9900101 0.0024448608
vn 0.14097537 -0.9900101 0.0024448605
vn 0.14097539 -0.9900101 0.0024448608
vn 0.14097536 -0.9900101 0.0024448608
vn 0.14097537 -0.9900101 0.0024448605
vn 0.14097536 -0.9900101 0.0024448608
vn 0.48186657 -0.87514347 -0.04391469
vn 0.10870622 -0.9918826 -0.06596885
vn 0.46517247 -0.8840132 -0.046209443
vn 0.41509297 -0.90961254 0.017405394
vn 0.4686895 -0.88176936 -0.05303658
vn 0.28615206 -0.92891574 -0.23501606
vn 0.36780858 -0.86950284 -0.32966912
vn 0.10967638 -0.9916073 -0.06845479
vn 0.92908305 -0.26982993 -0.2529755
vn 0.9700244 0.09506981 -0.22363882
vn 0.9689663 0.10013619 -0.22600202
vn 0.8949284 -0.34151447 -0.28717753
vn 0.4656147 0.61630195 -0.6351178
vn 0.6459698 0.5037564 -0.5735438
vn 0.28615206 -0.92891574 -0.23501606
vn 0.82616067 -0.54641014 -0.1374578
vn 0.36780858 -0.86950284 -0.32966912
vn 0.7205884 -0.6361612 -0.27577415
vn 0.82616067 -0.54641014 -0.1374578
vn 0.59194744 -0.74903 -0.29757747
vn 0.7205884 -0.6361612 -0.27577415
vn 0.8949284 -0.34151447 -0.28717753
vn 0.92908305 -0.26982993 -0.2529755
vn 0.4656147 0.61630195 -0.6351178
vn 0.49289057 0.60021263 -0.62992346
vn 0.6459698 0.5037564 -0.5735438
vn 0.4196835 0.6213761 -0.6616324
vn 0.47884828 0.7137936 -0.5110802
vn 0.49289057 0.60021263 -0.62992346
vn 0.4244224 0.7590608 -0.4936521
vn 0.47884828 0.7137936 -0.5110802
vn 0.22970513 0.83736676 -0.49603677
vn 0.22932452 0.8384437 -0.49439114
g Stage_Dominating_Theater_Boss_P2_Fragment07_0
f 3/3/3 2/2/2 1/1/1
f 6/6/6 5/5/5 4/4/4
f 9/9/9 8/8/8 7/7/7
f 8/8/8 10/10/10 7/7/7
f 13/13/13 12/12/12 11/11/11
f 16/16/16 15/15/15 14/14/14
f 19/19/19 18/18/18 17/17/17
f 20/20/20 19/19/19 17/17/17
f 23/23/23 22/22/22 21/21/21
f 22/22/22 24/24/24 21/21/21
f 24/24/24 25/25/25 21/21/21
f 24/24/24 26/26/26 25/25/25
f 29/29/29 28/28/28 27/27/27
f 30/30/30 27/27/27 28/28/28
f 33/33/33 32/32/32 31/31/31
f 34/34/34 31/31/31 32/32/32
f 34/34/34 35/35/35 31/31/31
f 36/36/36 31/31/31 35/35/35
f 39/39/39 38/38/38 37/37/37
f 40/40/40 37/37/37 38/38/38
f 38/38/38 39/39/39 41/41/41
f 41/41/41 39/39/39 42/42/42
f 43/43/43 42/42/42 39/39/39
f 46/46/46 45/45/45 44/44/44
f 46/46/46 44/44/44 47/47/47
f 47/47/47 48/48/48 46/46/46
f 49/49/49 46/46/46 48/48/48
f 44/44/44 50/50/50 47/47/47
f 50/50/50 51/51/51 47/47/47
f 52/52/52 47/47/47 51/51/51
f 55/55/55 54/54/54 53/53/53
f 56/56/56 55/55/55 53/53/53
f 56/56/56 53/53/53 57/57/57
f 56/56/56 57/57/57 58/58/58
f 56/56/56 58/58/58 59/59/59
f 62/62/62 61/61/61 60/60/60
f 63/63/63 60/60/60 61/61/61
f 66/66/66 65/65/65 64/64/64
f 67/67/67 64/64/64 65/65/65
f 70/70/70 69/69/69 68/68/68
f 71/71/71 68/68/68 69/69/69
f 74/74/74 73/73/73 72/72/72
f 75/75/75 72/72/72 73/73/73
f 78/78/78 77/77/77 76/76/76
f 79/79/79 76/76/76 77/77/77
f 77/77/77 80/80/80 79/79/79
f 81/81/81 79/79/79 80/80/80
f 84/84/84 83/83/83 82/82/82
f 85/85/85 82/82/82 83/83/83
f 86/86/86 84/84/84 82/82/82
f 86/86/86 87/87/87 84/84/84
f 88/88/88 84/84/84 87/87/87
f 86/86/86 82/82/82 89/89/89
f 92/92/92 91/91/91 90/90/90
f 92/92/92 93/93/93 91/91/91
f 93/93/93 94/94/94 91/91/91
f 95/95/95 91/91/91 94/94/94
f 98/98/98 97/97/97 96/96/96
f 97/97/97 99/99/99 96/96/96
f 100/100/100 96/96/96 99/99/99
f 98/98/98 96/96/96 101/101/101
f 104/104/104 103/103/103 102/102/102
f 105/105/105 102/102/102 103/103/103
f 104/104/104 102/102/102 106/106/106
f 107/107/107 106/106/106 102/102/102
f 107/107/107 108/108/108 106/106/106
f 108/108/108 109/109/109 106/106/106
f 109/109/109 110/110/110 106/106/106
f 113/113/113 112/112/112 111/111/111
f 116/116/116 115/115/115 114/114/114
f 116/116/116 114/114/114 117/117/117
f 114/114/114 118/118/118 117/117/117
f 118/118/118 119/119/119 117/117/117
f 118/118/118 120/120/120 119/119/119
f 116/116/116 121/121/121 115/115/115
f 124/124/124 123/123/123 122/122/122
f 125/125/125 124/124/124 122/122/122
f 124/124/124 126/126/126 123/123/123
f 124/124/124 127/127/127 126/126/126
f 130/130/130 129/129/129 128/128/128
f 130/130/130 131/131/131 129/129/129
f 134/134/134 133/133/133 132/132/132
f 134/134/134 135/135/135 133/133/133
f 135/135/135 136/136/136 133/133/133
f 139/139/139 138/138/138 137/137/137
f 139/139/139 140/140/140 138/138/138
f 140/140/140 141/141/141 138/138/138
f 144/144/144 143/143/143 142/142/142
f 144/144/144 145/145/145 143/143/143
f 145/145/145 146/146/146 143/143/143
