g Far_Ring_04
v 40.536217 8.104585 9.900163
v 40.536415 -8.1044855 9.900163
v -31.528742 -8.104585 9.900163
v -31.52894 8.104585 9.900163
v -35.687 7.601843 -9.900163
v 40.53602 7.601942 -9.900163
v 40.53602 7.601942 9.851978
v -35.687 7.601843 9.851976
v -35.6872 -7.6017437 9.851976
v 40.53602 -7.6016445 9.851978
v 40.53602 -7.6016445 -9.900163
v -35.6872 -7.6017437 -9.900163
v -40.53681 8.104585 9.900163
v -31.528742 8.104585 9.900163
v -31.528543 -8.1044855 9.900163
v -40.53681 -8.1044855 9.900163
v -35.6872 -7.4469624 9.851976
v -35.6872 -7.4469624 -9.900163
v 40.53602 -7.446863 -9.900163
v 40.53602 -7.446863 9.851978
v -35.687 7.492901 -9.900163
v -35.687 7.492901 9.851976
v 40.53602 7.493 9.851978
v 40.53602 7.493 -9.900163
vt -0.0010106069 0.52060795
vt -0.0010105679 0.7324322
vt 0.9997452 0.7324323
vt 0.9997452 0.5206077
vt 0.9792309 0.0067580817
vt 0.030960532 0.006758249
vt 0.030960605 0.3075136
vt 0.9792309 0.30751345
vt 0.030960605 0.3075136
vt 0.9792309 0.30751345
vt 0.9792309 0.0067580817
vt 0.030960532 0.006758249
vt 0.7674741 0.7618154
vt 0.6015058 0.7618154
vt 0.6015058 0.9729177
vt 0.7674741 0.9729177
vt 0.030960605 0.3075136
vt 0.030960532 0.006758249
vt 0.9792309 0.0067580817
vt 0.9792309 0.30751345
vt 0.9792309 0.0067580817
vt 0.9792309 0.30751345
vt 0.030960605 0.3075136
vt 0.030960532 0.006758249
vn -0 0 1
vn -0 0 1
vn -0 0 1
vn -0 0 1
vn -1.30169E-06 1 0
vn -1.30169E-06 1 0
vn -1.3016898E-06 1 0
vn -1.30169E-06 1 0
vn 1.3016866E-06 -1 0
vn 1.3016867E-06 -1 0
vn 1.3016866E-06 -1 0
vn 1.3016866E-06 -1 0
vn -0 0 1
vn -0 0 1
vn -0 0 1
vn -0 0 1
vn -1.3016866E-06 1 0
vn -1.3016866E-06 1 0
vn -1.3016866E-06 1 0
vn -1.3016867E-06 1 0
vn 1.30169E-06 -1 0
vn 1.30169E-06 -1 0
vn 1.3016898E-06 -1 0
vn 1.30169E-06 -1 0
g Far_Ring_04_0
f 3/3/3 2/2/2 1/1/1
f 4/4/4 3/3/3 1/1/1
f 7/7/7 6/6/6 5/5/5
f 8/8/8 7/7/7 5/5/5
f 11/11/11 10/10/10 9/9/9
f 12/12/12 11/11/11 9/9/9
f 15/15/15 14/14/14 13/13/13
f 16/16/16 15/15/15 13/13/13
f 19/19/19 18/18/18 17/17/17
f 20/20/20 19/19/19 17/17/17
f 23/23/23 22/22/22 21/21/21
f 24/24/24 23/23/23 21/21/21
