g Far_Ring_03
v -69.83929 -31.89486 12.751311
v 2.2252781 -31.89486 12.751311
v 2.2252781 -39.999542 7.0490117
v -69.83929 -39.999542 7.0490117
v 2.2252781 -31.89486 12.751311
v -69.83929 -31.89486 12.751311
v -69.83929 -23.790176 7.0490117
v 2.2252781 -23.790176 7.0490117
v 2.2252781 -39.496502 -12.751313
v -69.83929 -39.496502 -12.751313
v -69.83929 -39.496502 7.000827
v 2.2252781 -39.496502 7.000827
v 2.2252781 -24.293215 7.000827
v -69.83929 -24.293215 7.000827
v -69.83929 -24.293215 -12.751313
v 2.2252781 -24.293215 -12.751313
v 2.2252781 -31.89486 12.751311
v 74.29024 -31.89486 12.751311
v 74.29024 -39.999542 7.0490117
v 2.2252781 -39.999542 7.0490117
v 74.29024 -31.89486 12.751311
v 2.2252781 -31.89486 12.751311
v 2.2252781 -23.790176 7.0490117
v 74.29024 -23.790176 7.0490117
v 74.29024 -39.496502 -12.751313
v 2.2252781 -39.496502 -12.751313
v 2.2252781 -39.496502 7.000827
v 74.29024 -39.496502 7.000827
v 74.29024 -24.293215 7.000827
v 2.2252781 -24.293215 7.000827
v 2.2252781 -24.293215 -12.751313
v 74.29024 -24.293215 -12.751313
v 2.2252781 -32.065514 12.751311
v 2.2252781 39.999443 12.751311
v 10.329863 39.999443 7.0490117
v 10.329863 -32.065514 7.0490117
v 2.2252781 39.999443 12.751311
v 2.2252781 -32.065514 12.751311
v -5.8793063 -32.065514 7.0490117
v -5.8793063 39.999443 7.0490117
v 9.827022 39.999443 -12.751314
v 9.827022 -32.065514 -12.751314
v 9.827022 -32.065514 7.000827
v 9.827022 39.999443 7.000827
v -5.376466 39.999443 7.000827
v -5.376466 -32.065514 7.000827
v -5.376466 -32.065514 -12.751314
v -5.376466 39.999443 -12.751314
v -74.290436 -39.999344 7.049013
v -74.290436 -31.89476 12.751313
v -69.83929 -31.89476 12.751313
v -69.83929 -39.999344 7.049013
v -74.290436 -23.790176 7.049013
v -69.83929 -23.790176 7.049013
v -69.83929 -31.89476 12.751313
v -74.290436 -31.89476 12.751313
v 2.2252781 -24.380032 7.000827
v 2.2252781 -24.380032 -12.751313
v -69.83929 -24.380032 -12.751313
v -69.83929 -24.380032 7.000827
v 74.29024 -24.380032 7.000827
v 74.29024 -24.380032 -12.751313
v 2.2252781 -24.380032 -12.751313
v 2.2252781 -24.380032 7.000827
v 2.2252781 -39.360176 -12.751313
v 2.2252781 -39.360176 7.000827
v -69.83929 -39.360176 7.000827
v -69.83929 -39.360176 -12.751313
v 74.29024 -39.360176 -12.751313
v 74.29024 -39.360176 7.000827
v 2.2252781 -39.360176 7.000827
v 2.2252781 -39.360176 -12.751313
v -5.249267 39.999443 7.000827
v -5.249267 39.999443 -12.751314
v -5.249267 -32.065514 -12.751314
v -5.249267 -32.065514 7.000827
v 9.730581 39.999443 -12.751314
v 9.730581 39.999443 7.000827
v 9.730581 -32.065514 7.000827
v 9.730581 -32.065514 -12.751314
vt -0.0010106069 0.50468796
vt 0.99974525 0.50468785
vt 0.9997452 0.3355322
vt -0.0010106069 0.33553237
vt 0.9997452 0.50468785
vt -0.0010106442 0.50468767
vt -0.0010105679 0.33553204
vt 0.9997452 0.3355322
vt 0.9792309 0.0067580817
vt 0.030960532 0.006758249
vt 0.030960605 0.3075136
vt 0.9792309 0.30751345
vt 0.030960605 0.3075136
vt 0.9792309 0.30751345
vt 0.9792309 0.0067580817
vt 0.030960532 0.006758249
vt -0.0010106069 0.50468796
vt 0.99974525 0.50468785
vt 0.9997452 0.3355322
vt -0.0010106069 0.33553237
vt 0.9997452 0.50468785
vt -0.0010106442 0.50468767
vt -0.0010105679 0.33553204
vt 0.9997452 0.3355322
vt 0.9792309 0.0067580817
vt 0.030960532 0.006758249
vt 0.030960605 0.3075136
vt 0.9792309 0.30751345
vt 0.030960605 0.3075136
vt 0.9792309 0.30751345
vt 0.9792309 0.0067580817
vt 0.030960532 0.006758249
vt -0.0010106069 0.50468796
vt 0.99974525 0.50468785
vt 0.9997452 0.3355322
vt -0.0010106069 0.33553237
vt 0.9997452 0.50468785
vt -0.0010106442 0.50468767
vt -0.0010105679 0.33553204
vt 0.9997452 0.3355322
vt 0.9792309 0.0067580817
vt 0.030960532 0.006758249
vt 0.030960605 0.3075136
vt 0.9792309 0.30751345
vt 0.030960605 0.3075136
vt 0.9792309 0.30751345
vt 0.9792309 0.0067580817
vt 0.030960532 0.006758249
vt 0.9887203 0.7867062
vt 0.9887203 0.9558619
vt 0.92690784 0.9558618
vt 0.9269078 0.7867062
vt 0.9887203 0.7867062
vt 0.9269078 0.7867063
vt 0.92690784 0.9558619
vt 0.98872036 0.9558619
vt 0.030960605 0.3075136
vt 0.030960532 0.006758249
vt 0.9792309 0.0067580817
vt 0.9792309 0.30751345
vt 0.030960605 0.3075136
vt 0.030960532 0.006758249
vt 0.9792309 0.0067580817
vt 0.9792309 0.30751345
vt 0.9792309 0.0067580817
vt 0.9792309 0.30751345
vt 0.030960605 0.3075136
vt 0.030960532 0.006758249
vt 0.9792309 0.0067580817
vt 0.9792309 0.30751345
vt 0.030960605 0.3075136
vt 0.030960532 0.006758249
vt 0.030960605 0.3075136
vt 0.030960532 0.006758249
vt 0.9792309 0.0067580817
vt 0.9792309 0.30751345
vt 0.9792309 0.0067580817
vt 0.9792309 0.30751345
vt 0.030960605 0.3075136
vt 0.030960532 0.006758249
vn -0 -0.5754262 0.8178536
vn -0 -0.5754262 0.81785375
vn -0 -0.5754262 0.81785375
vn -0 -0.5754262 0.8178536
vn -0 0.5754262 0.81785375
vn -0 0.5754262 0.8178536
vn -0 0.5754262 0.8178536
vn -0 0.5754262 0.81785375
vn -0 -1 0
vn -0 -1 0
vn -0 -1 0
vn -0 -1 0
vn -0 1 0
vn -0 1 0
vn -0 1 0
vn -0 1 0
vn -0 -0.5754262 0.81785375
vn -0 -0.5754262 0.81785375
vn -0 -0.5754262 0.81785375
vn -0 -0.5754262 0.81785375
vn -0 0.5754262 0.81785375
vn -0 0.5754262 0.81785375
vn -0 0.5754262 0.81785375
vn -0 0.5754262 0.81785375
vn -0 -1 0
vn -0 -1 0
vn -0 -1 0
vn -0 -1 0
vn -0 1 0
vn -0 1 0
vn -0 1 0
vn -0 1 0
vn 0.575431 0 0.8178503
vn 0.575431 0 0.8178503
vn 0.575431 0 0.8178503
vn 0.575431 0 0.8178503
vn -0.575431 0 0.8178503
vn -0.575431 0 0.8178503
vn -0.575431 0 0.8178503
vn -0.575431 0 0.8178503
vn 1 0 0
vn 1 0 0
vn 1 0 0
vn 1 0 0
vn -1 0 0
vn -1 0 0
vn -1 0 0
vn -1 0 0
vn -0 -0.575431 0.8178504
vn -0 -0.575431 0.8178504
vn -0 -0.575431 0.8178504
vn -0 -0.575431 0.8178504
vn -0 0.575431 0.8178504
vn -0 0.575431 0.8178504
vn -0 0.575431 0.8178504
vn -0 0.575431 0.8178504
vn -0 -1 0
vn -0 -1 0
vn -0 -1 0
vn -0 -1 0
vn -0 -1 0
vn -0 -1 0
vn -0 -1 0
vn -0 -1 0
vn -0 1 0
vn -0 1 0
vn -0 1 0
vn -0 1 0
vn -0 1 0
vn -0 1 0
vn -0 1 0
vn -0 1 0
vn 1 0 0
vn 1 0 0
vn 1 0 0
vn 1 0 0
vn -1 0 0
vn -1 0 0
vn -1 0 0
vn -1 0 0
g Far_Ring_03_0
f 3/3/3 2/2/2 1/1/1
f 4/4/4 3/3/3 1/1/1
f 7/7/7 6/6/6 5/5/5
f 8/8/8 7/7/7 5/5/5
f 11/11/11 10/10/10 9/9/9
f 12/12/12 11/11/11 9/9/9
f 15/15/15 14/14/14 13/13/13
f 16/16/16 15/15/15 13/13/13
f 19/19/19 18/18/18 17/17/17
f 20/20/20 19/19/19 17/17/17
f 23/23/23 22/22/22 21/21/21
f 24/24/24 23/23/23 21/21/21
f 27/27/27 26/26/26 25/25/25
f 28/28/28 27/27/27 25/25/25
f 31/31/31 30/30/30 29/29/29
f 32/32/32 31/31/31 29/29/29
f 35/35/35 34/34/34 33/33/33
f 36/36/36 35/35/35 33/33/33
f 39/39/39 38/38/38 37/37/37
f 40/40/40 39/39/39 37/37/37
f 43/43/43 42/42/42 41/41/41
f 44/44/44 43/43/43 41/41/41
f 47/47/47 46/46/46 45/45/45
f 48/48/48 47/47/47 45/45/45
f 51/51/51 50/50/50 49/49/49
f 52/52/52 51/51/51 49/49/49
f 55/55/55 54/54/54 53/53/53
f 56/56/56 55/55/55 53/53/53
f 59/59/59 58/58/58 57/57/57
f 60/60/60 59/59/59 57/57/57
f 63/63/63 62/62/62 61/61/61
f 64/64/64 63/63/63 61/61/61
f 67/67/67 66/66/66 65/65/65
f 68/68/68 67/67/67 65/65/65
f 71/71/71 70/70/70 69/69/69
f 72/72/72 71/71/71 69/69/69
f 75/75/75 74/74/74 73/73/73
f 76/76/76 75/75/75 73/73/73
f 79/79/79 78/78/78 77/77/77
f 80/80/80 79/79/79 77/77/77
