g Far_Ring_02
v 10.949781 -72.61118 9.900157
v 0.38119844 -108.46007 9.900154
v -14.774862 -102.71212 9.900154
v -4.6737986 -68.76028 9.900157
v 1.9619515 -34.80844 9.90016
v 18.053247 -36.762283 9.900158
v 17.553782 -36.701836 9.851974
v 17.553782 -36.701836 -9.900166
v 10.4648 -72.491646 -9.900168
v 10.464998 -72.491646 9.851971
v -0.08909844 -108.28148 9.851968
v -0.08909844 -108.28148 -9.900171
v 2.4614186 -34.869263 -9.900166
v 2.4614186 -34.869263 9.851974
v -4.188817 -68.87979 9.851971
v -4.188817 -68.87979 -9.900167
v -14.304367 -102.890335 -9.90017
v -14.304367 -102.890335 9.851969
v 19.785807 0.15939492 9.900162
v 18.053247 -36.762283 9.900158
v 1.9619515 -34.80844 9.90016
v 3.6945093 0.15939492 9.900163
v 1.9619515 35.12726 9.9001665
v 18.053247 37.081097 9.900165
v 17.553782 37.02045 9.85198
v 17.553782 37.02045 -9.900159
v 19.286339 0.15929571 -9.900163
v 19.286339 0.15929571 9.851976
v 17.553782 -36.701836 9.851974
v 17.553782 -36.701836 -9.900166
v 2.4614186 35.187904 -9.900159
v 2.4614186 35.187904 9.85198
v 4.1939764 0.1593205 9.851976
v 4.1939764 0.1593205 -9.900163
v 2.4614186 -34.869263 -9.900166
v 2.4614186 -34.869263 9.851974
v 10.94998 72.93 9.900169
v 18.053247 37.081097 9.900165
v 1.9619515 35.12726 9.9001665
v -4.6737986 69.07912 9.900169
v -14.774862 103.03096 9.900172
v 0.38139686 108.7789 9.900172
v -0.08909844 108.6005 9.851986
v -0.08909844 108.6005 -9.900152
v 10.464998 72.810486 -9.900155
v 10.464998 72.810486 9.851983
v 17.553782 37.02045 9.85198
v 17.553782 37.02045 -9.900159
v -14.304367 103.20935 -9.900152
v -14.304367 103.20935 9.851988
v -4.1890154 69.19863 9.851985
v -4.188817 69.19863 -9.900155
v 2.4614186 35.187904 -9.900159
v 2.4614186 35.187904 9.85198
v -18.035984 -111.66374 9.900154
v -14.774862 -102.71212 9.900154
v 0.38119844 -108.46007 9.900154
v -2.8043187 -117.20749 9.900154
v 0.38139686 108.7789 9.900172
v -14.774862 103.03096 9.900172
v -18.05305 111.66356 9.851983
v -2.8213844 117.207504 9.851983
v 10.390386 -72.491646 -9.900168
v 17.479366 -36.701836 -9.900166
v 17.479366 -36.701836 9.851974
v 10.390584 -72.491646 9.851971
v -0.1635125 -108.28148 9.851968
v -0.1635125 -108.28148 -9.900171
v 19.211926 0.15929571 -9.900163
v 17.479366 37.02045 -9.900159
v 17.479366 37.02045 9.85198
v 19.211926 0.15929571 9.851976
v 17.479366 -36.701836 9.851974
v 17.479366 -36.701836 -9.900166
v 10.390584 72.810486 -9.900155
v -0.1635125 108.6005 -9.900152
v -0.1635125 108.6005 9.851986
v 10.390584 72.810486 9.851983
v 17.479366 37.02045 9.85198
v 17.479366 37.02045 -9.900159
v -4.1177764 -68.87979 9.851971
v 2.5324593 -34.869263 9.851974
v 2.5324593 -34.869263 -9.900166
v -4.1177764 -68.87979 -9.900167
v -14.233326 -102.890335 -9.90017
v -14.233326 -102.890335 9.851969
v 4.265017 0.1593205 9.851976
v 2.5324593 35.187904 9.85198
v 2.5324593 35.187904 -9.900159
v 4.265017 0.1593205 -9.900163
v 2.5324593 -34.869263 -9.900166
v 2.5324593 -34.869263 9.851974
v -4.1179748 69.19863 9.851985
v -14.233326 103.20935 9.851988
v -14.233326 103.20935 -9.900152
v -4.1177764 69.19863 -9.900155
v 2.5324593 35.187904 -9.900159
v 2.5324593 35.187904 9.85198
vt 0.4993673 0.7314178
vt -0.0010106069 0.73141783
vt -0.0010105679 0.521777
vt 0.4993673 0.52177703
vt 0.9997452 0.5217771
vt 0.9997452 0.73141766
vt 0.9792309 0.30751345
vt 0.9792309 0.0067580817
vt 0.5050957 0.0067581655
vt 0.5050957 0.30751354
vt 0.030960605 0.3075136
vt 0.030960532 0.006758249
vt 0.030960532 0.006758249
vt 0.030960605 0.3075136
vt 0.5050957 0.30751354
vt 0.5050957 0.0067581655
vt 0.9792309 0.0067580817
vt 0.9792309 0.30751345
vt 0.4993673 0.7314178
vt -0.0010106069 0.73141783
vt -0.0010105679 0.521777
vt 0.4993673 0.52177703
vt 0.9997452 0.5217771
vt 0.9997452 0.73141766
vt 0.9792309 0.30751345
vt 0.9792309 0.0067580817
vt 0.5050957 0.0067581655
vt 0.5050957 0.30751354
vt 0.030960605 0.3075136
vt 0.030960532 0.006758249
vt 0.030960532 0.006758249
vt 0.030960605 0.3075136
vt 0.5050957 0.30751354
vt 0.5050957 0.0067581655
vt 0.9792309 0.0067580817
vt 0.9792309 0.30751345
vt 0.4993673 0.7314178
vt -0.0010106069 0.73141783
vt -0.0010105679 0.521777
vt 0.4993673 0.52177703
vt 0.9997452 0.5217771
vt 0.9997452 0.73141766
vt 0.9792309 0.30751345
vt 0.9792309 0.0067580817
vt 0.5050957 0.0067581655
vt 0.5050957 0.30751354
vt 0.030960605 0.3075136
vt 0.030960532 0.006758249
vt 0.030960532 0.006758249
vt 0.030960605 0.3075136
vt 0.5050957 0.30751354
vt 0.5050957 0.0067581655
vt 0.9792309 0.0067580817
vt 0.9792309 0.30751345
vt 0.7674741 0.7618154
vt 0.6015058 0.7618154
vt 0.6015058 0.9729177
vt 0.7674741 0.9729177
vt 0.6015058 0.9729177
vt 0.6015058 0.7618154
vt 0.7674741 0.7618154
vt 0.7674741 0.9729177
vt 0.5050957 0.0067581655
vt 0.9792309 0.0067580817
vt 0.9792309 0.30751345
vt 0.5050957 0.30751354
vt 0.030960605 0.3075136
vt 0.030960532 0.006758249
vt 0.5050957 0.0067581655
vt 0.9792309 0.0067580817
vt 0.9792309 0.30751345
vt 0.5050957 0.30751354
vt 0.030960605 0.3075136
vt 0.030960532 0.006758249
vt 0.5050957 0.0067581655
vt 0.9792309 0.0067580817
vt 0.9792309 0.30751345
vt 0.5050957 0.30751354
vt 0.030960605 0.3075136
vt 0.030960532 0.006758249
vt 0.5050957 0.30751354
vt 0.030960605 0.3075136
vt 0.030960532 0.006758249
vt 0.5050957 0.0067581655
vt 0.9792309 0.0067580817
vt 0.9792309 0.30751345
vt 0.5050957 0.30751354
vt 0.030960605 0.3075136
vt 0.030960532 0.006758249
vt 0.5050957 0.0067581655
vt 0.9792309 0.0067580817
vt 0.9792309 0.30751345
vt 0.5050957 0.30751354
vt 0.030960605 0.3075136
vt 0.030960532 0.006758249
vt 0.5050957 0.0067581655
vt 0.9792309 0.0067580817
vt 0.9792309 0.30751345
vn -0 0 1
vn -0 0 1
vn -0 0 1
vn -0 0 1
vn -0 0 1
vn -0 0 1
vn 0.99265784 -0.120956436 -2.4704614E-06
vn 0.99265784 -0.12095645 -2.4704616E-06
vn 0.971064 -0.23881929 -4.8759607E-06
vn 0.9710641 -0.23881918 -4.8759616E-06
vn 0.95916516 -0.2828465 -4.814484E-06
vn 0.95916516 -0.2828465 -4.814484E-06
vn -0.992657 0.120962694 0
vn -0.992657 0.1209627 0
vn -0.97107714 0.23876612 0
vn -0.97107714 0.23876612 0
vn -0.9585032 0.28508174 0
vn -0.9585032 0.28508174 0
vn -0 0 1
vn -0 0 1
vn -0 0 1
vn -0 0 1
vn -0 0 1
vn -0 0 1
vn 0.9926581 0.120954506 0
vn 0.9926581 0.1209545 0
vn 1 0 0
vn 1 0 0
vn 0.99265784 -0.120956436 -2.4704614E-06
vn 0.99265784 -0.12095645 -2.4704616E-06
vn -0.992657 -0.12096355 -2.4712801E-06
vn -0.992657 -0.12096355 -2.4712806E-06
vn -1 0 0
vn -1 0 0
vn -0.992657 0.120962694 0
vn -0.992657 0.1209627 0
vn -0 0 1
vn -0 0 1
vn -0 0 1
vn -0 0 1
vn -0.0008988641 0.0024189528 0.99999666
vn -0.0009422605 0.0025357378 0.9999964
vn 0.9591649 0.28284758 0
vn 0.9591649 0.28284758 0
vn 0.97106445 0.23881793 0
vn 0.97106445 0.23881793 0
vn 0.9926581 0.120954506 0
vn 0.9926581 0.1209545 0
vn -0.9585044 -0.28507784 -4.811136E-06
vn -0.9585044 -0.28507784 -4.811136E-06
vn -0.9710773 -0.23876503 -4.8760885E-06
vn -0.97107744 -0.23876488 -4.876089E-06
vn -0.992657 -0.12096355 -2.4712801E-06
vn -0.992657 -0.12096355 -2.4712806E-06
vn -0 0 1
vn -0 0 1
vn -0 0 1
vn -0 0 1
vn -0.0009422605 0.0025357378 0.9999964
vn -0.0008988641 0.0024189528 0.99999666
vn -0.0018394404 0.004950171 0.99998605
vn -0.0018394407 0.004950172 0.99998605
vn -0.971064 0.23881929 4.879384E-06
vn -0.99265784 0.120956436 2.4704618E-06
vn -0.99265784 0.120956436 2.4704614E-06
vn -0.9710641 0.23881918 4.879385E-06
vn -0.9591653 0.2828465 4.8213233E-06
vn -0.9591653 0.28284648 4.8213237E-06
vn -1 0 0
vn -0.9926581 -0.1209545 0
vn -0.9926581 -0.120954506 0
vn -1 0 0
vn -0.99265784 0.120956436 2.4704614E-06
vn -0.99265784 0.120956436 2.4704618E-06
vn -0.97106445 -0.2388179 0
vn -0.9591649 -0.28284755 0
vn -0.9591649 -0.28284755 0
vn -0.97106445 -0.23881793 0
vn -0.9926581 -0.120954506 0
vn -0.9926581 -0.1209545 0
vn 0.97107714 -0.2387661 0
vn 0.992657 -0.120962694 0
vn 0.992657 -0.1209627 0
vn 0.97107714 -0.2387661 0
vn 0.9585032 -0.2850817 0
vn 0.9585032 -0.28508174 0
vn 1 0 0
vn 0.992657 0.12096355 2.4712806E-06
vn 0.992657 0.12096355 2.4712801E-06
vn 1 0 0
vn 0.992657 -0.1209627 0
vn 0.992657 -0.120962694 0
vn 0.9710773 0.23876503 4.8760885E-06
vn 0.9585044 0.28507784 4.811136E-06
vn 0.9585044 0.28507784 4.811136E-06
vn 0.97107744 0.23876488 4.876089E-06
vn 0.992657 0.12096355 2.4712801E-06
vn 0.992657 0.12096355 2.4712806E-06
g Far_Ring_02_0
f 3/3/3 2/2/2 1/1/1
f 4/4/4 3/3/3 1/1/1
f 5/5/5 4/4/4 1/1/1
f 6/6/6 5/5/5 1/1/1
f 9/9/9 8/8/8 7/7/7
f 10/10/10 9/9/9 7/7/7
f 9/9/9 10/10/10 11/11/11
f 12/12/12 9/9/9 11/11/11
f 15/15/15 14/14/14 13/13/13
f 16/16/16 15/15/15 13/13/13
f 15/15/15 16/16/16 17/17/17
f 18/18/18 15/15/15 17/17/17
f 21/21/21 20/20/20 19/19/19
f 22/22/22 21/21/21 19/19/19
f 23/23/23 22/22/22 19/19/19
f 24/24/24 23/23/23 19/19/19
f 27/27/27 26/26/26 25/25/25
f 28/28/28 27/27/27 25/25/25
f 27/27/27 28/28/28 29/29/29
f 30/30/30 27/27/27 29/29/29
f 33/33/33 32/32/32 31/31/31
f 34/34/34 33/33/33 31/31/31
f 33/33/33 34/34/34 35/35/35
f 36/36/36 33/33/33 35/35/35
f 39/39/39 38/38/38 37/37/37
f 40/40/40 39/39/39 37/37/37
f 41/41/41 40/40/40 37/37/37
f 42/42/42 41/41/41 37/37/37
f 45/45/45 44/44/44 43/43/43
f 46/46/46 45/45/45 43/43/43
f 45/45/45 46/46/46 47/47/47
f 48/48/48 45/45/45 47/47/47
f 51/51/51 50/50/50 49/49/49
f 52/52/52 51/51/51 49/49/49
f 51/51/51 52/52/52 53/53/53
f 54/54/54 51/51/51 53/53/53
f 57/57/57 56/56/56 55/55/55
f 58/58/58 57/57/57 55/55/55
f 61/61/61 60/60/60 59/59/59
f 62/62/62 61/61/61 59/59/59
f 65/65/65 64/64/64 63/63/63
f 66/66/66 65/65/65 63/63/63
f 67/67/67 66/66/66 63/63/63
f 68/68/68 67/67/67 63/63/63
f 71/71/71 70/70/70 69/69/69
f 72/72/72 71/71/71 69/69/69
f 73/73/73 72/72/72 69/69/69
f 74/74/74 73/73/73 69/69/69
f 77/77/77 76/76/76 75/75/75
f 78/78/78 77/77/77 75/75/75
f 79/79/79 78/78/78 75/75/75
f 80/80/80 79/79/79 75/75/75
f 83/83/83 82/82/82 81/81/81
f 84/84/84 83/83/83 81/81/81
f 85/85/85 84/84/84 81/81/81
f 86/86/86 85/85/85 81/81/81
f 89/89/89 88/88/88 87/87/87
f 90/90/90 89/89/89 87/87/87
f 91/91/91 90/90/90 87/87/87
f 92/92/92 91/91/91 87/87/87
f 95/95/95 94/94/94 93/93/93
f 96/96/96 95/95/95 93/93/93
f 97/97/97 96/96/96 93/93/93
f 98/98/98 97/97/97 93/93/93
