g Passageway04
v -10.537959 32.947083 27.802237
v -9.250653 32.768047 26.478062
v -9.250656 32.947083 27.80223
v -10.537966 32.768044 26.478037
v -7.6886444 32.507896 24.927256
v -6.349873 32.325344 23.57709
v -6.3498864 32.507893 24.927246
v -7.6886425 32.32534 23.577055
v -6.203901 32.15978 22.261265
v -4.786345 31.999218 21.073744
v -4.7863593 32.15978 22.261265
v -6.2038965 31.999212 21.073706
v -5.5255003 32.345066 23.489634
v -4.049866 32.185955 22.312798
v -4.0498734 32.345066 23.489624
v -5.5255027 32.185947 22.312757
v -11.956111 33.785053 29.132177
v -10.617341 33.602505 27.782017
v -10.617351 33.785053 29.132172
v -11.956108 33.602505 27.781992
v -13.519597 32.736492 26.58417
v -12.180825 32.541866 25.144688
v -12.180837 32.736492 26.58417
v -13.519597 32.54186 25.144648
v -14.767873 32.392548 23.898222
v -13.429104 32.222084 22.637455
v -13.429116 32.392548 23.898212
v -14.767868 32.22208 22.63742
v -13.5697365 33.756084 32.616165
v -12.077839 33.559566 31.162699
v -12.077864 33.756084 32.616158
v -13.569726 33.559563 31.16266
v -15.518461 32.909298 27.15978
v -14.026565 32.712784 25.706312
v -14.026585 32.909298 27.159765
v -15.518455 32.712776 25.706278
v -5.624368 32.77032 27.229477
v -4.1324706 32.573807 25.77601
v -4.132492 32.77032 27.229467
v -5.6243596 32.5738 25.775976
v -6.315723 32.546463 24.92204
v -4.9769535 32.363914 23.571875
v -4.9769664 32.546463 24.922031
v -6.315724 32.36391 23.57184
v -8.373167 32.806484 26.467295
v -7.085861 32.6017 24.952675
v -7.0858655 32.806484 26.467289
v -8.373173 32.601692 24.95264
v -9.165128 32.862694 27.835863
v -7.8263617 32.680145 26.485708
v -7.826369 32.862694 27.835863
v -9.165128 32.68014 26.485668
v -7.264909 33.852074 31.26126
v -8.601125 33.67959 29.985552
v -7.264907 33.679592 29.985565
v -8.601161 33.852074 31.261253
v -13.360723 32.521698 24.97749
v -12.021953 32.327076 23.538008
v -12.021965 32.521698 24.97748
v -13.360723 32.32707 23.537968
v -4.7490363 32.170258 22.290009
v -3.238786 32.004776 21.066053
v -3.2387958 32.170258 22.289995
v -4.749035 32.00477 21.06603
v -5.4642687 29.341425 1.3615832
v -4.0856986 29.183037 0.19011357
v -4.080371 29.340466 1.3544946
v -5.46432 29.182226 0.18412237
v -11.271628 31.66846 18.59168
v -9.880413 31.509542 17.416304
v -9.880688 31.668339 18.590784
v -11.278962 31.510098 17.420418
v -7.7183294 32.300957 23.528788
v -7.718325 32.69606 26.451025
v -10.567204 32.69606 26.451025
v -13.329695 32.300957 23.528769
v -13.329692 32.69606 26.45102
v -13.4779005 32.259888 22.27601
v -12.029773 32.089428 21.01525
v -12.029787 32.259888 22.276001
v -13.477895 32.089424 21.015215
v -12.000623 32.175198 22.287466
v -10.661856 32.004734 21.0267
v -10.661865 32.175194 22.28745
v -12.00062 32.00473 21.026669
v -8.982026 32.175198 22.287466
v -7.6432567 32.004734 21.0267
v -7.643268 32.175194 22.28745
v -8.982022 32.00473 21.026669
v -9.238771 32.31491 23.5758
v -7.6954107 32.14445 22.315048
v -7.6954203 32.31491 23.5758
v -9.238768 32.144444 22.315004
v -10.5945 32.39937 23.789013
v -9.255734 32.228905 22.528255
v -9.255743 32.39937 23.789013
v -10.5945015 32.2289 22.528223
v -13.335581 32.34877 23.57123
v -11.996814 32.17831 22.310478
v -11.996826 32.34877 23.57123
v -13.335578 32.178303 22.310429
v -11.994001 32.34877 23.57123
v -10.655234 32.17831 22.310472
v -10.655244 32.34877 23.57123
v -11.993999 32.178303 22.310429
v -12.736072 28.87605 -2.2356994
v -11.397305 28.679535 -3.6891649
v -11.397317 28.876049 -2.2357154
v -12.736072 28.679531 -3.689204
v -8.389581 29.00817 -1.7742407
v -6.941455 28.837704 -3.0350025
v -6.9414682 29.008165 -1.7742505
v -8.389576 28.8377 -3.035039
v -6.8718853 28.885937 -2.0404162
v -5.5331144 28.715475 -3.3011792
v -5.533126 28.885937 -2.0404272
v -6.871882 28.715471 -3.3012156
v -13.661909 27.961191 -1.8500609
v -12.323137 27.766563 -3.289552
v -12.323147 27.961191 -1.8500671
v -13.661906 27.76656 -3.289586
v -7.7183337 27.527477 -4.758668
v -7.7183285 27.92258 -1.8364294
v -10.567209 27.92258 -1.8364282
v -13.3296995 27.527477 -4.758684
v -13.329697 27.92258 -1.8364391
v -8.823077 28.1406 -7.298065
v -7.279716 27.97014 -8.558818
v -7.2797265 28.1406 -7.2980638
v -8.823073 27.970133 -8.558865
v -10.609272 27.633766 -4.440184
v -9.270506 27.463305 -5.7009397
v -9.2705145 27.633766 -4.440184
v -10.609272 27.4633 -5.7009764
v -8.361526 28.004202 -1.7617053
v -7.022754 27.821651 -3.11187
v -7.0227685 28.004198 -1.7617174
v -8.361526 27.821648 -3.1119041
v -4.803969 28.771376 -2.799878
v -3.3864136 28.610819 -3.987395
v -3.3864276 28.771376 -2.7998767
v -4.8039646 28.610815 -3.9874315
v -4.9467835 29.128725 -5.2325544
v -6.2829995 28.956245 -6.5082574
v -4.946783 28.956245 -6.5082464
v -6.2830353 29.128725 -5.232558
v -4.0827765 31.96317 21.030458
v -2.96369 28.795221 -2.4001758
v -2.9636931 31.963171 21.030468
v -7.681685 31.96317 21.030449
v -4.0827756 32.30096 23.528803
v -7.6816874 32.30096 23.528793
v -14.732533 28.795218 -2.40021
v -13.362781 31.96317 21.030434
v -14.732533 31.96317 21.03043
v -14.732536 32.300957 23.528774
v -13.362781 32.300957 23.528774
vt 1.5090659 -0.9875505
vt 1.9916557 -0.5139066
vt 1.9905887 -0.9872989
vt 1.5085565 -0.5153232
vt 0.513533 0.015918732
vt 0.99015546 0.49045014
vt 0.98908854 0.016170323
vt 0.5130236 0.48903352
vt 0.513533 0.015918732
vt 0.99015546 0.49045014
vt 0.98908854 0.016170323
vt 0.5130236 0.48903352
vt 0.513533 0.015918732
vt 0.99015546 0.49045014
vt 0.98908854 0.016170323
vt 0.5130236 0.48903352
vt 0.513533 0.015918732
vt 0.99015546 0.49045014
vt 0.98908854 0.016170323
vt 0.5130236 0.48903352
vt 0.513533 0.015918732
vt 0.99015546 0.49045014
vt 0.98908854 0.016170323
vt 0.5130236 0.48903352
vt 0.513533 0.015918732
vt 0.99015546 0.49045014
vt 0.98908854 0.016170323
vt 0.5130236 0.48903352
vt 0.513533 0.015918732
vt 0.99015546 0.49045014
vt 0.98908854 0.016170323
vt 0.5130236 0.48903352
vt 0.513533 0.015918732
vt 0.99015546 0.49045014
vt 0.98908854 0.016170323
vt 0.5130236 0.48903352
vt 0.513533 0.015918732
vt 0.99015546 0.49045014
vt 0.98908854 0.016170323
vt 0.5130236 0.48903352
vt 0.513533 0.015918732
vt 0.99015546 0.49045014
vt 0.98908854 0.016170323
vt 0.5130236 0.48903352
vt 1.5090659 -0.9875505
vt 1.9916557 -0.5139066
vt 1.9905887 -0.9872989
vt 1.5085565 -0.5153232
vt 0.513533 0.015918732
vt 0.99015546 0.49045014
vt 0.98908854 0.016170323
vt 0.5130236 0.48903352
vt 1.5090659 -0.9875505
vt 1.9916557 -0.5139066
vt 1.9905887 -0.9872989
vt 1.5085565 -0.5153232
vt 0.513533 0.015918732
vt 0.99015546 0.49045014
vt 0.98908854 0.016170323
vt 0.5130236 0.48903352
vt 0.513533 0.015918732
vt 0.99015546 0.49045014
vt 0.98908854 0.016170323
vt 0.5130236 0.48903352
vt 0.5188103 0.02766727
vt 0.9759035 0.470067
vt 0.9777431 0.030539975
vt 0.5187933 0.4724785
vt 1.5237851 -0.97507215
vt 1.9785693 -0.52714247
vt 1.978479 -0.9747171
vt 1.5212471 -0.52879757
vt -0.5091959 -11.500498
vt -0.5091959 -12.500848
vt -1.4989568 -12.500994
vt -2.4595637 -11.500498
vt -2.4595637 -12.501053
vt 0.513533 0.015918732
vt 0.99015546 0.49045014
vt 0.98908854 0.016170323
vt 0.5130236 0.48903352
vt 0.513533 0.015918732
vt 0.99015546 0.49045014
vt 0.98908854 0.016170323
vt 0.5130236 0.48903352
vt 0.513533 0.015918732
vt 0.99015546 0.49045014
vt 0.98908854 0.016170323
vt 0.5130236 0.48903352
vt 0.513533 0.015918732
vt 0.99015546 0.49045014
vt 0.98908854 0.016170323
vt 0.5130236 0.48903352
vt 0.513533 0.015918732
vt 0.99015546 0.49045014
vt 0.98908854 0.016170323
vt 0.5130236 0.48903352
vt 0.513533 0.015918732
vt 0.99015546 0.49045014
vt 0.98908854 0.016170323
vt 0.5130236 0.48903352
vt 0.513533 0.015918732
vt 0.99015546 0.49045014
vt 0.98908854 0.016170323
vt 0.5130236 0.48903352
vt 0.513533 0.015918732
vt 0.99015546 0.49045014
vt 0.98908854 0.016170323
vt 0.5130236 0.48903352
vt 0.513533 0.015918732
vt 0.99015546 0.49045014
vt 0.98908854 0.016170323
vt 0.5130236 0.48903352
vt 0.513533 0.015918732
vt 0.99015546 0.49045014
vt 0.98908854 0.016170323
vt 0.5130236 0.48903352
vt 0.513533 0.015918732
vt 0.99015546 0.49045014
vt 0.98908854 0.016170323
vt 0.5130236 0.48903352
vt -0.5091959 -11.500498
vt -0.5091959 -12.500848
vt -1.4989568 -12.500994
vt -2.4595637 -11.500498
vt -2.4595637 -12.501053
vt 0.513533 0.015918732
vt 0.99015546 0.49045014
vt 0.98908854 0.016170323
vt 0.5130236 0.48903352
vt 0.513533 0.015918732
vt 0.99015546 0.49045014
vt 0.98908854 0.016170323
vt 0.5130236 0.48903352
vt 0.513533 0.015918732
vt 0.99015546 0.49045014
vt 0.98908854 0.016170323
vt 0.5130236 0.48903352
vt 0.513533 0.015918732
vt 0.99015546 0.49045014
vt 0.98908854 0.016170323
vt 0.5130236 0.48903352
vt 1.5090659 -0.9875505
vt 1.9916557 -0.5139066
vt 1.9905887 -0.9872989
vt 1.5085565 -0.5153232
vt 0.741838 -10.4874325
vt 1.1230257 -0.96797144
vt 1.1262076 -10.4874325
vt -0.5091959 -10.4874325
vt 0.741838 -11.500498
vt -0.5091959 -11.500498
vt -2.958509 -0.9680259
vt -2.4595637 -10.4874325
vt -2.958509 -10.4874325
vt -2.958509 -11.500498
vt -2.4595637 -11.500498
vn -5.0821905E-07 0.9909831 -0.13398652
vn -5.0821905E-07 0.9909831 -0.13398652
vn -5.08219E-07 0.9909831 -0.13398652
vn -0 0.9909831 -0.13398609
vn -0 0.9909831 -0.1339861
vn -0 0.9909831 -0.13398609
vn -0 0.9909831 -0.13398609
vn 2.5818926E-07 0.99098325 -0.13398576
vn -0 0.9909831 -0.13398626
vn -0 0.9909831 -0.13398628
vn -0 0.9909831 -0.13398626
vn -0 0.9909831 -0.13398619
vn -2.551443E-07 0.9909831 -0.1339864
vn -2.551443E-07 0.9909831 -0.13398638
vn -2.551443E-07 0.9909831 -0.13398638
vn -0 0.99098325 -0.13398603
vn 1.7056882E-07 0.9909831 -0.13398632
vn 1.7056882E-07 0.9909831 -0.13398632
vn 1.7056882E-07 0.9909831 -0.13398632
vn 4.2876735E-07 0.9909831 -0.13398609
vn 9.0359487E-07 0.99098337 -0.13398503
vn 9.0359504E-07 0.99098337 -0.13398506
vn 9.03595E-07 0.99098337 -0.13398504
vn -6.084945E-07 0.9909831 -0.1339864
vn -3.1811894E-07 0.9909831 -0.13398673
vn -3.181189E-07 0.9909831 -0.13398671
vn -3.1811894E-07 0.9909831 -0.13398673
vn 2.5819898E-07 0.9909831 -0.13398612
vn -4.716319E-07 0.9909831 -0.13398652
vn -4.716319E-07 0.9909831 -0.13398652
vn -4.7163186E-07 0.9909831 -0.1339865
vn 2.6478926E-07 0.99098325 -0.13398579
vn -0 0.9909831 -0.13398626
vn -0 0.9909831 -0.13398625
vn -0 0.9909831 -0.13398625
vn 2.3169392E-07 0.99098325 -0.13398592
vn -0 0.99098325 -0.13398601
vn -0 0.99098325 -0.13398601
vn -0 0.99098325 -0.133986
vn -1.7372624E-07 0.9909831 -0.13398612
vn -0 0.9909831 -0.13398652
vn -0 0.9909831 -0.13398653
vn -0 0.9909831 -0.13398652
vn 2.5820057E-07 0.9909831 -0.1339862
vn -2.924717E-07 0.9909831 -0.13398658
vn -2.9247167E-07 0.9909831 -0.13398656
vn -2.9247164E-07 0.9909831 -0.13398655
vn -0 0.9909831 -0.1339863
vn -0 0.9909831 -0.13398634
vn -0 0.9909831 -0.13398634
vn -0 0.9909831 -0.13398634
vn 2.950824E-07 0.99098325 -0.13398606
vn -3.4179172E-07 0.99098325 -0.1339859
vn -3.417917E-07 0.99098325 -0.13398589
vn -3.417917E-07 0.99098325 -0.1339859
vn 4.896023E-07 0.9909831 -0.13398676
vn 1.3368259E-07 0.9909831 -0.13398632
vn 1.336826E-07 0.9909831 -0.13398634
vn 1.336826E-07 0.9909831 -0.13398634
vn 2.9508604E-07 0.9909831 -0.13398619
vn -2.8199187E-07 0.99098325 -0.13398601
vn -2.8199187E-07 0.99098325 -0.13398601
vn -2.8199187E-07 0.99098325 -0.13398601
vn -4.5360386E-07 0.9909831 -0.1339862
vn -1.2228215E-07 0.9909831 -0.13398655
vn -1.2228215E-07 0.9909831 -0.13398656
vn -1.2228215E-07 0.9909831 -0.13398656
vn -0 0.9909831 -0.13398634
vn 6.6044396E-07 0.99098325 -0.13398604
vn 6.6044396E-07 0.99098325 -0.13398603
vn 6.6044396E-07 0.99098325 -0.13398604
vn -1.2510814E-07 0.9909831 -0.13398694
vn -0 0.9909831 -0.13398628
vn -0 0.9909831 -0.13398626
vn -0 0.9909831 -0.13398626
vn -0 0.99098325 -0.13398583
vn -0 0.99098325 -0.13398582
vn -0 0.99098325 -0.13398603
vn -0 0.99098325 -0.13398604
vn -0 0.99098325 -0.13398604
vn -1.7897594E-07 0.9909831 -0.13398616
vn 3.4114166E-07 0.99098325 -0.13398604
vn 3.4114166E-07 0.99098325 -0.13398604
vn 3.4114166E-07 0.99098325 -0.13398606
vn -0 0.9909831 -0.13398635
vn -3.1811692E-07 0.9909831 -0.13398647
vn -3.18117E-07 0.9909831 -0.13398649
vn -3.18117E-07 0.9909831 -0.13398649
vn -0 0.9909831 -0.13398616
vn -0 0.9909831 -0.13398647
vn -0 0.9909831 -0.13398647
vn -0 0.9909831 -0.13398647
vn 1.0801704E-07 0.9909831 -0.13398637
vn -0 0.9909831 -0.13398644
vn -0 0.9909831 -0.13398644
vn -0 0.9909831 -0.13398644
vn -0 0.9909831 -0.1339864
vn -0 0.9909831 -0.13398628
vn -0 0.9909831 -0.13398628
vn -0 0.9909831 -0.13398626
vn -0 0.9909831 -0.13398637
vn -0 0.99098325 -0.13398598
vn -0 0.99098325 -0.13398598
vn -0 0.99098325 -0.13398598
vn -3.641576E-07 0.9909831 -0.13398635
vn -2.3283047E-07 0.9909831 -0.13398625
vn -2.3283046E-07 0.9909831 -0.13398625
vn -2.3283046E-07 0.9909831 -0.13398625
vn -1.567084E-07 0.9909831 -0.13398616
vn 3.4948025E-07 0.99098325 -0.13398604
vn 3.4948025E-07 0.99098325 -0.13398604
vn 3.4948025E-07 0.99098325 -0.13398604
vn -0 0.9909831 -0.13398637
vn 2.55856E-07 0.99098325 -0.13398604
vn 2.55856E-07 0.99098325 -0.13398604
vn 2.5585598E-07 0.99098325 -0.13398604
vn -0 0.9909831 -0.13398623
vn -1.5905808E-07 0.9909831 -0.13398646
vn -1.5905808E-07 0.9909831 -0.13398644
vn -1.5905808E-07 0.9909831 -0.13398644
vn 2.5819708E-07 0.99098325 -0.13398607
vn -0 0.9909831 -0.13398626
vn -0 0.9909831 -0.13398625
vn -0 0.9909831 -0.13398625
vn -0 0.9909831 -0.1339862
vn -0 0.9909831 -0.1339862
vn 1.05975566E-07 0.9909831 -0.13398625
vn 1.0597555E-07 0.9909831 -0.13398625
vn 1.0597555E-07 0.9909831 -0.13398623
vn 1.0801312E-07 0.9909831 -0.13398623
vn -0 0.9909831 -0.13398609
vn -0 0.9909831 -0.13398609
vn -0 0.9909831 -0.1339861
vn -0 0.99098325 -0.13398606
vn 1.3368152E-07 0.9909831 -0.13398643
vn 1.3368152E-07 0.9909831 -0.13398643
vn 1.3368152E-07 0.9909831 -0.13398643
vn 2.582036E-07 0.9909831 -0.13398632
vn 1.1538121E-07 0.9909831 -0.1339864
vn 1.1538123E-07 0.9909831 -0.13398641
vn 1.1538121E-07 0.9909831 -0.13398641
vn -0 0.9909831 -0.13398644
vn 1.9631621E-07 0.9909831 -0.13398623
vn 1.9631621E-07 0.9909831 -0.13398623
vn 1.9631621E-07 0.9909831 -0.13398623
vn -0 0.99098325 -0.13398595
vn -2.0405223E-07 0.9909831 -0.13398625
vn -2.0405223E-07 0.9909831 -0.13398623
vn -2.0405223E-07 0.9909831 -0.13398623
vn 1.9550691E-07 0.9909831 -0.13398622
vn 1.1833523E-07 0.9909831 -0.1339862
vn 1.18335244E-07 0.9909831 -0.1339862
vn -0 0.9909831 -0.13398623
vn -0 0.9909831 -0.13398623
vn 4.776249E-07 0.99098325 -0.13398609
vn -0 0.9909831 -0.13398632
vn -0 0.9909831 -0.13398634
g Passageway04_0
f 3/3/3 2/2/2 1/1/1
f 4/4/4 1/1/1 2/2/2
f 7/7/7 6/6/6 5/5/5
f 8/8/8 5/5/5 6/6/6
f 11/11/11 10/10/10 9/9/9
f 12/12/12 9/9/9 10/10/10
f 15/15/15 14/14/14 13/13/13
f 16/16/16 13/13/13 14/14/14
f 19/19/19 18/18/18 17/17/17
f 20/20/20 17/17/17 18/18/18
f 23/23/23 22/22/22 21/21/21
f 24/24/24 21/21/21 22/22/22
f 27/27/27 26/26/26 25/25/25
f 28/28/28 25/25/25 26/26/26
f 31/31/31 30/30/30 29/29/29
f 32/32/32 29/29/29 30/30/30
f 35/35/35 34/34/34 33/33/33
f 36/36/36 33/33/33 34/34/34
f 39/39/39 38/38/38 37/37/37
f 40/40/40 37/37/37 38/38/38
f 43/43/43 42/42/42 41/41/41
f 44/44/44 41/41/41 42/42/42
f 47/47/47 46/46/46 45/45/45
f 48/48/48 45/45/45 46/46/46
f 51/51/51 50/50/50 49/49/49
f 52/52/52 49/49/49 50/50/50
f 55/55/55 54/54/54 53/53/53
f 56/56/56 53/53/53 54/54/54
f 59/59/59 58/58/58 57/57/57
f 60/60/60 57/57/57 58/58/58
f 63/63/63 62/62/62 61/61/61
f 64/64/64 61/61/61 62/62/62
f 67/67/67 66/66/66 65/65/65
f 68/68/68 65/65/65 66/66/66
f 71/71/71 70/70/70 69/69/69
f 72/72/72 69/69/69 70/70/70
f 75/75/75 74/74/74 73/73/73
f 76/76/76 75/75/75 73/73/73
f 77/77/77 75/75/75 76/76/76
f 80/80/80 79/79/79 78/78/78
f 81/81/81 78/78/78 79/79/79
f 84/84/84 83/83/83 82/82/82
f 85/85/85 82/82/82 83/83/83
f 88/88/88 87/87/87 86/86/86
f 89/89/89 86/86/86 87/87/87
f 92/92/92 91/91/91 90/90/90
f 93/93/93 90/90/90 91/91/91
f 96/96/96 95/95/95 94/94/94
f 97/97/97 94/94/94 95/95/95
f 100/100/100 99/99/99 98/98/98
f 101/101/101 98/98/98 99/99/99
f 104/104/104 103/103/103 102/102/102
f 105/105/105 102/102/102 103/103/103
f 108/108/108 107/107/107 106/106/106
f 109/109/109 106/106/106 107/107/107
f 112/112/112 111/111/111 110/110/110
f 113/113/113 110/110/110 111/111/111
f 116/116/116 115/115/115 114/114/114
f 117/117/117 114/114/114 115/115/115
f 120/120/120 119/119/119 118/118/118
f 121/121/121 118/118/118 119/119/119
f 124/124/124 123/123/123 122/122/122
f 125/125/125 124/124/124 122/122/122
f 126/126/126 124/124/124 125/125/125
f 129/129/129 128/128/128 127/127/127
f 130/130/130 127/127/127 128/128/128
f 133/133/133 132/132/132 131/131/131
f 134/134/134 131/131/131 132/132/132
f 137/137/137 136/136/136 135/135/135
f 138/138/138 135/135/135 136/136/136
f 141/141/141 140/140/140 139/139/139
f 142/142/142 139/139/139 140/140/140
f 145/145/145 144/144/144 143/143/143
f 146/146/146 143/143/143 144/144/144
f 149/149/149 148/148/148 147/147/147
f 150/150/150 147/147/147 148/148/148
f 147/147/147 150/150/150 151/151/151
f 152/152/152 151/151/151 150/150/150
f 148/148/148 153/153/153 150/150/150
f 154/154/154 150/150/150 153/153/153
f 155/155/155 154/154/154 153/153/153
f 155/155/155 156/156/156 154/154/154
f 157/157/157 154/154/154 156/156/156
