g Ref01
v 42.49397 64.11436 15.053367
v 29.957148 64.11436 32.921673
v 29.957148 -54.896523 32.921673
v 42.49397 -54.896523 15.053367
v 42.82452 -54.896523 12.856839
v 42.82452 64.11436 12.856839
v 29.957148 -54.896523 32.921673
v 29.957148 64.11436 32.921673
v 11.441766 64.11436 45.524784
v 11.441766 -54.896523 45.524784
v 11.441766 -54.896523 45.524784
v 11.441766 64.11436 45.524784
v -10.19007 64.11436 49.52916
v -10.19007 -54.896523 49.52916
v -10.19007 64.11436 49.52916
v -31.079489 64.11436 42.76488
v -31.079489 -54.896523 42.76488
v -10.19007 -54.896523 49.52916
v -31.079489 -54.896523 42.76488
v -31.079489 64.11436 42.76488
v -46.884537 64.11436 27.235806
v -46.884537 -54.896523 27.235806
v -46.884537 -54.896523 0.005409124
v -46.884537 64.11436 0.005409124
v -46.884537 64.11436 -27.224987
v -46.884537 -54.896523 -27.224987
v -31.079489 -54.896523 -42.754063
v -31.079489 64.11436 -42.754063
v 42.49397 64.11436 -15.04255
v 42.49397 -54.896523 -15.04255
v 29.957148 -54.896523 -32.910854
v 29.957148 64.11436 -32.910854
v 42.82452 -54.896523 -12.846023
v 42.82452 64.11436 -12.846023
v 29.957148 -54.896523 -32.910854
v 11.441768 -54.896523 -45.513966
v 11.441768 64.11436 -45.513966
v 29.957148 64.11436 -32.910854
v 11.441768 -54.896523 -45.513966
v -10.19007 -54.896523 -49.518337
v -10.19007 64.11436 -49.518337
v 11.441768 64.11436 -45.513966
v -10.19007 64.11436 -49.518337
v -10.19007 -54.896523 -49.518337
v -31.079489 -54.896523 -42.754063
v -31.079489 64.11436 -42.754063
vt 0.38855124 0.9992241
vt 0.22198981 0.9992241
vt 0.22198981 0.24999802
vt 0.38855124 0.24999802
vt 0.40713918 0.24999802
vt 0.40713918 0.9992241
vt 0.38855124 0.24999802
vt 0.38855124 0.9992241
vt 0.22198981 0.9992241
vt 0.22198981 0.24999802
vt 0.38855124 0.24999803
vt 0.38855124 0.9992241
vt 0.22198981 0.9992241
vt 0.22198981 0.24999803
vt 0.38855124 0.9992241
vt 0.22198981 0.9992241
vt 0.22198981 0.24999803
vt 0.38855124 0.24999803
vt 0.38864058 0.24999802
vt 0.38864058 0.9992241
vt 0.22198981 0.9992241
vt 0.22198981 0.24999802
vt 0.014978826 0.24999802
vt 0.014978826 0.9992241
vt 0.22198981 0.9992241
vt 0.22198981 0.24999802
vt 0.38864058 0.24999802
vt 0.38864058 0.9992241
vt 0.38855124 0.9992241
vt 0.38855124 0.24999802
vt 0.22198981 0.24999802
vt 0.22198981 0.9992241
vt 0.40713918 0.24999802
vt 0.40713918 0.9992241
vt 0.38855124 0.24999802
vt 0.22198981 0.24999802
vt 0.22198981 0.9992241
vt 0.38855124 0.9992241
vt 0.38855124 0.24999803
vt 0.22198981 0.24999803
vt 0.22198981 0.9992241
vt 0.38855124 0.9992241
vt 0.38855124 0.9992241
vt 0.38855124 0.24999803
vt 0.22198981 0.24999803
vt 0.22198981 0.9992241
vn -0.84177804 0 -0.5398237
vn -0.7004004 0 -0.7137501
vn -0.7004004 0 -0.7137501
vn -0.84177804 0 -0.5398237
vn -0.9888653 0 -0.14881273
vn -0.9888653 0 -0.14881273
vn -0.7004004 0 -0.7137501
vn -0.7004004 0 -0.7137501
vn -0.38225043 0 -0.92405874
vn -0.38225043 0 -0.92405874
vn -0.38225043 0 -0.92405874
vn -0.38225043 0 -0.92405874
vn 0.06477013 0 -0.99790025
vn 0.06477013 0 -0.99790025
vn 0.06477013 0 -0.99790025
vn 0.51922613 0 -0.8546369
vn 0.51922613 0 -0.8546369
vn 0.06477013 0 -0.99790025
vn 0.51922613 0 -0.8546369
vn 0.51922613 0 -0.8546369
vn 0.93797576 0 -0.34670088
vn 0.93797576 0 -0.34670088
vn 1 0 0
vn 1 0 0
vn 0.93797576 0 0.346701
vn 0.93797576 0 0.346701
vn 0.51922613 0 0.8546369
vn 0.51922613 0 0.8546369
vn -0.84177804 0 0.5398238
vn -0.84177804 0 0.5398238
vn -0.7004004 0 0.7137502
vn -0.7004004 0 0.7137502
vn -0.9888653 0 0.14881268
vn -0.9888653 0 0.14881268
vn -0.7004004 0 0.7137502
vn -0.38225043 0 0.92405874
vn -0.38225043 0 0.92405874
vn -0.7004004 0 0.7137502
vn -0.38225043 0 0.92405874
vn 0.06477012 0 0.99790025
vn 0.06477012 0 0.99790025
vn -0.38225043 0 0.92405874
vn 0.06477012 0 0.99790025
vn 0.06477012 0 0.99790025
vn 0.51922613 0 0.8546369
vn 0.51922613 0 0.8546369
g Ref01_0
f 3/3/3 2/2/2 1/1/1
f 4/4/4 3/3/3 1/1/1
f 4/4/4 1/1/1 5/5/5
f 1/1/1 6/6/6 5/5/5
f 9/9/9 8/8/8 7/7/7
f 10/10/10 9/9/9 7/7/7
f 13/13/13 12/12/12 11/11/11
f 14/14/14 13/13/13 11/11/11
f 17/17/17 16/16/16 15/15/15
f 18/18/18 17/17/17 15/15/15
f 21/21/21 20/20/20 19/19/19
f 22/22/22 21/21/21 19/19/19
f 22/22/22 23/23/23 21/21/21
f 23/23/23 24/24/24 21/21/21
f 24/24/24 23/23/23 25/25/25
f 23/23/23 26/26/26 25/25/25
f 25/25/25 26/26/26 27/27/27
f 28/28/28 25/25/25 27/27/27
f 31/31/31 30/30/30 29/29/29
f 32/32/32 31/31/31 29/29/29
f 29/29/29 30/30/30 33/33/33
f 34/34/34 29/29/29 33/33/33
f 37/37/37 36/36/36 35/35/35
f 38/38/38 37/37/37 35/35/35
f 41/41/41 40/40/40 39/39/39
f 42/42/42 41/41/41 39/39/39
f 45/45/45 44/44/44 43/43/43
f 46/46/46 45/45/45 43/43/43
