g Ref03
v -93.188 60.487286 62.79996
v -93.188 629.11304 62.79996
v -109.694176 629.11304 26.263197
v -109.694176 60.487286 26.263197
v -65.74145 60.487286 90.55656
v -65.74145 629.11304 90.55656
v -29.712431 60.487286 106.88393
v -29.712431 629.11304 106.88393
v 12.849575 60.487286 110.08832
v 12.849575 629.11304 110.08832
v 66.324394 60.487286 90.71335
v 66.324394 629.11304 90.71335
v 30.446918 629.11304 108.60734
v 30.446918 60.487286 108.60734
v 93.008995 60.487286 62.223442
v 93.008995 629.11304 62.223442
v 107.943886 60.487286 25.595287
v 107.943886 629.11304 25.595287
v 109.51514 60.487286 -17.05824
v 109.51514 629.11304 -17.05824
v -56.002567 60.487286 -97.42459
v -56.002567 629.11304 -97.42459
v -18.382872 629.11304 -111.286285
v -18.382872 60.487286 -111.286285
v -85.64371 60.487286 -72.02488
v -85.64371 629.11304 -72.02488
v -104.49597 60.487286 -37.2504
v -104.49597 629.11304 -37.2504
v -110.72396 60.487286 4.975237
v -110.72396 629.11304 4.975237
v 88.77154 60.487286 -68.90175
v 88.77154 629.11304 -68.90175
v 107.68832 629.11304 -33.55286
v 107.68832 60.487286 -33.55286
v 59.527176 60.487286 -94.75729
v 59.527176 629.11304 -94.75729
v 22.485292 60.487286 -108.634315
v 22.485292 629.11304 -108.634315
v -20.195765 60.487286 -108.98019
v -20.195765 629.11304 -108.98019
vt 0.60294205 0.00017390463
vt 0.60291237 0.9608912
vt 0.668567 0.96085787
vt 0.66859746 0.0002072108
vt 0.5364288 0.0001722692
vt 0.5364007 0.96089274
vt 0.47070068 0.00014464543
vt 0.47067413 0.9609204
vt 0.40657425 0.00016333473
vt 0.40654847 0.9609017
vt 0.60294205 0.00017390463
vt 0.60291237 0.9608912
vt 0.668567 0.96085787
vt 0.66859746 0.0002072108
vt 0.5364288 0.0001722692
vt 0.5364007 0.96089274
vt 0.47070068 0.00014464543
vt 0.47067413 0.9609204
vt 0.40657425 0.00016333473
vt 0.40654847 0.9609017
vt 0.60294205 0.00017390463
vt 0.60291237 0.9608912
vt 0.668567 0.96085787
vt 0.66859746 0.0002072108
vt 0.5364288 0.0001722692
vt 0.5364007 0.96089274
vt 0.47070068 0.00014464543
vt 0.47067413 0.9609204
vt 0.40657425 0.00016333473
vt 0.40654847 0.9609017
vt 0.60294205 0.00017390463
vt 0.60291237 0.9608912
vt 0.668567 0.96085787
vt 0.66859746 0.0002072108
vt 0.5364288 0.0001722692
vt 0.5364007 0.96089274
vt 0.47070068 0.00014464543
vt 0.47067413 0.9609204
vt 0.40657425 0.00016333473
vt 0.40654847 0.9609017
vn 0.8255314 0 -0.56435615
vn 0.8255314 0 -0.56435615
vn 0.9113173 0 -0.41170475
vn 0.9113173 0 -0.41170475
vn 0.57042813 0 -0.82134753
vn 0.57042813 0 -0.82134753
vn 0.24118724 0 -0.97047853
vn 0.24118724 0 -0.97047853
vn 0.07507537 0 -0.99717784
vn 0.07507537 0 -0.99717784
vn -0.5955726 0 -0.8033015
vn -0.5955726 0 -0.8033015
vn -0.44632053 0 -0.89487326
vn -0.44632053 0 -0.89487326
vn -0.8426007 0 -0.5385389
vn -0.8426007 0 -0.5385389
vn -0.97900724 0 -0.20382552
vn -0.97900724 0 -0.20382552
vn -0.9993222 0 -0.036812548
vn -0.9993222 0 -0.036812548
vn 0.50411934 0 0.86363405
vn 0.50411934 0 0.86363405
vn 0.34574533 0 0.9383284
vn 0.34574533 0 0.9383284
vn 0.778629 0 0.62748456
vn 0.778629 0 0.62748456
vn 0.95083344 0 0.30970266
vn 0.95083344 0 0.30970266
vn 0.9892972 0 0.1459145
vn 0.9892972 0 0.1459145
vn -0.7858694 0 0.6183926
vn -0.7858694 0 0.6183926
vn -0.88168895 0 0.47183126
vn -0.88168895 0 0.47183126
vn -0.5141229 0 0.8577165
vn -0.5141229 0 0.8577165
vn -0.17563088 0 0.9844562
vn -0.17563088 0 0.9844562
vn -0.008103124 0 0.9999672
vn -0.008103124 0 0.9999672
g Ref03_0
f 3/3/3 2/2/2 1/1/1
f 4/4/4 3/3/3 1/1/1
f 1/1/1 2/2/2 5/5/5
f 2/2/2 6/6/6 5/5/5
f 5/5/5 6/6/6 7/7/7
f 6/6/6 8/8/8 7/7/7
f 7/7/7 8/8/8 9/9/9
f 8/8/8 10/10/10 9/9/9
f 13/13/13 12/12/12 11/11/11
f 14/14/14 13/13/13 11/11/11
f 11/11/11 12/12/12 15/15/15
f 12/12/12 16/16/16 15/15/15
f 15/15/15 16/16/16 17/17/17
f 16/16/16 18/18/18 17/17/17
f 17/17/17 18/18/18 19/19/19
f 18/18/18 20/20/20 19/19/19
f 23/23/23 22/22/22 21/21/21
f 24/24/24 23/23/23 21/21/21
f 21/21/21 22/22/22 25/25/25
f 22/22/22 26/26/26 25/25/25
f 25/25/25 26/26/26 27/27/27
f 26/26/26 28/28/28 27/27/27
f 27/27/27 28/28/28 29/29/29
f 28/28/28 30/30/30 29/29/29
f 33/33/33 32/32/32 31/31/31
f 34/34/34 33/33/33 31/31/31
f 31/31/31 32/32/32 35/35/35
f 32/32/32 36/36/36 35/35/35
f 35/35/35 36/36/36 37/37/37
f 36/36/36 38/38/38 37/37/37
f 37/37/37 38/38/38 39/39/39
f 38/38/38 40/40/40 39/39/39
