g Stage_Dominating_Theater_CG_Crushed_Ston_C_04
v -0.1948773 0.012545269 0.113518596
v -0.14225218 0.012545269 0.015337524
v -0.034672413 0.012545275 0.22025482
v -0.11161978 0.012545275 0.22976501
v -0.049032915 0.012545276 0.24906325
v -0.08794546 0.012545276 0.25924972
v -0.1940918 0.012545275 0.18656516
v 0.028099231 0.012545275 0.19904815
v -0.08727075 0.012545264 -0.035716552
v -0.045060787 0.012545262 -0.05571075
v 0.078864194 0.012545275 0.17579871
v 0.07040174 0.012545262 -0.083391875
v 0.1673409 0.012545276 0.095220566
v 0.1948773 0.012545279 -0.03838745
v 0.13559389 0.012545258 -0.18628539
v 0.17136808 0.012545255 -0.25924972
v 0.078864194 0.012545275 0.17579871
v 0.078864194 -0.012545262 0.17579879
v 0.028099231 -0.012545262 0.19904815
v 0.028099231 0.012545275 0.19904815
v 0.1673409 0.012545276 0.095220566
v 0.16734092 -0.01254526 0.095220566
v 0.078864194 -0.012545262 0.17579879
v 0.078864194 0.012545275 0.17579871
v 0.1948773 0.012545279 -0.03838745
v 0.19487728 -0.012545258 -0.03838745
v 0.16734092 -0.01254526 0.095220566
v 0.1673409 0.012545276 0.095220566
v 0.17136808 0.012545255 -0.25924972
v 0.17136809 -0.012545279 -0.25924972
v 0.19487728 -0.012545258 -0.03838745
v 0.1948773 0.012545279 -0.03838745
v -0.034672413 0.012545275 0.22025482
v -0.034672413 -0.012545262 0.22025482
v -0.049032897 -0.01254526 0.2490633
v -0.049032915 0.012545276 0.24906325
v 0.028099231 0.012545275 0.19904815
v 0.028099231 -0.012545262 0.19904815
v -0.034672413 -0.012545262 0.22025482
v -0.034672413 0.012545275 0.22025482
v -0.1940918 0.012545275 0.18656516
v -0.1940918 -0.0125452615 0.18656516
v -0.1948773 -0.012545267 0.113518596
v -0.1948773 0.012545269 0.113518596
v -0.11161978 0.012545275 0.22976501
v -0.111619756 -0.012545262 0.22976501
v -0.1940918 -0.0125452615 0.18656516
v -0.1940918 0.012545275 0.18656516
v -0.049032915 0.012545276 0.24906325
v -0.049032897 -0.01254526 0.2490633
v -0.08794546 -0.012545259 0.2592497
v -0.08794546 0.012545276 0.25924972
v -0.08794546 0.012545276 0.25924972
v -0.08794546 -0.012545259 0.2592497
v -0.111619756 -0.012545262 0.22976501
v -0.11161978 0.012545275 0.22976501
v 0.13559389 0.012545258 -0.18628539
v 0.13559394 -0.012545276 -0.18628539
v 0.17136809 -0.012545279 -0.25924972
v 0.17136808 0.012545255 -0.25924972
v 0.07040174 0.012545262 -0.083391875
v 0.07040174 -0.012545275 -0.083391875
v 0.13559394 -0.012545276 -0.18628539
v 0.13559389 0.012545258 -0.18628539
v -0.045060787 0.012545262 -0.05571075
v -0.045060787 -0.012545272 -0.05571075
v 0.07040174 -0.012545275 -0.083391875
v 0.07040174 0.012545262 -0.083391875
v -0.08727075 0.012545264 -0.035716552
v -0.08727075 -0.012545272 -0.035716552
v -0.045060787 -0.012545272 -0.05571075
v -0.045060787 0.012545262 -0.05571075
v -0.14225218 0.012545269 0.015337524
v -0.14225216 -0.012545267 0.015337524
v -0.08727075 -0.012545272 -0.035716552
v -0.08727075 0.012545264 -0.035716552
v -0.1948773 0.012545269 0.113518596
v -0.1948773 -0.012545267 0.113518596
v -0.14225216 -0.012545267 0.015337524
v -0.14225218 0.012545269 0.015337524
v -0.1948773 -0.012545267 0.113518596
v -0.111619756 -0.012545262 0.22976501
v -0.034672413 -0.012545262 0.22025482
v -0.14225216 -0.012545267 0.015337524
v -0.049032897 -0.01254526 0.2490633
v -0.08794546 -0.012545259 0.2592497
v -0.1940918 -0.0125452615 0.18656516
v 0.028099231 -0.012545262 0.19904815
v -0.08727075 -0.012545272 -0.035716552
v -0.045060787 -0.012545272 -0.05571075
v 0.078864194 -0.012545262 0.17579879
v 0.07040174 -0.012545275 -0.083391875
v 0.16734092 -0.01254526 0.095220566
v 0.19487728 -0.012545258 -0.03838745
v 0.13559394 -0.012545276 -0.18628539
v 0.17136809 -0.012545279 -0.25924972
vt 0.54189587 0.4371334
vt 0.6067963 0.39522097
vt 0.46097964 0.32939222
vt 0.45811692 0.3841154
vt 0.44188488 0.3409281
vt 0.43674535 0.36886498
vt 0.49170667 0.4401545
vt 0.47254825 0.2840924
vt 0.6392286 0.35395348
vt 0.6509446 0.32321155
vt 0.48609155 0.2471588
vt 0.66444767 0.24044101
vt 0.5371981 0.18082783
vt 0.6276174 0.15487233
vt 0.731985 0.18943653
vt 0.7803753 0.16064021
vt 0.12817219 0.27994797
vt 0.13273048 0.17056413
vt 0.041308008 0.17055216
vt 0.036761947 0.27993596
vt 0.319683 0.27997375
vt 0.32424843 0.17058995
vt 0.13273048 0.17056413
vt 0.12817219 0.27994797
vt 0.5285302 0.28000212
vt 0.53309953 0.1706182
vt 0.32424843 0.17058995
vt 0.319683 0.27997375
vt 0.86766505 0.2800479
vt 0.87223566 0.17066425
vt 0.53309953 0.1706182
vt 0.5285302 0.28000212
vt -0.07234022 0.27992153
vt -0.06780176 0.17053764
vt -0.117786735 0.17053111
vt -0.12232061 0.2799149
vt 0.036761947 0.27993596
vt 0.041308008 0.17055216
vt -0.06780176 0.17053764
vt -0.07234022 0.27992153
vt 2.1505227 0.08948467
vt 2.1383958 0.19886649
vt 2.2498007 0.19890651
vt 2.2619324 0.0895245
vt 1.9985751 0.089429796
vt 1.9864515 0.19881174
vt 2.1383958 0.19886649
vt 2.1505227 0.08948467
vt -0.12232061 0.2799149
vt -0.117786735 0.17053111
vt -0.18423223 0.17052212
vt -0.18876475 0.27990597
vt 1.9388491 0.089408204
vt 1.9267262 0.19879016
vt 1.9864515 0.19881174
vt 1.9985751 0.089429796
vt 3.01855 0.08979565
vt 3.006401 0.19917753
vt 3.1325464 0.19922313
vt 3.1446953 0.08984118
vt 2.8279166 0.08972678
vt 2.8157687 0.19910873
vt 3.006401 0.19917753
vt 3.01855 0.08979565
vt 2.6316447 0.08965615
vt 2.6194978 0.19903809
vt 2.8157687 0.19910873
vt 2.8279166 0.08972678
vt 2.5552459 0.08962941
vt 2.5431004 0.19901122
vt 2.6194978 0.19903809
vt 2.6316447 0.08965615
vt 2.435289 0.08958662
vt 2.423152 0.19896857
vt 2.5431004 0.19901122
vt 2.5552459 0.08962941
vt 2.2619324 0.0895245
vt 2.2498007 0.19890651
vt 2.423152 0.19896857
vt 2.435289 0.08958662
vt 0.54189587 0.4371334
vt 0.45811692 0.3841154
vt 0.46097964 0.32939222
vt 0.6067963 0.39522097
vt 0.44188488 0.3409281
vt 0.43674535 0.36886498
vt 0.49170667 0.4401545
vt 0.47254825 0.2840924
vt 0.6392286 0.35395348
vt 0.6509446 0.32321155
vt 0.48609155 0.2471588
vt 0.66444767 0.24044101
vt 0.5371981 0.18082783
vt 0.6276174 0.15487233
vt 0.731985 0.18943653
vt 0.7803753 0.16064021
vn -0 1 0
vn -0 1 0
vn -0 1 0
vn -0 1 0
vn -0 1 0
vn -0 1 0
vn -0 1 0
vn -0 1 0
vn -0 1 0
vn -0 1 0
vn -0 1 0
vn -0 1 0
vn -0 1 0
vn -1.3078333E-07 1 0
vn -0 1 -1.0682208E-07
vn -1.2614026E-07 1 0
vn 0.41639012 1.3955091E-06 0.90918607
vn 0.41639012 1.3955091E-06 0.90918607
vn 0.41639012 1.3955091E-06 0.90918607
vn 0.41639012 1.3955091E-06 0.90918607
vn 0.6733351 1.3975152E-06 0.73933756
vn 0.673335 1.3975151E-06 0.73933744
vn 0.6733351 1.397515E-06 0.73933756
vn 0.6733351 1.3975152E-06 0.73933756
vn 0.9794152 0 0.20185573
vn 0.9794153 0 0.20185575
vn 0.9794153 0 0.20185575
vn 0.9794152 0 0.20185573
vn 0.9943826 0 -0.10584485
vn 0.9943826 0 -0.105844855
vn 0.9943826 0 -0.10584485
vn 0.9943826 0 -0.105844855
vn 0.89497006 6.7896354E-07 0.4461263
vn 0.89497006 6.789635E-07 0.44612634
vn 0.89497006 6.789635E-07 0.44612634
vn 0.89497006 6.789636E-07 0.44612634
vn 0.32006636 0 0.94739515
vn 0.32006636 0 0.94739515
vn 0.32006636 0 0.94739515
vn 0.32006636 0 0.94739515
vn -0.9999422 0 0.01075284
vn -0.9999422 0 0.010752837
vn -0.9999422 0 0.01075284
vn -0.9999422 0 0.010752837
vn -0.46400875 -1.6330299E-07 0.8858305
vn -0.46400875 -1.6330299E-07 0.8858305
vn -0.46400875 -1.6330296E-07 0.8858305
vn -0.46400875 -1.6330296E-07 0.8858305
vn 0.253244 0 0.96740246
vn 0.25324404 0 0.96740246
vn 0.253244 0 0.96740246
vn 0.25324404 0 0.96740246
vn -0.779751 -7.790246E-07 0.6260898
vn -0.779751 -7.790246E-07 0.6260898
vn -0.779751 -7.790246E-07 0.6260898
vn -0.77975094 -7.790247E-07 0.6260898
vn -0.89788496 -1.1927252E-06 -0.4402301
vn -0.89788496 -1.1927254E-06 -0.44023013
vn -0.89788496 -1.1927253E-06 -0.44023013
vn -0.89788496 -1.1927252E-06 -0.44023004
vn -0.84472156 -7.489054E-07 -0.5352061
vn -0.84472156 -7.489053E-07 -0.5352061
vn -0.84472156 -7.4890534E-07 -0.535206
vn -0.84472156 -7.489053E-07 -0.5352061
vn -0.23313494 0 -0.9724444
vn -0.23313494 0 -0.9724444
vn -0.23313494 0 -0.9724444
vn -0.23313494 0 -0.9724444
vn -0.42808643 0 -0.9037378
vn -0.42808646 0 -0.9037378
vn -0.42808646 0 -0.9037378
vn -0.42808646 0 -0.9037378
vn -0.68045044 -2.5329476E-07 -0.7327941
vn -0.68045044 -2.532948E-07 -0.7327941
vn -0.68045044 -2.5329476E-07 -0.7327941
vn -0.68045044 -2.5329476E-07 -0.7327941
vn -0.8813749 -3.4121103E-07 -0.4724176
vn -0.8813749 -3.4121103E-07 -0.4724176
vn -0.8813749 -3.4121103E-07 -0.4724176
vn -0.8813749 -3.4121103E-07 -0.47241765
vn -0 -1 0
vn -0 -1 0
vn -0 -1 0
vn -0 -1 0
vn -0 -1 1.0114639E-07
vn -0 -1 1.0114638E-07
vn -0 -1 0
vn -0 -1 0
vn -0 -1 0
vn -0 -1 0
vn -0 -1 0
vn -0 -1 0
vn -0 -1 0
vn 1.3078336E-07 -1 0
vn 1.0227141E-07 -1 0
vn 1.0805059E-07 -1 0
g Stage_Dominating_Theater_CG_Crushed_Ston_C_04_0
f 3/3/3 2/2/2 1/1/1
f 4/4/4 3/3/3 1/1/1
f 5/5/5 3/3/3 4/4/4
f 6/6/6 5/5/5 4/4/4
f 7/7/7 4/4/4 1/1/1
f 2/2/2 3/3/3 8/8/8
f 9/9/9 2/2/2 8/8/8
f 10/10/10 9/9/9 8/8/8
f 11/11/11 10/10/10 8/8/8
f 12/12/12 10/10/10 11/11/11
f 13/13/13 12/12/12 11/11/11
f 14/14/14 12/12/12 13/13/13
f 15/15/15 12/12/12 14/14/14
f 16/16/16 15/15/15 14/14/14
f 19/19/19 18/18/18 17/17/17
f 20/20/20 19/19/19 17/17/17
f 23/23/23 22/22/22 21/21/21
f 24/24/24 23/23/23 21/21/21
f 27/27/27 26/26/26 25/25/25
f 28/28/28 27/27/27 25/25/25
f 31/31/31 30/30/30 29/29/29
f 32/32/32 31/31/31 29/29/29
f 35/35/35 34/34/34 33/33/33
f 36/36/36 35/35/35 33/33/33
f 39/39/39 38/38/38 37/37/37
f 40/40/40 39/39/39 37/37/37
f 43/43/43 42/42/42 41/41/41
f 44/44/44 43/43/43 41/41/41
f 47/47/47 46/46/46 45/45/45
f 48/48/48 47/47/47 45/45/45
f 51/51/51 50/50/50 49/49/49
f 52/52/52 51/51/51 49/49/49
f 55/55/55 54/54/54 53/53/53
f 56/56/56 55/55/55 53/53/53
f 59/59/59 58/58/58 57/57/57
f 60/60/60 59/59/59 57/57/57
f 63/63/63 62/62/62 61/61/61
f 64/64/64 63/63/63 61/61/61
f 67/67/67 66/66/66 65/65/65
f 68/68/68 67/67/67 65/65/65
f 71/71/71 70/70/70 69/69/69
f 72/72/72 71/71/71 69/69/69
f 75/75/75 74/74/74 73/73/73
f 76/76/76 75/75/75 73/73/73
f 79/79/79 78/78/78 77/77/77
f 80/80/80 79/79/79 77/77/77
f 83/83/83 82/82/82 81/81/81
f 84/84/84 83/83/83 81/81/81
f 83/83/83 85/85/85 82/82/82
f 85/85/85 86/86/86 82/82/82
f 82/82/82 87/87/87 81/81/81
f 83/83/83 84/84/84 88/88/88
f 84/84/84 89/89/89 88/88/88
f 89/89/89 90/90/90 88/88/88
f 90/90/90 91/91/91 88/88/88
f 90/90/90 92/92/92 91/91/91
f 92/92/92 93/93/93 91/91/91
f 92/92/92 94/94/94 93/93/93
f 92/92/92 95/95/95 94/94/94
f 95/95/95 96/96/96 94/94/94
