g Stage_Dominating_Theater_Building_Collision_Cam
v -8.465216 -0.28962615 31.978292
v -8.465216 -0.28962848 44.19978
v -8.465212 22.10416 44.19978
v -8.465212 22.10416 31.978292
v -32.512474 -0.28962386 31.852846
v -32.512478 22.104164 31.852848
v -8.465216 -0.28962848 44.19978
v 1.3208277E-08 -0.28963012 44.19978
v 1.8393101E-06 22.104156 44.19978
v -8.465212 22.10416 44.19978
v 8.465212 -0.2896298 44.19978
v 8.465216 22.104156 44.19978
v 8.465216 22.104156 44.19978
v 8.465212 -0.2896298 44.19978
v 8.465212 -0.28962845 31.978292
v 8.465216 22.10416 31.978292
v 33.5893 -0.28962734 31.852846
v 33.589294 22.10416 31.852848
vt 0.5 0
vt 0 0
vt 0 1
vt 0.5 1
vt 0.75 0
vt 0.75 1
vt 1 0
vt 0.5 0
vt 0.5 1
vt 1 1
vt 1 0
vt 1 1
vt 0 1
vt 0 0
vt 0.5 0
vt 0.5 1
vt 0.75 0
vt 0.75 1
vn 0.7112727 -1.1671854E-07 -0.70291615
vn 1 -3.2756708E-07 0
vn 1 -3.2756708E-07 0
vn 0.71127284 -1.1671858E-07 -0.7029161
vn 0.011817846 1.6152957E-07 -0.99993014
vn 0.011817846 1.6152958E-07 -0.99993014
vn -0 3.275671E-07 -1
vn -0 3.2756702E-07 -1
vn -0 3.2756708E-07 -1
vn -0 3.275671E-07 -1
vn -0 3.2756708E-07 -1
vn -0 3.2756708E-07 -1
vn -1 3.2756714E-07 0
vn -1 3.2756716E-07 0
vn -0.71127284 3.4686863E-07 -0.7029161
vn -0.71127266 3.4686855E-07 -0.70291626
vn -0.011817846 1.6586917E-07 -0.99993014
vn -0.011817845 1.6586918E-07 -0.99993014
g Stage_Dominating_Theater_Building_Collision_Cam_0
f 3/3/3 2/2/2 1/1/1
f 4/4/4 3/3/3 1/1/1
f 4/4/4 1/1/1 5/5/5
f 6/6/6 4/4/4 5/5/5
f 9/9/9 8/8/8 7/7/7
f 10/10/10 9/9/9 7/7/7
f 11/11/11 8/8/8 9/9/9
f 12/12/12 11/11/11 9/9/9
f 15/15/15 14/14/14 13/13/13
f 16/16/16 15/15/15 13/13/13
f 17/17/17 15/15/15 16/16/16
f 18/18/18 17/17/17 16/16/16
