g Stage_Dominating_Theater_CG_Crushed_Ston_C_07
v 0.008484726 0.012545195 -0.24389458
v 0.16597216 0.012545284 -0.065118484
v -0.054802854 0.012545258 -0.11271324
v -0.060763795 0.012545246 -0.19859764
v -0.04181301 0.012545229 -0.22608879
v -0.010351962 0.012545209 -0.24422309
v 0.16123118 0.012545298 -0.017981185
v 0.038701095 0.012545309 0.026003798
v 0.023805179 0.012545316 0.05184837
v -0.12436878 0.0125453025 -0.05430641
v -0.15574127 0.012545323 0.008922501
v -0.15938412 0.012545323 -0.008207016
v -0.15605487 0.01254533 0.07806465
v -0.16597217 0.01254533 0.04419273
v -0.16198196 0.01254533 0.069273606
v -0.13634914 0.012545337 0.16133201
v -0.1621823 0.012545335 0.09747581
v -0.15572013 0.012545337 0.14474586
v -0.16446571 0.012545335 0.11874611
v 0.05287525 0.012545335 0.17269585
v -0.113037564 0.01254534 0.20135963
v -0.12787971 0.01254534 0.19168907
v -0.038918324 0.01254534 0.24422309
v -0.07858906 0.01254534 0.243506
v -0.010351962 0.012545209 -0.24422309
v -0.010351953 -0.012545327 -0.24422309
v 0.008484726 -0.01254534 -0.24389465
v 0.008484726 0.012545195 -0.24389458
v -0.04181301 0.012545229 -0.22608879
v -0.04181301 -0.012545306 -0.22608879
v -0.010351953 -0.012545327 -0.24422309
v -0.010351962 0.012545209 -0.24422309
v -0.060763795 0.012545246 -0.19859764
v -0.060763795 -0.0125452895 -0.19859764
v -0.04181301 -0.012545306 -0.22608879
v -0.04181301 0.012545229 -0.22608879
v -0.054802854 0.012545258 -0.11271324
v -0.054802854 -0.012545277 -0.11271324
v -0.060763795 -0.0125452895 -0.19859764
v -0.060763795 0.012545246 -0.19859764
v -0.12436878 0.0125453025 -0.05430641
v -0.12436877 -0.012545233 -0.05430641
v -0.054802854 -0.012545277 -0.11271324
v -0.054802854 0.012545258 -0.11271324
v -0.15938412 0.012545323 -0.008207016
v -0.15938409 -0.012545211 -0.008207016
v -0.12436877 -0.012545233 -0.05430641
v -0.12436878 0.0125453025 -0.05430641
v -0.15574127 0.012545323 0.008922501
v -0.15574127 -0.012545212 0.008922501
v -0.15938409 -0.012545211 -0.008207016
v -0.15938412 0.012545323 -0.008207016
v -0.16597217 0.01254533 0.04419273
v -0.16597217 -0.012545207 0.044192724
v -0.15574127 -0.012545212 0.008922501
v -0.15574127 0.012545323 0.008922501
v -0.16198196 0.01254533 0.069273606
v -0.15901841 -0.012545204 0.07366912
v -0.16597217 -0.012545207 0.044192724
v -0.16597217 0.01254533 0.04419273
v -0.15605487 0.01254533 0.07806465
v -0.15901841 -0.012545204 0.07366912
v -0.16198196 0.01254533 0.069273606
v -0.1621823 0.012545335 0.09747581
v -0.1621823 -0.0125452 0.097475804
v -0.15901841 -0.012545204 0.07366912
v -0.15605487 0.01254533 0.07806465
v -0.16446571 0.012545335 0.11874611
v -0.16446567 -0.012545202 0.118746094
v -0.1621823 -0.0125452 0.097475804
v -0.1621823 0.012545335 0.09747581
v -0.15572013 0.012545337 0.14474586
v -0.15572014 -0.012545199 0.14474586
v -0.16446567 -0.012545202 0.118746094
v -0.16446571 0.012545335 0.11874611
v -0.13634914 0.012545337 0.16133201
v -0.13634913 -0.012545199 0.16133201
v -0.15572014 -0.012545199 0.14474586
v -0.15572013 0.012545337 0.14474586
v -0.12787971 0.01254534 0.19168907
v -0.12787972 -0.012545196 0.19168907
v -0.13634913 -0.012545199 0.16133201
v -0.13634914 0.012545337 0.16133201
v -0.113037564 0.01254534 0.20135963
v -0.11303757 -0.012545196 0.20135963
v -0.12787972 -0.012545196 0.19168907
v -0.12787971 0.01254534 0.19168907
v -0.07858906 0.01254534 0.243506
v -0.07858906 -0.012545195 0.243506
v -0.11303757 -0.012545196 0.20135963
v -0.113037564 0.01254534 0.20135963
v -0.038918324 0.01254534 0.24422309
v -0.038918324 -0.012545195 0.24422309
v -0.07858906 -0.012545195 0.243506
v -0.07858906 0.01254534 0.243506
v 0.008484726 0.012545195 -0.24389458
v 0.008484726 -0.01254534 -0.24389465
v 0.16597217 -0.012545251 -0.065118484
v 0.16597216 0.012545284 -0.065118484
v 0.16597216 0.012545284 -0.065118484
v 0.16597217 -0.012545251 -0.065118484
v 0.16123118 -0.012545237 -0.017981185
v 0.16123118 0.012545298 -0.017981185
v 0.05287525 0.012545335 0.17269585
v 0.05287525 -0.012545202 0.17269585
v -0.038918324 -0.012545195 0.24422309
v -0.038918324 0.01254534 0.24422309
v 0.16123118 0.012545298 -0.017981185
v 0.16123118 -0.012545237 -0.017981185
v 0.038701095 -0.012545226 0.026003808
v 0.038701095 0.012545309 0.026003798
v 0.038701095 0.012545309 0.026003798
v 0.038701095 -0.012545226 0.026003808
v 0.023805179 -0.012545221 0.051848363
v 0.023805179 0.012545316 0.05184837
v 0.023805179 0.012545316 0.05184837
v 0.023805179 -0.012545221 0.051848363
v 0.05287525 -0.012545202 0.17269585
v 0.05287525 0.012545335 0.17269585
v 0.008484726 -0.01254534 -0.24389465
v -0.060763795 -0.0125452895 -0.19859764
v -0.054802854 -0.012545277 -0.11271324
v 0.16597217 -0.012545251 -0.065118484
v -0.04181301 -0.012545306 -0.22608879
v -0.010351953 -0.012545327 -0.24422309
v 0.16123118 -0.012545237 -0.017981185
v 0.038701095 -0.012545226 0.026003808
v 0.023805179 -0.012545221 0.051848363
v -0.12436877 -0.012545233 -0.05430641
v -0.15574127 -0.012545212 0.008922501
v -0.15938409 -0.012545211 -0.008207016
v -0.15901841 -0.012545204 0.07366912
v -0.16597217 -0.012545207 0.044192724
v -0.13634913 -0.012545199 0.16133201
v -0.1621823 -0.0125452 0.097475804
v -0.15572014 -0.012545199 0.14474586
v -0.16446567 -0.012545202 0.118746094
v 0.05287525 -0.012545202 0.17269585
v -0.11303757 -0.012545196 0.20135963
v -0.12787972 -0.012545196 0.19168907
v -0.038918324 -0.012545195 0.24422309
v -0.07858906 -0.012545195 0.243506
vt 0.878312 0.55922025
vt 0.74804133 0.4568948
vt 0.7912624 0.61026603
vt 0.8505122 0.61026603
vt 0.8684838 0.59555787
vt 0.87943524 0.57248634
vt 0.7159276 0.46257067
vt 0.69156766 0.55112267
vt 0.6745327 0.562954
vt 0.75447685 0.6621774
vt 0.7125607 0.68739337
vt 0.72449505 0.6891237
vt 0.6651047 0.69099826
vt 0.6888327 0.6963336
vt 0.6714228 0.6947474
vt 0.6069966 0.6811785
vt 0.6520695 0.69626886
vt 0.61930734 0.6940257
vt 0.63757473 0.69891995
vt 0.5902254 0.5483945
vt 0.57840407 0.6666997
vt 0.58575076 0.67669207
vt 0.54544324 0.61653394
vt 0.54782593 0.6444717
vt 3.791081 0.38180864
vt 3.7910829 0.49119282
vt 3.8223567 0.49119255
vt 3.8223538 0.3818085
vt 3.7319918 0.3818094
vt 3.7319922 0.4911936
vt 3.7910829 0.49119282
vt 3.791081 0.38180864
vt 3.6795955 0.38181072
vt 3.6795955 0.49119475
vt 3.7319922 0.4911936
vt 3.7319918 0.3818094
vt 3.5482574 0.38181257
vt 3.5482597 0.49119672
vt 3.6795955 0.49119475
vt 3.6795955 0.38181072
vt 3.4024382 0.3818149
vt 3.4024405 0.49119893
vt 3.5482597 0.49119672
vt 3.5482574 0.38181257
vt 3.3112612 0.38181752
vt 3.3112612 0.49120143
vt 3.4024405 0.49119893
vt 3.4024382 0.3818149
vt 3.2845106 0.38182068
vt 3.2845106 0.4912047
vt 3.3112612 0.49120143
vt 3.3112612 0.38181752
vt 3.2281728 0.3818242
vt 3.2281728 0.4912081
vt 3.2845106 0.4912047
vt 3.2845106 0.38182068
vt 3.1894364 0.38182774
vt 3.1811624 0.4912134
vt 3.2281728 0.4912081
vt 3.2281728 0.3818242
vt 3.1728888 0.38183138
vt 3.1811624 0.4912134
vt 3.1894364 0.38182774
vt 3.1416569 0.38183492
vt 3.1416564 0.49121872
vt 3.1811624 0.4912134
vt 3.1728888 0.38183138
vt 3.109057 0.3818379
vt 3.109057 0.49122196
vt 3.1416564 0.49121872
vt 3.1416569 0.38183492
vt 3.0668783 0.3818407
vt 3.0668793 0.49122483
vt 3.109057 0.49122196
vt 3.109057 0.3818379
vt 3.0260034 0.38184303
vt 3.0260043 0.49122733
vt 3.0668793 0.49122483
vt 3.0668783 0.3818407
vt 2.9776459 0.38184512
vt 2.9776459 0.49122918
vt 3.0260043 0.49122733
vt 3.0260034 0.38184303
vt 2.9489503 0.38184655
vt 2.9489508 0.4912306
vt 2.9776459 0.49122918
vt 2.9776459 0.38184512
vt 2.8629174 0.38184723
vt 2.8629174 0.49123138
vt 2.9489508 0.4912306
vt 2.9489503 0.38184655
vt 2.7970476 0.3818475
vt 2.7970486 0.49123165
vt 2.8629174 0.49123138
vt 2.8629174 0.38184723
vt 3.8030868 0.42787227
vt 3.7968788 0.3184889
vt 3.4190898 0.31855914
vt 3.4252968 0.42794266
vt 3.4252968 0.42794266
vt 3.4190898 0.31855914
vt 3.346778 0.31857234
vt 3.3529863 0.42795587
vt 2.9017754 0.4280388
vt 2.8955579 0.31865528
vt 2.7081337 0.31868994
vt 2.7143512 0.42807335
vt 3.3529863 0.42795587
vt 3.346778 0.31857234
vt 3.1325912 0.31861186
vt 3.1388054 0.42799526
vt 3.1388054 0.42799526
vt 3.1325912 0.31861186
vt 3.086084 0.31861997
vt 3.0922995 0.4280035
vt 3.0922995 0.4280035
vt 3.086084 0.31861997
vt 2.8955579 0.31865528
vt 2.9017754 0.4280388
vt 0.878312 0.55922025
vt 0.8505122 0.61026603
vt 0.7912624 0.61026603
vt 0.74804133 0.4568948
vt 0.8684838 0.59555787
vt 0.87943524 0.57248634
vt 0.7159276 0.46257067
vt 0.69156766 0.55112267
vt 0.6745327 0.562954
vt 0.75447685 0.6621774
vt 0.7125607 0.68739337
vt 0.72449505 0.6891237
vt 0.66826373 0.6928728
vt 0.6888327 0.6963336
vt 0.6069966 0.6811785
vt 0.6520695 0.69626886
vt 0.61930734 0.6940257
vt 0.63757473 0.69891995
vt 0.5902254 0.5483945
vt 0.57840407 0.6666997
vt 0.58575076 0.67669207
vt 0.54544324 0.61653394
vt 0.54782593 0.6444717
vn -0 1 -4.3123472E-07
vn -0 1 -4.3123467E-07
vn -0 1 -4.3123472E-07
vn -0 1 -4.3123467E-07
vn 6.3420225E-07 1 0
vn 6.3420225E-07 1 0
vn -0 1 -3.3288939E-07
vn -0 1 -3.3288936E-07
vn 1.8079417E-07 1 -4.4132057E-07
vn 1.8079416E-07 1 -4.413206E-07
vn 1.0411399E-07 1 -2.6885277E-07
vn 4.521643E-07 1 0
vn 2.9913522E-07 1 0
vn 2.9913522E-07 1 0
vn 2.9913522E-07 1 0
vn -0 1 -1.0412323E-07
vn -0 1 -1.0412322E-07
vn -0 1 0
vn -0 1 0
vn -0 1 -1.4022548E-07
vn -0 1 -1.4022548E-07
vn -0 1 0
vn -0 1 0
vn -0 1 0
vn 0.017435854 1.5234901E-06 -0.999848
vn 0.017435854 1.5234903E-06 -0.999848
vn 0.017435854 1.5234903E-06 -0.999848
vn 0.017435854 1.5234901E-06 -0.999848
vn -0.4993857 0 -0.8663797
vn -0.49938574 0 -0.8663798
vn -0.49938574 0 -0.8663798
vn -0.49938574 0 -0.8663798
vn -0.82333356 0 -0.5675578
vn -0.82333356 0 -0.5675578
vn -0.82333356 0 -0.5675578
vn -0.82333356 0 -0.5675578
vn -0.9976 0 0.06924
vn -0.9976 0 0.06924
vn -0.9976 0 0.06924
vn -0.9976 0 0.06924
vn -0.6430079 -1.2553477E-07 -0.7658596
vn -0.6430079 -1.2553477E-07 -0.7658596
vn -0.6430078 -1.2553477E-07 -0.7658596
vn -0.6430079 -1.2553475E-07 -0.7658596
vn -0.7963304 -5.9092275E-07 -0.60486186
vn -0.7963304 -5.9092275E-07 -0.6048619
vn -0.7963304 -5.9092275E-07 -0.6048619
vn -0.7963304 -5.9092275E-07 -0.60486186
vn -0.97812635 -3.6964636E-07 0.20801193
vn -0.97812635 -3.696464E-07 0.20801193
vn -0.97812635 -3.696464E-07 0.20801196
vn -0.97812635 -3.696464E-07 0.20801193
vn -0.96041065 2.3287419E-07 -0.2785881
vn -0.96041065 2.3287421E-07 -0.27858812
vn -0.96041065 2.3287419E-07 -0.27858812
vn -0.96041065 2.3287419E-07 -0.27858806
vn -0.979658 -0.0406423 0.19651543
vn -0.979658 -0.040642302 0.19651543
vn -0.979658 -0.040642302 0.19651543
vn -0.979658 -0.040642302 0.19651543
vn -0.829149 -2.1285598E-07 0.5590276
vn -0.829149 -2.1285598E-07 0.5590276
vn -0.829149 -2.1285598E-07 0.5590276
vn -0.97483927 0.075928845 -0.2095789
vn -0.97483927 0.075928845 -0.2095789
vn -0.97483927 0.075928845 -0.2095789
vn -0.97483927 0.075928845 -0.2095789
vn -0.9942872 -7.141738E-07 -0.10673752
vn -0.9942872 -7.1417395E-07 -0.106737524
vn -0.9942872 -7.1417384E-07 -0.10673751
vn -0.9942872 -7.1417395E-07 -0.106737524
vn -0.94781613 -6.668309E-07 0.31881735
vn -0.94781613 -6.668309E-07 0.31881735
vn -0.94781613 -6.668309E-07 0.31881735
vn -0.94781613 -6.668307E-07 0.31881735
vn -0.65039426 -1.3973087E-07 0.7595968
vn -0.65039426 -1.397309E-07 0.7595968
vn -0.65039426 -1.3973087E-07 0.7595968
vn -0.65039426 -1.3973087E-07 0.7595968
vn -0.96321535 0 0.26873082
vn -0.96321535 0 0.26873082
vn -0.96321535 0 0.26873082
vn -0.96321535 0 0.26873082
vn -0.5459074 2.0785909E-07 0.83784556
vn -0.5459074 2.0785909E-07 0.83784556
vn -0.5459074 2.0785909E-07 0.83784556
vn -0.5459074 2.0785909E-07 0.83784556
vn -0.77427137 1.3965389E-07 0.63285375
vn -0.77427137 1.3965389E-07 0.63285375
vn -0.77427137 1.3965389E-07 0.63285375
vn -0.77427137 1.3965389E-07 0.63285375
vn -0.018073013 0 0.9998367
vn -0.018073013 0 0.9998367
vn -0.018073013 0 0.9998367
vn -0.018073013 0 0.9998367
vn 0.75037104 1.2762821E-06 -0.6610168
vn 0.75037104 1.2762822E-06 -0.6610168
vn 0.7503711 1.2762822E-06 -0.66101676
vn 0.75037104 1.2762821E-06 -0.6610168
vn 0.99498004 3.760807E-07 0.10007344
vn 0.99498004 3.7608075E-07 0.10007345
vn 0.99498004 3.760807E-07 0.10007344
vn 0.99498004 3.760807E-07 0.10007344
vn 0.61464846 0 0.7888012
vn 0.61464846 0 0.78880113
vn 0.61464846 0 0.7888012
vn 0.61464846 0 0.78880113
vn 0.3378636 1.7517749E-07 0.9411951
vn 0.3378636 1.7517749E-07 0.9411951
vn 0.3378636 1.7517749E-07 0.9411951
vn 0.3378636 1.7517749E-07 0.9411951
vn 0.86639464 0 0.49935997
vn 0.86639464 0 0.49935997
vn 0.86639464 0 0.49935997
vn 0.86639464 0 0.49935997
vn 0.9722654 0 -0.23388018
vn 0.9722654 0 -0.23388018
vn 0.9722654 0 -0.23388018
vn 0.9722654 0 -0.23388016
vn -0 -1 4.3123447E-07
vn -0 -1 4.3123447E-07
vn -0 -1 4.3123453E-07
vn -0 -1 4.3123444E-07
vn -6.190104E-07 -1 1.260135E-07
vn -6.190104E-07 -1 1.260135E-07
vn -0 -1 3.3288936E-07
vn -0 -1 3.3288936E-07
vn -1.7612915E-07 -1 4.3184818E-07
vn -1.7612915E-07 -1 4.3184818E-07
vn -1.10049335E-07 -1 2.659077E-07
vn -5.503448E-07 -1 0
vn -1.6751491E-07 -1 1.2040292E-07
vn -1.6751491E-07 -1 1.2040292E-07
vn -0 -1 0
vn -0 -1 0
vn -0 -1 0
vn -0 -1 0
vn -0 -1 1.4022545E-07
vn -0 -1 1.4022545E-07
vn -0 -1 0
vn -0 -1 0
vn -0 -1 0
g Stage_Dominating_Theater_CG_Crushed_Ston_C_07_0
f 3/3/3 2/2/2 1/1/1
f 4/4/4 3/3/3 1/1/1
f 5/5/5 4/4/4 1/1/1
f 6/6/6 5/5/5 1/1/1
f 7/7/7 2/2/2 3/3/3
f 8/8/8 7/7/7 3/3/3
f 9/9/9 8/8/8 3/3/3
f 10/10/10 9/9/9 3/3/3
f 11/11/11 9/9/9 10/10/10
f 12/12/12 11/11/11 10/10/10
f 13/13/13 9/9/9 11/11/11
f 13/13/13 11/11/11 14/14/14
f 15/15/15 13/13/13 14/14/14
f 16/16/16 9/9/9 13/13/13
f 17/17/17 16/16/16 13/13/13
f 18/18/18 16/16/16 17/17/17
f 19/19/19 18/18/18 17/17/17
f 20/20/20 9/9/9 16/16/16
f 21/21/21 20/20/20 16/16/16
f 22/22/22 21/21/21 16/16/16
f 23/23/23 20/20/20 21/21/21
f 24/24/24 23/23/23 21/21/21
f 27/27/27 26/26/26 25/25/25
f 28/28/28 27/27/27 25/25/25
f 31/31/31 30/30/30 29/29/29
f 32/32/32 31/31/31 29/29/29
f 35/35/35 34/34/34 33/33/33
f 36/36/36 35/35/35 33/33/33
f 39/39/39 38/38/38 37/37/37
f 40/40/40 39/39/39 37/37/37
f 43/43/43 42/42/42 41/41/41
f 44/44/44 43/43/43 41/41/41
f 47/47/47 46/46/46 45/45/45
f 48/48/48 47/47/47 45/45/45
f 51/51/51 50/50/50 49/49/49
f 52/52/52 51/51/51 49/49/49
f 55/55/55 54/54/54 53/53/53
f 56/56/56 55/55/55 53/53/53
f 59/59/59 58/58/58 57/57/57
f 60/60/60 59/59/59 57/57/57
f 63/63/63 62/62/62 61/61/61
f 66/66/66 65/65/65 64/64/64
f 67/67/67 66/66/66 64/64/64
f 70/70/70 69/69/69 68/68/68
f 71/71/71 70/70/70 68/68/68
f 74/74/74 73/73/73 72/72/72
f 75/75/75 74/74/74 72/72/72
f 78/78/78 77/77/77 76/76/76
f 79/79/79 78/78/78 76/76/76
f 82/82/82 81/81/81 80/80/80
f 83/83/83 82/82/82 80/80/80
f 86/86/86 85/85/85 84/84/84
f 87/87/87 86/86/86 84/84/84
f 90/90/90 89/89/89 88/88/88
f 91/91/91 90/90/90 88/88/88
f 94/94/94 93/93/93 92/92/92
f 95/95/95 94/94/94 92/92/92
f 98/98/98 97/97/97 96/96/96
f 99/99/99 98/98/98 96/96/96
f 102/102/102 101/101/101 100/100/100
f 103/103/103 102/102/102 100/100/100
f 106/106/106 105/105/105 104/104/104
f 107/107/107 106/106/106 104/104/104
f 110/110/110 109/109/109 108/108/108
f 111/111/111 110/110/110 108/108/108
f 114/114/114 113/113/113 112/112/112
f 115/115/115 114/114/114 112/112/112
f 118/118/118 117/117/117 116/116/116
f 119/119/119 118/118/118 116/116/116
f 122/122/122 121/121/121 120/120/120
f 123/123/123 122/122/122 120/120/120
f 121/121/121 124/124/124 120/120/120
f 124/124/124 125/125/125 120/120/120
f 123/123/123 126/126/126 122/122/122
f 126/126/126 127/127/127 122/122/122
f 127/127/127 128/128/128 122/122/122
f 128/128/128 129/129/129 122/122/122
f 128/128/128 130/130/130 129/129/129
f 130/130/130 131/131/131 129/129/129
f 128/128/128 132/132/132 130/130/130
f 130/130/130 132/132/132 133/133/133
f 128/128/128 134/134/134 132/132/132
f 134/134/134 135/135/135 132/132/132
f 134/134/134 136/136/136 135/135/135
f 136/136/136 137/137/137 135/135/135
f 128/128/128 138/138/138 134/134/134
f 138/138/138 139/139/139 134/134/134
f 139/139/139 140/140/140 134/134/134
f 138/138/138 141/141/141 139/139/139
f 141/141/141 142/142/142 139/139/139
