g Stage_Dominating_Theater_Boss_P1_Fragment26
v 1.1373144 0.03140625 -0.1848584
v 1.1373119 -0.19861327 0.09811279
v 1.1373096 0.19199218 0.09810791
v 1.1373096 0.19199218 0.09810791
v 1.1373119 -0.19861327 0.09811279
v 0.7606836 -0.17636718 0.077072755
v 0.7611133 0.17758788 0.0760083
v 0.7539404 0.033349607 -0.18386474
v 0.7611133 0.17758788 0.0760083
v 0.7606836 -0.17636718 0.077072755
v -1.1372412 0.030322265 -0.18215576
v -1.1373047 0.2399414 0.1846997
v -1.1372998 -0.22558594 0.12617187
v -1.1373144 -0.24001953 0.18474853
v -1.1373047 0.2399414 0.1846997
v -0.7532471 0.24001953 0.18485107
v -0.7532471 -0.23446289 0.1848584
v -1.1373144 -0.24001953 0.18474853
v -0.7532471 -0.22420898 0.13123535
v -0.7532471 -0.23446289 0.1848584
v -0.7532471 0.24001953 0.18485107
v -0.7532519 0.029335937 -0.18179199
v 1.1373144 0.03140625 -0.1848584
v 1.1373096 0.19199218 0.09810791
v 0.7611133 0.17758788 0.0760083
v 0.7539404 0.033349607 -0.18386474
v -1.1372998 -0.22558594 0.12617187
v -1.1373144 -0.24001953 0.18474853
v -0.7532471 -0.23446289 0.1848584
v -0.7532471 -0.22420898 0.13123535
v 1.1373144 0.03140625 -0.1848584
v 0.7539404 0.033349607 -0.18386474
v 0.7606836 -0.17636718 0.077072755
v 1.1373119 -0.19861327 0.09811279
v -1.1373047 0.2399414 0.1846997
v -1.1372412 0.030322265 -0.18215576
v -0.7532519 0.029335937 -0.18179199
v -0.7532471 0.24001953 0.18485107
v -1.1372998 -0.22558594 0.12617187
v -0.7532471 -0.22420898 0.13123535
v -0.7532519 0.029335937 -0.18179199
v -1.1372412 0.030322265 -0.18215576
vt 0.8350915 0.67675704
vt 0.7952846 0.67735004
vt 0.7952846 0.6763431
vt 0.7952846 0.6763431
vt 0.7952846 0.67735004
vt 0.7889341 0.67729264
vt 0.7889341 0.67638016
vt 0.83482355 0.6767521
vt 0.7952846 0.67638016
vt 0.7952846 0.67729264
vt 0.84691554 0.67675984
vt 0.7952846 0.67621946
vt 0.8035447 0.6774196
vt 0.7952846 0.6774568
vt 0.7889341 0.67621946
vt 0.7952846 0.6762193
vt 0.7952846 0.67744243
vt 0.7889341 0.6774568
vt 0.80282813 0.67741597
vt 0.7952846 0.67744243
vt 0.7952846 0.6762193
vt 0.84686375 0.67676234
vt 0.6755513 0.28220317
vt 0.6614936 0.2913107
vt 0.6740419 0.3056705
vt 0.68718547 0.2975841
vt 0.6964959 0.33344615
vt 0.6991041 0.33176467
vt 0.68744093 0.31635895
vt 0.68506247 0.31789455
vt 0.6755513 0.28220317
vt 0.68718547 0.2975841
vt 0.7014614 0.28779274
vt 0.69123524 0.27188954
vt 0.66085285 0.35648105
vt 0.6791211 0.34461215
vt 0.6675211 0.32917264
vt 0.6491803 0.341084
vt 0.6964959 0.33344615
vt 0.68506247 0.31789455
vt 0.6675211 0.32917264
vt 0.6791211 0.34461215
vn 1 3.1252418E-06 6.8543013E-06
vn 1 3.1252418E-06 6.8543013E-06
vn 1 3.1252418E-06 6.8543013E-06
vn -0.057194658 0.0014667143 0.998362
vn -0.05719466 0.0014667145 0.998362
vn -0.05719466 0.0014667145 0.998362
vn -0.05719467 0.0014667147 0.998362
vn -0.9996381 0.0012943349 0.02687298
vn -0.9996381 0.0012943349 0.02687298
vn -0.9996381 0.001294335 0.02687298
vn -1 1.3038391E-05 -0.00018713382
vn -1 1.3300306E-05 -0.00018921707
vn -1 1.4418661E-05 -0.00019811241
vn -1 1.5239223E-05 -0.00020463912
vn -0.00034051904 5.8791466E-05 1
vn -0.000340519 5.8791466E-05 1
vn -0.00034051904 5.8791462E-05 1
vn -0.00034051904 5.8791466E-05 1
vn 1 6.248382E-07 -5.410123E-06
vn 1 0 0
vn 1 1.4668817E-06 -1.2700901E-05
vn 1 1.6474435E-06 -1.4264287E-05
vn -0.0006995426 0.87193793 -0.48961586
vn -0.0006995426 0.87193793 -0.48961586
vn -0.0006995426 0.87193793 -0.48961586
vn -0.0006995426 0.87193793 -0.48961586
vn 0.01026255 -0.97658676 -0.21487904
vn 0.010262552 -0.97658676 -0.21487904
vn 0.010262551 -0.97658676 -0.21487904
vn 0.010262552 -0.97658676 -0.21487904
vn -0.008170708 -0.7776672 -0.6286229
vn -0.008170708 -0.7776672 -0.6286229
vn -0.008170708 -0.7776672 -0.6286229
vn -0.008170708 -0.7776672 -0.6286229
vn 0.001359441 0.86765033 -0.4971731
vn 0.0013594407 0.86765033 -0.4971731
vn 0.0013594407 0.86765033 -0.4971731
vn 0.0013594407 0.86765033 -0.4971731
vn 0.0048735384 -0.7732941 -0.6340287
vn 0.004873539 -0.7732942 -0.63402873
vn 0.0048735384 -0.7732941 -0.6340287
vn 0.0048735384 -0.7732941 -0.6340287
g Stage_Dominating_Theater_Boss_P1_Fragment26_0
f 3/3/3 2/2/2 1/1/1
f 6/6/6 5/5/5 4/4/4
f 7/7/7 6/6/6 4/4/4
f 10/10/10 9/9/9 8/8/8
f 13/13/13 12/12/12 11/11/11
f 14/14/14 12/12/12 13/13/13
f 17/17/17 16/16/16 15/15/15
f 18/18/18 17/17/17 15/15/15
f 21/21/21 20/20/20 19/19/19
f 22/22/22 21/21/21 19/19/19
f 25/25/25 24/24/24 23/23/23
f 26/26/26 25/25/25 23/23/23
f 29/29/29 28/28/28 27/27/27
f 30/30/30 29/29/29 27/27/27
f 33/33/33 32/32/32 31/31/31
f 34/34/34 33/33/33 31/31/31
f 37/37/37 36/36/36 35/35/35
f 38/38/38 37/37/37 35/35/35
f 41/41/41 40/40/40 39/39/39
f 42/42/42 41/41/41 39/39/39
