g Stage_Dominating_Theater_Mirror01_PropsC_CamCollision
v 2.5774055 8.442066 -0.53079605
v -2.4936032 8.442066 -0.530796
v -2.4953902 -6.377471 -0.5307969
v 2.5815485 -6.377471 -0.5307969
v 1.199365 -6.7007327 -0.5307974
v -1.1120287 -6.700732 -0.5307974
v 0.40908173 -8.491773 -0.53079796
v -0.3205673 -8.491773 -0.53079796
v -2.4936032 8.442068 0.486271
v 2.5774055 8.442066 0.48627108
v 2.5815485 -6.377472 0.48627016
v -2.4953902 -6.377471 0.4862701
v -1.1120287 -6.700732 0.4862698
v 1.199365 -6.7007327 0.4862698
v -0.3205673 -8.491773 0.48626933
v 0.40908173 -8.491773 0.48626933
v -0.3205673 -8.491773 -0.53079796
v -0.3205673 -8.491773 0.48626933
v 0.40908173 -8.491773 0.48626933
v 0.40908173 -8.491773 -0.53079796
v 2.5774055 8.442066 0.48627108
v 2.5774055 8.442066 -0.53079605
v 2.5815485 -6.377471 -0.5307969
v 2.5815485 -6.377472 0.48627016
v 1.199365 -6.7007327 0.4862698
v 1.199365 -6.7007327 -0.5307974
v 0.40908173 -8.491773 0.48626933
v 0.40908173 -8.491773 -0.53079796
v 2.5774055 8.442066 -0.53079605
v 2.5774055 8.442066 0.48627108
v -2.4936032 8.442068 0.486271
v -2.4936032 8.442066 -0.530796
v -0.3205673 -8.491773 0.48626933
v -0.3205673 -8.491773 -0.53079796
v -1.1120287 -6.700732 -0.5307974
v -1.1120287 -6.700732 0.4862698
v -2.4953902 -6.377471 0.4862701
v -2.4953902 -6.377471 -0.5307969
v -2.4936032 8.442068 0.486271
v -2.4936032 8.442066 -0.530796
vt 0 1
vt 1 1
vt 1 0.5
vt 0 0.5
vt 0 0.25
vt 1 0.25
vt 0 0
vt 1 0
vt 0 1
vt 1 1
vt 1 0.5
vt 0 0.5
vt 0 0.25
vt 1 0.25
vt 0 0
vt 1 0
vt 0 0
vt 0 1
vt 1 1
vt 1 0
vt 1 1
vt 1 0
vt 0.5 0
vt 0.5 1
vt 0.25 1
vt 0.25 0
vt 0 1
vt 0 0
vt 0 0
vt 0 1
vt 1 1
vt 1 0
vt 1 1
vt 1 0
vt 0.75 0
vt 0.75 1
vt 0.5 1
vt 0.5 0
vt 0 1
vt 0 0
vn -0 0 -1
vn -0 0 -1
vn -0 2.7737033E-07 -1
vn -0 2.7754683E-07 -1
vn -0 1.3520043E-06 -1
vn -0 1.3521665E-06 -1
vn -0 2.9818304E-07 -1
vn -0 2.98183E-07 -1
vn -0 0 1
vn -0 0 1
vn -0 -1.8943679E-07 1
vn -0 -1.8933387E-07 1
vn -0 -8.3308527E-07 1
vn -0 -8.3299625E-07 1
vn -0 -2.5558543E-07 1
vn -0 -2.5558546E-07 1
vn -4.1825012E-07 -1 -3.0005467E-07
vn -4.1825012E-07 -1 -3.0005467E-07
vn -4.1825012E-07 -1 -3.0005467E-07
vn -4.1825012E-07 -1 -3.0005467E-07
vn 1 0.00027956782 0
vn 1 0.00027956782 0
vn 0.78358287 -0.6212872 -1.8881276E-07
vn 0.7835828 -0.6212874 -1.8881279E-07
vn 0.6384619 -0.7696535 -2.3387467E-07
vn 0.638462 -0.7696533 -2.3387464E-07
vn 0.91489536 -0.40369093 -1.2261863E-07
vn 0.91489536 -0.40369096 -1.2261867E-07
vn 1.2036097E-07 1 -6.001095E-07
vn 1.2036097E-07 1 -6.001095E-07
vn 1.2036097E-07 1 -6.001095E-07
vn 1.2036097E-07 1 -6.001095E-07
vn -0.9146731 -0.40419447 0
vn -0.9146731 -0.40419447 0
vn -0.63817745 -0.7698893 0
vn -0.6381773 -0.7698894 0
vn -0.7834748 -0.6214236 0
vn -0.7834746 -0.6214237 0
vn -1 0.00012058113 0
vn -1 0.00012058113 0
g Stage_Dominating_Theater_Mirror01_PropsC_CamCollision_0
f 3/3/3 2/2/2 1/1/1
f 4/4/4 3/3/3 1/1/1
f 3/3/3 4/4/4 5/5/5
f 6/6/6 3/3/3 5/5/5
f 6/6/6 5/5/5 7/7/7
f 8/8/8 6/6/6 7/7/7
f 11/11/11 10/10/10 9/9/9
f 12/12/12 11/11/11 9/9/9
f 11/11/11 12/12/12 13/13/13
f 14/14/14 11/11/11 13/13/13
f 14/14/14 13/13/13 15/15/15
f 16/16/16 14/14/14 15/15/15
f 19/19/19 18/18/18 17/17/17
f 20/20/20 19/19/19 17/17/17
f 23/23/23 22/22/22 21/21/21
f 24/24/24 23/23/23 21/21/21
f 23/23/23 24/24/24 25/25/25
f 26/26/26 23/23/23 25/25/25
f 26/26/26 25/25/25 27/27/27
f 28/28/28 26/26/26 27/27/27
f 31/31/31 30/30/30 29/29/29
f 32/32/32 31/31/31 29/29/29
f 35/35/35 34/34/34 33/33/33
f 36/36/36 35/35/35 33/33/33
f 35/35/35 36/36/36 37/37/37
f 38/38/38 35/35/35 37/37/37
f 38/38/38 37/37/37 39/39/39
f 40/40/40 38/38/38 39/39/39
