g Stage_Dominating_Theater_CG_Crushed_Ston_C_01
v -0.068219826 0.012545263 -0.094032556
v 0.04802652 0.012545266 -0.035123788
v -0.11187862 0.012545271 0.07381283
v -0.12701423 0.012545271 0.04725605
v 0.048595887 0.012545273 0.120138966
v 0.07787372 0.012545268 0.012002983
v 0.07708822 0.012545263 -0.061043587
v 0.18402006 0.012545271 0.08468754
v 0.16034575 0.012545268 0.055202827
v -0.17647171 0.012545268 -0.048611715
v -0.084678136 0.012545263 -0.120138966
v -0.18402006 0.012545268 0.0037691116
v -0.16125539 0.012545271 0.031227836
v -0.18402006 0.012545268 0.0037691116
v -0.18402004 -0.012545266 0.0037691116
v -0.17647171 -0.012545268 -0.048611715
v -0.17647171 0.012545268 -0.048611715
v -0.16125539 0.012545271 0.031227836
v -0.16125542 -0.012545266 0.031227836
v -0.18402004 -0.012545266 0.0037691116
v -0.18402006 0.012545268 0.0037691116
v -0.12701423 0.012545271 0.04725605
v -0.12701423 -0.012545263 0.047256127
v -0.16125542 -0.012545266 0.031227836
v -0.16125539 0.012545271 0.031227836
v -0.11187862 0.012545271 0.07381283
v -0.11187862 -0.012545266 0.07381283
v -0.12701423 -0.012545263 0.047256127
v -0.12701423 0.012545271 0.04725605
v 0.048595887 0.012545273 0.120138966
v 0.048595887 -0.0125452615 0.12013889
v -0.11187862 -0.012545266 0.07381283
v -0.11187862 0.012545271 0.07381283
v 0.18402006 0.012545271 0.08468754
v 0.18402006 -0.012545266 0.08468754
v 0.048595887 -0.0125452615 0.12013889
v 0.048595887 0.012545273 0.120138966
v -0.17647171 0.012545268 -0.048611715
v -0.17647171 -0.012545268 -0.048611715
v -0.084678136 -0.012545273 -0.120138966
v -0.084678136 0.012545263 -0.120138966
v 0.07708822 0.012545263 -0.061043587
v 0.07708822 -0.012545271 -0.061043587
v 0.07787372 -0.012545268 0.012002983
v 0.07787372 0.012545268 0.012002983
v 0.07787372 0.012545268 0.012002983
v 0.07787372 -0.012545268 0.012002983
v 0.16034576 -0.012545266 0.055202827
v 0.16034575 0.012545268 0.055202827
v 0.16034575 0.012545268 0.055202827
v 0.16034576 -0.012545266 0.055202827
v 0.18402006 -0.012545266 0.08468754
v 0.18402006 0.012545271 0.08468754
v 0.04802652 0.012545266 -0.035123788
v 0.04802652 -0.012545271 -0.035123788
v 0.07708822 -0.012545271 -0.061043587
v 0.07708822 0.012545263 -0.061043587
v -0.068219826 0.012545263 -0.094032556
v -0.068219826 -0.012545271 -0.094032556
v 0.04802652 -0.012545271 -0.035123788
v 0.04802652 0.012545266 -0.035123788
v -0.084678136 0.012545263 -0.120138966
v -0.084678136 -0.012545273 -0.120138966
v -0.068219826 -0.012545271 -0.094032556
v -0.068219826 0.012545263 -0.094032556
v -0.068219826 -0.012545271 -0.094032556
v -0.12701423 -0.012545263 0.047256127
v -0.11187862 -0.012545266 0.07381283
v 0.04802652 -0.012545271 -0.035123788
v 0.048595887 -0.0125452615 0.12013889
v 0.07787372 -0.012545268 0.012002983
v 0.07708822 -0.012545271 -0.061043587
v 0.18402006 -0.012545266 0.08468754
v 0.16034576 -0.012545266 0.055202827
v -0.17647171 -0.012545268 -0.048611715
v -0.084678136 -0.012545273 -0.120138966
v -0.18402004 -0.012545266 0.0037691116
v -0.16125542 -0.012545266 0.031227836
vt 0.5714693 0.5379796
vt 0.5254849 0.45889413
vt 0.45831198 0.5769791
vt 0.4772663 0.58635193
vt 0.41885877 0.46609133
vt 0.49170667 0.4401545
vt 0.54189587 0.4371334
vt 0.43674535 0.36886498
vt 0.45811692 0.3841154
vt 0.54544324 0.61653394
vt 0.5902254 0.5483945
vt 0.5098397 0.62442
vt 0.48990262 0.6097118
vt 1.6410316 0.32926565
vt 1.6447634 0.43864945
vt 1.725632 0.43864068
vt 1.7219002 0.32925677
vt 1.5846343 0.32927197
vt 1.5883644 0.4386557
vt 1.6447634 0.43864945
vt 1.6410316 0.32926565
vt 1.5227803 0.32927874
vt 1.5265088 0.43866253
vt 1.5883644 0.4386557
vt 1.5846343 0.32927197
vt 1.4751369 0.32928383
vt 1.4788642 0.4386679
vt 1.5265088 0.43866253
vt 1.5227803 0.32927874
vt 1.1995068 0.32931447
vt 1.203233 0.43869838
vt 1.4788642 0.4386679
vt 1.4751369 0.32928383
vt 0.96825755 0.32933998
vt 0.9719833 0.438724
vt 1.203233 0.43869838
vt 1.1995068 0.32931447
vt 2.2493725 0.4046892
vt 2.2862473 0.2953254
vt 2.0988555 0.29511914
vt 2.0619812 0.40448278
vt 1.738542 0.40412593
vt 1.7754112 0.29476205
vt 1.6640271 0.29463893
vt 1.6271564 0.40400296
vt 1.6271564 0.40400296
vt 1.6640271 0.29463893
vt 1.5121112 0.29447165
vt 1.4752369 0.40383518
vt 1.4752369 0.40383518
vt 1.5121112 0.29447165
vt 1.4523969 0.29440558
vt 1.415522 0.40376952
vt 1.8008796 0.40419486
vt 1.8377497 0.29483125
vt 1.7754112 0.29476205
vt 1.738542 0.40412593
vt 2.0137093 0.40442955
vt 2.050583 0.29506576
vt 1.8377497 0.29483125
vt 1.8008796 0.40419486
vt 2.0619812 0.40448278
vt 2.0988555 0.29511914
vt 2.050583 0.29506576
vt 2.0137093 0.40442955
vt 0.5714693 0.5379796
vt 0.4772663 0.58635193
vt 0.45831198 0.5769791
vt 0.5254849 0.45889413
vt 0.41885877 0.46609133
vt 0.49170667 0.4401545
vt 0.54189587 0.4371334
vt 0.43674535 0.36886498
vt 0.45811692 0.3841154
vt 0.54544324 0.61653394
vt 0.5902254 0.5483945
vt 0.5098397 0.62442
vt 0.48990262 0.6097118
vn -0 1 0
vn -0 1 0
vn -0 1 0
vn -0 1 0
vn -0 1 0
vn -0 1 0
vn -0 1 0
vn -0 1 0
vn -0 1 0
vn -0 1 0
vn -0 1 0
vn -0 1 0
vn -0 1 0
vn -0.9897759 -3.7706303E-07 -0.14263168
vn -0.9897759 -3.77063E-07 -0.14263168
vn -0.9897759 -3.7706303E-07 -0.14263168
vn -0.9897759 -3.7706303E-07 -0.14263168
vn -0.76984066 0 0.63823617
vn -0.76984066 0 0.6382361
vn -0.76984066 0 0.6382361
vn -0.76984066 0 0.63823617
vn -0.42395025 1.5331643E-06 0.9056854
vn -0.42395025 1.5331647E-06 0.9056854
vn -0.4239502 1.5331645E-06 0.9056854
vn -0.4239502 1.5331643E-06 0.9056854
vn -0.8688016 7.6162655E-07 0.49516034
vn -0.8688016 7.6162655E-07 0.49516034
vn -0.8688016 7.6162655E-07 0.4951604
vn -0.8688016 7.6162655E-07 0.4951603
vn -0.27735627 -1.5019178E-06 0.96076715
vn -0.2773562 -1.5019178E-06 0.96076715
vn -0.2773562 -1.5019178E-06 0.96076715
vn -0.2773562 -1.5019178E-06 0.96076715
vn 0.25324678 -1.4797803E-06 0.9674017
vn 0.25324678 -1.4797805E-06 0.9674017
vn 0.2532468 -1.4797804E-06 0.9674017
vn 0.25324678 -1.4797804E-06 0.9674017
vn -0.61464846 0 -0.78880113
vn -0.61464846 0 -0.7888012
vn -0.61464846 0 -0.78880113
vn -0.61464846 0 -0.7888012
vn 0.9999422 0 -0.010752837
vn 0.9999422 0 -0.01075284
vn 0.9999422 0 -0.010752837
vn 0.9999422 0 -0.01075284
vn 0.46400875 1.6330299E-07 -0.8858305
vn 0.46400875 1.6330299E-07 -0.8858305
vn 0.46400875 1.6330299E-07 -0.8858305
vn 0.46400875 1.6330299E-07 -0.8858305
vn 0.77975124 3.0155783E-07 -0.6260896
vn 0.77975124 3.0155783E-07 -0.6260896
vn 0.77975124 3.0155783E-07 -0.6260896
vn 0.77975124 3.0155783E-07 -0.6260896
vn -0.66561353 0 -0.7462966
vn -0.66561353 0 -0.7462966
vn -0.66561353 0 -0.7462966
vn -0.66561353 0 -0.7462966
vn 0.45202965 0 -0.89200294
vn 0.45202965 0 -0.89200294
vn 0.45202965 0 -0.89200294
vn 0.45202965 0 -0.89200294
vn 0.8459268 0 -0.533299
vn 0.8459268 0 -0.533299
vn 0.8459268 0 -0.533299
vn 0.8459268 0 -0.533299
vn -0 -1 0
vn -0 -1 0
vn -0 -1 0
vn -0 -1 0
vn -0 -1 0
vn -0 -1 0
vn -0 -1 0
vn -0 -1 0
vn -0 -1 0
vn -0 -1 0
vn -0 -1 0
vn -0 -1 0
vn -0 -1 0
g Stage_Dominating_Theater_CG_Crushed_Ston_C_01_0
f 3/3/3 2/2/2 1/1/1
f 4/4/4 3/3/3 1/1/1
f 2/2/2 3/3/3 5/5/5
f 6/6/6 2/2/2 5/5/5
f 7/7/7 2/2/2 6/6/6
f 6/6/6 5/5/5 8/8/8
f 9/9/9 6/6/6 8/8/8
f 10/10/10 4/4/4 1/1/1
f 11/11/11 10/10/10 1/1/1
f 4/4/4 10/10/10 12/12/12
f 13/13/13 4/4/4 12/12/12
f 16/16/16 15/15/15 14/14/14
f 17/17/17 16/16/16 14/14/14
f 20/20/20 19/19/19 18/18/18
f 21/21/21 20/20/20 18/18/18
f 24/24/24 23/23/23 22/22/22
f 25/25/25 24/24/24 22/22/22
f 28/28/28 27/27/27 26/26/26
f 29/29/29 28/28/28 26/26/26
f 32/32/32 31/31/31 30/30/30
f 33/33/33 32/32/32 30/30/30
f 36/36/36 35/35/35 34/34/34
f 37/37/37 36/36/36 34/34/34
f 40/40/40 39/39/39 38/38/38
f 41/41/41 40/40/40 38/38/38
f 44/44/44 43/43/43 42/42/42
f 45/45/45 44/44/44 42/42/42
f 48/48/48 47/47/47 46/46/46
f 49/49/49 48/48/48 46/46/46
f 52/52/52 51/51/51 50/50/50
f 53/53/53 52/52/52 50/50/50
f 56/56/56 55/55/55 54/54/54
f 57/57/57 56/56/56 54/54/54
f 60/60/60 59/59/59 58/58/58
f 61/61/61 60/60/60 58/58/58
f 64/64/64 63/63/63 62/62/62
f 65/65/65 64/64/64 62/62/62
f 68/68/68 67/67/67 66/66/66
f 69/69/69 68/68/68 66/66/66
f 68/68/68 69/69/69 70/70/70
f 69/69/69 71/71/71 70/70/70
f 69/69/69 72/72/72 71/71/71
f 70/70/70 71/71/71 73/73/73
f 71/71/71 74/74/74 73/73/73
f 67/67/67 75/75/75 66/66/66
f 75/75/75 76/76/76 66/66/66
f 75/75/75 67/67/67 77/77/77
f 67/67/67 78/78/78 77/77/77
