g UnderLight01
v 31619.322 -22235.885 63825.13
v 31619.322 -6304.295 63825.13
v 31753.053 -6304.295 20445.125
v 31753.053 -22235.895 20445.129
v 22885.463 -6304.2876 -4558.505
v 22885.463 -22235.885 -4558.5347
v 22742.604 -22235.875 -13687.524
v 22742.604 -6304.282 -13687.489
v 23143.54 -22235.885 70928.49
v 23143.54 -6304.295 70928.5
v 24247.447 -22235.91 102992.94
v 24247.447 -6304.3047 102992.94
v 109.702614 -22235.9 103458.65
v 109.702614 -6304.3 103458.65
v 109.702614 -29669.094 101626.375
v 22822.217 -29669.1 101797.016
v 21395.227 -29669.104 70292.164
v 29758.803 -29669.104 63825.13
v 30004.742 -29669.12 21081.455
v 21707.707 -29669.104 -3154.9548
v 25964.662 -37102.344 22551.924
v 25459.441 -37102.324 63825.125
v 17355.158 -37102.33 68821.68
v 16312.982 -44535.555 63825.125
v 15335.8125 -44535.555 58283.277
v 19221.377 -37102.324 2376.9849
v 10366.746 -44535.55 51601.27
v 15335.8125 -44535.555 69366.98
v 12522.132 -44535.555 74240.39
v 19528.723 -37102.324 99033.44
v 109.702614 -44535.555 79782.23
v 109.702614 -37102.324 97392.336
v 109.702614 -44535.562 63825.125
v 109.702614 -44535.555 47868.016
v 109.702614 -37102.33 1638.77
v 109.702614 -37102.33 -7986.4746
v 20667.812 -37102.324 -7987.07
v 22115.938 -29669.104 -11965.765
v 109.702614 -22235.875 -13869.8545
v 109.702614 -6304.2847 -13869.814
v 109.702614 9627.3 -13869.824
v 22742.604 9627.303 -13687.5
v 22885.463 9627.301 -4558.515
v 31753.053 9627.3 20445.145
v 31619.312 9627.305 63825.133
v 23143.54 9627.305 70928.5
v 24247.447 9627.292 102992.94
v 109.702614 9627.303 103458.66
v -24028.04 9627.292 102992.94
v -24028.04 -6304.3047 102992.94
v -24028.04 -22235.91 102992.94
v -22924.133 -6304.295 70928.5
v -22924.133 -22235.885 70928.49
v -31399.914 -6304.295 63825.13
v -31399.914 -22235.885 63825.13
v -31533.645 -6304.295 20445.125
v -31533.645 -22235.895 20445.129
v -22666.055 -6304.2876 -4558.505
v -22666.055 -22235.885 -4558.5347
v -22523.197 -22235.875 -13687.524
v -22523.197 -6304.282 -13687.489
v -22602.809 -29669.1 101797.016
v -21175.82 -29669.104 70292.164
v -29539.395 -29669.104 63825.13
v -29785.334 -29669.12 21081.455
v -21488.299 -29669.104 -3154.9548
v -25745.254 -37102.344 22551.924
v -25240.035 -37102.324 63825.125
v -17135.752 -37102.33 68821.68
v -16093.576 -44535.555 63825.125
v -15116.406 -44535.555 58283.277
v -19001.97 -37102.324 2376.9849
v -10147.341 -44535.55 51601.27
v -15116.406 -44535.555 69366.98
v -12302.726 -44535.555 74240.39
v -19309.316 -37102.324 99033.44
v -21896.53 -29669.104 -11965.765
v -20448.406 -37102.324 -7987.07
v -22523.197 9627.303 -13687.5
v -22666.055 9627.301 -4558.515
v -31533.645 9627.3 20445.145
v -31399.904 9627.305 63825.133
v -22924.133 9627.305 70928.5
v 109.702614 -29669.104 -12092.8545
vt 0.2200663 0.2580666
vt 0.2200663 0.3436468
vt 0.1645091 0.3436468
vt 0.1645091 0.2580666
vt 0.08111087 0.3436468
vt 0.08111087 0.2580666
vt 0.025087973 0.2580666
vt 0.025087973 0.3436468
vt 0.2756222 0.2580666
vt 0.2756222 0.3436468
vt 0.3311777 0.2580666
vt 0.3311777 0.3436468
vt 0.4700666 0.2580666
vt 0.4700666 0.3436468
vt 0.4719408 0.1945845
vt 0.3426248 0.1945845
vt 0.2908985 0.1945845
vt 0.2391718 0.1945845
vt 0.1874438 0.1945845
vt 0.10979386 0.19458435
vt 0.2469034 0.1311019
vt 0.2887158 0.1311019
vt 0.3305271 0.1311019
vt 0.3670227 0.0676195
vt 0.3408774 0.0676195
vt 0.18413821 0.1311019
vt 0.30163035 0.0676195
vt 0.3931674 0.0676195
vt 0.4193118 0.0676195
vt 0.372338 0.1311019
vt 0.48467284 0.0676195
vt 0.47686556 0.1311019
vt 0.497732 0.004137125
vt 0.2619983 0.0676195
vt 0.15188809 0.12073684
vt 0.13136645 0.1311019
vt 0.14197549 0.1311019
vt 0.05763238 0.19458435
vt 0.010991391 0.2580666
vt 0.01099139 0.3436468
vt 0.01099139 0.4292271
vt 0.025087973 0.4292271
vt 0.08111087 0.4292271
vt 0.1645091 0.4292271
vt 0.2200663 0.4292271
vt 0.2756222 0.4292271
vt 0.3311777 0.4292271
vt 0.4700666 0.4292271
vt 0.3311777 0.4292271
vt 0.3311777 0.3436468
vt 0.3311777 0.2580666
vt 0.2756222 0.3436468
vt 0.2756222 0.2580666
vt 0.2200663 0.3436468
vt 0.2200663 0.2580666
vt 0.1645091 0.3436468
vt 0.1645091 0.2580666
vt 0.08111087 0.3436468
vt 0.08111087 0.2580666
vt 0.025087973 0.2580666
vt 0.025087973 0.3436468
vt 0.3426248 0.1945845
vt 0.2908985 0.1945845
vt 0.2391718 0.1945845
vt 0.1874438 0.1945845
vt 0.10979386 0.19458435
vt 0.2469034 0.1311019
vt 0.2887158 0.1311019
vt 0.3305271 0.1311019
vt 0.3670227 0.0676195
vt 0.3408774 0.0676195
vt 0.18413821 0.1311019
vt 0.30163035 0.0676195
vt 0.3931674 0.0676195
vt 0.4193118 0.0676195
vt 0.372338 0.1311019
vt 0.05763238 0.19458435
vt 0.14197549 0.1311019
vt 0.025087973 0.4292271
vt 0.08111087 0.4292271
vt 0.1645091 0.4292271
vt 0.2200663 0.4292271
vt 0.2756222 0.4292271
vt 0.04450741 0.19458428
vn 0.9031228 -0.11342303 0.41413093
vn 0.9055281 0 0.4242862
vn 0.9857761 1.7354724E-07 -0.16806376
vn 0.9789792 -0.11605066 -0.16772647
vn 0.984159 0 -0.17728826
vn 0.9836113 -0.0854404 -0.15877266
vn 0.69061434 -0.11785498 -0.7135559
vn 0.7044178 6.1088497E-07 -0.7097855
vn 0.9049779 -0.111726664 0.41052666
vn 0.91332334 0 0.40723523
vn 0.7201752 -0.136227 0.6802866
vn 0.7258375 0 0.6878663
vn -0 -0.100452125 0.9949419
vn -0 0 1
vn -0 -0.31169403 0.95018244
vn 0.6579352 -0.40991464 0.63173676
vn 0.8454647 -0.34657145 0.40629753
vn 0.8423034 -0.3466666 0.4127316
vn 0.9189304 -0.36367503 -0.15266733
vn 0.964381 -0.24483944 -0.10011473
vn 0.6414083 -0.75726455 -0.12306836
vn 0.7213375 -0.5851398 0.37051806
vn 0.79329735 -0.49579194 0.3533688
vn 0.38981313 -0.9039963 0.17560357
vn 0.30174905 -0.9531776 -0.01999991
vn 0.49433783 -0.858457 -0.13668077
vn 0.09929408 -0.9922092 -0.07524367
vn 0.47745264 -0.86254686 0.16748719
vn 0.36338827 -0.9271938 0.0908881
vn 0.47813907 -0.71883047 0.5046442
vn -0 -0.97830373 0.20717596
vn -0 -0.7525957 0.6584828
vn -0 -1 0
vn -0 -0.9956731 -0.09292485
vn -0 -0.9972396 -0.07425016
vn -0 -0.85964406 -0.5108934
vn 0.5618829 -0.74034953 -0.3690124
vn 0.6791253 -0.35062626 -0.64486444
vn -0 -0.11538078 -0.99332136
vn -0 8.631116E-07 -1
vn -0 -6.2761467E-07 -1
vn 0.70441747 -4.454969E-07 -0.70978594
vn 0.984159 0 -0.17728806
vn 0.9857761 2.1324846E-07 -0.16806354
vn 0.9055281 2.3593651E-07 0.42428625
vn 0.91332334 0 0.40723526
vn 0.7258374 -3.3081378E-07 0.68786633
vn -0 -4.7078885E-07 1
vn -0.72583735 -3.3081383E-07 0.6878664
vn -0.7258375 0 0.6878663
vn -0.7201752 -0.13622704 0.6802866
vn -0.91332334 0 0.40723523
vn -0.90497786 -0.11172667 0.41052672
vn -0.9055281 0 0.4242862
vn -0.9031228 -0.11342303 0.41413093
vn -0.9857761 1.7354724E-07 -0.16806376
vn -0.9789792 -0.11605066 -0.16772646
vn -0.984159 0 -0.17728826
vn -0.9836113 -0.0854404 -0.15877266
vn -0.69061434 -0.11785498 -0.7135559
vn -0.70441777 6.1098433E-07 -0.7097856
vn -0.6579352 -0.40991464 0.63173676
vn -0.8454647 -0.34657145 0.4062976
vn -0.8423034 -0.3466666 0.41273165
vn -0.9189304 -0.36367503 -0.15266733
vn -0.964381 -0.2448394 -0.10011473
vn -0.6414083 -0.75726455 -0.12306835
vn -0.7213376 -0.5851397 0.37051812
vn -0.79329735 -0.49579188 0.35336885
vn -0.38981313 -0.9039963 0.17560357
vn -0.30174908 -0.9531776 -0.019999905
vn -0.49433786 -0.85845697 -0.13668077
vn -0.09929408 -0.9922092 -0.07524366
vn -0.47745264 -0.86254674 0.16748716
vn -0.36338833 -0.9271938 0.09088811
vn -0.47813913 -0.7188304 0.50464416
vn -0.67912525 -0.3506262 -0.64486444
vn -0.561883 -0.74034953 -0.36901236
vn -0.70441735 -4.454969E-07 -0.70978594
vn -0.984159 0 -0.17728806
vn -0.9857761 2.1324846E-07 -0.16806354
vn -0.9055281 2.3593651E-07 0.42428625
vn -0.91332334 0 0.40723526
vn -0 -0.35666722 -0.9342315
g UnderLight01_0
f 3/3/3 2/2/2 1/1/1
f 4/4/4 3/3/3 1/1/1
f 5/5/5 3/3/3 4/4/4
f 6/6/6 5/5/5 4/4/4
f 5/5/5 6/6/6 7/7/7
f 8/8/8 5/5/5 7/7/7
f 1/1/1 2/2/2 9/9/9
f 2/2/2 10/10/10 9/9/9
f 9/9/9 10/10/10 11/11/11
f 10/10/10 12/12/12 11/11/11
f 13/13/13 11/11/11 12/12/12
f 14/14/14 13/13/13 12/12/12
f 11/11/11 13/13/13 15/15/15
f 16/16/16 11/11/11 15/15/15
f 11/11/11 16/16/16 9/9/9
f 16/16/16 17/17/17 9/9/9
f 9/9/9 17/17/17 1/1/1
f 17/17/17 18/18/18 1/1/1
f 1/1/1 18/18/18 4/4/4
f 18/18/18 19/19/19 4/4/4
f 19/19/19 20/20/20 6/6/6
f 6/6/6 20/20/20 7/7/7
f 4/4/4 19/19/19 6/6/6
f 19/19/19 18/18/18 21/21/21
f 18/18/18 22/22/22 21/21/21
f 18/18/18 17/17/17 22/22/22
f 17/17/17 23/23/23 22/22/22
f 17/17/17 16/16/16 23/23/23
f 22/22/22 24/24/24 21/21/21
f 22/22/22 23/23/23 24/24/24
f 24/24/24 25/25/25 21/21/21
f 21/21/21 25/25/25 26/26/26
f 19/19/19 21/21/21 26/26/26
f 20/20/20 19/19/19 26/26/26
f 25/25/25 27/27/27 26/26/26
f 23/23/23 28/28/28 24/24/24
f 29/29/29 28/28/28 23/23/23
f 30/30/30 29/29/29 23/23/23
f 31/31/31 29/29/29 30/30/30
f 32/32/32 31/31/31 30/30/30
f 29/29/29 33/33/33 28/28/28
f 24/24/24 33/33/33 25/25/25
f 33/33/33 24/24/24 28/28/28
f 33/33/33 27/27/27 25/25/25
f 33/33/33 29/29/29 31/31/31
f 15/15/15 32/32/32 30/30/30
f 16/16/16 15/15/15 30/30/30
f 16/16/16 30/30/30 23/23/23
f 33/33/33 34/34/34 27/27/27
f 27/27/27 34/34/34 26/26/26
f 34/34/34 35/35/35 26/26/26
f 26/26/26 35/35/35 36/36/36
f 37/37/37 26/26/26 36/36/36
f 26/26/26 37/37/37 38/38/38
f 20/20/20 26/26/26 38/38/38
f 20/20/20 38/38/38 7/7/7
f 7/7/7 38/38/38 39/39/39
f 39/39/39 40/40/40 7/7/7
f 40/40/40 8/8/8 7/7/7
f 40/40/40 41/41/41 8/8/8
f 41/41/41 42/42/42 8/8/8
f 42/42/42 43/43/43 8/8/8
f 43/43/43 5/5/5 8/8/8
f 5/5/5 43/43/43 3/3/3
f 43/43/43 44/44/44 3/3/3
f 3/3/3 44/44/44 2/2/2
f 44/44/44 45/45/45 2/2/2
f 2/2/2 45/45/45 10/10/10
f 45/45/45 46/46/46 10/10/10
f 10/10/10 46/46/46 12/12/12
f 46/46/46 47/47/47 12/12/12
f 14/14/14 12/12/12 47/47/47
f 48/48/48 14/14/14 47/47/47
f 48/48/48 49/49/49 14/14/14
f 49/49/49 50/50/50 14/14/14
f 14/14/14 50/50/50 13/13/13
f 50/50/50 51/51/51 13/13/13
f 50/50/50 52/52/52 51/51/51
f 52/52/52 53/53/53 51/51/51
f 52/52/52 54/54/54 53/53/53
f 54/54/54 55/55/55 53/53/53
f 54/54/54 56/56/56 55/55/55
f 56/56/56 57/57/57 55/55/55
f 56/56/56 58/58/58 57/57/57
f 58/58/58 59/59/59 57/57/57
f 60/60/60 59/59/59 58/58/58
f 61/61/61 60/60/60 58/58/58
f 15/15/15 13/13/13 51/51/51
f 62/62/62 15/15/15 51/51/51
f 62/62/62 51/51/51 53/53/53
f 63/63/63 62/62/62 53/53/53
f 63/63/63 53/53/53 55/55/55
f 64/64/64 63/63/63 55/55/55
f 64/64/64 55/55/55 57/57/57
f 65/65/65 64/64/64 57/57/57
f 65/65/65 57/57/57 59/59/59
f 66/66/66 65/65/65 59/59/59
f 59/59/59 60/60/60 66/66/66
f 64/64/64 65/65/65 67/67/67
f 68/68/68 64/64/64 67/67/67
f 63/63/63 64/64/64 68/68/68
f 69/69/69 63/63/63 68/68/68
f 62/62/62 63/63/63 69/69/69
f 70/70/70 68/68/68 67/67/67
f 69/69/69 68/68/68 70/70/70
f 71/71/71 70/70/70 67/67/67
f 71/71/71 67/67/67 72/72/72
f 65/65/65 66/66/66 72/72/72
f 67/67/67 65/65/65 72/72/72
f 73/73/73 71/71/71 72/72/72
f 74/74/74 69/69/69 70/70/70
f 74/74/74 75/75/75 69/69/69
f 75/75/75 76/76/76 69/69/69
f 15/15/15 62/62/62 76/76/76
f 76/76/76 62/62/62 69/69/69
f 75/75/75 31/31/31 76/76/76
f 31/31/31 32/32/32 76/76/76
f 33/33/33 75/75/75 74/74/74
f 33/33/33 70/70/70 71/71/71
f 70/70/70 33/33/33 74/74/74
f 73/73/73 33/33/33 71/71/71
f 75/75/75 33/33/33 31/31/31
f 32/32/32 15/15/15 76/76/76
f 34/34/34 33/33/33 73/73/73
f 34/34/34 73/73/73 72/72/72
f 66/66/66 77/77/77 72/72/72
f 60/60/60 77/77/77 66/66/66
f 77/77/77 78/78/78 72/72/72
f 78/78/78 36/36/36 72/72/72
f 36/36/36 35/35/35 72/72/72
f 35/35/35 34/34/34 72/72/72
f 60/60/60 39/39/39 77/77/77
f 39/39/39 60/60/60 40/40/40
f 60/60/60 61/61/61 40/40/40
f 40/40/40 61/61/61 41/41/41
f 61/61/61 79/79/79 41/41/41
f 79/79/79 61/61/61 80/80/80
f 61/61/61 58/58/58 80/80/80
f 80/80/80 58/58/58 56/56/56
f 81/81/81 80/80/80 56/56/56
f 81/81/81 56/56/56 54/54/54
f 82/82/82 81/81/81 54/54/54
f 82/82/82 54/54/54 52/52/52
f 83/83/83 82/82/82 52/52/52
f 83/83/83 52/52/52 50/50/50
f 49/49/49 83/83/83 50/50/50
f 38/38/38 84/84/84 39/39/39
f 38/38/38 37/37/37 84/84/84
f 37/37/37 36/36/36 84/84/84
f 84/84/84 36/36/36 78/78/78
f 77/77/77 84/84/84 78/78/78
f 39/39/39 84/84/84 77/77/77
