g Stage_Dominating_Theater01_Platform_04
v -1.1440467 -13.363748 0.26263553
v -2.6045406 -16.885918 0.17040375
v -3.3719778 -16.48161 0.12396827
v -1.4712988 -13.191344 0.24283446
v -1.7770841 -17.14548 0.22060637
v -0.7912008 -13.474433 0.28404307
v -0.43056378 -13.556109 0.3059475
v -0.9313575 -17.337011 0.2719741
v -0.065049306 -17.373175 0.32471493
v -0.06115093 -13.5715275 0.3284373
v 0.30829278 -13.556911 0.35095212
v 0.8013323 -17.338892 0.3775144
v 1.6474528 -17.149193 0.42919916
v 0.6690978 -13.476016 0.3729917
v 1.0221714 -13.366098 0.39458263
v 2.4754434 -16.891426 0.47983196
v 3.2437186 -16.48879 0.5269387
v 1.349781 -13.194407 0.41467
v 1.662424 -12.996685 0.43386573
v 3.9768946 -16.025105 0.5719543
v 4.614961 -15.43697 0.6112723
v 1.9345101 -12.745886 0.45063174
v 2.1854162 -12.47383 0.4661241
v 5.2033587 -14.798967 0.6476032
v 5.667738 -14.065416 0.67645323
v 2.3834367 -12.161027 0.47842637
v 2.555507 -11.833179 0.48915946
v 6.0712566 -13.296572 0.70162326
v 6.3303022 -12.467597 0.7180394
v 2.665969 -11.479681 0.4961596
v 2.7474773 -11.118378 0.50140214
v 6.521445 -11.620309 0.7303335
v 6.557498 -10.752399 0.7331967
v 2.762852 -10.748286 0.5026231
v 2.7482426 -10.378151 0.50201774
v 6.523241 -9.884417 0.7317771
v 6.333852 -9.036719 0.7208924
v 2.6674829 -10.016675 0.49737626
v 2.5577512 -9.662941 0.49096406
v 6.0765224 -8.207176 0.7058556
v 5.6745944 -7.4374623 0.6819648
v 2.3863606 -9.334721 0.48077664
v 2.1889875 -9.021488 0.46899495
v 5.2117343 -6.702904 0.6543356
v 4.624657 -6.063626 0.6190668
v 1.9386437 -8.748886 0.4539555
v 1.6670778 -8.4974985 0.43760708
v 3.9878092 -5.4741087 0.5807281
v 3.2555926 -5.0088334 0.5364849
v 1.3548449 -8.299099 0.4187408
v 1.0275923 -8.126695 0.39893967
v 2.4881542 -4.6045303 0.49004942
v 1.6606979 -4.344967 0.4398468
v 0.6747461 -8.01601 0.3775321
v 0.314109 -7.934333 0.35562775
v 0.814972 -4.153429 0.3884791
v -0.05133617 -4.1172686 0.33573824
v -0.05530327 -7.9189143 0.33313793
v -0.4247474 -7.933531 0.31062305
v -0.9177158 -4.151549 0.2829389
v -1.7638361 -4.341249 0.23125415
v -0.7855514 -8.014426 0.28858358
v -1.1386259 -8.124343 0.26699254
v -2.5918293 -4.599017 0.1806212
v -3.3601024 -5.0016537 0.13351464
v -1.4662349 -8.296034 0.2469053
v -1.7788774 -8.493765 0.22770962
v -4.093279 -5.4653373 0.08849896
v -4.7313447 -6.0534716 0.04918103
v -2.050964 -8.744555 0.21094346
v -2.3018713 -9.016613 0.19545113
v -5.3197465 -6.691473 0.012849917
v -5.7841244 -7.425026 -0.016000068
v -2.4998918 -9.329416 0.18314886
v -2.6719627 -9.657264 0.17241563
v -6.1876426 -8.193869 -0.041170165
v -6.4466887 -9.022844 -0.057586294
v -2.7824247 -10.010761 0.16541556
v -2.8639317 -10.372065 0.1601731
v -6.637833 -9.8701315 -0.06988043
v -6.6738873 -10.738042 -0.07274367
v -2.8793073 -10.742163 0.15895206
v -2.8646991 -11.11229 0.15955746
v -6.639629 -11.606031 -0.07132401
v -6.4502387 -12.453722 -0.06043938
v -2.7839382 -11.473766 0.16419894
v -2.6742098 -11.8275 0.17061085
v -6.1929126 -13.283266 -0.045402627
v -5.7909856 -14.052979 -0.02151194
v -2.5028167 -12.155722 0.18079852
v -2.3054426 -12.468955 0.1925802
v -5.3281226 -14.787541 0.0061173667
v -4.741048 -15.426815 0.04138599
v -2.0551004 -12.741563 0.2076196
v -1.7835339 -12.992944 0.22396801
v -4.104197 -16.016336 0.07972487
vt 0.9971325 2.560561
vt 0.4543055 4.56829
vt 0.9242396 4.650755
vt 1.199461 2.596066
vt 0.006840348 4.40272
vt 0.8044777 2.489275
vt 0.6182321 2.402614
vt -0.4257362 4.201436
vt -0.8151018 3.925695
vt 0.4505918 2.283893
vt 0.2931226 2.15198
vt -1.180844 3.61931
vt -1.485575 3.252191
vt 0.1619216 1.993917
vt 0.0439595 1.825742
vt -1.759555 2.861585
vt -1.958886 2.428103
vt -0.04186261 1.639108
vt -0.1122782 1.446133
vt -2.122435 1.979896
vt -2.20278 1.509595
vt -0.14687 1.243646
vt -0.1649413 1.039022
vt -2.244752 1.03433
vt -2.200636 0.5592598
vt -0.1459471 0.8344812
vt -0.1104414 0.6321522
vt -2.118169 0.0893259
vt -1.952601 -0.3581392
vt -0.03915608 0.439497
vt 0.04750645 0.2532518
vt -1.751317 -0.7907165
vt -1.475575 -1.180081
vt 0.1662261 0.0856117
vt 0.2981393 -0.07185769
vt -1.169192 -1.545823
vt -0.8020718 -1.850554
vt 0.4562016 -0.2030593
vt 0.6243767 -0.3210203
vt -0.4114661 -2.124535
vt 0.0220145 -2.323865
vt 0.8110108 -0.4068422
vt 1.003985 -0.477258
vt 0.4702221 -2.487414
vt 0.9405241 -2.56776
vt 1.206473 -0.5118505
vt 1.411097 -0.5299209
vt 1.415788 -2.609732
vt 1.890859 -2.565616
vt 1.615638 -0.5109277
vt 1.817966 -0.4754221
vt 2.360793 -2.48315
vt 2.808258 -2.31758
vt 2.010622 -0.4041362
vt 2.196867 -0.3174735
vt 3.240836 -2.116298
vt 3.630201 -1.840556
vt 2.364508 -0.1987548
vt 2.521977 -0.06684113
vt 3.995943 -1.534172
vt 4.300673 -1.167053
vt 2.653179 0.09122109
vt 2.771141 0.2593956
vt 4.574655 -0.7764465
vt 4.773984 -0.3429657
vt 2.856962 0.4460299
vt 2.927378 0.6390046
vt 4.937534 0.1052414
vt 5.017879 0.5755423
vt 2.961969 0.8414922
vt 2.980042 1.046116
vt 5.059853 1.050808
vt 5.015736 1.525878
vt 2.961047 1.250657
vt 2.925543 1.452986
vt 4.933269 1.995812
vt 4.7677 2.443277
vt 2.854257 1.645641
vt 2.767594 1.831886
vt 4.566417 2.875854
vt 4.290675 3.26522
vt 2.648875 1.999527
vt 2.516962 2.156996
vt 3.984292 3.630962
vt 3.617172 3.935692
vt 2.358899 2.288197
vt 2.190725 2.40616
vt 3.226568 4.209674
vt 2.793087 4.409005
vt 2.00409 2.491981
vt 1.811114 2.562396
vt 2.344879 4.572554
vt 1.874578 4.6529
vt 1.608627 2.596989
vt 1.404003 2.61506
vt 1.399312 4.694871
vn -0.060858954 -0.0010662078 0.9981458
vn -0.060832262 -0.0010662079 0.9981475
vn -0.060912132 -0.0010681152 0.9981426
vn -0.060885668 -0.0008535385 0.9981444
vn -0.060858954 -0.0010662078 0.9981458
vn -0.060832553 -0.0010671614 0.99814737
vn -0.06081271 -0.0008535385 0.9981488
vn -0.060818903 -0.0010662078 0.9981482
vn -0.06080064 -0.0010662079 0.9981494
vn -0.060801692 -0.00085353863 0.9981495
vn -0.0607824 -0.00085353863 0.99815065
vn -0.06076557 -0.001066208 0.9981515
vn -0.060752265 -0.0010662078 0.9981523
vn -0.06076556 -0.00085353845 0.9981517
vn -0.060752388 -0.0010671614 0.9981523
vn -0.060725935 -0.001066208 0.99815387
vn -0.060699467 -0.0008544923 0.99815565
vn -0.06075227 -0.0008535385 0.99815243
vn -0.06067241 -0.0008544923 0.9981573
vn -0.060699224 -0.0010681152 0.99815553
vn -0.06075239 -0.0010671616 0.9981523
vn -0.0606991 -0.0010662078 0.99815553
vn -0.06067204 -0.00074577326 0.99815744
vn -0.06069947 -0.0006408692 0.9981559
vn -0.060698982 -0.00085353845 0.9981558
vn -0.06064606 -0.000746727 0.9981591
vn -0.060619596 -0.0007457734 0.99816066
vn -0.06069851 -0.0008535385 0.9981558
vn -0.060592663 -0.00074672716 0.9981623
vn -0.06061912 -0.000746727 0.99816066
vn -0.060646053 -0.0007467269 0.9981591
vn -0.06059266 -0.0007467271 0.9981623
vn -0.06059265 -0.00085258484 0.9981622
vn -0.060645822 -0.0007457734 0.9981591
vn -0.06064606 -0.0007457733 0.9981591
vn -0.0605917 -0.0007467271 0.9981623
vn -0.060698513 -0.00074672705 0.9981559
vn -0.060646065 -0.0007467271 0.9981591
vn -0.060672756 -0.0006399154 0.99815744
vn -0.060699474 -0.0006399156 0.9981559
vn -0.060698994 -0.0006403924 0.9981559
vn -0.06067205 -0.00063991547 0.99815756
vn -0.060672525 -0.0007457734 0.99815744
vn -0.060698513 -0.0006408692 0.9981559
vn -0.060699932 -0.0006408691 0.9981559
vn -0.0606991 -0.0008525848 0.9981558
vn -0.060699116 -0.0006408693 0.9981559
vn -0.060698755 -0.0006403924 0.9981559
vn -0.060698994 -0.0006403924 0.9981559
vn -0.06073892 -0.00074672705 0.9981534
vn -0.060752332 -0.00074672705 0.99815255
vn -0.060752146 -0.000693798 0.99815255
vn -0.06077922 -0.0006933213 0.998151
vn -0.0607658 -0.00074672693 0.9981517
vn -0.060775753 -0.00063991547 0.99815124
vn -0.060779277 -0.00058650976 0.998151
vn -0.060798388 -0.0006928444 0.9981499
vn -0.060799196 -0.00074672705 0.99814975
vn -0.06081894 -0.0005335808 0.9981487
vn -0.060818907 -0.00058650965 0.9981487
vn -0.06085897 -0.0005869866 0.9981462
vn -0.06084573 -0.00074672693 0.9981469
vn -0.060845844 -0.0008525847 0.9981468
vn -0.06083249 -0.00069284433 0.9981477
vn -0.060859203 -0.00058698654 0.9981462
vn -0.060872316 -0.000746727 0.9981452
vn -0.060912378 -0.0006399155 0.99814296
vn -0.060912125 -0.0006399154 0.99814296
vn -0.060912136 -0.0006933212 0.99814296
vn -0.060885906 -0.00063991547 0.9981445
vn -0.060912617 -0.0006399155 0.99814296
vn -0.06085921 -0.0006399155 0.9981462
vn -0.060912136 -0.00063991547 0.99814296
vn -0.06093908 -0.0006399155 0.9981413
vn -0.06093932 -0.0006399155 0.9981413
vn -0.06091261 -0.000746727 0.99814284
vn -0.060912132 -0.00074672705 0.99814284
vn -0.06096579 -0.00074672716 0.9981396
vn -0.06096578 -0.0007457734 0.9981396
vn -0.060913086 -0.00085258484 0.9981427
vn -0.061018944 -0.000746727 0.9981363
vn -0.060939316 -0.00074672705 0.99814117
vn -0.06093908 -0.00085353863 0.99814117
vn -0.061019424 -0.00074672705 0.9981363
vn -0.06101894 -0.00085353845 0.9981363
vn -0.06096555 -0.0007467271 0.9981396
vn -0.06093931 -0.00074672693 0.99814117
vn -0.060859676 -0.00085353845 0.99814594
vn -0.060806274 -0.0008535385 0.9981493
vn -0.06091261 -0.0007457733 0.99814284
vn -0.060939312 -0.000746727 0.99814117
vn -0.06091261 -0.00064086914 0.99814296
vn -0.06085872 -0.0010662078 0.9981458
vn -0.06088614 -0.0010671614 0.99814415
vn -0.06088555 -0.0008535385 0.9981444
vn -0.060912613 -0.00085449225 0.9981427
g Stage_Dominating_Theater01_Platform_04_0
f 3/3/3 2/2/2 1/1/1
f 4/4/4 3/3/3 1/1/1
f 1/1/1 2/2/2 5/5/5
f 6/6/6 1/1/1 5/5/5
f 6/6/6 5/5/5 7/7/7
f 5/5/5 8/8/8 7/7/7
f 7/7/7 8/8/8 9/9/9
f 10/10/10 7/7/7 9/9/9
f 10/10/10 9/9/9 11/11/11
f 9/9/9 12/12/12 11/11/11
f 11/11/11 12/12/12 13/13/13
f 14/14/14 11/11/11 13/13/13
f 14/14/14 13/13/13 15/15/15
f 13/13/13 16/16/16 15/15/15
f 15/15/15 16/16/16 17/17/17
f 18/18/18 15/15/15 17/17/17
f 18/18/18 17/17/17 19/19/19
f 17/17/17 20/20/20 19/19/19
f 19/19/19 20/20/20 21/21/21
f 22/22/22 19/19/19 21/21/21
f 22/22/22 21/21/21 23/23/23
f 21/21/21 24/24/24 23/23/23
f 23/23/23 24/24/24 25/25/25
f 26/26/26 23/23/23 25/25/25
f 26/26/26 25/25/25 27/27/27
f 25/25/25 28/28/28 27/27/27
f 27/27/27 28/28/28 29/29/29
f 30/30/30 27/27/27 29/29/29
f 30/30/30 29/29/29 31/31/31
f 29/29/29 32/32/32 31/31/31
f 31/31/31 32/32/32 33/33/33
f 34/34/34 31/31/31 33/33/33
f 34/34/34 33/33/33 35/35/35
f 33/33/33 36/36/36 35/35/35
f 35/35/35 36/36/36 37/37/37
f 38/38/38 35/35/35 37/37/37
f 38/38/38 37/37/37 39/39/39
f 37/37/37 40/40/40 39/39/39
f 39/39/39 40/40/40 41/41/41
f 42/42/42 39/39/39 41/41/41
f 42/42/42 41/41/41 43/43/43
f 41/41/41 44/44/44 43/43/43
f 43/43/43 44/44/44 45/45/45
f 46/46/46 43/43/43 45/45/45
f 46/46/46 45/45/45 47/47/47
f 45/45/45 48/48/48 47/47/47
f 47/47/47 48/48/48 49/49/49
f 50/50/50 47/47/47 49/49/49
f 50/50/50 49/49/49 51/51/51
f 49/49/49 52/52/52 51/51/51
f 51/51/51 52/52/52 53/53/53
f 54/54/54 51/51/51 53/53/53
f 54/54/54 53/53/53 55/55/55
f 53/53/53 56/56/56 55/55/55
f 55/55/55 56/56/56 57/57/57
f 58/58/58 55/55/55 57/57/57
f 58/58/58 57/57/57 59/59/59
f 57/57/57 60/60/60 59/59/59
f 59/59/59 60/60/60 61/61/61
f 62/62/62 59/59/59 61/61/61
f 62/62/62 61/61/61 63/63/63
f 61/61/61 64/64/64 63/63/63
f 63/63/63 64/64/64 65/65/65
f 66/66/66 63/63/63 65/65/65
f 66/66/66 65/65/65 67/67/67
f 65/65/65 68/68/68 67/67/67
f 67/67/67 68/68/68 69/69/69
f 70/70/70 67/67/67 69/69/69
f 70/70/70 69/69/69 71/71/71
f 69/69/69 72/72/72 71/71/71
f 71/71/71 72/72/72 73/73/73
f 74/74/74 71/71/71 73/73/73
f 74/74/74 73/73/73 75/75/75
f 73/73/73 76/76/76 75/75/75
f 75/75/75 76/76/76 77/77/77
f 78/78/78 75/75/75 77/77/77
f 78/78/78 77/77/77 79/79/79
f 77/77/77 80/80/80 79/79/79
f 79/79/79 80/80/80 81/81/81
f 82/82/82 79/79/79 81/81/81
f 82/82/82 81/81/81 83/83/83
f 81/81/81 84/84/84 83/83/83
f 83/83/83 84/84/84 85/85/85
f 86/86/86 83/83/83 85/85/85
f 86/86/86 85/85/85 87/87/87
f 85/85/85 88/88/88 87/87/87
f 87/87/87 88/88/88 89/89/89
f 90/90/90 87/87/87 89/89/89
f 90/90/90 89/89/89 91/91/91
f 89/89/89 92/92/92 91/91/91
f 91/91/91 92/92/92 93/93/93
f 94/94/94 91/91/91 93/93/93
f 94/94/94 93/93/93 95/95/95
f 93/93/93 96/96/96 95/95/95
f 95/95/95 96/96/96 3/3/3
f 4/4/4 95/95/95 3/3/3
